<svg width="77" height="60" viewBox="0 0 77 60" fill="none" xmlns="http://www.w3.org/2000/svg">
<circle cx="38" cy="30" r="30" fill="url(#paint0_linear_4_1978)"/>
<rect x="3" y="44" width="70" height="16" rx="8" fill="url(#paint1_linear_4_1978)"/>
<path d="M40.9705 35.7079L44.1987 6.32324H20.9404L24.1686 35.7079H40.9705Z" fill="#6D529F"/>
<path d="M39.6987 40.9799H25.4407L25.0791 35.7941H40.0602L39.6987 40.9799Z" fill="#A5BA6B"/>
<path d="M38.3336 29.312L40.2929 11.4777H24.8462L26.8054 29.312H38.3336Z" fill="#E3A9ED"/>
<path d="M53.2003 21.693H38.3542V29.6724H53.2003V21.693Z" fill="#FF728B"/>
<path d="M59.0594 33.1839C59.0594 37.8743 56.8275 41.6767 52.1372 41.6767H39.4171C34.7266 41.6767 32.4949 37.8743 32.4949 33.1839C32.4949 28.4934 34.7267 24.691 39.4171 24.691H52.1371C56.8275 24.691 59.0594 28.4934 59.0594 33.1839Z" fill="#A67CAB"/>
<path d="M45.7768 38.0072C50.2928 38.0072 53.9537 35.8816 53.9537 33.2595C53.9537 30.6374 50.2928 28.5117 45.7768 28.5117C41.2609 28.5117 37.6 30.6374 37.6 33.2595C37.6 35.8816 41.2609 38.0072 45.7768 38.0072Z" fill="#FFA6B7"/>
<path d="M58.1115 26.6169C57.107 25.2676 55.7556 24.3761 54.1407 23.9822V22.6332H54.3415C54.861 22.6332 55.2821 22.2121 55.2821 21.6926C55.2821 21.1732 54.861 20.7521 54.3415 20.7521H53.2001H43.5598L45.1336 6.42589C45.1627 6.16019 45.0776 5.89457 44.8991 5.6955C44.7207 5.49636 44.466 5.38269 44.1987 5.38269H20.9405C20.6732 5.38269 20.4185 5.49636 20.2401 5.6955C20.0616 5.89464 19.9765 6.16011 20.0056 6.42589L23.2337 35.8107C23.2862 36.2875 23.689 36.6486 24.1686 36.6486H24.1958L24.5023 41.0453C24.5366 41.5382 24.9465 41.9205 25.4405 41.9205H36.0832C37.0709 42.3804 38.1906 42.6173 39.417 42.6173H52.1371C54.6495 42.6173 56.7155 41.626 58.1115 39.751C59.3469 38.0918 60 35.8209 60 33.184C60 30.5471 59.3469 28.2761 58.1115 26.6169ZM37.2126 22.6331H37.4134V23.9821C35.7986 24.3761 34.4471 25.2676 33.4426 26.6168C33.0511 27.1428 32.7185 27.7305 32.4462 28.3714H27.6484L26.9232 21.7704H30.7297C31.2491 21.7704 31.6702 21.3493 31.6702 20.8299C31.6702 20.3104 31.2491 19.8893 30.7297 19.8893H26.7165L26.4065 17.0678H32.6106C33.1301 17.0678 33.5512 16.6467 33.5512 16.1272C33.5512 15.6078 33.1301 15.1867 32.6106 15.1867H26.1998L25.8957 12.418H39.2434L38.328 20.7518H37.2126C36.6931 20.7518 36.272 21.1729 36.272 21.6924C36.272 22.2118 36.6931 22.6331 37.2126 22.6331ZM31.9698 29.7792C31.9737 29.7647 31.9776 29.7502 31.9814 29.7357C31.9776 29.7502 31.9737 29.7647 31.9698 29.7792ZM32.1006 29.3224C32.1079 29.2989 32.115 29.2753 32.1224 29.2519C32.115 29.2753 32.108 29.2989 32.1006 29.3224ZM32.2519 28.871C32.2606 28.8469 32.2688 28.8222 32.2777 28.7982C32.2687 28.8222 32.2605 28.8468 32.2519 28.871ZM39.2945 22.6331H52.2598V23.752C52.219 23.7514 52.1783 23.7505 52.1372 23.7505H39.4171C39.376 23.7505 39.3354 23.7514 39.2945 23.752V22.6331ZM21.99 7.26371H43.1492L41.6674 20.7521H40.2203L41.2279 11.5804C41.257 11.3147 41.1719 11.0491 40.9934 10.85C40.815 10.6509 40.5603 10.5372 40.293 10.5372H24.8462C24.579 10.5372 24.3243 10.6509 24.1459 10.85C23.9674 11.0492 23.8823 11.3146 23.9114 11.5804L25.8706 29.4146C25.923 29.8915 26.3259 30.2525 26.8055 30.2525H31.8559C31.6572 31.1631 31.5542 32.1444 31.5542 33.1838C31.5542 33.7283 31.5837 34.2563 31.6387 34.7673H25.0116L21.99 7.26371ZM26.0874 36.7346H32.0087C32.3263 37.8794 32.8067 38.8967 33.4426 39.7509C33.5162 39.8497 33.5921 39.9455 33.6693 40.0394H26.3178L26.0874 36.7346ZM52.1371 40.7361H39.4171C33.8667 40.7361 33.4354 34.9555 33.4354 33.1839C33.4354 31.4122 33.8667 25.6316 39.4171 25.6316H52.1372C57.6876 25.6316 58.119 31.4121 58.119 33.1839C58.1189 34.9556 57.6875 40.7361 52.1371 40.7361Z" fill="black"/>
<path d="M35.4318 17.0682C35.3706 17.0682 35.3095 17.0617 35.2483 17.0494C35.1882 17.0371 35.1289 17.0193 35.0725 16.9958C35.016 16.9723 34.9614 16.9431 34.9097 16.9092C34.8589 16.8754 34.81 16.8359 34.7668 16.7926C34.7235 16.7493 34.684 16.7004 34.6501 16.6496C34.6163 16.5979 34.5871 16.5434 34.5636 16.4869C34.54 16.4305 34.5221 16.3712 34.51 16.311C34.4977 16.2499 34.4921 16.1888 34.4921 16.1276C34.4921 16.0655 34.4977 16.0044 34.51 15.9432C34.5222 15.8831 34.54 15.8238 34.5636 15.7674C34.5871 15.711 34.6162 15.6563 34.6501 15.6046C34.6839 15.5538 34.7235 15.5059 34.7668 15.4617C34.81 15.4184 34.8589 15.3799 34.9097 15.345C34.9614 15.3112 35.016 15.282 35.0725 15.2585C35.1289 15.2349 35.1882 15.2171 35.2483 15.2049C35.3696 15.1804 35.4947 15.1804 35.6161 15.2049C35.6762 15.2171 35.7355 15.2349 35.7919 15.2585C35.8483 15.282 35.9029 15.3111 35.9546 15.345C36.0054 15.3798 36.0534 15.4184 36.0976 15.4617C36.1409 15.5059 36.1794 15.5538 36.2143 15.6046C36.2481 15.6563 36.2773 15.7109 36.3008 15.7674C36.3243 15.8238 36.3422 15.8831 36.3544 15.9432C36.3667 16.0044 36.3723 16.0655 36.3723 16.1276C36.3723 16.1888 36.3667 16.2499 36.3544 16.311C36.3421 16.3712 36.3243 16.4305 36.3008 16.4869C36.2773 16.5433 36.2482 16.5979 36.2143 16.6496C36.1795 16.7004 36.1409 16.7493 36.0976 16.7926C36.0534 16.8359 36.0054 16.8753 35.9546 16.9092C35.9029 16.9431 35.8484 16.9723 35.7919 16.9958C35.7354 17.0193 35.6762 17.0372 35.6161 17.0494C35.555 17.0617 35.4939 17.0682 35.4318 17.0682Z" fill="black"/>
<path d="M45.7772 27.5709C40.6645 27.5709 36.6595 30.0697 36.6595 33.2597C36.6595 36.4497 40.6645 38.9484 45.7772 38.9484C50.8899 38.9484 54.8949 36.4497 54.8949 33.2597C54.8948 30.0697 50.8899 27.5709 45.7772 27.5709ZM51.087 35.8038C49.6837 36.6187 47.798 37.0674 45.777 37.0674C43.7561 37.0674 41.8704 36.6187 40.4671 35.8038C39.9455 35.5008 39.168 34.9517 38.7795 34.2001H46.3307C46.8502 34.2001 47.2713 33.779 47.2713 33.2596C47.2713 32.7401 46.8502 32.319 46.3307 32.319H38.7795C39.168 31.5675 39.9456 31.0183 40.4671 30.7155C41.8704 29.9006 43.7561 29.4519 45.777 29.4519C47.798 29.4519 49.6837 29.9006 51.087 30.7155C51.8066 31.1333 53.0137 32.0195 53.0137 33.2596C53.0137 34.4998 51.8066 35.3859 51.087 35.8038Z" fill="black"/>
<path d="M49.1521 34.1997C49.0909 34.1997 49.0288 34.1941 48.9686 34.1818C48.9084 34.1697 48.8492 34.1518 48.7928 34.1282C48.7354 34.1047 48.6808 34.0756 48.63 34.0417C48.5783 34.0069 48.5303 33.9674 48.4871 33.9241C48.4438 33.8808 48.4043 33.8329 48.3704 33.7811C48.3366 33.7304 48.3074 33.6758 48.2838 33.6193C48.2603 33.562 48.2424 33.5036 48.2303 33.4435C48.218 33.3823 48.2114 33.3212 48.2114 33.2591C48.2114 33.1979 48.218 33.1359 48.2303 33.0757C48.2424 33.0154 48.2603 32.9562 48.2838 32.8998C48.3074 32.8434 48.3365 32.7879 48.3704 32.7371C48.4042 32.6854 48.4438 32.6374 48.4871 32.5941C48.5303 32.5508 48.5783 32.5114 48.63 32.4775C48.6808 32.4436 48.7353 32.4144 48.7928 32.3909C48.8492 32.3674 48.9085 32.3495 48.9686 32.3373C49.0899 32.3129 49.215 32.3129 49.3363 32.3373C49.3956 32.3495 49.4549 32.3674 49.5122 32.3909C49.5686 32.4144 49.6232 32.4436 49.674 32.4775C49.7257 32.5113 49.7737 32.5508 49.817 32.5941C49.8603 32.6374 49.8997 32.6854 49.9346 32.7371C49.9684 32.7879 49.9976 32.8433 50.0211 32.8998C50.0446 32.9562 50.0625 33.0155 50.0747 33.0757C50.087 33.1358 50.0926 33.1979 50.0926 33.2591C50.0926 33.3212 50.087 33.3823 50.0747 33.4435C50.0625 33.5037 50.0446 33.562 50.0211 33.6193C49.9976 33.6757 49.9685 33.7304 49.9346 33.7811C49.8998 33.8329 49.8603 33.8808 49.817 33.9241C49.7737 33.9674 49.7257 34.0068 49.674 34.0417C49.6232 34.0755 49.5687 34.1047 49.5122 34.1282C49.4549 34.1518 49.3956 34.1697 49.3363 34.1818C49.2753 34.1941 49.2142 34.1997 49.1521 34.1997Z" fill="black"/>
<path d="M33.5508 21.7707C33.4896 21.7707 33.4285 21.7642 33.3673 21.7519C33.3072 21.7396 33.2479 21.7218 33.1915 21.6983C33.1351 21.6748 33.0795 21.6457 33.0287 21.6118C32.977 21.5779 32.9291 21.5384 32.8858 21.4951C32.8425 21.4518 32.803 21.4029 32.7691 21.3521C32.7353 21.3004 32.7061 21.2459 32.6826 21.1894C32.6591 21.133 32.6412 21.0737 32.629 21.0135C32.6167 20.9524 32.6111 20.8913 32.6111 20.8301C32.6111 20.768 32.6167 20.7069 32.629 20.6457C32.6412 20.5856 32.6591 20.5272 32.6826 20.4699C32.7061 20.4135 32.7352 20.3589 32.7691 20.3081C32.803 20.2564 32.8425 20.2084 32.8858 20.1651C32.9291 20.1209 32.977 20.0824 33.0287 20.0475C33.0795 20.0137 33.135 19.9845 33.1915 19.961C33.248 19.9375 33.3072 19.9196 33.3673 19.9074C33.4887 19.8829 33.6137 19.8829 33.7351 19.9074C33.7952 19.9196 33.8545 19.9375 33.9109 19.961C33.9673 19.9845 34.0219 20.0136 34.0737 20.0475C34.1244 20.0823 34.1724 20.1209 34.2166 20.1651C34.2599 20.2084 34.2984 20.2564 34.3333 20.3081C34.3671 20.3589 34.3963 20.4134 34.4198 20.4699C34.4434 20.5272 34.4612 20.5856 34.4734 20.6457C34.4857 20.7069 34.4923 20.768 34.4923 20.8301C34.4923 20.8913 34.4857 20.9524 34.4734 21.0135C34.4612 21.0737 34.4434 21.133 34.4198 21.1894C34.3963 21.2458 34.3672 21.3004 34.3333 21.3521C34.2985 21.4029 34.2599 21.4518 34.2166 21.4951C34.1724 21.5384 34.1244 21.5778 34.0737 21.6118C34.0219 21.6456 33.9674 21.6748 33.9109 21.6983C33.8545 21.7218 33.7952 21.7397 33.7351 21.7519C33.674 21.7642 33.6129 21.7707 33.5508 21.7707Z" fill="black"/>
<path d="M16.8051 52.93C16.8051 52.4633 16.9051 51.99 17.1051 51.51C17.3051 51.0233 17.5884 50.5733 17.9551 50.16C18.3217 49.7467 18.7984 49.41 19.3851 49.15C19.9784 48.8833 20.5884 48.75 21.2151 48.75C21.8484 48.75 22.3417 48.8667 22.6951 49.1C23.0551 49.3333 23.2351 49.6567 23.2351 50.07C23.2351 50.4833 23.0984 50.8067 22.8251 51.04C22.5584 51.2667 22.2517 51.38 21.9051 51.38C21.5584 51.38 21.2451 51.3067 20.9651 51.16C20.6917 51.0067 20.4717 50.79 20.3051 50.51C19.9451 50.6833 19.6351 51.0233 19.3751 51.53C19.1151 52.0367 18.9851 52.5467 18.9851 53.06C18.9851 53.5667 19.0684 53.97 19.2351 54.27C19.4017 54.5633 19.6384 54.71 19.9451 54.71C20.2517 54.71 20.5217 54.5533 20.7551 54.24C20.9951 53.9267 21.1151 53.55 21.1151 53.11C21.7884 53.11 22.2684 53.1633 22.5551 53.27C22.8484 53.3767 22.9951 53.6067 22.9951 53.96C22.9951 54.5133 22.6951 55.0333 22.0951 55.52C21.4951 56.0067 20.7417 56.25 19.8351 56.25C18.9284 56.25 18.1951 55.97 17.6351 55.41C17.0817 54.85 16.8051 54.0233 16.8051 52.93ZM27.5012 54.77L27.4012 54.72C27.2212 55.2 26.9612 55.5767 26.6212 55.85C26.2879 56.1167 25.9146 56.25 25.5012 56.25C24.9346 56.25 24.4812 56.0367 24.1412 55.61C23.8012 55.1833 23.6312 54.6133 23.6312 53.9C23.6312 52.7933 24.0012 51.8667 24.7412 51.12C25.4879 50.3733 26.4146 50 27.5212 50C27.8079 50 28.0712 50.0267 28.3112 50.08C28.3512 50.2667 28.3746 50.43 28.3812 50.57C28.7146 50.3567 29.0579 50.25 29.4112 50.25C29.8979 50.25 30.1412 50.5133 30.1412 51.04C30.1412 51.2267 30.0346 51.79 29.8212 52.73C29.6146 53.67 29.5112 54.3667 29.5112 54.82C29.5112 55.2733 29.6146 55.5867 29.8212 55.76C29.4479 56.0867 29.0579 56.25 28.6512 56.25C28.2512 56.25 27.9579 56.13 27.7712 55.89C27.5912 55.65 27.5012 55.2767 27.5012 54.77ZM25.5112 53.41C25.5112 53.7367 25.5779 53.99 25.7112 54.17C25.8512 54.3433 26.0479 54.43 26.3012 54.43C26.5546 54.43 26.8046 54.3367 27.0512 54.15C27.2979 53.9633 27.5046 53.7067 27.6712 53.38C27.7312 52.7067 27.8612 51.91 28.0612 50.99C27.3879 50.99 26.7946 51.2333 26.2812 51.72C25.7679 52.2067 25.5112 52.77 25.5112 53.41ZM31.1645 52.39C31.1179 52.2033 31.0945 52.03 31.0945 51.87C31.0945 51.5433 31.1912 51.2967 31.3845 51.13C31.5779 50.9633 31.8279 50.88 32.1345 50.88C32.1345 50.5333 32.0445 50.1567 31.8645 49.75C32.1912 49.51 32.4879 49.33 32.7545 49.21C33.0279 49.0833 33.3145 49.02 33.6145 49.02C33.9145 49.02 34.1212 49.0767 34.2345 49.19C34.3545 49.2967 34.4145 49.4633 34.4145 49.69C34.4145 49.9167 34.3679 50.27 34.2745 50.75C34.5412 50.71 34.8112 50.6533 35.0845 50.58C35.1312 50.72 35.1545 50.9 35.1545 51.12C35.1545 51.34 35.0679 51.5467 34.8945 51.74C34.7279 51.9267 34.4812 52.02 34.1545 52.02H34.0045C33.7645 53.1067 33.6445 53.9433 33.6445 54.53C33.6445 55.1167 33.7479 55.5267 33.9545 55.76C33.5812 56.0867 33.1845 56.25 32.7645 56.25C32.3445 56.25 32.0412 56.1267 31.8545 55.88C31.6745 55.6267 31.5845 55.2367 31.5845 54.71C31.5845 54.39 31.7012 53.55 31.9345 52.19C31.6679 52.2367 31.4112 52.3033 31.1645 52.39ZM39.4204 54.77L39.3204 54.72C39.1404 55.2 38.8804 55.5767 38.5404 55.85C38.2071 56.1167 37.8337 56.25 37.4204 56.25C36.8537 56.25 36.4004 56.0367 36.0604 55.61C35.7204 55.1833 35.5504 54.6133 35.5504 53.9C35.5504 52.7933 35.9204 51.8667 36.6604 51.12C37.4071 50.3733 38.3337 50 39.4404 50C39.7271 50 39.9904 50.0267 40.2304 50.08C40.2704 50.2667 40.2937 50.43 40.3004 50.57C40.6337 50.3567 40.9771 50.25 41.3304 50.25C41.8171 50.25 42.0604 50.5133 42.0604 51.04C42.0604 51.2267 41.9537 51.79 41.7404 52.73C41.5337 53.67 41.4304 54.3667 41.4304 54.82C41.4304 55.2733 41.5337 55.5867 41.7404 55.76C41.3671 56.0867 40.9771 56.25 40.5704 56.25C40.1704 56.25 39.8771 56.13 39.6904 55.89C39.5104 55.65 39.4204 55.2767 39.4204 54.77ZM37.4304 53.41C37.4304 53.7367 37.4971 53.99 37.6304 54.17C37.7704 54.3433 37.9671 54.43 38.2204 54.43C38.4737 54.43 38.7237 54.3367 38.9704 54.15C39.2171 53.9633 39.4237 53.7067 39.5904 53.38C39.6504 52.7067 39.7804 51.91 39.9804 50.99C39.3071 50.99 38.7137 51.2333 38.2004 51.72C37.6871 52.2067 37.4304 52.77 37.4304 53.41ZM43.9037 49.78L43.3437 48.98C44.177 48.4933 44.8337 48.25 45.3137 48.25C45.587 48.25 45.7803 48.3067 45.8937 48.42C46.007 48.5267 46.0637 48.7333 46.0637 49.04C46.0637 49.34 45.9137 50.1933 45.6137 51.6C45.3203 53.0067 45.1737 53.9933 45.1737 54.56C45.1737 55.1267 45.277 55.5267 45.4837 55.76C45.017 56.0867 44.5937 56.25 44.2137 56.25C43.8337 56.25 43.5537 56.1267 43.3737 55.88C43.2003 55.6267 43.1137 55.28 43.1137 54.84C43.1137 54.4 43.237 53.5 43.4837 52.14C43.7303 50.78 43.8703 49.9933 43.9037 49.78ZM51.5413 50.76C51.9147 50.76 52.2347 50.91 52.5013 51.21C52.7747 51.51 52.9113 51.9467 52.9113 52.52C52.9113 53.0867 52.8113 53.6133 52.6113 54.1C52.4113 54.58 52.148 54.9733 51.8213 55.28C51.4947 55.5867 51.1247 55.8267 50.7113 56C50.298 56.1667 49.8747 56.25 49.4413 56.25C48.568 56.25 47.878 56.01 47.3713 55.53C46.8647 55.05 46.6113 54.4133 46.6113 53.62C46.6113 52.5467 46.9547 51.6767 47.6413 51.01C48.3347 50.3367 49.2147 50 50.2813 50C50.5213 50 50.7613 50.0267 51.0013 50.08C51.0747 50.3 51.1147 50.55 51.1213 50.83C51.2613 50.7833 51.4013 50.76 51.5413 50.76ZM50.3113 52.15C50.3113 51.9633 50.3547 51.7533 50.4413 51.52C50.5347 51.2867 50.6813 51.1 50.8813 50.96C50.0013 51.1467 49.3947 51.5033 49.0613 52.03C48.7747 52.4833 48.6313 52.95 48.6313 53.43C48.6313 53.91 48.728 54.2967 48.9213 54.59C49.1213 54.8767 49.3747 55.02 49.6813 55.02C50.3613 55.02 50.8413 54.5767 51.1213 53.69C50.5813 53.3567 50.3113 52.8433 50.3113 52.15ZM55.5998 53.2C55.5998 53.54 55.6931 53.8167 55.8798 54.03C56.0731 54.2367 56.3098 54.34 56.5898 54.34C56.9698 54.34 57.3098 54.16 57.6098 53.8C57.7231 53.2067 57.8698 52.27 58.0498 50.99C57.3031 50.99 56.7064 51.2067 56.2598 51.64C55.8198 52.0733 55.5998 52.5933 55.5998 53.2ZM58.2498 56.99C57.9364 57.41 57.5431 57.74 57.0698 57.98C56.5964 58.2267 56.0964 58.35 55.5698 58.35C55.0498 58.35 54.6298 58.25 54.3098 58.05C53.9964 57.8567 53.8398 57.5933 53.8398 57.26C53.8398 56.9267 53.9764 56.5767 54.2498 56.21C54.5564 56.6633 55.0164 56.89 55.6298 56.89C56.0298 56.89 56.3998 56.7167 56.7398 56.37C57.0864 56.03 57.3164 55.53 57.4298 54.87L57.3298 54.82C56.8564 55.5133 56.2498 55.86 55.5098 55.86C54.9498 55.86 54.5098 55.6433 54.1898 55.21C53.8698 54.7767 53.7098 54.2 53.7098 53.48C53.7098 52.7867 53.8998 52.1533 54.2798 51.58C54.7131 50.92 55.3164 50.4633 56.0898 50.21C56.5164 50.07 56.9231 50 57.3098 50C57.6964 50 58.0231 50.0267 58.2898 50.08C58.3298 50.26 58.3531 50.4233 58.3598 50.57C58.6731 50.3567 58.9898 50.25 59.3098 50.25C59.7698 50.25 59.9998 50.4867 59.9998 50.96C59.9998 51.4333 59.9698 51.92 59.9098 52.42C59.8498 52.9133 59.7564 53.4433 59.6298 54.01C59.5031 54.5767 59.3198 55.1133 59.0798 55.62C58.8464 56.12 58.5698 56.5767 58.2498 56.99Z" fill="white"/>
<path opacity="0.5" d="M73.243 8.66516C72.4754 9.43277 71.228 9.43277 70.453 8.66516C71.2206 9.43277 71.2206 10.6802 70.453 11.4552C71.2206 10.6875 72.468 10.6875 73.243 11.4552C72.4754 10.6802 72.4754 9.43277 73.243 8.66516Z" fill="#FCCE38"/>
<path d="M66.9621 11.6471C64.8362 13.7728 61.3894 13.7728 59.2562 11.6471C61.3821 13.7728 61.3821 17.2197 59.2562 19.3528C61.3821 17.2271 64.8289 17.2271 66.9621 19.3528C64.8289 17.2271 64.8289 13.7728 66.9621 11.6471Z" fill="#FCCE38"/>
<path d="M66.9618 19.353C64.8361 21.4787 61.3892 21.4787 59.2635 19.353C57.1377 17.2271 57.1377 13.7803 59.2635 11.6546C61.3892 9.52888 64.8361 9.52888 66.9618 11.6546C69.0875 13.773 69.0875 17.2198 66.9618 19.353Z" fill="url(#paint2_radial_4_1978)"/>
<path d="M67.5965 16.0612L72.7115 15.5297C72.7484 15.5223 72.7484 15.4707 72.7115 15.4707L67.5965 14.9393C65.7365 14.7473 64.2677 13.2712 64.0832 11.4185L63.1384 1.87497C63.1311 1.83806 63.0793 1.83806 63.0793 1.87497L62.1568 11.4038C61.9796 13.2712 60.5108 14.7473 58.6434 14.9393L53.4989 15.4707C53.462 15.478 53.462 15.5297 53.4989 15.5297L58.6434 16.0612C60.5034 16.253 61.9722 17.7293 62.1568 19.5966L63.0793 29.1254C63.0793 29.1623 63.1384 29.1623 63.1384 29.1254L64.0832 19.5819C64.2751 17.7219 65.7439 16.253 67.5965 16.0612Z" fill="url(#paint3_linear_4_1978)"/>
<path d="M62.9022 15.7806C61.8098 14.4003 53.4989 15.4706 53.4989 15.4706C53.462 15.4779 53.462 15.5296 53.4989 15.5296L58.6434 16.061C60.5034 16.2529 61.9722 17.729 62.1568 19.5964L63.0202 28.5274L63.0793 28.5569C63.0793 28.5569 64.0684 17.2493 62.9022 15.7806Z" fill="url(#paint4_linear_4_1978)"/>
<path d="M67.5967 14.9388C65.7367 14.7469 64.2678 13.2708 64.0834 11.4181L63.4707 5.255C63.4707 5.255 63.2788 13.5659 65.1093 14.7691C66.5486 15.7138 66.1205 14.8059 72.7117 15.4702L67.5967 14.9388Z" fill="url(#paint5_linear_4_1978)"/>
<path d="M62.4743 12.341C62.8729 7.45479 63.05 5.07812 63.3305 3.77907L63.1386 1.8674C63.1312 1.8305 63.0796 1.8305 63.0796 1.8674L62.1569 11.3962C61.9797 13.2636 60.511 14.7398 58.6436 14.9317L55.241 15.286C59.1972 15.7436 62.2455 15.1532 62.4743 12.341Z" fill="url(#paint6_linear_4_1978)"/>
<path d="M63.0792 29.1254L62.1565 19.5965C61.9793 17.7291 60.5106 16.2529 58.6432 16.0611L53.4987 15.5295C53.4987 15.5295 57.7796 15.7584 58.6801 15.7584C59.5806 15.7584 62.2229 16.2898 62.4665 19.5818C62.71 22.8737 63.0792 29.1254 63.0792 29.1254Z" fill="url(#paint7_linear_4_1978)"/>
<path d="M63.1385 29.1254L64.0611 19.5965C64.2383 17.7291 65.707 16.2529 67.5744 16.0611L72.719 15.5295C72.719 15.5295 68.438 15.7584 67.5376 15.7584C66.637 15.7584 63.9947 16.2898 63.7511 19.5818C63.5076 22.8737 63.1385 29.1254 63.1385 29.1254Z" fill="url(#paint8_linear_4_1978)"/>
<path opacity="0.5" d="M53.8682 8.23694C52.8865 9.21861 51.2996 9.21861 50.3253 8.23694C51.307 9.21861 51.307 10.8055 50.3253 11.7798C51.307 10.7981 52.8939 10.7981 53.8682 11.7798C52.8939 10.8055 52.8939 9.21861 53.8682 8.23694Z" fill="#FCCE38"/>
<path d="M52.0967 12.4142C53.4256 12.4142 54.5029 11.3369 54.5029 10.008C54.5029 8.67909 53.4256 7.60181 52.0967 7.60181C50.7678 7.60181 49.6906 8.67909 49.6906 10.008C49.6906 11.3369 50.7678 12.4142 52.0967 12.4142Z" fill="url(#paint9_radial_4_1978)"/>
<path d="M50.1185 9.76474L47.8599 10.0009C47.8452 10.0009 47.8452 10.0231 47.8599 10.0304L50.1185 10.2666C50.9378 10.3478 51.5873 11.0047 51.6685 11.824L52.0892 16.0311C52.0892 16.046 52.1114 16.046 52.1188 16.0311L52.5247 11.824C52.6059 11.0047 53.2554 10.3478 54.0747 10.2666L56.348 10.0304C56.3628 10.0304 56.3628 10.0083 56.348 10.0009L54.0747 9.76474C53.2554 9.67615 52.6059 9.02664 52.5247 8.20735L52.1188 4.00021C52.1188 3.98544 52.0966 3.98544 52.0892 4.00021L51.6685 8.21474C51.58 9.02664 50.9378 9.67615 50.1185 9.76474Z" fill="url(#paint10_linear_4_1978)"/>
<path d="M52.1923 9.89033C52.6721 10.4956 56.3404 10.0232 56.3404 10.0232C56.3552 10.0232 56.3552 10.001 56.3404 9.99366L54.0671 9.75747C53.2478 9.6689 52.5983 9.01938 52.5171 8.20009L52.1333 4.25866L52.1111 4.2439C52.1111 4.2439 51.6757 9.23342 52.1923 9.89033Z" fill="url(#paint11_linear_4_1978)"/>
<path d="M50.1184 10.2593C50.9377 10.3404 51.5873 10.9974 51.6684 11.8166L51.9415 14.5328C51.9415 14.5328 52.0301 10.8645 51.2182 10.3331C50.5834 9.91974 50.768 10.3183 47.8599 10.0231L50.1184 10.2593Z" fill="url(#paint12_linear_4_1978)"/>
<path d="M52.3772 11.403C52.2 13.5582 52.1262 14.6064 52.0007 15.1821L52.0819 16.0235C52.0819 16.0382 52.1041 16.0382 52.1115 16.0235L52.5174 11.8163C52.5986 10.9971 53.2481 10.3402 54.0674 10.259L55.5657 10.104C53.8238 9.89729 52.4805 10.163 52.3772 11.403Z" fill="url(#paint13_linear_4_1978)"/>
<path d="M52.1115 3.99292L52.5174 8.20006C52.5986 9.01935 53.2481 9.67625 54.0674 9.75745L56.3407 9.99363C56.3407 9.99363 54.4512 9.8903 54.0526 9.8903C53.6541 9.8903 52.4879 9.65411 52.3772 8.20745C52.2665 6.75339 52.1115 3.99292 52.1115 3.99292Z" fill="url(#paint14_linear_4_1978)"/>
<path d="M52.0819 3.99292L51.676 8.20006C51.5948 9.01935 50.9453 9.67625 50.126 9.75745L47.8527 9.99363C47.8527 9.99363 49.7422 9.8903 50.1407 9.8903C50.5393 9.8903 51.7055 9.65411 51.8162 8.20745C51.9269 6.75339 52.0819 3.99292 52.0819 3.99292Z" fill="url(#paint15_linear_4_1978)"/>
<path d="M71.8481 11.9281C72.8793 11.9281 73.7154 11.0921 73.7154 10.0607C73.7154 9.02942 72.8793 8.19336 71.8481 8.19336C70.8167 8.19336 69.9807 9.02942 69.9807 10.0607C69.9807 11.0921 70.8167 11.9281 71.8481 11.9281Z" fill="url(#paint16_radial_4_1978)"/>
<path d="M73.3908 10.2009L75.1475 10.0681C75.1622 10.0681 75.1622 10.0533 75.1475 10.0533L73.3908 9.92044C72.7561 9.86878 72.2468 9.49235 72.1876 9.0126L71.8629 6.55474C71.8629 6.54735 71.8408 6.54735 71.8408 6.55474L71.5234 9.00521C71.4643 9.48497 70.9551 9.86878 70.3202 9.91307L68.5562 10.0533C68.5415 10.0533 68.5415 10.0681 68.5562 10.0681L70.3202 10.2083C70.9625 10.26 71.4643 10.6364 71.5234 11.1162L71.8408 13.5667C71.8408 13.574 71.8629 13.574 71.8629 13.5667L72.1876 11.1088C72.2468 10.629 72.7561 10.2526 73.3908 10.2009Z" fill="url(#paint17_linear_4_1978)"/>
<path d="M71.7818 10.1271C71.4052 9.77282 68.5562 10.0459 68.5562 10.0459C68.5415 10.0459 68.5415 10.0607 68.5562 10.0607L70.3202 10.2009C70.9625 10.2526 71.4643 10.629 71.5234 11.1088L71.8186 13.4042L71.8408 13.4116C71.8408 13.419 72.1802 10.5109 71.7818 10.1271Z" fill="url(#paint18_linear_4_1978)"/>
<path d="M70.3129 10.2013C70.9477 10.253 71.457 10.6294 71.516 11.1092L71.7227 12.6961C71.7227 12.6961 71.7891 10.5556 71.1617 10.2456C70.6672 10.0021 70.8149 10.2382 68.5563 10.0685L70.3129 10.2013Z" fill="url(#paint19_linear_4_1978)"/>
<path d="M71.6342 9.24878C71.767 7.99401 71.8335 7.3814 71.9294 7.04926L71.8629 6.55474C71.8629 6.54735 71.8408 6.54735 71.8408 6.55474L71.5235 9.00521C71.4644 9.48497 70.9551 9.86878 70.3203 9.91307L69.1542 10.0016C70.5049 10.1197 71.5529 9.97211 71.6342 9.24878Z" fill="url(#paint20_linear_4_1978)"/>
<path d="M71.8407 13.5671L71.5234 11.1166C71.4643 10.6368 70.955 10.253 70.3203 10.2087L68.5563 10.0685C68.5563 10.0685 70.025 10.1275 70.335 10.1275C70.645 10.1275 71.5529 10.2604 71.6341 11.1092C71.7153 11.958 71.8407 13.5671 71.8407 13.5671Z" fill="url(#paint21_linear_4_1978)"/>
<path d="M71.8629 13.5671L72.1804 11.1166C72.2394 10.6368 72.7487 10.253 73.3835 10.2087L75.1475 10.0685C75.1475 10.0685 73.6787 10.1275 73.3687 10.1275C73.0587 10.1275 72.1508 10.2604 72.0697 11.1092C71.9811 11.958 71.8629 13.5671 71.8629 13.5671Z" fill="url(#paint22_linear_4_1978)"/>
<path opacity="0.5" d="M57.7504 21.5376C57.0714 22.2166 55.979 22.2166 55.2999 21.5376C55.979 22.2166 55.979 23.309 55.2999 23.9881C55.979 23.309 57.0714 23.309 57.7504 23.9881C57.0714 23.309 57.0714 22.2166 57.7504 21.5376Z" fill="#FCCE38"/>
<path d="M56.5251 24.4232C57.4423 24.4232 58.1858 23.6797 58.1858 22.7625C58.1858 21.8453 57.4423 21.1018 56.5251 21.1018C55.6079 21.1018 54.8644 21.8453 54.8644 22.7625C54.8644 23.6797 55.6079 24.4232 56.5251 24.4232Z" fill="url(#paint23_radial_4_1978)"/>
<path d="M55.1595 22.5929L53.6021 22.7553C53.5874 22.7553 53.5874 22.77 53.6021 22.7774L55.1595 22.9398C55.7278 22.9988 56.1707 23.4491 56.2298 24.0174L56.5176 26.9256C56.5176 26.9403 56.5324 26.9403 56.5398 26.9256L56.8202 24.0174C56.8719 23.4491 57.3221 22.9988 57.8905 22.9398L59.4553 22.7774C59.47 22.7774 59.47 22.7627 59.4553 22.7553L57.8905 22.5929C57.3221 22.5338 56.8719 22.0836 56.8202 21.5153L56.5398 18.6071C56.5398 18.5924 56.525 18.5924 56.5176 18.6071L56.2298 21.5153C56.1707 22.0836 55.7205 22.5338 55.1595 22.5929Z" fill="url(#paint24_linear_4_1978)"/>
<path d="M56.5912 22.6743C56.9234 23.095 59.4551 22.7702 59.4551 22.7702C59.4698 22.7702 59.4698 22.7554 59.4551 22.7481L57.8903 22.5857C57.3219 22.5267 56.8717 22.0764 56.82 21.5081L56.5543 18.7845L56.5396 18.7771C56.5322 18.7845 56.2369 22.2314 56.5912 22.6743Z" fill="url(#paint25_linear_4_1978)"/>
<path d="M55.1596 22.9324C55.7279 22.9914 56.1708 23.4417 56.2298 24.01L56.4144 25.8847C56.4144 25.8847 56.4734 23.3531 55.9125 22.984C55.477 22.6963 55.6025 22.9693 53.5948 22.77L55.1596 22.9324Z" fill="url(#paint26_linear_4_1978)"/>
<path d="M56.7168 23.7221C56.5987 25.213 56.5397 25.9364 56.4585 26.335L56.5176 26.918C56.5176 26.9327 56.5323 26.9327 56.5397 26.918L56.8202 24.01C56.8718 23.4416 57.3221 22.9914 57.8904 22.9323L58.9311 22.8216C57.7206 22.6887 56.7906 22.8659 56.7168 23.7221Z" fill="url(#paint27_linear_4_1978)"/>
<path d="M56.5323 18.6068L56.8128 21.5149C56.8645 22.0832 57.3147 22.5335 57.8831 22.5925L59.4478 22.7549C59.4478 22.7549 58.1414 22.6885 57.8683 22.6885C57.5952 22.6885 56.7907 22.5261 56.7169 21.5222C56.6431 20.5111 56.5323 18.6068 56.5323 18.6068Z" fill="url(#paint28_linear_4_1978)"/>
<path d="M56.5175 18.6068L56.2371 21.5149C56.1854 22.0832 55.7351 22.5335 55.1668 22.5925L53.6021 22.7549C53.6021 22.7549 54.9085 22.6885 55.1816 22.6885C55.4547 22.6885 56.2592 22.5261 56.333 21.5222C56.4068 20.5111 56.5175 18.6068 56.5175 18.6068Z" fill="url(#paint29_linear_4_1978)"/>
<path opacity="0.5" d="M27.243 28.6652C26.4754 29.4328 25.228 29.4328 24.453 28.6652C25.2206 29.4328 25.2206 30.6802 24.453 31.4552C25.2206 30.6875 26.468 30.6875 27.243 31.4552C26.4754 30.6802 26.4754 29.4328 27.243 28.6652Z" fill="#FCCE38"/>
<path d="M20.9621 31.6471C18.8362 33.7728 15.3894 33.7728 13.2562 31.6471C15.3821 33.7728 15.3821 37.2197 13.2562 39.3528C15.3821 37.2271 18.8289 37.2271 20.9621 39.3528C18.8289 37.2271 18.8289 33.7728 20.9621 31.6471Z" fill="#FCCE38"/>
<path d="M20.9618 39.353C18.8361 41.4787 15.3892 41.4787 13.2635 39.353C11.1377 37.2271 11.1377 33.7803 13.2635 31.6546C15.3892 29.5289 18.8361 29.5289 20.9618 31.6546C23.0875 33.773 23.0875 37.2198 20.9618 39.353Z" fill="url(#paint30_radial_4_1978)"/>
<path d="M21.5965 36.0612L26.7115 35.5297C26.7484 35.5223 26.7484 35.4707 26.7115 35.4707L21.5965 34.9393C19.7365 34.7473 18.2677 33.2712 18.0832 31.4185L17.1384 21.875C17.1311 21.8381 17.0793 21.8381 17.0793 21.875L16.1568 31.4038C15.9796 33.2712 14.5108 34.7473 12.6434 34.9393L7.49887 35.4707C7.46197 35.478 7.46197 35.5297 7.49887 35.5297L12.6434 36.0612C14.5034 36.253 15.9722 37.7293 16.1568 39.5966L17.0793 49.1254C17.0793 49.1623 17.1384 49.1623 17.1384 49.1254L18.0832 39.5819C18.2751 37.7219 19.7439 36.253 21.5965 36.0612Z" fill="url(#paint31_linear_4_1978)"/>
<path d="M16.9022 35.7806C15.8098 34.4003 7.49887 35.4706 7.49887 35.4706C7.46197 35.4779 7.46197 35.5296 7.49887 35.5296L12.6434 36.061C14.5034 36.2529 15.9722 37.729 16.1568 39.5964L17.0202 48.5274L17.0793 48.5569C17.0793 48.5569 18.0684 37.2493 16.9022 35.7806Z" fill="url(#paint32_linear_4_1978)"/>
<path d="M21.5967 34.9388C19.7367 34.7469 18.2678 33.2708 18.0834 31.4181L17.4707 25.255C17.4707 25.255 17.2788 33.5659 19.1093 34.7691C20.5486 35.7138 20.1205 34.8059 26.7117 35.4702L21.5967 34.9388Z" fill="url(#paint33_linear_4_1978)"/>
<path d="M16.4743 32.341C16.8729 27.4548 17.05 25.0781 17.3305 23.7791L17.1386 21.8674C17.1312 21.8305 17.0796 21.8305 17.0796 21.8674L16.1569 31.3962C15.9797 33.2636 14.511 34.7398 12.6436 34.9317L9.24097 35.286C13.1972 35.7436 16.2455 35.1532 16.4743 32.341Z" fill="url(#paint34_linear_4_1978)"/>
<path d="M17.0792 49.1254L16.1565 39.5965C15.9793 37.7291 14.5106 36.2529 12.6432 36.0611L7.49866 35.5295C7.49866 35.5295 11.7796 35.7584 12.6801 35.7584C13.5806 35.7584 16.2229 36.2898 16.4665 39.5818C16.71 42.8737 17.0792 49.1254 17.0792 49.1254Z" fill="url(#paint35_linear_4_1978)"/>
<path d="M17.1385 49.1254L18.0611 39.5965C18.2383 37.7291 19.707 36.2529 21.5744 36.0611L26.719 35.5295C26.719 35.5295 22.438 35.7584 21.5376 35.7584C20.637 35.7584 17.9947 36.2898 17.7511 39.5818C17.5076 42.8737 17.1385 49.1254 17.1385 49.1254Z" fill="url(#paint36_linear_4_1978)"/>
<path opacity="0.5" d="M7.86818 28.2369C6.88651 29.2186 5.29961 29.2186 4.32532 28.2369C5.30698 29.2186 5.30698 30.8055 4.32532 31.7798C5.30698 30.7981 6.89389 30.7981 7.86818 31.7798C6.89389 30.8055 6.89389 29.2186 7.86818 28.2369Z" fill="#FCCE38"/>
<path d="M6.09673 32.4142C7.42564 32.4142 8.50293 31.3369 8.50293 30.008C8.50293 28.6791 7.42564 27.6018 6.09673 27.6018C4.76784 27.6018 3.69055 28.6791 3.69055 30.008C3.69055 31.3369 4.76784 32.4142 6.09673 32.4142Z" fill="url(#paint37_radial_4_1978)"/>
<path d="M4.11852 29.7647L1.85995 30.0009C1.84519 30.0009 1.84519 30.0231 1.85995 30.0304L4.11852 30.2666C4.93781 30.3478 5.58733 31.0047 5.66852 31.824L6.08923 36.0311C6.08923 36.046 6.11138 36.046 6.11876 36.0311L6.52471 31.824C6.6059 31.0047 7.25542 30.3478 8.07471 30.2666L10.348 30.0304C10.3628 30.0304 10.3628 30.0083 10.348 30.0009L8.07471 29.7647C7.25542 29.6762 6.6059 29.0266 6.52471 28.2073L6.11876 24.0002C6.11876 23.9854 6.09662 23.9854 6.08923 24.0002L5.66852 28.2147C5.57995 29.0266 4.93781 29.6762 4.11852 29.7647Z" fill="url(#paint38_linear_4_1978)"/>
<path d="M6.19233 29.8903C6.67208 30.4956 10.3404 30.0232 10.3404 30.0232C10.3552 30.0232 10.3552 30.001 10.3404 29.9937L8.06708 29.7575C7.2478 29.6689 6.59827 29.0194 6.51708 28.2001L6.13327 24.2587L6.11113 24.2439C6.11113 24.2439 5.67566 29.2334 6.19233 29.8903Z" fill="url(#paint39_linear_4_1978)"/>
<path d="M4.11843 30.2593C4.93772 30.3404 5.58725 30.9974 5.66843 31.8166L5.94153 34.5328C5.94153 34.5328 6.0301 30.8645 5.2182 30.3331C4.58343 29.9197 4.76796 30.3183 1.85986 30.0231L4.11843 30.2593Z" fill="url(#paint40_linear_4_1978)"/>
<path d="M6.37716 31.403C6.20002 33.5582 6.1262 34.6064 6.00073 35.1821L6.08193 36.0235C6.08193 36.0382 6.10407 36.0382 6.11145 36.0235L6.5174 31.8163C6.59859 30.9971 7.24812 30.3402 8.0674 30.259L9.56573 30.104C7.82383 29.8973 6.4805 30.163 6.37716 31.403Z" fill="url(#paint41_linear_4_1978)"/>
<path d="M6.11145 23.9929L6.5174 28.2001C6.59859 29.0194 7.2481 29.6763 8.0674 29.7574L10.3407 29.9936C10.3407 29.9936 8.4512 29.8903 8.05263 29.8903C7.65406 29.8903 6.48787 29.6541 6.37716 28.2074C6.26645 26.7534 6.11145 23.9929 6.11145 23.9929Z" fill="url(#paint42_linear_4_1978)"/>
<path d="M6.08194 23.9929L5.67599 28.2001C5.5948 29.0194 4.94527 29.6763 4.12599 29.7574L1.85266 29.9936C1.85266 29.9936 3.74218 29.8903 4.14075 29.8903C4.53933 29.8903 5.70551 29.6541 5.81623 28.2074C5.92694 26.7534 6.08194 23.9929 6.08194 23.9929Z" fill="url(#paint43_linear_4_1978)"/>
<path d="M25.8481 31.9281C26.8793 31.9281 27.7154 31.0921 27.7154 30.0607C27.7154 29.0294 26.8793 28.1934 25.8481 28.1934C24.8167 28.1934 23.9807 29.0294 23.9807 30.0607C23.9807 31.0921 24.8167 31.9281 25.8481 31.9281Z" fill="url(#paint44_radial_4_1978)"/>
<path d="M27.3908 30.2009L29.1475 30.0681C29.1622 30.0681 29.1622 30.0533 29.1475 30.0533L27.3908 29.9204C26.7561 29.8688 26.2468 29.4923 26.1876 29.0126L25.8629 26.5547C25.8629 26.5473 25.8408 26.5473 25.8408 26.5547L25.5234 29.0052C25.4643 29.485 24.9551 29.8688 24.3202 29.9131L22.5562 30.0533C22.5415 30.0533 22.5415 30.0681 22.5562 30.0681L24.3202 30.2083C24.9625 30.26 25.4643 30.6364 25.5234 31.1162L25.8408 33.5667C25.8408 33.574 25.8629 33.574 25.8629 33.5667L26.1876 31.1088C26.2468 30.629 26.7561 30.2526 27.3908 30.2009Z" fill="url(#paint45_linear_4_1978)"/>
<path d="M25.7818 30.1271C25.4052 29.7728 22.5562 30.0459 22.5562 30.0459C22.5415 30.0459 22.5415 30.0607 22.5562 30.0607L24.3202 30.2009C24.9625 30.2526 25.4643 30.629 25.5234 31.1088L25.8186 33.4042L25.8408 33.4116C25.8408 33.419 26.1802 30.5109 25.7818 30.1271Z" fill="url(#paint46_linear_4_1978)"/>
<path d="M24.3129 30.2013C24.9477 30.253 25.457 30.6294 25.516 31.1092L25.7227 32.6961C25.7227 32.6961 25.7891 30.5556 25.1617 30.2456C24.6672 30.0021 24.8149 30.2382 22.5563 30.0685L24.3129 30.2013Z" fill="url(#paint47_linear_4_1978)"/>
<path d="M25.6342 29.2488C25.767 27.994 25.8335 27.3814 25.9294 27.0493L25.8629 26.5547C25.8629 26.5473 25.8408 26.5473 25.8408 26.5547L25.5235 29.0052C25.4644 29.485 24.9551 29.8688 24.3203 29.9131L23.1542 30.0016C24.5049 30.1197 25.5529 29.9721 25.6342 29.2488Z" fill="url(#paint48_linear_4_1978)"/>
<path d="M25.8407 33.5671L25.5234 31.1166C25.4643 30.6368 24.955 30.253 24.3203 30.2087L22.5563 30.0685C22.5563 30.0685 24.025 30.1275 24.335 30.1275C24.645 30.1275 25.5529 30.2604 25.6341 31.1092C25.7153 31.958 25.8407 33.5671 25.8407 33.5671Z" fill="url(#paint49_linear_4_1978)"/>
<path d="M25.8629 33.5671L26.1804 31.1166C26.2394 30.6368 26.7487 30.253 27.3835 30.2087L29.1475 30.0685C29.1475 30.0685 27.6787 30.1275 27.3687 30.1275C27.0587 30.1275 26.1508 30.2604 26.0697 31.1092C25.9811 31.958 25.8629 33.5671 25.8629 33.5671Z" fill="url(#paint50_linear_4_1978)"/>
<path opacity="0.5" d="M11.7504 41.5376C11.0714 42.2166 9.97897 42.2166 9.29993 41.5376C9.97897 42.2166 9.97897 43.309 9.29993 43.9881C9.97897 43.309 11.0714 43.309 11.7504 43.9881C11.0714 43.309 11.0714 42.2166 11.7504 41.5376Z" fill="#FCCE38"/>
<path d="M10.5251 44.4232C11.4423 44.4232 12.1858 43.6797 12.1858 42.7625C12.1858 41.8453 11.4423 41.1018 10.5251 41.1018C9.60791 41.1018 8.86438 41.8453 8.86438 42.7625C8.86438 43.6797 9.60791 44.4232 10.5251 44.4232Z" fill="url(#paint51_radial_4_1978)"/>
<path d="M9.15952 42.5929L7.60213 42.7553C7.58738 42.7553 7.58738 42.77 7.60213 42.7774L9.15952 42.9398C9.72785 42.9988 10.1707 43.4491 10.2298 44.0174L10.5176 46.9256C10.5176 46.9403 10.5324 46.9403 10.5398 46.9256L10.8202 44.0174C10.8719 43.4491 11.3221 42.9988 11.8905 42.9398L13.4553 42.7774C13.47 42.7774 13.47 42.7627 13.4553 42.7553L11.8905 42.5929C11.3221 42.5338 10.8719 42.0836 10.8202 41.5153L10.5398 38.6071C10.5398 38.5924 10.525 38.5924 10.5176 38.6071L10.2298 41.5153C10.1707 42.0836 9.72046 42.5338 9.15952 42.5929Z" fill="url(#paint52_linear_4_1978)"/>
<path d="M10.5912 42.6743C10.9234 43.095 13.4551 42.7702 13.4551 42.7702C13.4698 42.7702 13.4698 42.7554 13.4551 42.7481L11.8903 42.5857C11.3219 42.5267 10.8717 42.0764 10.82 41.5081L10.5543 38.7845L10.5396 38.7771C10.5322 38.7845 10.2369 42.2314 10.5912 42.6743Z" fill="url(#paint53_linear_4_1978)"/>
<path d="M9.15961 42.9324C9.72795 42.9914 10.1708 43.4417 10.2298 44.01L10.4144 45.8847C10.4144 45.8847 10.4734 43.3531 9.91247 42.984C9.47699 42.6963 9.60247 42.9693 7.59485 42.77L9.15961 42.9324Z" fill="url(#paint54_linear_4_1978)"/>
<path d="M10.7168 43.7221C10.5987 45.213 10.5397 45.9364 10.4585 46.335L10.5176 46.918C10.5176 46.9327 10.5323 46.9327 10.5397 46.918L10.8202 44.01C10.8718 43.4416 11.3221 42.9914 11.8904 42.9323L12.9311 42.8216C11.7206 42.6887 10.7906 42.8659 10.7168 43.7221Z" fill="url(#paint55_linear_4_1978)"/>
<path d="M10.5323 38.6068L10.8128 41.5149C10.8645 42.0832 11.3147 42.5335 11.8831 42.5925L13.4478 42.7549C13.4478 42.7549 12.1414 42.6885 11.8683 42.6885C11.5952 42.6885 10.7907 42.5261 10.7169 41.5222C10.6431 40.5111 10.5323 38.6068 10.5323 38.6068Z" fill="url(#paint56_linear_4_1978)"/>
<path d="M10.5175 38.6068L10.2371 41.5149C10.1854 42.0832 9.73515 42.5335 9.16681 42.5925L7.60205 42.7549C7.60205 42.7549 8.90848 42.6885 9.18158 42.6885C9.45468 42.6885 10.2592 42.5261 10.333 41.5222C10.4068 40.5111 10.5175 38.6068 10.5175 38.6068Z" fill="url(#paint57_linear_4_1978)"/>
<defs>
<linearGradient id="paint0_linear_4_1978" x1="38" y1="0" x2="38" y2="60" gradientUnits="userSpaceOnUse">
<stop offset="0.165" stop-color="#FFACCF"/>
<stop offset="0.79" stop-color="#C04578"/>
</linearGradient>
<linearGradient id="paint1_linear_4_1978" x1="38" y1="44" x2="38" y2="60" gradientUnits="userSpaceOnUse">
<stop stop-color="#FC77AE"/>
<stop offset="1" stop-color="#AF0049"/>
</linearGradient>
<radialGradient id="paint2_radial_4_1978" cx="0" cy="0" r="1" gradientUnits="userSpaceOnUse" gradientTransform="translate(63.1107 15.4964) rotate(45.0009) scale(5.44543 5.44558)">
<stop stop-color="#FFBC47"/>
<stop offset="0.2588" stop-color="#FEC14D" stop-opacity="0.7412"/>
<stop offset="0.6207" stop-color="#FDCD60" stop-opacity="0.3793"/>
<stop offset="1" stop-color="#FBE07A" stop-opacity="0"/>
</radialGradient>
<linearGradient id="paint3_linear_4_1978" x1="63.9044" y1="18.8646" x2="59.4315" y2="-0.020655" gradientUnits="userSpaceOnUse">
<stop stop-color="#FCCE38"/>
<stop offset="0.2151" stop-color="#FCD44F"/>
<stop offset="0.5049" stop-color="#FBDB67"/>
<stop offset="0.774" stop-color="#FBDF75"/>
<stop offset="1" stop-color="#FBE07A"/>
</linearGradient>
<linearGradient id="paint4_linear_4_1978" x1="60.9814" y1="21.7422" x2="68.6225" y2="20.9967" gradientUnits="userSpaceOnUse">
<stop stop-color="#FCCE38"/>
<stop offset="0.2151" stop-color="#FCD44F"/>
<stop offset="0.5049" stop-color="#FBDB67"/>
<stop offset="0.774" stop-color="#FBDF75"/>
<stop offset="1" stop-color="#FBE07A"/>
</linearGradient>
<linearGradient id="paint5_linear_4_1978" x1="69.2779" y1="5.9586" x2="63.894" y2="26.0035" gradientUnits="userSpaceOnUse">
<stop stop-color="#FCCE38"/>
<stop offset="0.3638" stop-color="#FCCE38"/>
<stop offset="1" stop-color="#C86F34"/>
</linearGradient>
<linearGradient id="paint6_linear_4_1978" x1="57.7024" y1="7.63447" x2="66.9897" y2="13.5051" gradientUnits="userSpaceOnUse">
<stop stop-color="#FCCE38"/>
<stop offset="0.2151" stop-color="#FCD44F"/>
<stop offset="0.5049" stop-color="#FBDB67"/>
<stop offset="0.774" stop-color="#FBDF75"/>
<stop offset="1" stop-color="#FBE07A"/>
</linearGradient>
<linearGradient id="paint7_linear_4_1978" x1="57.8184" y1="24.8525" x2="60.6347" y2="9.73599" gradientUnits="userSpaceOnUse">
<stop stop-color="#FCCE38"/>
<stop offset="0.00850916" stop-color="#FCCD38"/>
<stop offset="0.3748" stop-color="#FBB53A"/>
<stop offset="0.7145" stop-color="#FBA73B"/>
<stop offset="1" stop-color="#FBA23B"/>
</linearGradient>
<linearGradient id="paint8_linear_4_1978" x1="66.5598" y1="19.3844" x2="62.3769" y2="10.3973" gradientUnits="userSpaceOnUse">
<stop stop-color="#FCCE38"/>
<stop offset="0.00850916" stop-color="#FCCD38"/>
<stop offset="0.3748" stop-color="#FBB53A"/>
<stop offset="0.7145" stop-color="#FBA73B"/>
<stop offset="1" stop-color="#FBA23B"/>
</linearGradient>
<radialGradient id="paint9_radial_4_1978" cx="0" cy="0" r="1" gradientUnits="userSpaceOnUse" gradientTransform="translate(52.0975 10.0093) rotate(-134.999) scale(2.40299)">
<stop stop-color="#FFBC47"/>
<stop offset="0.2588" stop-color="#FEC14D" stop-opacity="0.7412"/>
<stop offset="0.6207" stop-color="#FDCD60" stop-opacity="0.3793"/>
<stop offset="1" stop-color="#FBE07A" stop-opacity="0"/>
</radialGradient>
<linearGradient id="paint10_linear_4_1978" x1="51.746" y1="8.52459" x2="53.7198" y2="16.8584" gradientUnits="userSpaceOnUse">
<stop stop-color="#FCCE38"/>
<stop offset="0.2151" stop-color="#FCD44F"/>
<stop offset="0.5049" stop-color="#FBDB67"/>
<stop offset="0.774" stop-color="#FBDF75"/>
<stop offset="1" stop-color="#FBE07A"/>
</linearGradient>
<linearGradient id="paint11_linear_4_1978" x1="53.0356" y1="7.2548" x2="49.6637" y2="7.58377" gradientUnits="userSpaceOnUse">
<stop stop-color="#FCCE38"/>
<stop offset="0.2151" stop-color="#FCD44F"/>
<stop offset="0.5049" stop-color="#FBDB67"/>
<stop offset="0.774" stop-color="#FBDF75"/>
<stop offset="1" stop-color="#FBE07A"/>
</linearGradient>
<linearGradient id="paint12_linear_4_1978" x1="49.3747" y1="14.2197" x2="51.7506" y2="5.37408" gradientUnits="userSpaceOnUse">
<stop stop-color="#FCCE38"/>
<stop offset="0.3638" stop-color="#FCCE38"/>
<stop offset="1" stop-color="#C86F34"/>
</linearGradient>
<linearGradient id="paint13_linear_4_1978" x1="54.483" y1="13.4799" x2="50.3846" y2="10.8893" gradientUnits="userSpaceOnUse">
<stop stop-color="#FCCE38"/>
<stop offset="0.2151" stop-color="#FCD44F"/>
<stop offset="0.5049" stop-color="#FBDB67"/>
<stop offset="0.774" stop-color="#FBDF75"/>
<stop offset="1" stop-color="#FBE07A"/>
</linearGradient>
<linearGradient id="paint14_linear_4_1978" x1="54.4316" y1="5.88224" x2="53.1888" y2="12.553" gradientUnits="userSpaceOnUse">
<stop stop-color="#FCCE38"/>
<stop offset="0.00850916" stop-color="#FCCD38"/>
<stop offset="0.3748" stop-color="#FBB53A"/>
<stop offset="0.7145" stop-color="#FBA73B"/>
<stop offset="1" stop-color="#FBA23B"/>
</linearGradient>
<linearGradient id="paint15_linear_4_1978" x1="50.5743" y1="8.29525" x2="52.4202" y2="12.2612" gradientUnits="userSpaceOnUse">
<stop stop-color="#FCCE38"/>
<stop offset="0.00850916" stop-color="#FCCD38"/>
<stop offset="0.3748" stop-color="#FBB53A"/>
<stop offset="0.7145" stop-color="#FBA73B"/>
<stop offset="1" stop-color="#FBA23B"/>
</linearGradient>
<radialGradient id="paint16_radial_4_1978" cx="0" cy="0" r="1" gradientUnits="userSpaceOnUse" gradientTransform="translate(71.8521 10.057) rotate(45.0017) scale(1.86718)">
<stop stop-color="#FFBC47"/>
<stop offset="0.2588" stop-color="#FEC14D" stop-opacity="0.7412"/>
<stop offset="0.6207" stop-color="#FDCD60" stop-opacity="0.3793"/>
<stop offset="1" stop-color="#FBE07A" stop-opacity="0"/>
</radialGradient>
<linearGradient id="paint17_linear_4_1978" x1="72.0556" y1="10.9242" x2="70.9047" y2="6.06509" gradientUnits="userSpaceOnUse">
<stop stop-color="#FCCE38"/>
<stop offset="0.2151" stop-color="#FCD44F"/>
<stop offset="0.5049" stop-color="#FBDB67"/>
<stop offset="0.774" stop-color="#FBDF75"/>
<stop offset="1" stop-color="#FBE07A"/>
</linearGradient>
<linearGradient id="paint18_linear_4_1978" x1="71.0817" y1="11.6482" x2="73.7169" y2="11.3911" gradientUnits="userSpaceOnUse">
<stop stop-color="#FCCE38"/>
<stop offset="0.2151" stop-color="#FCD44F"/>
<stop offset="0.5049" stop-color="#FBDB67"/>
<stop offset="0.774" stop-color="#FBDF75"/>
<stop offset="1" stop-color="#FBE07A"/>
</linearGradient>
<linearGradient id="paint19_linear_4_1978" x1="69.864" y1="12.4099" x2="71.2175" y2="7.3705" gradientUnits="userSpaceOnUse">
<stop stop-color="#FCCE38"/>
<stop offset="0.3638" stop-color="#FCCE38"/>
<stop offset="1" stop-color="#C86F34"/>
</linearGradient>
<linearGradient id="paint20_linear_4_1978" x1="69.9217" y1="7.90698" x2="72.9169" y2="9.80033" gradientUnits="userSpaceOnUse">
<stop stop-color="#FCCE38"/>
<stop offset="0.2151" stop-color="#FCD44F"/>
<stop offset="0.5049" stop-color="#FBDB67"/>
<stop offset="0.774" stop-color="#FBDF75"/>
<stop offset="1" stop-color="#FBE07A"/>
</linearGradient>
<linearGradient id="paint21_linear_4_1978" x1="70.0883" y1="12.406" x2="70.7999" y2="8.58672" gradientUnits="userSpaceOnUse">
<stop stop-color="#FCCE38"/>
<stop offset="0.00850916" stop-color="#FCCD38"/>
<stop offset="0.3748" stop-color="#FBB53A"/>
<stop offset="0.7145" stop-color="#FBA73B"/>
<stop offset="1" stop-color="#FBA23B"/>
</linearGradient>
<linearGradient id="paint22_linear_4_1978" x1="73.106" y1="10.9602" x2="72.0665" y2="8.72671" gradientUnits="userSpaceOnUse">
<stop stop-color="#FCCE38"/>
<stop offset="0.00850916" stop-color="#FCCD38"/>
<stop offset="0.3748" stop-color="#FBB53A"/>
<stop offset="0.7145" stop-color="#FBA73B"/>
<stop offset="1" stop-color="#FBA23B"/>
</linearGradient>
<radialGradient id="paint23_radial_4_1978" cx="0" cy="0" r="1" gradientUnits="userSpaceOnUse" gradientTransform="translate(56.5263 22.7625) rotate(-134.998) scale(1.65983)">
<stop stop-color="#FFBC47"/>
<stop offset="0.2588" stop-color="#FEC14D" stop-opacity="0.7412"/>
<stop offset="0.6207" stop-color="#FDCD60" stop-opacity="0.3793"/>
<stop offset="1" stop-color="#FBE07A" stop-opacity="0"/>
</radialGradient>
<linearGradient id="paint24_linear_4_1978" x1="56.2837" y1="21.7368" x2="57.647" y2="27.4931" gradientUnits="userSpaceOnUse">
<stop stop-color="#FCCE38"/>
<stop offset="0.2151" stop-color="#FCD44F"/>
<stop offset="0.5049" stop-color="#FBDB67"/>
<stop offset="0.774" stop-color="#FBDF75"/>
<stop offset="1" stop-color="#FBE07A"/>
</linearGradient>
<linearGradient id="paint25_linear_4_1978" x1="57.1744" y1="20.8598" x2="54.8454" y2="21.087" gradientUnits="userSpaceOnUse">
<stop stop-color="#FCCE38"/>
<stop offset="0.2151" stop-color="#FCD44F"/>
<stop offset="0.5049" stop-color="#FBDB67"/>
<stop offset="0.774" stop-color="#FBDF75"/>
<stop offset="1" stop-color="#FBE07A"/>
</linearGradient>
<linearGradient id="paint26_linear_4_1978" x1="54.6459" y1="25.6706" x2="56.287" y2="19.5606" gradientUnits="userSpaceOnUse">
<stop stop-color="#FCCE38"/>
<stop offset="0.3638" stop-color="#FCCE38"/>
<stop offset="1" stop-color="#C86F34"/>
</linearGradient>
<linearGradient id="paint27_linear_4_1978" x1="58.1741" y1="25.1597" x2="55.3432" y2="23.3703" gradientUnits="userSpaceOnUse">
<stop stop-color="#FCCE38"/>
<stop offset="0.2151" stop-color="#FCD44F"/>
<stop offset="0.5049" stop-color="#FBDB67"/>
<stop offset="0.774" stop-color="#FBDF75"/>
<stop offset="1" stop-color="#FBE07A"/>
</linearGradient>
<linearGradient id="paint28_linear_4_1978" x1="58.1386" y1="19.9111" x2="57.2802" y2="24.5189" gradientUnits="userSpaceOnUse">
<stop stop-color="#FCCE38"/>
<stop offset="0.00850916" stop-color="#FCCD38"/>
<stop offset="0.3748" stop-color="#FBB53A"/>
<stop offset="0.7145" stop-color="#FBA73B"/>
<stop offset="1" stop-color="#FBA23B"/>
</linearGradient>
<linearGradient id="paint29_linear_4_1978" x1="55.4742" y1="21.5779" x2="56.7492" y2="24.3173" gradientUnits="userSpaceOnUse">
<stop stop-color="#FCCE38"/>
<stop offset="0.00850916" stop-color="#FCCD38"/>
<stop offset="0.3748" stop-color="#FBB53A"/>
<stop offset="0.7145" stop-color="#FBA73B"/>
<stop offset="1" stop-color="#FBA23B"/>
</linearGradient>
<radialGradient id="paint30_radial_4_1978" cx="0" cy="0" r="1" gradientUnits="userSpaceOnUse" gradientTransform="translate(17.1107 35.4964) rotate(45.0009) scale(5.44543 5.44558)">
<stop stop-color="#FFBC47"/>
<stop offset="0.2588" stop-color="#FEC14D" stop-opacity="0.7412"/>
<stop offset="0.6207" stop-color="#FDCD60" stop-opacity="0.3793"/>
<stop offset="1" stop-color="#FBE07A" stop-opacity="0"/>
</radialGradient>
<linearGradient id="paint31_linear_4_1978" x1="17.9044" y1="38.8646" x2="13.4315" y2="19.9793" gradientUnits="userSpaceOnUse">
<stop stop-color="#FCCE38"/>
<stop offset="0.2151" stop-color="#FCD44F"/>
<stop offset="0.5049" stop-color="#FBDB67"/>
<stop offset="0.774" stop-color="#FBDF75"/>
<stop offset="1" stop-color="#FBE07A"/>
</linearGradient>
<linearGradient id="paint32_linear_4_1978" x1="14.9814" y1="41.7422" x2="22.6225" y2="40.9967" gradientUnits="userSpaceOnUse">
<stop stop-color="#FCCE38"/>
<stop offset="0.2151" stop-color="#FCD44F"/>
<stop offset="0.5049" stop-color="#FBDB67"/>
<stop offset="0.774" stop-color="#FBDF75"/>
<stop offset="1" stop-color="#FBE07A"/>
</linearGradient>
<linearGradient id="paint33_linear_4_1978" x1="23.2779" y1="25.9586" x2="17.894" y2="46.0035" gradientUnits="userSpaceOnUse">
<stop stop-color="#FCCE38"/>
<stop offset="0.3638" stop-color="#FCCE38"/>
<stop offset="1" stop-color="#C86F34"/>
</linearGradient>
<linearGradient id="paint34_linear_4_1978" x1="11.7024" y1="27.6345" x2="20.9897" y2="33.5051" gradientUnits="userSpaceOnUse">
<stop stop-color="#FCCE38"/>
<stop offset="0.2151" stop-color="#FCD44F"/>
<stop offset="0.5049" stop-color="#FBDB67"/>
<stop offset="0.774" stop-color="#FBDF75"/>
<stop offset="1" stop-color="#FBE07A"/>
</linearGradient>
<linearGradient id="paint35_linear_4_1978" x1="11.8184" y1="44.8525" x2="14.6347" y2="29.736" gradientUnits="userSpaceOnUse">
<stop stop-color="#FCCE38"/>
<stop offset="0.00850916" stop-color="#FCCD38"/>
<stop offset="0.3748" stop-color="#FBB53A"/>
<stop offset="0.7145" stop-color="#FBA73B"/>
<stop offset="1" stop-color="#FBA23B"/>
</linearGradient>
<linearGradient id="paint36_linear_4_1978" x1="20.5598" y1="39.3844" x2="16.3769" y2="30.3973" gradientUnits="userSpaceOnUse">
<stop stop-color="#FCCE38"/>
<stop offset="0.00850916" stop-color="#FCCD38"/>
<stop offset="0.3748" stop-color="#FBB53A"/>
<stop offset="0.7145" stop-color="#FBA73B"/>
<stop offset="1" stop-color="#FBA23B"/>
</linearGradient>
<radialGradient id="paint37_radial_4_1978" cx="0" cy="0" r="1" gradientUnits="userSpaceOnUse" gradientTransform="translate(6.09748 30.0093) rotate(-134.999) scale(2.40299)">
<stop stop-color="#FFBC47"/>
<stop offset="0.2588" stop-color="#FEC14D" stop-opacity="0.7412"/>
<stop offset="0.6207" stop-color="#FDCD60" stop-opacity="0.3793"/>
<stop offset="1" stop-color="#FBE07A" stop-opacity="0"/>
</radialGradient>
<linearGradient id="paint38_linear_4_1978" x1="5.74599" y1="28.5246" x2="7.7198" y2="36.8584" gradientUnits="userSpaceOnUse">
<stop stop-color="#FCCE38"/>
<stop offset="0.2151" stop-color="#FCD44F"/>
<stop offset="0.5049" stop-color="#FBDB67"/>
<stop offset="0.774" stop-color="#FBDF75"/>
<stop offset="1" stop-color="#FBE07A"/>
</linearGradient>
<linearGradient id="paint39_linear_4_1978" x1="7.03563" y1="27.2548" x2="3.66369" y2="27.5838" gradientUnits="userSpaceOnUse">
<stop stop-color="#FCCE38"/>
<stop offset="0.2151" stop-color="#FCD44F"/>
<stop offset="0.5049" stop-color="#FBDB67"/>
<stop offset="0.774" stop-color="#FBDF75"/>
<stop offset="1" stop-color="#FBE07A"/>
</linearGradient>
<linearGradient id="paint40_linear_4_1978" x1="3.37469" y1="34.2197" x2="5.75057" y2="25.3741" gradientUnits="userSpaceOnUse">
<stop stop-color="#FCCE38"/>
<stop offset="0.3638" stop-color="#FCCE38"/>
<stop offset="1" stop-color="#C86F34"/>
</linearGradient>
<linearGradient id="paint41_linear_4_1978" x1="8.48301" y1="33.4799" x2="4.3846" y2="30.8893" gradientUnits="userSpaceOnUse">
<stop stop-color="#FCCE38"/>
<stop offset="0.2151" stop-color="#FCD44F"/>
<stop offset="0.5049" stop-color="#FBDB67"/>
<stop offset="0.774" stop-color="#FBDF75"/>
<stop offset="1" stop-color="#FBE07A"/>
</linearGradient>
<linearGradient id="paint42_linear_4_1978" x1="8.43162" y1="25.8822" x2="7.18884" y2="32.553" gradientUnits="userSpaceOnUse">
<stop stop-color="#FCCE38"/>
<stop offset="0.00850916" stop-color="#FCCD38"/>
<stop offset="0.3748" stop-color="#FBB53A"/>
<stop offset="0.7145" stop-color="#FBA73B"/>
<stop offset="1" stop-color="#FBA23B"/>
</linearGradient>
<linearGradient id="paint43_linear_4_1978" x1="4.57432" y1="28.2953" x2="6.42021" y2="32.2612" gradientUnits="userSpaceOnUse">
<stop stop-color="#FCCE38"/>
<stop offset="0.00850916" stop-color="#FCCD38"/>
<stop offset="0.3748" stop-color="#FBB53A"/>
<stop offset="0.7145" stop-color="#FBA73B"/>
<stop offset="1" stop-color="#FBA23B"/>
</linearGradient>
<radialGradient id="paint44_radial_4_1978" cx="0" cy="0" r="1" gradientUnits="userSpaceOnUse" gradientTransform="translate(25.8521 30.057) rotate(45.0017) scale(1.86718)">
<stop stop-color="#FFBC47"/>
<stop offset="0.2588" stop-color="#FEC14D" stop-opacity="0.7412"/>
<stop offset="0.6207" stop-color="#FDCD60" stop-opacity="0.3793"/>
<stop offset="1" stop-color="#FBE07A" stop-opacity="0"/>
</radialGradient>
<linearGradient id="paint45_linear_4_1978" x1="26.0556" y1="30.9242" x2="24.9047" y2="26.0651" gradientUnits="userSpaceOnUse">
<stop stop-color="#FCCE38"/>
<stop offset="0.2151" stop-color="#FCD44F"/>
<stop offset="0.5049" stop-color="#FBDB67"/>
<stop offset="0.774" stop-color="#FBDF75"/>
<stop offset="1" stop-color="#FBE07A"/>
</linearGradient>
<linearGradient id="paint46_linear_4_1978" x1="25.0817" y1="31.6482" x2="27.7169" y2="31.3911" gradientUnits="userSpaceOnUse">
<stop stop-color="#FCCE38"/>
<stop offset="0.2151" stop-color="#FCD44F"/>
<stop offset="0.5049" stop-color="#FBDB67"/>
<stop offset="0.774" stop-color="#FBDF75"/>
<stop offset="1" stop-color="#FBE07A"/>
</linearGradient>
<linearGradient id="paint47_linear_4_1978" x1="23.864" y1="32.4099" x2="25.2175" y2="27.3705" gradientUnits="userSpaceOnUse">
<stop stop-color="#FCCE38"/>
<stop offset="0.3638" stop-color="#FCCE38"/>
<stop offset="1" stop-color="#C86F34"/>
</linearGradient>
<linearGradient id="paint48_linear_4_1978" x1="23.9217" y1="27.907" x2="26.9169" y2="29.8003" gradientUnits="userSpaceOnUse">
<stop stop-color="#FCCE38"/>
<stop offset="0.2151" stop-color="#FCD44F"/>
<stop offset="0.5049" stop-color="#FBDB67"/>
<stop offset="0.774" stop-color="#FBDF75"/>
<stop offset="1" stop-color="#FBE07A"/>
</linearGradient>
<linearGradient id="paint49_linear_4_1978" x1="24.0883" y1="32.406" x2="24.7999" y2="28.5867" gradientUnits="userSpaceOnUse">
<stop stop-color="#FCCE38"/>
<stop offset="0.00850916" stop-color="#FCCD38"/>
<stop offset="0.3748" stop-color="#FBB53A"/>
<stop offset="0.7145" stop-color="#FBA73B"/>
<stop offset="1" stop-color="#FBA23B"/>
</linearGradient>
<linearGradient id="paint50_linear_4_1978" x1="27.106" y1="30.9602" x2="26.0665" y2="28.7267" gradientUnits="userSpaceOnUse">
<stop stop-color="#FCCE38"/>
<stop offset="0.00850916" stop-color="#FCCD38"/>
<stop offset="0.3748" stop-color="#FBB53A"/>
<stop offset="0.7145" stop-color="#FBA73B"/>
<stop offset="1" stop-color="#FBA23B"/>
</linearGradient>
<radialGradient id="paint51_radial_4_1978" cx="0" cy="0" r="1" gradientUnits="userSpaceOnUse" gradientTransform="translate(10.5263 42.7625) rotate(-134.998) scale(1.65983)">
<stop stop-color="#FFBC47"/>
<stop offset="0.2588" stop-color="#FEC14D" stop-opacity="0.7412"/>
<stop offset="0.6207" stop-color="#FDCD60" stop-opacity="0.3793"/>
<stop offset="1" stop-color="#FBE07A" stop-opacity="0"/>
</radialGradient>
<linearGradient id="paint52_linear_4_1978" x1="10.2837" y1="41.7368" x2="11.647" y2="47.4931" gradientUnits="userSpaceOnUse">
<stop stop-color="#FCCE38"/>
<stop offset="0.2151" stop-color="#FCD44F"/>
<stop offset="0.5049" stop-color="#FBDB67"/>
<stop offset="0.774" stop-color="#FBDF75"/>
<stop offset="1" stop-color="#FBE07A"/>
</linearGradient>
<linearGradient id="paint53_linear_4_1978" x1="11.1744" y1="40.8598" x2="8.84535" y2="41.087" gradientUnits="userSpaceOnUse">
<stop stop-color="#FCCE38"/>
<stop offset="0.2151" stop-color="#FCD44F"/>
<stop offset="0.5049" stop-color="#FBDB67"/>
<stop offset="0.774" stop-color="#FBDF75"/>
<stop offset="1" stop-color="#FBE07A"/>
</linearGradient>
<linearGradient id="paint54_linear_4_1978" x1="8.6459" y1="45.6706" x2="10.287" y2="39.5606" gradientUnits="userSpaceOnUse">
<stop stop-color="#FCCE38"/>
<stop offset="0.3638" stop-color="#FCCE38"/>
<stop offset="1" stop-color="#C86F34"/>
</linearGradient>
<linearGradient id="paint55_linear_4_1978" x1="12.1741" y1="45.1597" x2="9.34321" y2="43.3703" gradientUnits="userSpaceOnUse">
<stop stop-color="#FCCE38"/>
<stop offset="0.2151" stop-color="#FCD44F"/>
<stop offset="0.5049" stop-color="#FBDB67"/>
<stop offset="0.774" stop-color="#FBDF75"/>
<stop offset="1" stop-color="#FBE07A"/>
</linearGradient>
<linearGradient id="paint56_linear_4_1978" x1="12.1386" y1="39.9111" x2="11.2802" y2="44.5189" gradientUnits="userSpaceOnUse">
<stop stop-color="#FCCE38"/>
<stop offset="0.00850916" stop-color="#FCCD38"/>
<stop offset="0.3748" stop-color="#FBB53A"/>
<stop offset="0.7145" stop-color="#FBA73B"/>
<stop offset="1" stop-color="#FBA23B"/>
</linearGradient>
<linearGradient id="paint57_linear_4_1978" x1="9.47422" y1="41.5779" x2="10.7492" y2="44.3173" gradientUnits="userSpaceOnUse">
<stop stop-color="#FCCE38"/>
<stop offset="0.00850916" stop-color="#FCCD38"/>
<stop offset="0.3748" stop-color="#FBB53A"/>
<stop offset="0.7145" stop-color="#FBA73B"/>
<stop offset="1" stop-color="#FBA23B"/>
</linearGradient>
</defs>
</svg>
