<svg width="70" height="60" viewBox="0 0 70 60" fill="none" xmlns="http://www.w3.org/2000/svg">
<circle cx="35" cy="30" r="30" fill="url(#paint0_linear_4_1986)"/>
<rect y="44" width="70" height="16" rx="8" fill="url(#paint1_linear_4_1986)"/>
<path d="M37.9705 35.7079L41.1987 6.32324H17.9404L21.1686 35.7079H37.9705Z" fill="#6D529F"/>
<path d="M36.6987 40.9799H22.4407L22.0791 35.7941H37.0602L36.6987 40.9799Z" fill="#A5BA6B"/>
<path d="M35.3336 29.312L37.2929 11.4777H21.8462L23.8054 29.312H35.3336Z" fill="#E3A9ED"/>
<path d="M50.2003 21.693H35.3542V29.6724H50.2003V21.693Z" fill="#FF728B"/>
<path d="M56.0594 33.1839C56.0594 37.8743 53.8275 41.6767 49.1372 41.6767H36.4171C31.7266 41.6767 29.4949 37.8743 29.4949 33.1839C29.4949 28.4934 31.7267 24.691 36.4171 24.691H49.1371C53.8275 24.691 56.0594 28.4934 56.0594 33.1839Z" fill="#A67CAB"/>
<path d="M42.7768 38.0072C47.2928 38.0072 50.9537 35.8816 50.9537 33.2595C50.9537 30.6374 47.2928 28.5117 42.7768 28.5117C38.2609 28.5117 34.6 30.6374 34.6 33.2595C34.6 35.8816 38.2609 38.0072 42.7768 38.0072Z" fill="#FFA6B7"/>
<path d="M55.1115 26.6169C54.107 25.2676 52.7556 24.3761 51.1407 23.9822V22.6332H51.3415C51.861 22.6332 52.2821 22.2121 52.2821 21.6926C52.2821 21.1732 51.861 20.7521 51.3415 20.7521H50.2001H40.5598L42.1336 6.42589C42.1627 6.16019 42.0776 5.89457 41.8991 5.6955C41.7207 5.49636 41.466 5.38269 41.1987 5.38269H17.9405C17.6732 5.38269 17.4185 5.49636 17.2401 5.6955C17.0616 5.89464 16.9765 6.16011 17.0056 6.42589L20.2337 35.8107C20.2862 36.2875 20.689 36.6486 21.1686 36.6486H21.1958L21.5023 41.0453C21.5366 41.5382 21.9465 41.9205 22.4405 41.9205H33.0832C34.0709 42.3804 35.1906 42.6173 36.417 42.6173H49.1371C51.6495 42.6173 53.7155 41.626 55.1115 39.751C56.3469 38.0918 57 35.8209 57 33.184C57 30.5471 56.3469 28.2761 55.1115 26.6169ZM34.2126 22.6331H34.4134V23.9821C32.7986 24.3761 31.4471 25.2676 30.4426 26.6168C30.0511 27.1428 29.7185 27.7305 29.4462 28.3714H24.6484L23.9232 21.7704H27.7297C28.2491 21.7704 28.6702 21.3493 28.6702 20.8299C28.6702 20.3104 28.2491 19.8893 27.7297 19.8893H23.7165L23.4065 17.0678H29.6106C30.1301 17.0678 30.5512 16.6467 30.5512 16.1272C30.5512 15.6078 30.1301 15.1867 29.6106 15.1867H23.1998L22.8957 12.418H36.2434L35.328 20.7518H34.2126C33.6931 20.7518 33.272 21.1729 33.272 21.6924C33.272 22.2118 33.6931 22.6331 34.2126 22.6331ZM28.9698 29.7792C28.9737 29.7647 28.9776 29.7502 28.9814 29.7357C28.9776 29.7502 28.9737 29.7647 28.9698 29.7792ZM29.1006 29.3224C29.1079 29.2989 29.115 29.2753 29.1224 29.2519C29.115 29.2753 29.108 29.2989 29.1006 29.3224ZM29.2519 28.871C29.2606 28.8469 29.2688 28.8222 29.2777 28.7982C29.2687 28.8222 29.2605 28.8468 29.2519 28.871ZM36.2945 22.6331H49.2598V23.752C49.219 23.7514 49.1783 23.7505 49.1372 23.7505H36.4171C36.376 23.7505 36.3354 23.7514 36.2945 23.752V22.6331ZM18.99 7.26371H40.1492L38.6674 20.7521H37.2203L38.2279 11.5804C38.257 11.3147 38.1719 11.0491 37.9934 10.85C37.815 10.6509 37.5603 10.5372 37.293 10.5372H21.8462C21.579 10.5372 21.3243 10.6509 21.1459 10.85C20.9674 11.0492 20.8823 11.3146 20.9114 11.5804L22.8706 29.4146C22.923 29.8915 23.3259 30.2525 23.8055 30.2525H28.8559C28.6572 31.1631 28.5542 32.1444 28.5542 33.1838C28.5542 33.7283 28.5837 34.2563 28.6387 34.7673H22.0116L18.99 7.26371ZM23.0874 36.7346H29.0087C29.3263 37.8794 29.8067 38.8967 30.4426 39.7509C30.5162 39.8497 30.5921 39.9455 30.6693 40.0394H23.3178L23.0874 36.7346ZM49.1371 40.7361H36.4171C30.8667 40.7361 30.4354 34.9555 30.4354 33.1839C30.4354 31.4122 30.8667 25.6316 36.4171 25.6316H49.1372C54.6876 25.6316 55.119 31.4121 55.119 33.1839C55.1189 34.9556 54.6875 40.7361 49.1371 40.7361Z" fill="black"/>
<path d="M32.4318 17.0682C32.3706 17.0682 32.3095 17.0617 32.2483 17.0494C32.1882 17.0371 32.1289 17.0193 32.0725 16.9958C32.016 16.9723 31.9614 16.9431 31.9097 16.9092C31.8589 16.8754 31.81 16.8359 31.7668 16.7926C31.7235 16.7493 31.684 16.7004 31.6501 16.6496C31.6163 16.5979 31.5871 16.5434 31.5636 16.4869C31.54 16.4305 31.5221 16.3712 31.51 16.311C31.4977 16.2499 31.4921 16.1888 31.4921 16.1276C31.4921 16.0655 31.4977 16.0044 31.51 15.9432C31.5222 15.8831 31.54 15.8238 31.5636 15.7674C31.5871 15.711 31.6162 15.6563 31.6501 15.6046C31.6839 15.5538 31.7235 15.5059 31.7668 15.4617C31.81 15.4184 31.8589 15.3799 31.9097 15.345C31.9614 15.3112 32.016 15.282 32.0725 15.2585C32.1289 15.2349 32.1882 15.2171 32.2483 15.2049C32.3696 15.1804 32.4947 15.1804 32.6161 15.2049C32.6762 15.2171 32.7355 15.2349 32.7919 15.2585C32.8483 15.282 32.9029 15.3111 32.9546 15.345C33.0054 15.3798 33.0534 15.4184 33.0976 15.4617C33.1409 15.5059 33.1794 15.5538 33.2143 15.6046C33.2481 15.6563 33.2773 15.7109 33.3008 15.7674C33.3243 15.8238 33.3422 15.8831 33.3544 15.9432C33.3667 16.0044 33.3723 16.0655 33.3723 16.1276C33.3723 16.1888 33.3667 16.2499 33.3544 16.311C33.3421 16.3712 33.3243 16.4305 33.3008 16.4869C33.2773 16.5433 33.2482 16.5979 33.2143 16.6496C33.1795 16.7004 33.1409 16.7493 33.0976 16.7926C33.0534 16.8359 33.0054 16.8753 32.9546 16.9092C32.9029 16.9431 32.8484 16.9723 32.7919 16.9958C32.7354 17.0193 32.6762 17.0372 32.6161 17.0494C32.555 17.0617 32.4939 17.0682 32.4318 17.0682Z" fill="black"/>
<path d="M42.7772 27.5709C37.6645 27.5709 33.6595 30.0697 33.6595 33.2597C33.6595 36.4497 37.6645 38.9484 42.7772 38.9484C47.8899 38.9484 51.8949 36.4497 51.8949 33.2597C51.8948 30.0697 47.8899 27.5709 42.7772 27.5709ZM48.087 35.8038C46.6837 36.6187 44.798 37.0674 42.777 37.0674C40.7561 37.0674 38.8704 36.6187 37.4671 35.8038C36.9455 35.5008 36.168 34.9517 35.7795 34.2001H43.3307C43.8502 34.2001 44.2713 33.779 44.2713 33.2596C44.2713 32.7401 43.8502 32.319 43.3307 32.319H35.7795C36.168 31.5675 36.9456 31.0183 37.4671 30.7155C38.8704 29.9006 40.7561 29.4519 42.777 29.4519C44.798 29.4519 46.6837 29.9006 48.087 30.7155C48.8066 31.1333 50.0137 32.0195 50.0137 33.2596C50.0137 34.4998 48.8066 35.3859 48.087 35.8038Z" fill="black"/>
<path d="M46.1521 34.1997C46.0909 34.1997 46.0288 34.1941 45.9686 34.1818C45.9084 34.1697 45.8492 34.1518 45.7928 34.1282C45.7354 34.1047 45.6808 34.0756 45.63 34.0417C45.5783 34.0069 45.5303 33.9674 45.4871 33.9241C45.4438 33.8808 45.4043 33.8329 45.3704 33.7811C45.3366 33.7304 45.3074 33.6758 45.2838 33.6193C45.2603 33.562 45.2424 33.5036 45.2303 33.4435C45.218 33.3823 45.2114 33.3212 45.2114 33.2591C45.2114 33.1979 45.218 33.1359 45.2303 33.0757C45.2424 33.0154 45.2603 32.9562 45.2838 32.8998C45.3074 32.8434 45.3365 32.7879 45.3704 32.7371C45.4042 32.6854 45.4438 32.6374 45.4871 32.5941C45.5303 32.5508 45.5783 32.5114 45.63 32.4775C45.6808 32.4436 45.7353 32.4144 45.7928 32.3909C45.8492 32.3674 45.9085 32.3495 45.9686 32.3373C46.0899 32.3129 46.215 32.3129 46.3363 32.3373C46.3956 32.3495 46.4549 32.3674 46.5122 32.3909C46.5686 32.4144 46.6232 32.4436 46.674 32.4775C46.7257 32.5113 46.7737 32.5508 46.817 32.5941C46.8603 32.6374 46.8997 32.6854 46.9346 32.7371C46.9684 32.7879 46.9976 32.8433 47.0211 32.8998C47.0446 32.9562 47.0625 33.0155 47.0747 33.0757C47.087 33.1358 47.0926 33.1979 47.0926 33.2591C47.0926 33.3212 47.087 33.3823 47.0747 33.4435C47.0625 33.5037 47.0446 33.562 47.0211 33.6193C46.9976 33.6757 46.9685 33.7304 46.9346 33.7811C46.8998 33.8329 46.8603 33.8808 46.817 33.9241C46.7737 33.9674 46.7257 34.0068 46.674 34.0417C46.6232 34.0755 46.5687 34.1047 46.5122 34.1282C46.4549 34.1518 46.3956 34.1697 46.3363 34.1818C46.2753 34.1941 46.2142 34.1997 46.1521 34.1997Z" fill="black"/>
<path d="M30.5508 21.7707C30.4896 21.7707 30.4285 21.7642 30.3673 21.7519C30.3072 21.7396 30.2479 21.7218 30.1915 21.6983C30.1351 21.6748 30.0795 21.6457 30.0287 21.6118C29.977 21.5779 29.9291 21.5384 29.8858 21.4951C29.8425 21.4518 29.803 21.4029 29.7691 21.3521C29.7353 21.3004 29.7061 21.2459 29.6826 21.1894C29.6591 21.133 29.6412 21.0737 29.629 21.0135C29.6167 20.9524 29.6111 20.8913 29.6111 20.8301C29.6111 20.768 29.6167 20.7069 29.629 20.6457C29.6412 20.5856 29.6591 20.5272 29.6826 20.4699C29.7061 20.4135 29.7352 20.3589 29.7691 20.3081C29.803 20.2564 29.8425 20.2084 29.8858 20.1651C29.9291 20.1209 29.977 20.0824 30.0287 20.0475C30.0795 20.0137 30.135 19.9845 30.1915 19.961C30.248 19.9375 30.3072 19.9196 30.3673 19.9074C30.4887 19.8829 30.6137 19.8829 30.7351 19.9074C30.7952 19.9196 30.8545 19.9375 30.9109 19.961C30.9673 19.9845 31.0219 20.0136 31.0737 20.0475C31.1244 20.0823 31.1724 20.1209 31.2166 20.1651C31.2599 20.2084 31.2984 20.2564 31.3333 20.3081C31.3671 20.3589 31.3963 20.4134 31.4198 20.4699C31.4434 20.5272 31.4612 20.5856 31.4734 20.6457C31.4857 20.7069 31.4923 20.768 31.4923 20.8301C31.4923 20.8913 31.4857 20.9524 31.4734 21.0135C31.4612 21.0737 31.4434 21.133 31.4198 21.1894C31.3963 21.2458 31.3672 21.3004 31.3333 21.3521C31.2985 21.4029 31.2599 21.4518 31.2166 21.4951C31.1724 21.5384 31.1244 21.5778 31.0737 21.6118C31.0219 21.6456 30.9674 21.6748 30.9109 21.6983C30.8545 21.7218 30.7952 21.7397 30.7351 21.7519C30.674 21.7642 30.6129 21.7707 30.5508 21.7707Z" fill="black"/>
<path d="M13.8051 52.93C13.8051 52.4633 13.9051 51.99 14.1051 51.51C14.3051 51.0233 14.5884 50.5733 14.9551 50.16C15.3217 49.7467 15.7984 49.41 16.3851 49.15C16.9784 48.8833 17.5884 48.75 18.2151 48.75C18.8484 48.75 19.3417 48.8667 19.6951 49.1C20.0551 49.3333 20.2351 49.6567 20.2351 50.07C20.2351 50.4833 20.0984 50.8067 19.8251 51.04C19.5584 51.2667 19.2517 51.38 18.9051 51.38C18.5584 51.38 18.2451 51.3067 17.9651 51.16C17.6917 51.0067 17.4717 50.79 17.3051 50.51C16.9451 50.6833 16.6351 51.0233 16.3751 51.53C16.1151 52.0367 15.9851 52.5467 15.9851 53.06C15.9851 53.5667 16.0684 53.97 16.2351 54.27C16.4017 54.5633 16.6384 54.71 16.9451 54.71C17.2517 54.71 17.5217 54.5533 17.7551 54.24C17.9951 53.9267 18.1151 53.55 18.1151 53.11C18.7884 53.11 19.2684 53.1633 19.5551 53.27C19.8484 53.3767 19.9951 53.6067 19.9951 53.96C19.9951 54.5133 19.6951 55.0333 19.0951 55.52C18.4951 56.0067 17.7417 56.25 16.8351 56.25C15.9284 56.25 15.1951 55.97 14.6351 55.41C14.0817 54.85 13.8051 54.0233 13.8051 52.93ZM24.5012 54.77L24.4012 54.72C24.2212 55.2 23.9612 55.5767 23.6212 55.85C23.2879 56.1167 22.9146 56.25 22.5012 56.25C21.9346 56.25 21.4812 56.0367 21.1412 55.61C20.8012 55.1833 20.6312 54.6133 20.6312 53.9C20.6312 52.7933 21.0012 51.8667 21.7412 51.12C22.4879 50.3733 23.4146 50 24.5212 50C24.8079 50 25.0712 50.0267 25.3112 50.08C25.3512 50.2667 25.3746 50.43 25.3812 50.57C25.7146 50.3567 26.0579 50.25 26.4112 50.25C26.8979 50.25 27.1412 50.5133 27.1412 51.04C27.1412 51.2267 27.0346 51.79 26.8212 52.73C26.6146 53.67 26.5112 54.3667 26.5112 54.82C26.5112 55.2733 26.6146 55.5867 26.8212 55.76C26.4479 56.0867 26.0579 56.25 25.6512 56.25C25.2512 56.25 24.9579 56.13 24.7712 55.89C24.5912 55.65 24.5012 55.2767 24.5012 54.77ZM22.5112 53.41C22.5112 53.7367 22.5779 53.99 22.7112 54.17C22.8512 54.3433 23.0479 54.43 23.3012 54.43C23.5546 54.43 23.8046 54.3367 24.0512 54.15C24.2979 53.9633 24.5046 53.7067 24.6712 53.38C24.7312 52.7067 24.8612 51.91 25.0612 50.99C24.3879 50.99 23.7946 51.2333 23.2812 51.72C22.7679 52.2067 22.5112 52.77 22.5112 53.41ZM28.1645 52.39C28.1179 52.2033 28.0945 52.03 28.0945 51.87C28.0945 51.5433 28.1912 51.2967 28.3845 51.13C28.5779 50.9633 28.8279 50.88 29.1345 50.88C29.1345 50.5333 29.0445 50.1567 28.8645 49.75C29.1912 49.51 29.4879 49.33 29.7545 49.21C30.0279 49.0833 30.3145 49.02 30.6145 49.02C30.9145 49.02 31.1212 49.0767 31.2345 49.19C31.3545 49.2967 31.4145 49.4633 31.4145 49.69C31.4145 49.9167 31.3679 50.27 31.2745 50.75C31.5412 50.71 31.8112 50.6533 32.0845 50.58C32.1312 50.72 32.1545 50.9 32.1545 51.12C32.1545 51.34 32.0679 51.5467 31.8945 51.74C31.7279 51.9267 31.4812 52.02 31.1545 52.02H31.0045C30.7645 53.1067 30.6445 53.9433 30.6445 54.53C30.6445 55.1167 30.7479 55.5267 30.9545 55.76C30.5812 56.0867 30.1845 56.25 29.7645 56.25C29.3445 56.25 29.0412 56.1267 28.8545 55.88C28.6745 55.6267 28.5845 55.2367 28.5845 54.71C28.5845 54.39 28.7012 53.55 28.9345 52.19C28.6679 52.2367 28.4112 52.3033 28.1645 52.39ZM36.4204 54.77L36.3204 54.72C36.1404 55.2 35.8804 55.5767 35.5404 55.85C35.2071 56.1167 34.8337 56.25 34.4204 56.25C33.8537 56.25 33.4004 56.0367 33.0604 55.61C32.7204 55.1833 32.5504 54.6133 32.5504 53.9C32.5504 52.7933 32.9204 51.8667 33.6604 51.12C34.4071 50.3733 35.3337 50 36.4404 50C36.7271 50 36.9904 50.0267 37.2304 50.08C37.2704 50.2667 37.2937 50.43 37.3004 50.57C37.6337 50.3567 37.9771 50.25 38.3304 50.25C38.8171 50.25 39.0604 50.5133 39.0604 51.04C39.0604 51.2267 38.9537 51.79 38.7404 52.73C38.5337 53.67 38.4304 54.3667 38.4304 54.82C38.4304 55.2733 38.5337 55.5867 38.7404 55.76C38.3671 56.0867 37.9771 56.25 37.5704 56.25C37.1704 56.25 36.8771 56.13 36.6904 55.89C36.5104 55.65 36.4204 55.2767 36.4204 54.77ZM34.4304 53.41C34.4304 53.7367 34.4971 53.99 34.6304 54.17C34.7704 54.3433 34.9671 54.43 35.2204 54.43C35.4737 54.43 35.7237 54.3367 35.9704 54.15C36.2171 53.9633 36.4237 53.7067 36.5904 53.38C36.6504 52.7067 36.7804 51.91 36.9804 50.99C36.3071 50.99 35.7137 51.2333 35.2004 51.72C34.6871 52.2067 34.4304 52.77 34.4304 53.41ZM40.9037 49.78L40.3437 48.98C41.177 48.4933 41.8337 48.25 42.3137 48.25C42.587 48.25 42.7803 48.3067 42.8937 48.42C43.007 48.5267 43.0637 48.7333 43.0637 49.04C43.0637 49.34 42.9137 50.1933 42.6137 51.6C42.3203 53.0067 42.1737 53.9933 42.1737 54.56C42.1737 55.1267 42.277 55.5267 42.4837 55.76C42.017 56.0867 41.5937 56.25 41.2137 56.25C40.8337 56.25 40.5537 56.1267 40.3737 55.88C40.2003 55.6267 40.1137 55.28 40.1137 54.84C40.1137 54.4 40.237 53.5 40.4837 52.14C40.7303 50.78 40.8703 49.9933 40.9037 49.78ZM48.5413 50.76C48.9147 50.76 49.2347 50.91 49.5013 51.21C49.7747 51.51 49.9113 51.9467 49.9113 52.52C49.9113 53.0867 49.8113 53.6133 49.6113 54.1C49.4113 54.58 49.148 54.9733 48.8213 55.28C48.4947 55.5867 48.1247 55.8267 47.7113 56C47.298 56.1667 46.8747 56.25 46.4413 56.25C45.568 56.25 44.878 56.01 44.3713 55.53C43.8647 55.05 43.6113 54.4133 43.6113 53.62C43.6113 52.5467 43.9547 51.6767 44.6413 51.01C45.3347 50.3367 46.2147 50 47.2813 50C47.5213 50 47.7613 50.0267 48.0013 50.08C48.0747 50.3 48.1147 50.55 48.1213 50.83C48.2613 50.7833 48.4013 50.76 48.5413 50.76ZM47.3113 52.15C47.3113 51.9633 47.3547 51.7533 47.4413 51.52C47.5347 51.2867 47.6813 51.1 47.8813 50.96C47.0013 51.1467 46.3947 51.5033 46.0613 52.03C45.7747 52.4833 45.6313 52.95 45.6313 53.43C45.6313 53.91 45.728 54.2967 45.9213 54.59C46.1213 54.8767 46.3747 55.02 46.6813 55.02C47.3613 55.02 47.8413 54.5767 48.1213 53.69C47.5813 53.3567 47.3113 52.8433 47.3113 52.15ZM52.5998 53.2C52.5998 53.54 52.6931 53.8167 52.8798 54.03C53.0731 54.2367 53.3098 54.34 53.5898 54.34C53.9698 54.34 54.3098 54.16 54.6098 53.8C54.7231 53.2067 54.8698 52.27 55.0498 50.99C54.3031 50.99 53.7064 51.2067 53.2598 51.64C52.8198 52.0733 52.5998 52.5933 52.5998 53.2ZM55.2498 56.99C54.9364 57.41 54.5431 57.74 54.0698 57.98C53.5964 58.2267 53.0964 58.35 52.5698 58.35C52.0498 58.35 51.6298 58.25 51.3098 58.05C50.9964 57.8567 50.8398 57.5933 50.8398 57.26C50.8398 56.9267 50.9764 56.5767 51.2498 56.21C51.5564 56.6633 52.0164 56.89 52.6298 56.89C53.0298 56.89 53.3998 56.7167 53.7398 56.37C54.0864 56.03 54.3164 55.53 54.4298 54.87L54.3298 54.82C53.8564 55.5133 53.2498 55.86 52.5098 55.86C51.9498 55.86 51.5098 55.6433 51.1898 55.21C50.8698 54.7767 50.7098 54.2 50.7098 53.48C50.7098 52.7867 50.8998 52.1533 51.2798 51.58C51.7131 50.92 52.3164 50.4633 53.0898 50.21C53.5164 50.07 53.9231 50 54.3098 50C54.6964 50 55.0231 50.0267 55.2898 50.08C55.3298 50.26 55.3531 50.4233 55.3598 50.57C55.6731 50.3567 55.9898 50.25 56.3098 50.25C56.7698 50.25 56.9998 50.4867 56.9998 50.96C56.9998 51.4333 56.9698 51.92 56.9098 52.42C56.8498 52.9133 56.7564 53.4433 56.6298 54.01C56.5031 54.5767 56.3198 55.1133 56.0798 55.62C55.8464 56.12 55.5698 56.5767 55.2498 56.99Z" fill="white"/>
<defs>
<linearGradient id="paint0_linear_4_1986" x1="35" y1="0" x2="35" y2="60" gradientUnits="userSpaceOnUse">
<stop offset="0.165" stop-color="#FFACCF"/>
<stop offset="0.79" stop-color="#C04578"/>
</linearGradient>
<linearGradient id="paint1_linear_4_1986" x1="35" y1="44" x2="35" y2="60" gradientUnits="userSpaceOnUse">
<stop stop-color="#FC77AE"/>
<stop offset="1" stop-color="#AF0049"/>
</linearGradient>
</defs>
</svg>
