<svg width="317" height="45" viewBox="0 0 317 45" fill="none" xmlns="http://www.w3.org/2000/svg">
<path d="M50.4244 29.295C50.4244 27.965 50.7394 25.62 51.3694 22.26C51.9994 18.9 52.3844 16.7767 52.5244 15.89L50.6694 12.145C53.6327 10.465 56.1527 9.625 58.2294 9.625C59.256 9.625 60.026 9.975 60.5394 10.675C62.476 9.99833 64.261 9.66 65.8944 9.66C68.9277 9.66 71.2844 10.6517 72.9644 12.635C74.6444 14.595 75.4844 17.045 75.4844 19.985C75.4844 23.8583 74.061 27.4167 71.2144 30.66C69.8377 32.2233 68.0177 33.4833 65.7544 34.44C63.5144 35.3967 61.111 35.875 58.5444 35.875C55.9777 35.875 53.9827 35.315 52.5594 34.195C51.136 33.0517 50.4244 31.4183 50.4244 29.295ZM57.8444 30.625C58.3344 30.7183 58.8827 30.765 59.4894 30.765C62.0327 30.765 64.016 29.855 65.4394 28.035C66.8627 26.1917 67.5744 23.9283 67.5744 21.245C67.5744 19.075 67.0844 17.3483 66.1044 16.065C65.1244 14.7817 63.7127 14.14 61.8694 14.14C61.5894 14.14 61.1227 14.1867 60.4694 14.28C60.306 15.47 59.8744 18.13 59.1744 22.26C58.4977 26.3667 58.0544 29.155 57.8444 30.625ZM81.6572 35.91C80.1406 35.91 79.0556 35.4783 78.4022 34.615C77.7489 33.7283 77.4222 32.4217 77.4222 30.695C77.4222 28.945 78.1572 24.01 79.6272 15.89L77.7722 12.145C80.4089 10.4417 82.8122 9.59 84.9822 9.59C86.7789 9.59 87.6772 10.6867 87.6772 12.88C87.6772 13.6033 87.2222 16.2983 86.3122 20.965C85.4256 25.6083 84.9822 28.3733 84.9822 29.26C84.9822 31.5233 85.3322 33.215 86.0322 34.335C84.6322 35.385 83.1739 35.91 81.6572 35.91ZM102.857 9.625C105.937 9.625 108.247 9.98667 109.787 10.71C111.327 11.41 112.097 12.5417 112.097 14.105C112.097 15.645 111.618 16.8233 110.662 17.64C109.728 18.4333 108.655 18.83 107.442 18.83C106.228 18.83 105.132 18.5267 104.152 17.92C103.195 17.29 102.53 16.4617 102.157 15.435C101.293 15.435 100.465 15.7267 99.6716 16.31C98.9016 16.87 98.4116 17.605 98.2016 18.515C102.822 19.635 106.135 20.9417 108.142 22.435C110.148 23.9283 111.152 25.8417 111.152 28.175C111.152 30.5083 110.09 32.375 107.967 33.775C105.867 35.175 103.02 35.875 99.4266 35.875C95.8566 35.875 93.3249 35.385 91.8316 34.405C90.3382 33.425 89.5916 32.13 89.5916 30.52C89.5916 28.91 90.0932 27.4283 91.0966 26.075C91.5866 27.125 92.5199 28.07 93.8966 28.91C95.2966 29.75 96.6732 30.17 98.0266 30.17C100.523 30.17 102.11 29.3767 102.787 27.79C98.9132 27.2767 95.9616 26.2033 93.9316 24.57C91.9016 22.9133 90.8866 20.9183 90.8866 18.585C90.8866 17.0217 91.3066 15.6333 92.1466 14.42C92.9866 13.1833 94.0599 12.2383 95.3666 11.585C97.9332 10.2783 100.43 9.625 102.857 9.625ZM113.163 24.255C113.163 22.6217 113.513 20.965 114.213 19.285C114.913 17.5817 115.905 16.0067 117.188 14.56C118.472 13.1133 120.14 11.935 122.193 11.025C124.27 10.0917 126.405 9.625 128.598 9.625C130.815 9.625 132.542 10.0333 133.778 10.85C135.038 11.6667 135.668 12.7983 135.668 14.245C135.668 15.6917 135.19 16.8233 134.233 17.64C133.3 18.4333 132.227 18.83 131.013 18.83C129.8 18.83 128.703 18.5733 127.723 18.06C126.767 17.5233 125.997 16.765 125.413 15.785C124.153 16.3917 123.068 17.5817 122.158 19.355C121.248 21.1283 120.793 22.9133 120.793 24.71C120.793 26.4833 121.085 27.895 121.668 28.945C122.252 29.9717 123.08 30.485 124.153 30.485C125.227 30.485 126.172 29.9367 126.988 28.84C127.828 27.7433 128.248 26.425 128.248 24.885C130.605 24.885 132.285 25.0717 133.288 25.445C134.315 25.8183 134.828 26.6233 134.828 27.86C134.828 29.7967 133.778 31.6167 131.678 33.32C129.578 35.0233 126.942 35.875 123.768 35.875C120.595 35.875 118.028 34.895 116.068 32.935C114.132 30.975 113.163 28.0817 113.163 24.255ZM136.53 24.29C136.53 19.8567 137.767 16.31 140.24 13.65C142.713 10.9667 146.097 9.625 150.39 9.625C151.767 9.625 152.747 9.905 153.33 10.465C153.937 11.0017 154.24 11.8417 154.24 12.985C154.24 13.1483 154.217 13.4633 154.17 13.93C155.033 13.23 155.99 12.88 157.04 12.88C158.463 12.88 159.677 13.5217 160.68 14.805C161.707 16.065 162.22 17.8967 162.22 20.3C162.22 22.7033 161.835 24.9083 161.065 26.915C160.295 28.9217 159.268 30.5667 157.985 31.85C156.725 33.1333 155.278 34.125 153.645 34.825C152.035 35.525 150.367 35.875 148.64 35.875C144.907 35.875 141.955 34.8133 139.785 32.69C137.615 30.5433 136.53 27.7433 136.53 24.29ZM153.995 25.935C152.502 24.115 151.755 22.155 151.755 20.055C151.755 17.955 152.222 16.2633 153.155 14.98C152.735 14.91 152.315 14.875 151.895 14.875C150.238 14.875 148.803 15.3767 147.59 16.38C145.303 18.2467 144.16 20.8367 144.16 24.15C144.16 26.04 144.58 27.615 145.42 28.875C146.26 30.135 147.427 30.765 148.92 30.765C150.063 30.765 151.102 30.3217 152.035 29.435C152.992 28.525 153.645 27.3583 153.995 25.935ZM188.484 34.335C187.084 35.385 185.708 35.91 184.354 35.91C183.001 35.91 181.928 35.56 181.134 34.86C180.341 34.16 179.944 33.11 179.944 31.71C179.944 31.3133 179.956 31.01 179.979 30.8L179.629 30.695C177.319 34.1483 174.216 35.875 170.319 35.875C166.563 35.875 164.684 33.8917 164.684 29.925C164.684 28.595 164.871 26.8333 165.244 24.64C165.618 22.4233 165.933 20.5567 166.189 19.04C166.469 17.5 166.656 16.45 166.749 15.89L164.894 12.145C166.364 11.305 167.636 10.675 168.709 10.255C169.806 9.835 170.903 9.625 171.999 9.625C173.096 9.625 173.831 9.91667 174.204 10.5C174.601 11.06 174.799 11.7367 174.799 12.53C174.799 13.3233 174.403 15.8667 173.609 20.16C172.839 24.4533 172.454 26.9617 172.454 27.685C172.454 29.5283 173.084 30.45 174.344 30.45C175.278 30.45 176.339 29.855 177.529 28.665C178.719 27.475 179.688 25.8417 180.434 23.765C179.944 22.3417 179.699 20.8717 179.699 19.355C179.699 16.6483 180.364 14.35 181.694 12.46C183.048 10.57 184.949 9.625 187.399 9.625C188.753 9.625 189.838 9.84667 190.654 10.29C190.444 11.55 190.036 13.8367 189.429 17.15C188.099 24.1733 187.434 28.21 187.434 29.26C187.434 31.5233 187.784 33.215 188.484 34.335ZM211.24 29.505L212.08 28.945C210.563 26.0283 209.805 22.8317 209.805 19.355C209.805 16.6483 210.47 14.35 211.8 12.46C213.153 10.57 215.055 9.625 217.505 9.625C218.788 9.625 219.873 9.84667 220.76 10.29C220.526 11.5967 220.106 13.8717 219.5 17.115C218.193 24.0917 217.54 28.0933 217.54 29.12C217.54 31.3367 217.913 32.9933 218.66 34.09C217.633 34.7667 216.688 35.2333 215.825 35.49C214.961 35.7467 213.841 35.875 212.465 35.875C211.111 35.875 209.875 35.5833 208.755 35C207.658 34.4167 206.748 33.6467 206.025 32.69C205.325 31.71 204.73 30.5083 204.24 29.085C203.376 26.5883 202.851 23.415 202.665 19.565H202.105C201.031 24.4183 200.495 27.8133 200.495 29.75C200.495 31.6867 200.845 33.215 201.545 34.335C200.145 35.385 198.686 35.91 197.17 35.91C195.653 35.91 194.568 35.4783 193.915 34.615C193.261 33.7283 192.935 32.4217 192.935 30.695C192.935 28.945 193.67 24.01 195.14 15.89L193.285 12.145C195.898 10.465 198.231 9.625 200.285 9.625C202.338 9.625 203.89 9.98667 204.94 10.71C205.99 11.41 206.725 12.4483 207.145 13.825C207.565 15.2017 207.868 16.66 208.055 18.2C208.265 19.7167 208.615 21.5483 209.105 23.695C209.618 25.8417 210.33 27.7783 211.24 29.505ZM221.569 15.68C221.569 13.79 222.059 12.3667 223.039 11.41C224.019 10.4533 225.185 9.975 226.539 9.975C227.915 9.975 229.782 10.2083 232.139 10.675C234.495 11.1417 236.269 11.3867 237.459 11.41C239.442 11.0367 241.332 10.5817 243.129 10.045C243.315 10.6517 243.409 11.41 243.409 12.32C243.409 14.21 242.86 15.6333 241.764 16.59C240.69 17.5467 239.314 18.025 237.634 18.025C237.214 18.025 236.654 18.0017 235.954 17.955C234.67 24.6983 234.029 28.4667 234.029 29.26C234.029 31.5233 234.379 33.215 235.079 34.335C233.679 35.385 232.22 35.91 230.704 35.91C229.187 35.91 228.102 35.4783 227.449 34.615C226.795 33.7283 226.469 32.4217 226.469 30.695C226.469 28.945 227.145 24.3017 228.499 16.765C225.862 17.115 223.645 17.5117 221.849 17.955C221.662 17.3717 221.569 16.6133 221.569 15.68ZM256.069 9.625C259.149 9.625 261.459 9.98667 262.999 10.71C264.539 11.41 265.309 12.5417 265.309 14.105C265.309 15.645 264.831 16.8233 263.874 17.64C262.941 18.4333 261.867 18.83 260.654 18.83C259.441 18.83 258.344 18.5267 257.364 17.92C256.407 17.29 255.742 16.4617 255.369 15.435C254.506 15.435 253.677 15.7267 252.884 16.31C252.114 16.87 251.624 17.605 251.414 18.515C256.034 19.635 259.347 20.9417 261.354 22.435C263.361 23.9283 264.364 25.8417 264.364 28.175C264.364 30.5083 263.302 32.375 261.179 33.775C259.079 35.175 256.232 35.875 252.639 35.875C249.069 35.875 246.537 35.385 245.044 34.405C243.551 33.425 242.804 32.13 242.804 30.52C242.804 28.91 243.306 27.4283 244.309 26.075C244.799 27.125 245.732 28.07 247.109 28.91C248.509 29.75 249.886 30.17 251.239 30.17C253.736 30.17 255.322 29.3767 255.999 27.79C252.126 27.2767 249.174 26.2033 247.144 24.57C245.114 22.9133 244.099 20.9183 244.099 18.585C244.099 17.0217 244.519 15.6333 245.359 14.42C246.199 13.1833 247.272 12.2383 248.579 11.585C251.146 10.2783 253.642 9.625 256.069 9.625Z" fill="#B7499F"/>
<g clip-path="url(#clip0_62_118)">
<path d="M303.243 24.6414C303.14 24.2754 302.814 24.059 302.371 24.059C301.929 24.059 301.603 24.2754 301.477 24.6543C301.384 24.6866 301.381 24.6877 301.381 25.7943C301.381 26.8997 301.384 26.9008 301.497 26.9482C301.603 27.3131 301.929 27.5294 302.371 27.5294C302.814 27.5294 303.139 27.313 303.265 26.9363C303.358 26.9007 303.36 26.8997 303.36 25.7942C303.36 24.6876 303.358 24.6866 303.243 24.6414Z" fill="#B7499F"/>
<path d="M292.501 19.0515C292.397 18.6855 292.071 18.4681 291.629 18.4681C291.186 18.4681 290.86 18.6855 290.735 19.0644C290.641 19.0967 290.639 19.0978 290.639 20.2032C290.639 21.3098 290.641 21.3109 290.755 21.3571C290.861 21.7232 291.186 21.9395 291.629 21.9395C292.071 21.9395 292.397 21.7231 292.522 21.3464C292.616 21.3109 292.618 21.3098 292.618 20.2032C292.618 19.0978 292.616 19.0968 292.501 19.0515Z" fill="#B7499F"/>
<path d="M314.465 23.763C314.278 23.2722 314.278 22.7286 314.465 22.2377L315.986 18.2442C316.345 17.3023 315.999 16.2388 315.156 15.6888L311.577 13.3519C311.138 13.0645 310.818 12.6253 310.681 12.1183L309.564 7.9924C309.301 7.02045 308.396 6.36271 307.391 6.41334L303.123 6.62646C302.597 6.65232 302.081 6.48443 301.672 6.15506L298.344 3.47467C297.56 2.8417 296.441 2.8417 295.657 3.47467L292.329 6.15498C291.919 6.48435 291.403 6.65224 290.878 6.62638L286.61 6.41326C285.605 6.36263 284.699 7.02037 284.436 7.99232L283.319 12.1183C283.182 12.6252 282.863 13.0644 282.423 13.3519L278.845 15.6887C278.002 16.2387 277.656 17.3022 278.014 18.2441L279.536 22.2376C279.723 22.7285 279.723 23.2721 279.536 23.7629L278.014 27.7565C277.656 28.6972 278.002 29.7618 278.845 30.3119L282.423 32.6488C282.863 32.9352 283.182 33.3743 283.319 33.8824L284.436 38.0072C284.699 38.9803 285.604 39.6369 286.61 39.5874L290.878 39.3743C291.403 39.3473 291.919 39.5152 292.329 39.8457L295.657 42.526C296.441 43.1579 297.56 43.1579 298.344 42.526L301.672 39.8457C302.081 39.5152 302.597 39.3473 303.123 39.3743L307.391 39.5874C308.396 39.6369 309.301 38.9803 309.564 38.0072L310.681 33.8824C310.818 33.3743 311.138 32.9352 311.577 32.6488L315.156 30.3119C315.999 29.7619 316.345 28.6972 315.986 27.7565L314.465 23.763ZM291.629 23.5015C290.251 23.5015 289.203 22.8383 288.824 21.7265C288.787 21.6199 288.756 21.5542 288.73 21.4994C288.653 21.3368 288.628 21.2819 288.628 20.2033C288.628 19.1269 288.653 19.072 288.73 18.9105C288.756 18.8545 288.787 18.7889 288.823 18.6823C289.203 17.5715 290.251 16.9084 291.629 16.9084C293.007 16.9084 294.055 17.5715 294.433 18.6812C294.47 18.7889 294.502 18.8556 294.528 18.9105C294.605 19.073 294.631 19.1279 294.631 20.2033C294.631 21.2808 294.605 21.3358 294.527 21.4983C294.502 21.5532 294.47 21.6189 294.433 21.7254C294.055 22.8383 293.007 23.5015 291.629 23.5015ZM294.723 30.4261C294.596 30.7027 294.317 30.8814 294.013 30.8814H293.462C293.194 30.8814 292.948 30.7469 292.804 30.5219C292.66 30.2969 292.64 30.0181 292.751 29.7737L299.279 15.5736C299.406 15.297 299.684 15.1194 299.989 15.1194H300.54C300.808 15.1194 301.053 15.2529 301.197 15.4779C301.342 15.7029 301.362 15.9827 301.251 16.226L294.723 30.4261ZM305.27 27.0891C305.244 27.144 305.213 27.2097 305.176 27.3152C304.798 28.4282 303.75 29.0924 302.371 29.0924C300.993 29.0924 299.945 28.4283 299.567 27.3163C299.53 27.2097 299.498 27.1452 299.473 27.0903C299.396 26.9278 299.37 26.8729 299.37 25.7943C299.37 24.7168 299.396 24.6619 299.472 24.5004C299.498 24.4456 299.53 24.3788 299.566 24.2722C299.945 23.1614 300.994 22.4983 302.371 22.4983C303.75 22.4983 304.798 23.1614 305.175 24.2722C305.213 24.3799 305.244 24.4456 305.27 24.5004C305.347 24.6629 305.373 24.7179 305.373 25.7943C305.373 26.8717 305.347 26.9266 305.27 27.0891Z" fill="#AD1D8D"/>
</g>
<g clip-path="url(#clip1_62_118)">
<path d="M26.2432 23.6414C26.1399 23.2754 25.8142 23.059 25.3712 23.059C24.9289 23.059 24.6027 23.2754 24.4773 23.6543C24.3837 23.6866 24.3815 23.6877 24.3815 24.7943C24.3815 25.8997 24.3837 25.9008 24.4972 25.9482C24.6033 26.3131 24.9294 26.5294 25.3712 26.5294C25.8137 26.5294 26.1393 26.313 26.2647 25.9363C26.3583 25.9007 26.3605 25.8997 26.3605 24.7942C26.3605 23.6876 26.3583 23.6866 26.2432 23.6414Z" fill="#B7499F"/>
<path d="M15.501 18.0515C15.3972 17.6855 15.071 17.4681 14.6286 17.4681C14.1863 17.4681 13.8601 17.6855 13.7352 18.0644C13.641 18.0967 13.6389 18.0978 13.6389 19.2032C13.6389 20.3098 13.641 20.3109 13.7551 20.3571C13.8606 20.7232 14.1862 20.9395 14.6285 20.9395C15.071 20.9395 15.3966 20.7231 15.522 20.3464C15.6157 20.3109 15.6178 20.3098 15.6178 19.2032C15.6179 18.0978 15.6157 18.0968 15.501 18.0515Z" fill="#B7499F"/>
<path d="M37.4648 22.763C37.2775 22.2722 37.2775 21.7286 37.4648 21.2377L38.9858 17.2442C39.3448 16.3023 38.9988 15.2388 38.1559 14.6888L34.5773 12.3519C34.1377 12.0645 33.8184 11.6253 33.6812 11.1183L32.5645 6.9924C32.3013 6.02045 31.396 5.36271 30.3906 5.41334L26.1227 5.62646C25.5973 5.65232 25.0813 5.48443 24.6716 5.15506L21.3438 2.47467C20.5597 1.8417 19.4407 1.8417 18.6566 2.47467L15.3288 5.15498C14.9193 5.48435 14.4031 5.65224 13.8778 5.62638L9.60985 5.41326C8.60454 5.36263 7.69922 6.02037 7.43602 6.99232L6.31922 11.1183C6.18196 11.6252 5.86282 12.0644 5.42313 12.3519L1.84454 14.6887C1.00172 15.2387 0.65563 16.3022 1.01407 17.2441L2.53563 21.2376C2.7229 21.7285 2.7229 22.2721 2.53563 22.7629L1.01407 26.7565C0.65563 27.6972 1.00165 28.7618 1.84454 29.3119L5.42313 31.6488C5.8629 31.9352 6.18204 32.3743 6.31922 32.8824L7.43602 37.0072C7.69922 37.9803 8.60446 38.6369 9.60985 38.5874L13.8778 38.3743C14.4031 38.3473 14.9192 38.5152 15.3288 38.8457L18.6566 41.526C19.4408 42.1579 20.5597 42.1579 21.3438 41.526L24.6716 38.8457C25.0812 38.5152 25.5973 38.3473 26.1226 38.3743L30.3905 38.5874C31.3959 38.6369 32.3012 37.9803 32.5644 37.0072L33.6811 32.8824C33.8184 32.3743 34.1375 31.9352 34.5773 31.6488L38.1559 29.3119C38.9987 28.7619 39.3448 27.6972 38.9857 26.7565L37.4648 22.763ZM14.6286 22.5015C13.2513 22.5015 12.203 21.8383 11.8241 20.7265C11.7869 20.6199 11.7556 20.5542 11.7298 20.4994C11.6534 20.3368 11.6276 20.2819 11.6276 19.2033C11.6276 18.1269 11.6534 18.072 11.7298 17.9105C11.7556 17.8545 11.7869 17.7889 11.8234 17.6823C12.2029 16.5715 13.2513 15.9084 14.6286 15.9084C16.007 15.9084 17.0555 16.5715 17.4327 17.6812C17.4703 17.7889 17.5016 17.8556 17.528 17.9105C17.6049 18.073 17.6308 18.1279 17.6308 19.2033C17.6308 20.2808 17.6049 20.3358 17.5274 20.4983C17.5016 20.5532 17.4704 20.6189 17.4332 20.7254C17.0554 21.8383 16.007 22.5015 14.6286 22.5015ZM17.7227 29.4261C17.5957 29.7027 17.3174 29.8814 17.0134 29.8814H16.4616C16.1941 29.8814 15.9482 29.7469 15.8045 29.5219C15.6597 29.2969 15.6398 29.0181 15.7512 28.7737L22.2786 14.5736C22.4056 14.297 22.6838 14.1194 22.9885 14.1194H23.5402C23.8077 14.1194 24.0531 14.2529 24.1973 14.4779C24.3421 14.7029 24.3621 14.9827 24.2506 15.226L17.7227 29.4261ZM28.2701 26.0891C28.2437 26.144 28.2131 26.2097 28.1759 26.3152C27.798 27.4282 26.7496 28.0924 25.3713 28.0924C23.9934 28.0924 22.945 27.4283 22.5667 26.3163C22.5295 26.2097 22.4983 26.1452 22.4725 26.0903C22.3961 25.9278 22.3702 25.8729 22.3702 24.7943C22.3702 23.7168 22.3961 23.6619 22.472 23.5004C22.4983 23.4456 22.5295 23.3788 22.5662 23.2722C22.9451 22.1614 23.9935 21.4983 25.3713 21.4983C26.7497 21.4983 27.7981 22.1614 28.1754 23.2722C28.2131 23.3799 28.2443 23.4456 28.2701 23.5004C28.347 23.6629 28.3729 23.7179 28.3729 24.7943C28.3729 25.8717 28.347 25.9266 28.2701 26.0891Z" fill="#AD1D8D"/>
</g>
<defs>
<clipPath id="clip0_62_118">
<rect width="40" height="40" fill="white" transform="translate(277 3)"/>
</clipPath>
<clipPath id="clip1_62_118">
<rect width="40" height="40" fill="white" transform="translate(6.10352e-05 2)"/>
</clipPath>
</defs>
</svg>
