<svg width="70" height="60" viewBox="0 0 70 60" fill="none" xmlns="http://www.w3.org/2000/svg">
<circle cx="35" cy="30" r="30" fill="url(#paint0_linear_4_1985)"/>
<rect y="44" width="70" height="16" rx="8" fill="url(#paint1_linear_4_1985)"/>
<path d="M24.0243 54.71C24.0243 54.43 24.0709 53.97 24.1643 53.33H21.9043C21.8176 53.83 21.7743 54.1733 21.7743 54.36C21.7743 55.0067 21.8743 55.49 22.0743 55.81C21.6743 56.11 21.2576 56.26 20.8243 56.26C20.3909 56.26 20.0809 56.1367 19.8943 55.89C19.7076 55.6367 19.6143 55.2633 19.6143 54.77C19.6143 54.27 19.8243 52.86 20.2443 50.54L19.7143 49.47C20.4676 48.9833 21.1543 48.74 21.7743 48.74C22.2876 48.74 22.5443 49.0533 22.5443 49.68C22.5443 49.8667 22.4043 50.6867 22.1243 52.14H24.3643C24.3909 51.9733 24.4876 51.44 24.6543 50.54L24.1243 49.47C24.8776 48.9833 25.5643 48.74 26.1843 48.74C26.6976 48.74 26.9543 49.0533 26.9543 49.68C26.9543 49.8867 26.8243 50.6567 26.5643 51.99C26.3109 53.3167 26.1843 54.1067 26.1843 54.36C26.1843 55.0067 26.2843 55.49 26.4843 55.81C26.0843 56.11 25.6676 56.26 25.2343 56.26C24.8009 56.26 24.4909 56.1367 24.3043 55.89C24.1176 55.6367 24.0243 55.2433 24.0243 54.71ZM32.5364 50.76C32.9098 50.76 33.2298 50.91 33.4964 51.21C33.7698 51.51 33.9064 51.9467 33.9064 52.52C33.9064 53.0867 33.8064 53.6133 33.6064 54.1C33.4064 54.58 33.1431 54.9733 32.8164 55.28C32.4898 55.5867 32.1198 55.8267 31.7064 56C31.2931 56.1667 30.8698 56.25 30.4364 56.25C29.5631 56.25 28.8731 56.01 28.3664 55.53C27.8598 55.05 27.6064 54.4133 27.6064 53.62C27.6064 52.5467 27.9498 51.6767 28.6364 51.01C29.3298 50.3367 30.2098 50 31.2764 50C31.5164 50 31.7564 50.0267 31.9964 50.08C32.0698 50.3 32.1098 50.55 32.1164 50.83C32.2564 50.7833 32.3964 50.76 32.5364 50.76ZM31.3064 52.15C31.3064 51.9633 31.3498 51.7533 31.4364 51.52C31.5298 51.2867 31.6764 51.1 31.8764 50.96C30.9964 51.1467 30.3898 51.5033 30.0564 52.03C29.7698 52.4833 29.6264 52.95 29.6264 53.43C29.6264 53.91 29.7231 54.2967 29.9164 54.59C30.1164 54.8767 30.3698 55.02 30.6764 55.02C31.3564 55.02 31.8364 54.5767 32.1164 53.69C31.5764 53.3567 31.3064 52.8433 31.3064 52.15ZM41.1349 51.78L41.2349 51.83C41.9482 50.61 42.8216 50 43.8549 50C44.6616 50 45.0649 50.4033 45.0649 51.21C45.0649 51.5567 44.9649 52.1433 44.7649 52.97C44.5716 53.7967 44.4749 54.42 44.4749 54.84C44.4749 55.26 44.5449 55.5667 44.6849 55.76C44.3316 56.0867 43.9582 56.25 43.5649 56.25C42.7982 56.25 42.4149 55.8367 42.4149 55.01C42.4149 54.7033 42.5149 54.1833 42.7149 53.45C42.9149 52.7167 43.0149 52.24 43.0149 52.02C43.0149 51.72 42.9016 51.57 42.6749 51.57C42.4882 51.57 42.2782 51.6533 42.0449 51.82C41.8182 51.98 41.5982 52.2 41.3849 52.48C41.1782 52.7533 41.0016 53.1033 40.8549 53.53C40.7149 53.95 40.6449 54.38 40.6449 54.82C40.6449 55.2533 40.7149 55.5667 40.8549 55.76C40.5016 56.0867 40.1282 56.25 39.7349 56.25C38.9682 56.25 38.5849 55.8367 38.5849 55.01C38.5849 54.7033 38.6849 54.1833 38.8849 53.45C39.0849 52.7167 39.1849 52.24 39.1849 52.02C39.1849 51.72 39.0716 51.57 38.8449 51.57C38.6582 51.57 38.4482 51.6533 38.2149 51.82C37.9882 51.98 37.7682 52.2 37.5549 52.48C37.3482 52.7533 37.1716 53.1033 37.0249 53.53C36.8849 53.95 36.8149 54.38 36.8149 54.82C36.8149 55.2533 36.8849 55.5667 37.0249 55.76C36.6716 56.0867 36.2982 56.25 35.9049 56.25C35.1382 56.25 34.7549 55.8367 34.7549 55.01C34.7549 54.7433 34.8216 54.2267 34.9549 53.46C35.0949 52.6933 35.2382 51.9933 35.3849 51.36L34.8649 50.56C35.5249 50.1867 36.1349 50 36.6949 50C37.2549 50 37.5349 50.2533 37.5349 50.76C37.5349 51.0933 37.4582 51.4333 37.3049 51.78L37.4049 51.83C38.1182 50.61 38.9916 50 40.0249 50C40.3982 50 40.6916 50.0933 40.9049 50.28C41.1249 50.4667 41.2349 50.7467 41.2349 51.12C41.2349 51.32 41.2016 51.54 41.1349 51.78ZM48.7235 56.25C47.8101 56.25 47.1035 56.0133 46.6035 55.54C46.1101 55.0667 45.8635 54.4267 45.8635 53.62C45.8635 52.5467 46.2301 51.6767 46.9635 51.01C47.7035 50.3367 48.6301 50 49.7435 50C50.3635 50 50.8335 50.14 51.1535 50.42C51.4735 50.6933 51.6335 51.0567 51.6335 51.51C51.6335 52.13 51.3301 52.6467 50.7235 53.06C50.1235 53.4667 49.1935 53.6733 47.9335 53.68C47.9535 54.1067 48.0501 54.4433 48.2235 54.69C48.3968 54.93 48.6135 55.05 48.8735 55.05C49.1335 55.05 49.3568 54.9633 49.5435 54.79C49.7368 54.6167 49.8335 54.3333 49.8335 53.94C50.8068 53.94 51.2935 54.17 51.2935 54.63C51.2935 55.0233 51.0535 55.3933 50.5735 55.74C50.0935 56.08 49.4768 56.25 48.7235 56.25ZM49.5735 51.17C49.2335 51.17 48.9201 51.34 48.6335 51.68C48.3535 52.02 48.1501 52.42 48.0235 52.88C48.6901 52.8267 49.1901 52.6767 49.5235 52.43C49.8635 52.1767 50.0335 51.91 50.0335 51.63C50.0335 51.4967 49.9901 51.3867 49.9035 51.3C49.8235 51.2133 49.7135 51.17 49.5735 51.17Z" fill="white"/>
<g clip-path="url(#clip0_4_1985)">
<path d="M15.013 22.4839C15.0087 22.6559 15 22.8269 15 23C15 24.5519 15.1826 26.0603 15.5171 27.5107C19.2483 29.8409 27.6841 31.4677 37.5 31.4677C43.8159 31.4677 49.5594 30.7936 53.8486 29.6928C54.5919 27.5998 55 25.3479 55 23C55 22.0571 54.9299 21.131 54.8037 20.2228C49.9193 17.8387 44.298 16.871 37.5 16.871C27.2146 16.8709 18.4426 19.9739 15.013 22.4839Z" fill="#C5F8F1"/>
<path d="M15.1215 24.527C15.1171 24.6883 15.1094 24.8487 15.1084 25.0108C15.195 25.8602 15.3291 26.6955 15.5171 27.5108C19.2482 29.841 27.684 31.4678 37.5 31.4678C43.8159 31.4678 49.5593 30.7936 53.8486 29.6929C54.5918 27.5999 55 25.348 55 23.0001C55 22.5255 54.982 22.0554 54.9482 21.5895C50.2701 19.9355 46.7742 19.3351 40.8064 19.8133C29.7822 20.6966 18.8092 22.017 15.1215 24.527Z" fill="#DEFBF2"/>
<path d="M18.4674 21.7096C17.5739 21.9428 16.1954 22.4001 15.0048 22.812C15.0041 22.8749 15 22.9369 15 22.9999C15 25.8676 15.608 28.5919 16.695 31.0576C18.6947 31.2365 21.3569 31.4677 21.7608 31.4677C22.4194 31.4677 27.3869 25.2764 27.3869 25.2764C23.7225 24.9345 20.322 21.2257 18.4674 21.7096ZM54.9813 23.742C52.2255 22.4318 49.9692 20.8729 48.3795 21.0644C46.3709 21.3063 39.8387 24.17 39.8387 24.17L48.5484 29.8199H53.8056C54.4975 27.9125 54.9035 25.8693 54.9813 23.742Z" fill="#B0EB81"/>
<path d="M53.8346 25.8926C53.8346 24.8064 52.9677 20.5708 52.4194 20.5708C51.8711 20.5708 51.0042 24.8064 51.0042 25.8926C51.0042 26.8629 51.5109 27.3983 52.1761 27.5021V28.8336C52.1761 28.8656 52.1824 28.8972 52.1947 28.9267C52.2069 28.9562 52.2248 28.983 52.2474 29.0056C52.27 29.0282 52.2968 29.0461 52.3264 29.0583C52.3559 29.0705 52.3875 29.0768 52.4195 29.0768C52.4514 29.0768 52.483 29.0705 52.5126 29.0583C52.5421 29.0461 52.5689 29.0282 52.5915 29.0056C52.6141 28.983 52.632 28.9562 52.6443 28.9267C52.6565 28.8972 52.6628 28.8656 52.6628 28.8336V27.5021C53.3279 27.3982 53.8346 26.8628 53.8346 25.8926Z" fill="#94D75B"/>
<path d="M51.4456 26.3953C51.4456 25.6364 50.84 22.6774 50.4568 22.6774C50.0737 22.6774 49.4681 25.6364 49.4681 26.3953C49.4681 27.0731 49.8221 27.4471 50.2868 27.5197V28.4499C50.2868 28.495 50.3047 28.5382 50.3366 28.5701C50.3685 28.602 50.4117 28.6199 50.4568 28.6199C50.5019 28.6199 50.5452 28.602 50.577 28.5701C50.6089 28.5382 50.6268 28.495 50.6268 28.4499V27.5196C51.0916 27.4471 51.4456 27.0731 51.4456 26.3953ZM22.7496 27.1479C22.7496 26.3891 22.1439 23.43 21.7608 23.43C21.3778 23.43 20.7721 26.3891 20.7721 27.1479C20.7721 27.8258 21.1261 28.1998 21.5908 28.2724V29.2025C21.5908 29.2476 21.6087 29.2909 21.6406 29.3227C21.6725 29.3546 21.7157 29.3725 21.7608 29.3725C21.8059 29.3725 21.8491 29.3546 21.881 29.3227C21.9129 29.2909 21.9308 29.2476 21.9308 29.2025V28.2723C22.3955 28.1998 22.7496 27.8258 22.7496 27.1479ZM20.3307 26.962C20.3307 26.3921 19.8759 24.1701 19.5882 24.1701C19.3006 24.1701 18.8457 26.3922 18.8457 26.962C18.8457 27.471 19.1116 27.7519 19.4606 27.8064V28.5049C19.4606 28.5387 19.474 28.5712 19.498 28.5951C19.5219 28.6191 19.5544 28.6325 19.5882 28.6325C19.6221 28.6325 19.6546 28.6191 19.6785 28.5951C19.7024 28.5712 19.7159 28.5387 19.7159 28.5049V27.8064C20.0649 27.7518 20.3307 27.471 20.3307 26.962ZM18.4675 26.9788C18.4675 26.2545 17.8893 23.43 17.5237 23.43C17.1581 23.43 16.58 26.2545 16.58 26.9788C16.58 27.6258 16.9179 27.9828 17.3614 28.0521V28.9399C17.3614 28.983 17.3785 29.0243 17.409 29.0547C17.4394 29.0851 17.4807 29.1022 17.5237 29.1022C17.5667 29.1022 17.608 29.0851 17.6384 29.0547C17.6689 29.0243 17.686 28.983 17.686 28.9399V28.0521C18.1296 27.9828 18.4675 27.6258 18.4675 26.9788Z" fill="#94D75B"/>
<path d="M26.0081 30.5268C25.9233 30.5268 25.8394 30.5101 25.7612 30.4777C25.6829 30.4453 25.6117 30.3978 25.5518 30.3378C25.4919 30.2779 25.4444 30.2068 25.412 30.1285C25.3796 30.0502 25.3629 29.9663 25.3629 29.8816V19.7742C25.3629 19.4179 25.6515 19.129 26.0081 19.129C26.3646 19.129 26.6532 19.4179 26.6532 19.7742V29.8816C26.6532 29.9663 26.6366 30.0502 26.6042 30.1285C26.5717 30.2068 26.5242 30.2779 26.4643 30.3378C26.4044 30.3978 26.3333 30.4453 26.255 30.4777C26.1767 30.5101 26.0928 30.5268 26.0081 30.5268Z" fill="#674447"/>
<path d="M32.0791 22.0679C32.3745 21.6426 32.55 21.1279 32.55 20.5709C32.55 19.3951 31.7734 18.4111 30.709 18.0742C30.6996 18.0665 30.6919 18.0567 30.6824 18.049C30.7774 17.78 30.8389 17.4951 30.8389 17.1936C30.8389 15.7683 29.6836 14.6129 28.2583 14.6129C28.0519 14.6129 27.8539 14.6434 27.6614 14.6892C27.0771 13.8647 26.12 13.3226 25.0325 13.3226C23.2509 13.3226 21.8067 14.7668 21.8067 16.5484C21.8067 16.9228 21.8829 17.2767 22.0003 17.6111C20.7384 18.2489 19.8712 19.554 19.8712 21.0646C19.8712 23.1958 21.5937 24.9238 23.7224 24.9346C24.2671 25.4314 24.9848 25.742 25.7801 25.742C26.3714 25.742 26.9186 25.5667 27.3868 25.2765C27.627 25.3215 27.8736 25.3479 28.127 25.3479C28.6162 25.3479 29.0829 25.2563 29.5165 25.0964C30.7779 25.2715 32.0493 25.4184 32.1293 25.3119C32.1934 25.2264 32.0498 24.1284 31.8537 22.8376C31.9543 22.5892 32.0298 22.3313 32.0791 22.0679Z" fill="#43AB5F"/>
<path d="M32.0791 22.0679C32.3745 21.6426 32.5501 21.1279 32.5501 20.5709C32.5501 19.3951 31.7734 18.4111 30.709 18.0742C30.6996 18.0665 30.6919 18.0567 30.6824 18.049C30.7774 17.78 30.839 17.4951 30.839 17.1936C30.839 15.7683 29.6836 14.6129 28.2583 14.6129C28.0519 14.6129 27.8539 14.6434 27.6615 14.6892C27.0771 13.8647 26.12 13.3226 25.0325 13.3226C24.1963 13.3226 23.4418 13.649 22.8687 14.1708C23.136 14.099 23.4119 14.0484 23.7019 14.0484C24.7894 14.0484 25.7465 14.5904 26.3308 15.415C26.5233 15.3692 26.7213 15.3387 26.9277 15.3387C28.3529 15.3387 29.5083 16.4941 29.5083 17.9194C29.5083 18.2208 29.4469 18.5058 29.3518 18.7747C29.3613 18.7824 29.369 18.7922 29.3784 18.8C30.4428 19.1369 31.2194 20.1208 31.2194 21.2967C31.2194 21.8538 31.044 22.3684 30.7485 22.7937C30.6991 23.0571 30.6236 23.3149 30.5231 23.5633C30.6214 24.2104 30.7064 24.8088 30.7588 25.2558C31.5027 25.3413 32.0765 25.3821 32.1293 25.3118C32.1934 25.2263 32.0498 24.1283 31.8537 22.8375C31.9543 22.5891 32.0298 22.3313 32.0791 22.0679Z" fill="#71BE63"/>
<path d="M15.8591 28.8065C18.3476 37.0199 25.9741 43 35 43C44.0259 43 51.6524 37.0199 54.1409 28.8065H15.8591Z" fill="#94D75B"/>
<path d="M30.4839 20.4194L36.2903 14.6129L47.9032 26.2258V30.742H30.4839V20.4194Z" fill="#DE7E68"/>
<path d="M34.7111 30.5269H48.5215V31.1785H34.7111V30.5269Z" fill="#99645F"/>
<path d="M34.3549 30.7419H26.6129V25.5806L30.4839 23.6451L34.3549 25.5806V30.7419Z" fill="#B66E6E"/>
<path d="M39.8732 10.3896C39.7082 10.3896 39.5523 10.4221 39.4028 10.4692C38.9294 9.78862 38.1441 9.3412 37.2522 9.3412C36.3603 9.3412 35.575 9.78862 35.1016 10.4692C34.9521 10.4221 34.7962 10.3896 34.6312 10.3896C33.7627 10.3896 33.0586 11.0936 33.0586 11.9621H41.4457C41.4458 11.0936 40.7417 10.3896 39.8732 10.3896ZM44.039 13.1982C43.9607 13.1982 43.8867 13.2136 43.8159 13.236C43.5913 12.9132 43.2188 12.7009 42.7957 12.7009C42.3727 12.7009 42.0002 12.9132 41.7755 13.236C41.7047 13.2136 41.6307 13.1982 41.5524 13.1982C41.3546 13.1982 41.1649 13.2768 41.025 13.4167C40.8851 13.5566 40.8065 13.7463 40.8065 13.9442H44.785C44.7849 13.5322 44.4509 13.1982 44.039 13.1982ZM36.0548 6.23245C35.9765 6.23245 35.9025 6.24784 35.8316 6.27019C35.607 5.94737 35.2345 5.73511 34.8115 5.73511C34.3884 5.73511 34.0159 5.94737 33.7913 6.27019C33.7205 6.24784 33.6465 6.23245 33.5682 6.23245C33.3704 6.23245 33.1806 6.31104 33.0407 6.45093C32.9009 6.59082 32.8223 6.78055 32.8223 6.97839H36.8008C36.8008 6.56644 36.4668 6.23245 36.0548 6.23245Z" fill="white"/>
<path d="M49.3783 14.4197C49.2567 14.4197 49.1418 14.4436 49.0316 14.4784C48.6826 13.9767 48.1037 13.6468 47.4462 13.6468C46.7887 13.6468 46.2098 13.9767 45.8608 14.4784C45.7507 14.4436 45.6357 14.4197 45.5141 14.4197C44.8739 14.4197 44.3548 14.9387 44.3548 15.579H50.5376C50.5376 14.9388 50.0185 14.4197 49.3783 14.4197ZM29.7101 9.92024C29.5635 9.92024 29.4249 9.94907 29.2921 9.99095C28.8714 9.38618 28.1735 8.98853 27.3809 8.98853C26.5883 8.98853 25.8904 9.38618 25.4697 9.99095C25.3369 9.94907 25.1983 9.92024 25.0517 9.92024C24.2799 9.92024 23.6542 10.5459 23.6542 11.3177H31.1075C31.1076 10.5459 30.482 9.92024 29.7101 9.92024Z" fill="white"/>
<path d="M48.2062 27.2131L36.2903 15.2971L30.1808 21.4067L29.4965 20.7225L36.2903 13.9287L48.8904 26.5289L48.2062 27.2131ZM34.6629 26.2756L30.4839 24.1861L26.3048 26.2756L25.8726 25.41L30.4839 23.1043L35.0951 25.41L34.6629 26.2756Z" fill="#99645F"/>
<path d="M32.4194 21.0646H34.3549V23.6452H32.4194V21.0646Z" fill="#63A0B5"/>
<path d="M34.5161 23.8065H32.2581V20.9033H34.5161V23.8065ZM32.5806 23.4839H34.1935V21.2258H32.5806V23.4839Z" fill="#556483"/>
<path d="M32.4194 21.5483H34.3549V21.8709H32.4194V21.5483Z" fill="#556483"/>
<path d="M35.6451 21.0646H37.5806V23.6452H35.6451V21.0646Z" fill="#63A0B5"/>
<path d="M37.7419 23.8065H35.4839V20.9033H37.7419V23.8065ZM35.8065 23.4839H37.4194V21.2258H35.8065V23.4839Z" fill="#556483"/>
<path d="M35.6451 21.5483H37.5806V21.8709H35.6451V21.5483Z" fill="#556483"/>
<path d="M38.871 21.0646H40.8064V23.6452H38.871V21.0646Z" fill="#63A0B5"/>
<path d="M40.9678 23.8065H38.7097V20.9033H40.9678V23.8065ZM39.0323 23.4839H40.6452V21.2258H39.0323V23.4839Z" fill="#556483"/>
<path d="M38.871 21.5483H40.8064V21.8709H38.871V21.5483Z" fill="#556483"/>
<path d="M36.9354 26.2258H38.8709V28.8065H36.9354V26.2258Z" fill="#63A0B5"/>
<path d="M39.0322 28.9678H36.7742V26.0646H39.0322V28.9678ZM37.0967 28.6452H38.7096V26.3872H37.0967V28.6452Z" fill="#556483"/>
<path d="M36.9354 26.7097H38.8709V27.0323H36.9354V26.7097Z" fill="#556483"/>
<path d="M40.1614 26.2258H42.0968V28.8065H40.1614V26.2258Z" fill="#63A0B5"/>
<path d="M42.258 28.9678H40V26.0646H42.258V28.9678ZM40.3226 28.6452H41.9355V26.3872H40.3226V28.6452Z" fill="#556483"/>
<path d="M40.1614 26.7097H42.0968V27.0323H40.1614V26.7097Z" fill="#556483"/>
<path d="M43.3871 26.2258H45.3226V28.8065H43.3871V26.2258Z" fill="#63A0B5"/>
<path d="M45.484 28.9678H43.2258V26.0646H45.4839V28.9678H45.484ZM43.5484 28.6452H45.1613V26.3872H43.5484V28.6452Z" fill="#556483"/>
<path d="M43.3871 26.7097H45.3226V27.0323H43.3871V26.7097Z" fill="#556483"/>
<path d="M27.9032 26.2258H29.8387V28.8065H27.9032V26.2258Z" fill="#63A0B5"/>
<path d="M30 28.9678H27.7419V26.0646H30V28.9678ZM28.0645 28.6452H29.6774V26.3872H28.0645V28.6452Z" fill="#556483"/>
<path d="M27.9032 26.7097H29.8387V27.0323H27.9032V26.7097Z" fill="#556483"/>
<path d="M31.129 26.2258H33.0645V28.8065H31.129V26.2258Z" fill="#63A0B5"/>
<path d="M33.2258 28.9678H30.9678V26.0646H33.2258V28.9678ZM31.2904 28.6452H32.9032V26.3872H31.2904V28.6452Z" fill="#556483"/>
<path d="M31.129 26.7097H33.0645V27.0323H31.129V26.7097Z" fill="#556483"/>
<path d="M30.5056 29.4293C30.2561 29.4293 30.0203 29.4785 29.7943 29.5497C29.0785 28.5207 27.891 27.8441 26.5425 27.8441C25.194 27.8441 24.0065 28.5207 23.2907 29.5497C23.0648 29.4785 22.8289 29.4293 22.5795 29.4293C21.2662 29.4293 20.2017 30.494 20.2017 31.8072H32.8835C32.8834 30.494 31.8188 29.4293 30.5056 29.4293Z" fill="#71BE63"/>
<path d="M28.9808 29.4293C28.7314 29.4293 28.4955 29.4784 28.2696 29.5497C27.6935 28.7216 26.8053 28.1419 25.7801 27.9392C24.755 28.1419 23.8668 28.7216 23.2907 29.5497C23.0647 29.4784 22.8289 29.4293 22.5794 29.4293C21.2661 29.4293 20.2015 30.4939 20.2015 31.8072H31.3586C31.3587 30.4939 30.2941 29.4293 28.9808 29.4293Z" fill="#43AB5F"/>
<path d="M30.3887 31.7956C30.3887 31.0318 31.0078 30.4126 31.7716 30.4126C31.887 30.4126 31.9971 30.4308 32.1042 30.4574C32.4651 30.0678 32.9767 29.8199 33.5498 29.8199C34.6409 29.8199 35.5254 30.7045 35.5254 31.7956H30.3887Z" fill="#71BE63"/>
<path d="M33.204 29.8571C32.773 29.9349 32.3902 30.1485 32.1041 30.4574C31.997 30.4309 31.8868 30.4127 31.7715 30.4127C31.0077 30.4127 30.3885 31.0318 30.3885 31.7957H34.8114C34.8114 30.8306 34.1187 30.0299 33.204 29.8571Z" fill="#43AB5F"/>
<path d="M35 43C42.1981 43 48.4969 39.1901 52.0187 33.4839H17.9812C21.503 39.1901 27.8018 43 35 43Z" fill="#71BE63"/>
<path d="M48.3795 37.8386H21.6206C25.1628 41.0409 29.8478 43 35.0001 43C40.1523 43 44.8373 41.0409 48.3795 37.8386Z" fill="#43AB5F"/>
<path d="M20.2718 28.3937C20.1945 28.3937 20.1215 28.4089 20.0515 28.431C19.8299 28.1124 19.4622 27.9028 19.0447 27.9028C18.6272 27.9028 18.2594 28.1123 18.0378 28.431C17.9678 28.4089 17.8948 28.3937 17.8175 28.3937C17.6223 28.3937 17.435 28.4713 17.2969 28.6093C17.1589 28.7474 17.0813 28.9347 17.0813 29.1299H21.0081C21.0081 28.7234 20.6784 28.3937 20.2718 28.3937Z" fill="#94D75B"/>
<path d="M48.5215 29.1492C48.5215 28.6292 48.943 28.2076 49.463 28.2076C49.5416 28.2076 49.6166 28.22 49.6895 28.2381C49.9352 27.9728 50.2835 27.8041 50.6736 27.8041C51.4165 27.8041 52.0187 28.4063 52.0187 29.1492H48.5215Z" fill="#94D75B"/>
<path d="M29.0463 12.2131C29.0463 11.3076 29.7802 10.5736 30.6857 10.5736C30.8224 10.5736 30.9531 10.5953 31.0799 10.6268C31.5077 10.1648 32.1143 9.87097 32.7936 9.87097C34.0871 9.87097 35.1357 10.9196 35.1357 12.2131H29.0463Z" fill="white"/>
<path d="M42.2778 10.1596C42.2778 9.60293 42.7291 9.15168 43.2857 9.15168C43.3697 9.15168 43.4501 9.16496 43.5281 9.18434C43.791 8.90035 44.1639 8.71973 44.5816 8.71973C45.3768 8.71973 46.0214 9.36441 46.0214 10.1596H42.2778Z" fill="white"/>
<path d="M33.6357 41.4409C33.6357 41.5834 33.6924 41.7202 33.7932 41.821C33.894 41.9219 34.0308 41.9785 34.1734 41.9785C34.316 41.9785 34.4527 41.9219 34.5536 41.821C34.6544 41.7202 34.7111 41.5834 34.7111 41.4409C34.7111 41.2983 34.6544 41.1615 34.5536 41.0607C34.4527 40.9598 34.316 40.9032 34.1734 40.9032C34.0308 40.9032 33.894 40.9598 33.7932 41.0607C33.6924 41.1615 33.6357 41.2983 33.6357 41.4409Z" fill="#94D75B"/>
<path d="M39.7312 39.8818C39.7312 40.0244 39.7878 40.1611 39.8887 40.262C39.9895 40.3628 40.1263 40.4194 40.2689 40.4194C40.4115 40.4194 40.5482 40.3628 40.649 40.262C40.7499 40.1611 40.8065 40.0244 40.8065 39.8818C40.8065 39.7392 40.7499 39.6024 40.649 39.5016C40.5482 39.4008 40.4115 39.3441 40.2689 39.3441C40.1263 39.3441 39.9895 39.4008 39.8887 39.5016C39.7878 39.6024 39.7312 39.7392 39.7312 39.8818Z" fill="#94D75B"/>
<path d="M25.6362 36.2751C25.6362 36.3737 25.6754 36.4683 25.7451 36.538C25.8149 36.6078 25.9095 36.6469 26.0081 36.6469C26.1067 36.6469 26.2013 36.6078 26.2711 36.538C26.3408 36.4683 26.38 36.3737 26.38 36.2751C26.38 36.1764 26.3408 36.0819 26.2711 36.0121C26.2013 35.9424 26.1067 35.9032 26.0081 35.9032C25.9095 35.9032 25.8149 35.9424 25.7451 36.0121C25.6754 36.0819 25.6362 36.1764 25.6362 36.2751Z" fill="#B0EB81"/>
<path d="M29.672 34.9489C29.672 35.0475 29.7112 35.1421 29.7809 35.2119C29.8507 35.2816 29.9452 35.3208 30.0439 35.3208C30.1425 35.3208 30.2371 35.2816 30.3068 35.2119C30.3766 35.1421 30.4157 35.0475 30.4157 34.9489C30.4157 34.8503 30.3766 34.7557 30.3068 34.6859C30.2371 34.6162 30.1425 34.577 30.0439 34.577C29.9452 34.577 29.8507 34.6162 29.7809 34.6859C29.7112 34.7557 29.672 34.8503 29.672 34.9489Z" fill="#94D75B"/>
<path d="M23.1173 35.3207C23.1173 35.4194 23.1565 35.5139 23.2262 35.5837C23.296 35.6534 23.3906 35.6926 23.4892 35.6926C23.5878 35.6926 23.6824 35.6534 23.7521 35.5837C23.8219 35.5139 23.8611 35.4194 23.8611 35.3207C23.8611 35.2221 23.8219 35.1275 23.7521 35.0578C23.6824 34.988 23.5878 34.9489 23.4892 34.9489C23.3906 34.9489 23.296 34.988 23.2262 35.0578C23.1565 35.1275 23.1173 35.2221 23.1173 35.3207Z" fill="#94D75B"/>
<path d="M31.725 35.9032C31.725 36.0019 31.7642 36.0965 31.8339 36.1662C31.9036 36.2359 31.9982 36.2751 32.0969 36.2751C32.1955 36.2751 32.2901 36.2359 32.3598 36.1662C32.4295 36.0965 32.4687 36.0019 32.4687 35.9032C32.4687 35.8046 32.4295 35.71 32.3598 35.6403C32.2901 35.5706 32.1955 35.5314 32.0969 35.5314C31.9982 35.5314 31.9036 35.5706 31.8339 35.6403C31.7642 35.71 31.725 35.8046 31.725 35.9032Z" fill="#B0EB81"/>
<path d="M39.525 34.9489C39.525 34.9977 39.5346 35.0461 39.5533 35.0912C39.572 35.1363 39.5994 35.1773 39.6339 35.2119C39.6685 35.2464 39.7095 35.2738 39.7546 35.2925C39.7997 35.3112 39.8481 35.3208 39.8969 35.3208C39.9457 35.3208 39.9941 35.3112 40.0392 35.2925C40.0843 35.2738 40.1253 35.2464 40.1599 35.2119C40.1944 35.1773 40.2218 35.1363 40.2405 35.0912C40.2592 35.0461 40.2688 34.9977 40.2688 34.9489C40.2688 34.9001 40.2592 34.8517 40.2405 34.8066C40.2218 34.7615 40.1944 34.7205 40.1599 34.6859C40.1253 34.6514 40.0843 34.624 40.0392 34.6053C39.9941 34.5866 39.9457 34.577 39.8969 34.577C39.8481 34.577 39.7997 34.5866 39.7546 34.6053C39.7095 34.624 39.6685 34.6514 39.6339 34.6859C39.5994 34.7205 39.572 34.7615 39.5533 34.8066C39.5346 34.8517 39.525 34.9001 39.525 34.9489Z" fill="#B0EB81"/>
<path d="M47.0381 35.3207C47.0381 35.4194 47.0773 35.5139 47.147 35.5837C47.2167 35.6534 47.3113 35.6926 47.41 35.6926C47.5086 35.6926 47.6032 35.6534 47.6729 35.5837C47.7427 35.5139 47.7818 35.4194 47.7818 35.3207C47.7818 35.2221 47.7427 35.1275 47.6729 35.0578C47.6032 34.988 47.5086 34.9489 47.41 34.9489C47.3113 34.9489 47.2167 34.988 47.147 35.0578C47.0773 35.1275 47.0381 35.2221 47.0381 35.3207Z" fill="#B0EB81"/>
<path d="M36.4561 36.1855C36.4561 36.2841 36.4952 36.3787 36.565 36.4484C36.6347 36.5182 36.7293 36.5573 36.8279 36.5573C36.9266 36.5573 37.0211 36.5182 37.0909 36.4484C37.1606 36.3787 37.1998 36.2841 37.1998 36.1855C37.1998 36.0868 37.1606 35.9923 37.0909 35.9225C37.0211 35.8528 36.9266 35.8136 36.8279 35.8136C36.7293 35.8136 36.6347 35.8528 36.565 35.9225C36.4952 35.9923 36.4561 36.0868 36.4561 36.1855Z" fill="#94D75B"/>
<path d="M44.3549 36.1855C44.3549 36.2841 44.394 36.3787 44.4638 36.4484C44.5335 36.5182 44.6281 36.5573 44.7267 36.5573C44.8254 36.5573 44.9199 36.5182 44.9897 36.4484C45.0594 36.3787 45.0986 36.2841 45.0986 36.1855C45.0986 36.0868 45.0594 35.9923 44.9897 35.9225C44.9199 35.8528 44.8254 35.8136 44.7267 35.8136C44.6281 35.8136 44.5335 35.8528 44.4638 35.9225C44.394 35.9923 44.3549 36.0868 44.3549 36.1855Z" fill="#94D75B"/>
<path d="M29.5062 40.3657C29.5062 40.5083 29.5629 40.645 29.6637 40.7458C29.7645 40.8467 29.9013 40.9033 30.0439 40.9033C30.1865 40.9033 30.3232 40.8467 30.4241 40.7458C30.5249 40.645 30.5815 40.5083 30.5815 40.3657C30.5815 40.2231 30.5249 40.0863 30.4241 39.9855C30.3232 39.8846 30.1865 39.828 30.0439 39.828C29.9013 39.828 29.7645 39.8846 29.6637 39.9855C29.5629 40.0863 29.5062 40.2231 29.5062 40.3657Z" fill="#71BE63"/>
<path d="M35.5253 39.6533C35.5253 39.7959 35.5819 39.9326 35.6827 40.0334C35.7836 40.1343 35.9203 40.1909 36.0629 40.1909C36.2055 40.1909 36.3423 40.1343 36.4431 40.0334C36.5439 39.9326 36.6006 39.7959 36.6006 39.6533C36.6006 39.5107 36.5439 39.3739 36.4431 39.2731C36.3423 39.1722 36.2055 39.1156 36.0629 39.1156C35.9203 39.1156 35.7836 39.1722 35.6827 39.2731C35.5819 39.3739 35.5253 39.5107 35.5253 39.6533Z" fill="#71BE63"/>
</g>
<defs>
<linearGradient id="paint0_linear_4_1985" x1="35" y1="0" x2="35" y2="60" gradientUnits="userSpaceOnUse">
<stop offset="0.165" stop-color="#FFACCF"/>
<stop offset="0.79" stop-color="#C04578"/>
</linearGradient>
<linearGradient id="paint1_linear_4_1985" x1="35" y1="44" x2="35" y2="60" gradientUnits="userSpaceOnUse">
<stop stop-color="#FC77AE"/>
<stop offset="1" stop-color="#AF0049"/>
</linearGradient>
<clipPath id="clip0_4_1985">
<rect width="40" height="40" fill="white" transform="translate(15 3)"/>
</clipPath>
</defs>
</svg>
