<svg width="77" height="60" viewBox="0 0 77 60" fill="none" xmlns="http://www.w3.org/2000/svg">
<circle cx="41" cy="30" r="30" fill="url(#paint0_linear_4_1977)"/>
<rect x="6" y="44" width="70" height="16" rx="8" fill="url(#paint1_linear_4_1977)"/>
<path d="M30.0243 54.71C30.0243 54.43 30.0709 53.97 30.1643 53.33H27.9043C27.8176 53.83 27.7743 54.1733 27.7743 54.36C27.7743 55.0067 27.8743 55.49 28.0743 55.81C27.6743 56.11 27.2576 56.26 26.8243 56.26C26.3909 56.26 26.0809 56.1367 25.8943 55.89C25.7076 55.6367 25.6143 55.2633 25.6143 54.77C25.6143 54.27 25.8243 52.86 26.2443 50.54L25.7143 49.47C26.4676 48.9833 27.1543 48.74 27.7743 48.74C28.2876 48.74 28.5443 49.0533 28.5443 49.68C28.5443 49.8667 28.4043 50.6867 28.1243 52.14H30.3643C30.3909 51.9733 30.4876 51.44 30.6543 50.54L30.1243 49.47C30.8776 48.9833 31.5643 48.74 32.1843 48.74C32.6976 48.74 32.9543 49.0533 32.9543 49.68C32.9543 49.8867 32.8243 50.6567 32.5643 51.99C32.3109 53.3167 32.1843 54.1067 32.1843 54.36C32.1843 55.0067 32.2843 55.49 32.4843 55.81C32.0843 56.11 31.6676 56.26 31.2343 56.26C30.8009 56.26 30.4909 56.1367 30.3043 55.89C30.1176 55.6367 30.0243 55.2433 30.0243 54.71ZM38.5364 50.76C38.9098 50.76 39.2298 50.91 39.4964 51.21C39.7698 51.51 39.9064 51.9467 39.9064 52.52C39.9064 53.0867 39.8064 53.6133 39.6064 54.1C39.4064 54.58 39.1431 54.9733 38.8164 55.28C38.4898 55.5867 38.1198 55.8267 37.7064 56C37.2931 56.1667 36.8698 56.25 36.4364 56.25C35.5631 56.25 34.8731 56.01 34.3664 55.53C33.8598 55.05 33.6064 54.4133 33.6064 53.62C33.6064 52.5467 33.9498 51.6767 34.6364 51.01C35.3298 50.3367 36.2098 50 37.2764 50C37.5164 50 37.7564 50.0267 37.9964 50.08C38.0698 50.3 38.1098 50.55 38.1164 50.83C38.2564 50.7833 38.3964 50.76 38.5364 50.76ZM37.3064 52.15C37.3064 51.9633 37.3498 51.7533 37.4364 51.52C37.5298 51.2867 37.6764 51.1 37.8764 50.96C36.9964 51.1467 36.3898 51.5033 36.0564 52.03C35.7698 52.4833 35.6264 52.95 35.6264 53.43C35.6264 53.91 35.7231 54.2967 35.9164 54.59C36.1164 54.8767 36.3698 55.02 36.6764 55.02C37.3564 55.02 37.8364 54.5767 38.1164 53.69C37.5764 53.3567 37.3064 52.8433 37.3064 52.15ZM47.1349 51.78L47.2349 51.83C47.9482 50.61 48.8216 50 49.8549 50C50.6616 50 51.0649 50.4033 51.0649 51.21C51.0649 51.5567 50.9649 52.1433 50.7649 52.97C50.5716 53.7967 50.4749 54.42 50.4749 54.84C50.4749 55.26 50.5449 55.5667 50.6849 55.76C50.3316 56.0867 49.9582 56.25 49.5649 56.25C48.7982 56.25 48.4149 55.8367 48.4149 55.01C48.4149 54.7033 48.5149 54.1833 48.7149 53.45C48.9149 52.7167 49.0149 52.24 49.0149 52.02C49.0149 51.72 48.9016 51.57 48.6749 51.57C48.4882 51.57 48.2782 51.6533 48.0449 51.82C47.8182 51.98 47.5982 52.2 47.3849 52.48C47.1782 52.7533 47.0016 53.1033 46.8549 53.53C46.7149 53.95 46.6449 54.38 46.6449 54.82C46.6449 55.2533 46.7149 55.5667 46.8549 55.76C46.5016 56.0867 46.1282 56.25 45.7349 56.25C44.9682 56.25 44.5849 55.8367 44.5849 55.01C44.5849 54.7033 44.6849 54.1833 44.8849 53.45C45.0849 52.7167 45.1849 52.24 45.1849 52.02C45.1849 51.72 45.0716 51.57 44.8449 51.57C44.6582 51.57 44.4482 51.6533 44.2149 51.82C43.9882 51.98 43.7682 52.2 43.5549 52.48C43.3482 52.7533 43.1716 53.1033 43.0249 53.53C42.8849 53.95 42.8149 54.38 42.8149 54.82C42.8149 55.2533 42.8849 55.5667 43.0249 55.76C42.6716 56.0867 42.2982 56.25 41.9049 56.25C41.1382 56.25 40.7549 55.8367 40.7549 55.01C40.7549 54.7433 40.8216 54.2267 40.9549 53.46C41.0949 52.6933 41.2382 51.9933 41.3849 51.36L40.8649 50.56C41.5249 50.1867 42.1349 50 42.6949 50C43.2549 50 43.5349 50.2533 43.5349 50.76C43.5349 51.0933 43.4582 51.4333 43.3049 51.78L43.4049 51.83C44.1182 50.61 44.9916 50 46.0249 50C46.3982 50 46.6916 50.0933 46.9049 50.28C47.1249 50.4667 47.2349 50.7467 47.2349 51.12C47.2349 51.32 47.2016 51.54 47.1349 51.78ZM54.7235 56.25C53.8101 56.25 53.1035 56.0133 52.6035 55.54C52.1101 55.0667 51.8635 54.4267 51.8635 53.62C51.8635 52.5467 52.2301 51.6767 52.9635 51.01C53.7035 50.3367 54.6301 50 55.7435 50C56.3635 50 56.8335 50.14 57.1535 50.42C57.4735 50.6933 57.6335 51.0567 57.6335 51.51C57.6335 52.13 57.3301 52.6467 56.7235 53.06C56.1235 53.4667 55.1935 53.6733 53.9335 53.68C53.9535 54.1067 54.0501 54.4433 54.2235 54.69C54.3968 54.93 54.6135 55.05 54.8735 55.05C55.1335 55.05 55.3568 54.9633 55.5435 54.79C55.7368 54.6167 55.8335 54.3333 55.8335 53.94C56.8068 53.94 57.2935 54.17 57.2935 54.63C57.2935 55.0233 57.0535 55.3933 56.5735 55.74C56.0935 56.08 55.4768 56.25 54.7235 56.25ZM55.5735 51.17C55.2335 51.17 54.9201 51.34 54.6335 51.68C54.3535 52.02 54.1501 52.42 54.0235 52.88C54.6901 52.8267 55.1901 52.6767 55.5235 52.43C55.8635 52.1767 56.0335 51.91 56.0335 51.63C56.0335 51.4967 55.9901 51.3867 55.9035 51.3C55.8235 51.2133 55.7135 51.17 55.5735 51.17Z" fill="white"/>
<g clip-path="url(#clip0_4_1977)">
<path d="M21.013 22.4839C21.0087 22.6559 21 22.8269 21 23C21 24.5519 21.1826 26.0603 21.5171 27.5107C25.2483 29.8409 33.6841 31.4677 43.5 31.4677C49.8159 31.4677 55.5594 30.7936 59.8486 29.6928C60.5919 27.5998 61 25.3479 61 23C61 22.0571 60.9299 21.131 60.8037 20.2228C55.9193 17.8387 50.298 16.871 43.5 16.871C33.2146 16.8709 24.4426 19.9739 21.013 22.4839Z" fill="#C5F8F1"/>
<path d="M21.1215 24.527C21.1171 24.6883 21.1094 24.8487 21.1084 25.0108C21.195 25.8602 21.3291 26.6955 21.5171 27.5108C25.2482 29.841 33.684 31.4678 43.5 31.4678C49.8159 31.4678 55.5593 30.7936 59.8486 29.6929C60.5918 27.5999 61 25.348 61 23.0001C61 22.5255 60.982 22.0554 60.9482 21.5895C56.2701 19.9355 52.7742 19.3351 46.8064 19.8133C35.7822 20.6966 24.8092 22.017 21.1215 24.527Z" fill="#DEFBF2"/>
<path d="M24.4674 21.7096C23.5739 21.9428 22.1954 22.4001 21.0048 22.812C21.0041 22.8749 21 22.9369 21 22.9999C21 25.8676 21.608 28.5919 22.695 31.0576C24.6947 31.2365 27.3569 31.4677 27.7608 31.4677C28.4194 31.4677 33.3869 25.2764 33.3869 25.2764C29.7225 24.9345 26.322 21.2257 24.4674 21.7096ZM60.9813 23.742C58.2255 22.4318 55.9692 20.8729 54.3795 21.0644C52.3709 21.3063 45.8387 24.17 45.8387 24.17L54.5484 29.8199H59.8056C60.4975 27.9125 60.9035 25.8693 60.9813 23.742Z" fill="#B0EB81"/>
<path d="M59.8346 25.8926C59.8346 24.8064 58.9677 20.5708 58.4194 20.5708C57.8711 20.5708 57.0042 24.8064 57.0042 25.8926C57.0042 26.8629 57.5109 27.3983 58.1761 27.5021V28.8336C58.1761 28.8656 58.1824 28.8972 58.1947 28.9267C58.2069 28.9562 58.2248 28.983 58.2474 29.0056C58.27 29.0282 58.2968 29.0461 58.3264 29.0583C58.3559 29.0705 58.3875 29.0768 58.4195 29.0768C58.4514 29.0768 58.483 29.0705 58.5126 29.0583C58.5421 29.0461 58.5689 29.0282 58.5915 29.0056C58.6141 28.983 58.632 28.9562 58.6443 28.9267C58.6565 28.8972 58.6628 28.8656 58.6628 28.8336V27.5021C59.3279 27.3982 59.8346 26.8628 59.8346 25.8926Z" fill="#94D75B"/>
<path d="M57.4456 26.3953C57.4456 25.6364 56.84 22.6774 56.4568 22.6774C56.0737 22.6774 55.4681 25.6364 55.4681 26.3953C55.4681 27.0731 55.8221 27.4471 56.2868 27.5197V28.4499C56.2868 28.495 56.3047 28.5382 56.3366 28.5701C56.3685 28.602 56.4117 28.6199 56.4568 28.6199C56.5019 28.6199 56.5452 28.602 56.577 28.5701C56.6089 28.5382 56.6268 28.495 56.6268 28.4499V27.5196C57.0916 27.4471 57.4456 27.0731 57.4456 26.3953ZM28.7496 27.1479C28.7496 26.3891 28.1439 23.43 27.7608 23.43C27.3778 23.43 26.7721 26.3891 26.7721 27.1479C26.7721 27.8258 27.1261 28.1998 27.5908 28.2724V29.2025C27.5908 29.2476 27.6087 29.2909 27.6406 29.3227C27.6725 29.3546 27.7157 29.3725 27.7608 29.3725C27.8059 29.3725 27.8491 29.3546 27.881 29.3227C27.9129 29.2909 27.9308 29.2476 27.9308 29.2025V28.2723C28.3955 28.1998 28.7496 27.8258 28.7496 27.1479ZM26.3307 26.962C26.3307 26.3921 25.8759 24.1701 25.5882 24.1701C25.3006 24.1701 24.8457 26.3922 24.8457 26.962C24.8457 27.471 25.1116 27.7519 25.4606 27.8064V28.5049C25.4606 28.5387 25.474 28.5712 25.498 28.5951C25.5219 28.6191 25.5544 28.6325 25.5882 28.6325C25.6221 28.6325 25.6546 28.6191 25.6785 28.5951C25.7024 28.5712 25.7159 28.5387 25.7159 28.5049V27.8064C26.0649 27.7518 26.3307 27.471 26.3307 26.962ZM24.4675 26.9788C24.4675 26.2545 23.8893 23.43 23.5237 23.43C23.1581 23.43 22.58 26.2545 22.58 26.9788C22.58 27.6258 22.9179 27.9828 23.3614 28.0521V28.9399C23.3614 28.983 23.3785 29.0243 23.409 29.0547C23.4394 29.0851 23.4807 29.1022 23.5237 29.1022C23.5667 29.1022 23.608 29.0851 23.6384 29.0547C23.6689 29.0243 23.686 28.983 23.686 28.9399V28.0521C24.1296 27.9828 24.4675 27.6258 24.4675 26.9788Z" fill="#94D75B"/>
<path d="M32.0081 30.5268C31.9233 30.5268 31.8394 30.5101 31.7612 30.4777C31.6829 30.4453 31.6117 30.3978 31.5518 30.3378C31.4919 30.2779 31.4444 30.2068 31.412 30.1285C31.3796 30.0502 31.3629 29.9663 31.3629 29.8816V19.7742C31.3629 19.4179 31.6515 19.129 32.0081 19.129C32.3646 19.129 32.6532 19.4179 32.6532 19.7742V29.8816C32.6532 29.9663 32.6366 30.0502 32.6042 30.1285C32.5717 30.2068 32.5242 30.2779 32.4643 30.3378C32.4044 30.3978 32.3333 30.4453 32.255 30.4777C32.1767 30.5101 32.0928 30.5268 32.0081 30.5268Z" fill="#674447"/>
<path d="M38.0791 22.0679C38.3745 21.6426 38.55 21.1279 38.55 20.5709C38.55 19.3951 37.7734 18.4111 36.709 18.0742C36.6996 18.0665 36.6919 18.0567 36.6824 18.049C36.7774 17.78 36.8389 17.4951 36.8389 17.1936C36.8389 15.7683 35.6836 14.6129 34.2583 14.6129C34.0519 14.6129 33.8539 14.6434 33.6614 14.6892C33.0771 13.8647 32.12 13.3226 31.0325 13.3226C29.2509 13.3226 27.8067 14.7668 27.8067 16.5484C27.8067 16.9228 27.8829 17.2767 28.0003 17.6111C26.7384 18.2489 25.8712 19.554 25.8712 21.0646C25.8712 23.1958 27.5937 24.9238 29.7224 24.9346C30.2671 25.4314 30.9848 25.742 31.7801 25.742C32.3714 25.742 32.9186 25.5667 33.3868 25.2765C33.627 25.3215 33.8736 25.3479 34.127 25.3479C34.6162 25.3479 35.0829 25.2563 35.5165 25.0964C36.7779 25.2715 38.0493 25.4184 38.1293 25.3119C38.1934 25.2264 38.0498 24.1284 37.8537 22.8376C37.9543 22.5892 38.0298 22.3313 38.0791 22.0679Z" fill="#43AB5F"/>
<path d="M38.0791 22.0679C38.3745 21.6426 38.5501 21.1279 38.5501 20.5709C38.5501 19.3951 37.7734 18.4111 36.709 18.0742C36.6996 18.0665 36.6919 18.0567 36.6824 18.049C36.7774 17.78 36.839 17.4951 36.839 17.1936C36.839 15.7683 35.6836 14.6129 34.2583 14.6129C34.0519 14.6129 33.8539 14.6434 33.6615 14.6892C33.0771 13.8647 32.12 13.3226 31.0325 13.3226C30.1963 13.3226 29.4418 13.649 28.8687 14.1708C29.136 14.099 29.4119 14.0484 29.7019 14.0484C30.7894 14.0484 31.7465 14.5904 32.3308 15.415C32.5233 15.3692 32.7213 15.3387 32.9277 15.3387C34.3529 15.3387 35.5083 16.4941 35.5083 17.9194C35.5083 18.2208 35.4469 18.5058 35.3518 18.7747C35.3613 18.7824 35.369 18.7922 35.3784 18.8C36.4428 19.1369 37.2194 20.1208 37.2194 21.2967C37.2194 21.8538 37.044 22.3684 36.7485 22.7937C36.6991 23.0571 36.6236 23.3149 36.5231 23.5633C36.6214 24.2104 36.7064 24.8088 36.7588 25.2558C37.5027 25.3413 38.0765 25.3821 38.1293 25.3118C38.1934 25.2263 38.0498 24.1283 37.8537 22.8375C37.9543 22.5891 38.0298 22.3313 38.0791 22.0679Z" fill="#71BE63"/>
<path d="M21.8591 28.8065C24.3476 37.0199 31.9741 43 41 43C50.0259 43 57.6524 37.0199 60.1409 28.8065H21.8591Z" fill="#94D75B"/>
<path d="M36.4839 20.4194L42.2903 14.6129L53.9032 26.2258V30.742H36.4839V20.4194Z" fill="#DE7E68"/>
<path d="M40.7111 30.5269H54.5215V31.1785H40.7111V30.5269Z" fill="#99645F"/>
<path d="M40.3549 30.7419H32.6129V25.5806L36.4839 23.6451L40.3549 25.5806V30.7419Z" fill="#B66E6E"/>
<path d="M45.8732 10.3896C45.7082 10.3896 45.5523 10.4221 45.4028 10.4692C44.9294 9.78862 44.1441 9.3412 43.2522 9.3412C42.3603 9.3412 41.575 9.78862 41.1016 10.4692C40.9521 10.4221 40.7962 10.3896 40.6312 10.3896C39.7627 10.3896 39.0586 11.0936 39.0586 11.9621H47.4457C47.4458 11.0936 46.7417 10.3896 45.8732 10.3896ZM50.039 13.1982C49.9607 13.1982 49.8867 13.2136 49.8159 13.236C49.5913 12.9132 49.2188 12.7009 48.7957 12.7009C48.3727 12.7009 48.0002 12.9132 47.7755 13.236C47.7047 13.2136 47.6307 13.1982 47.5524 13.1982C47.3546 13.1982 47.1649 13.2768 47.025 13.4167C46.8851 13.5566 46.8065 13.7463 46.8065 13.9442H50.785C50.7849 13.5322 50.4509 13.1982 50.039 13.1982ZM42.0548 6.23245C41.9765 6.23245 41.9025 6.24784 41.8316 6.27019C41.607 5.94737 41.2345 5.73511 40.8115 5.73511C40.3884 5.73511 40.0159 5.94737 39.7913 6.27019C39.7205 6.24784 39.6465 6.23245 39.5682 6.23245C39.3704 6.23245 39.1806 6.31104 39.0407 6.45093C38.9009 6.59082 38.8223 6.78055 38.8223 6.97839H42.8008C42.8008 6.56644 42.4668 6.23245 42.0548 6.23245Z" fill="white"/>
<path d="M55.3783 14.4197C55.2567 14.4197 55.1418 14.4436 55.0316 14.4784C54.6826 13.9767 54.1037 13.6468 53.4462 13.6468C52.7887 13.6468 52.2098 13.9767 51.8608 14.4784C51.7507 14.4436 51.6357 14.4197 51.5141 14.4197C50.8739 14.4197 50.3548 14.9387 50.3548 15.579H56.5376C56.5376 14.9388 56.0185 14.4197 55.3783 14.4197ZM35.7101 9.92024C35.5635 9.92024 35.4249 9.94907 35.2921 9.99095C34.8714 9.38618 34.1735 8.98853 33.3809 8.98853C32.5883 8.98853 31.8904 9.38618 31.4697 9.99095C31.3369 9.94907 31.1983 9.92024 31.0517 9.92024C30.2799 9.92024 29.6542 10.5459 29.6542 11.3177H37.1075C37.1076 10.5459 36.482 9.92024 35.7101 9.92024Z" fill="white"/>
<path d="M54.2062 27.2131L42.2903 15.2971L36.1808 21.4067L35.4965 20.7225L42.2903 13.9287L54.8904 26.5289L54.2062 27.2131ZM40.6629 26.2756L36.4839 24.1861L32.3048 26.2756L31.8726 25.41L36.4839 23.1043L41.0951 25.41L40.6629 26.2756Z" fill="#99645F"/>
<path d="M38.4194 21.0646H40.3549V23.6452H38.4194V21.0646Z" fill="#63A0B5"/>
<path d="M40.5161 23.8065H38.2581V20.9033H40.5161V23.8065ZM38.5806 23.4839H40.1935V21.2258H38.5806V23.4839Z" fill="#556483"/>
<path d="M38.4194 21.5483H40.3549V21.8709H38.4194V21.5483Z" fill="#556483"/>
<path d="M41.6451 21.0646H43.5806V23.6452H41.6451V21.0646Z" fill="#63A0B5"/>
<path d="M43.7419 23.8065H41.4839V20.9033H43.7419V23.8065ZM41.8065 23.4839H43.4194V21.2258H41.8065V23.4839Z" fill="#556483"/>
<path d="M41.6451 21.5483H43.5806V21.8709H41.6451V21.5483Z" fill="#556483"/>
<path d="M44.871 21.0646H46.8064V23.6452H44.871V21.0646Z" fill="#63A0B5"/>
<path d="M46.9678 23.8065H44.7097V20.9033H46.9678V23.8065ZM45.0323 23.4839H46.6452V21.2258H45.0323V23.4839Z" fill="#556483"/>
<path d="M44.871 21.5483H46.8064V21.8709H44.871V21.5483Z" fill="#556483"/>
<path d="M42.9354 26.2258H44.8709V28.8065H42.9354V26.2258Z" fill="#63A0B5"/>
<path d="M45.0322 28.9678H42.7742V26.0646H45.0322V28.9678ZM43.0967 28.6452H44.7096V26.3872H43.0967V28.6452Z" fill="#556483"/>
<path d="M42.9354 26.7097H44.8709V27.0323H42.9354V26.7097Z" fill="#556483"/>
<path d="M46.1614 26.2258H48.0968V28.8065H46.1614V26.2258Z" fill="#63A0B5"/>
<path d="M48.258 28.9678H46V26.0646H48.258V28.9678ZM46.3226 28.6452H47.9355V26.3872H46.3226V28.6452Z" fill="#556483"/>
<path d="M46.1614 26.7097H48.0968V27.0323H46.1614V26.7097Z" fill="#556483"/>
<path d="M49.3871 26.2258H51.3226V28.8065H49.3871V26.2258Z" fill="#63A0B5"/>
<path d="M51.484 28.9678H49.2258V26.0646H51.4839V28.9678H51.484ZM49.5484 28.6452H51.1613V26.3872H49.5484V28.6452Z" fill="#556483"/>
<path d="M49.3871 26.7097H51.3226V27.0323H49.3871V26.7097Z" fill="#556483"/>
<path d="M33.9032 26.2258H35.8387V28.8065H33.9032V26.2258Z" fill="#63A0B5"/>
<path d="M36 28.9678H33.7419V26.0646H36V28.9678ZM34.0645 28.6452H35.6774V26.3872H34.0645V28.6452Z" fill="#556483"/>
<path d="M33.9032 26.7097H35.8387V27.0323H33.9032V26.7097Z" fill="#556483"/>
<path d="M37.129 26.2258H39.0645V28.8065H37.129V26.2258Z" fill="#63A0B5"/>
<path d="M39.2258 28.9678H36.9678V26.0646H39.2258V28.9678ZM37.2904 28.6452H38.9032V26.3872H37.2904V28.6452Z" fill="#556483"/>
<path d="M37.129 26.7097H39.0645V27.0323H37.129V26.7097Z" fill="#556483"/>
<path d="M36.5056 29.4293C36.2561 29.4293 36.0203 29.4785 35.7943 29.5497C35.0785 28.5207 33.891 27.8441 32.5425 27.8441C31.194 27.8441 30.0065 28.5207 29.2907 29.5497C29.0648 29.4785 28.8289 29.4293 28.5795 29.4293C27.2662 29.4293 26.2017 30.494 26.2017 31.8072H38.8835C38.8834 30.494 37.8188 29.4293 36.5056 29.4293Z" fill="#71BE63"/>
<path d="M34.9808 29.4293C34.7314 29.4293 34.4955 29.4784 34.2696 29.5497C33.6935 28.7216 32.8053 28.1419 31.7801 27.9392C30.755 28.1419 29.8668 28.7216 29.2907 29.5497C29.0647 29.4784 28.8289 29.4293 28.5794 29.4293C27.2661 29.4293 26.2015 30.4939 26.2015 31.8072H37.3586C37.3587 30.4939 36.2941 29.4293 34.9808 29.4293Z" fill="#43AB5F"/>
<path d="M36.3887 31.7956C36.3887 31.0318 37.0078 30.4126 37.7716 30.4126C37.887 30.4126 37.9971 30.4308 38.1042 30.4574C38.4651 30.0678 38.9767 29.8199 39.5498 29.8199C40.6409 29.8199 41.5254 30.7045 41.5254 31.7956H36.3887Z" fill="#71BE63"/>
<path d="M39.204 29.8571C38.773 29.9349 38.3902 30.1485 38.1041 30.4574C37.997 30.4309 37.8868 30.4127 37.7715 30.4127C37.0077 30.4127 36.3885 31.0318 36.3885 31.7957H40.8114C40.8114 30.8306 40.1187 30.0299 39.204 29.8571Z" fill="#43AB5F"/>
<path d="M41 43C48.1981 43 54.4969 39.1901 58.0187 33.4839H23.9812C27.503 39.1901 33.8018 43 41 43Z" fill="#71BE63"/>
<path d="M54.3795 37.8386H27.6206C31.1628 41.0409 35.8478 43 41.0001 43C46.1523 43 50.8373 41.0409 54.3795 37.8386Z" fill="#43AB5F"/>
<path d="M26.2718 28.3937C26.1945 28.3937 26.1215 28.4089 26.0515 28.431C25.8299 28.1124 25.4622 27.9028 25.0447 27.9028C24.6272 27.9028 24.2594 28.1123 24.0378 28.431C23.9678 28.4089 23.8948 28.3937 23.8175 28.3937C23.6223 28.3937 23.435 28.4713 23.2969 28.6093C23.1589 28.7474 23.0813 28.9347 23.0813 29.1299H27.0081C27.0081 28.7234 26.6784 28.3937 26.2718 28.3937Z" fill="#94D75B"/>
<path d="M54.5215 29.1492C54.5215 28.6292 54.943 28.2076 55.463 28.2076C55.5416 28.2076 55.6166 28.22 55.6895 28.2381C55.9352 27.9728 56.2835 27.8041 56.6736 27.8041C57.4165 27.8041 58.0187 28.4063 58.0187 29.1492H54.5215Z" fill="#94D75B"/>
<path d="M35.0463 12.2131C35.0463 11.3076 35.7802 10.5736 36.6857 10.5736C36.8224 10.5736 36.9531 10.5953 37.0799 10.6268C37.5077 10.1648 38.1143 9.87097 38.7936 9.87097C40.0871 9.87097 41.1357 10.9196 41.1357 12.2131H35.0463Z" fill="white"/>
<path d="M48.2778 10.1596C48.2778 9.60293 48.7291 9.15168 49.2857 9.15168C49.3697 9.15168 49.4501 9.16496 49.5281 9.18434C49.791 8.90035 50.1639 8.71973 50.5816 8.71973C51.3768 8.71973 52.0214 9.36441 52.0214 10.1596H48.2778Z" fill="white"/>
<path d="M39.6357 41.4409C39.6357 41.5834 39.6924 41.7202 39.7932 41.821C39.894 41.9219 40.0308 41.9785 40.1734 41.9785C40.316 41.9785 40.4527 41.9219 40.5536 41.821C40.6544 41.7202 40.7111 41.5834 40.7111 41.4409C40.7111 41.2983 40.6544 41.1615 40.5536 41.0607C40.4527 40.9598 40.316 40.9032 40.1734 40.9032C40.0308 40.9032 39.894 40.9598 39.7932 41.0607C39.6924 41.1615 39.6357 41.2983 39.6357 41.4409Z" fill="#94D75B"/>
<path d="M45.7312 39.8818C45.7312 40.0244 45.7878 40.1611 45.8887 40.262C45.9895 40.3628 46.1263 40.4194 46.2689 40.4194C46.4115 40.4194 46.5482 40.3628 46.649 40.262C46.7499 40.1611 46.8065 40.0244 46.8065 39.8818C46.8065 39.7392 46.7499 39.6024 46.649 39.5016C46.5482 39.4008 46.4115 39.3441 46.2689 39.3441C46.1263 39.3441 45.9895 39.4008 45.8887 39.5016C45.7878 39.6024 45.7312 39.7392 45.7312 39.8818Z" fill="#94D75B"/>
<path d="M31.6362 36.2751C31.6362 36.3737 31.6754 36.4683 31.7451 36.538C31.8149 36.6078 31.9095 36.6469 32.0081 36.6469C32.1067 36.6469 32.2013 36.6078 32.2711 36.538C32.3408 36.4683 32.38 36.3737 32.38 36.2751C32.38 36.1764 32.3408 36.0819 32.2711 36.0121C32.2013 35.9424 32.1067 35.9032 32.0081 35.9032C31.9095 35.9032 31.8149 35.9424 31.7451 36.0121C31.6754 36.0819 31.6362 36.1764 31.6362 36.2751Z" fill="#B0EB81"/>
<path d="M35.672 34.9489C35.672 35.0475 35.7112 35.1421 35.7809 35.2119C35.8507 35.2816 35.9452 35.3208 36.0439 35.3208C36.1425 35.3208 36.2371 35.2816 36.3068 35.2119C36.3766 35.1421 36.4157 35.0475 36.4157 34.9489C36.4157 34.8503 36.3766 34.7557 36.3068 34.6859C36.2371 34.6162 36.1425 34.577 36.0439 34.577C35.9452 34.577 35.8507 34.6162 35.7809 34.6859C35.7112 34.7557 35.672 34.8503 35.672 34.9489Z" fill="#94D75B"/>
<path d="M29.1173 35.3207C29.1173 35.4194 29.1565 35.5139 29.2262 35.5837C29.296 35.6534 29.3906 35.6926 29.4892 35.6926C29.5878 35.6926 29.6824 35.6534 29.7521 35.5837C29.8219 35.5139 29.8611 35.4194 29.8611 35.3207C29.8611 35.2221 29.8219 35.1275 29.7521 35.0578C29.6824 34.988 29.5878 34.9489 29.4892 34.9489C29.3906 34.9489 29.296 34.988 29.2262 35.0578C29.1565 35.1275 29.1173 35.2221 29.1173 35.3207Z" fill="#94D75B"/>
<path d="M37.725 35.9032C37.725 36.0019 37.7642 36.0965 37.8339 36.1662C37.9036 36.2359 37.9982 36.2751 38.0969 36.2751C38.1955 36.2751 38.2901 36.2359 38.3598 36.1662C38.4295 36.0965 38.4687 36.0019 38.4687 35.9032C38.4687 35.8046 38.4295 35.71 38.3598 35.6403C38.2901 35.5706 38.1955 35.5314 38.0969 35.5314C37.9982 35.5314 37.9036 35.5706 37.8339 35.6403C37.7642 35.71 37.725 35.8046 37.725 35.9032Z" fill="#B0EB81"/>
<path d="M45.525 34.9489C45.525 34.9977 45.5346 35.0461 45.5533 35.0912C45.572 35.1363 45.5994 35.1773 45.6339 35.2119C45.6685 35.2464 45.7095 35.2738 45.7546 35.2925C45.7997 35.3112 45.8481 35.3208 45.8969 35.3208C45.9457 35.3208 45.9941 35.3112 46.0392 35.2925C46.0843 35.2738 46.1253 35.2464 46.1599 35.2119C46.1944 35.1773 46.2218 35.1363 46.2405 35.0912C46.2592 35.0461 46.2688 34.9977 46.2688 34.9489C46.2688 34.9001 46.2592 34.8517 46.2405 34.8066C46.2218 34.7615 46.1944 34.7205 46.1599 34.6859C46.1253 34.6514 46.0843 34.624 46.0392 34.6053C45.9941 34.5866 45.9457 34.577 45.8969 34.577C45.8481 34.577 45.7997 34.5866 45.7546 34.6053C45.7095 34.624 45.6685 34.6514 45.6339 34.6859C45.5994 34.7205 45.572 34.7615 45.5533 34.8066C45.5346 34.8517 45.525 34.9001 45.525 34.9489Z" fill="#B0EB81"/>
<path d="M53.0381 35.3207C53.0381 35.4194 53.0773 35.5139 53.147 35.5837C53.2167 35.6534 53.3113 35.6926 53.41 35.6926C53.5086 35.6926 53.6032 35.6534 53.6729 35.5837C53.7427 35.5139 53.7818 35.4194 53.7818 35.3207C53.7818 35.2221 53.7427 35.1275 53.6729 35.0578C53.6032 34.988 53.5086 34.9489 53.41 34.9489C53.3113 34.9489 53.2167 34.988 53.147 35.0578C53.0773 35.1275 53.0381 35.2221 53.0381 35.3207Z" fill="#B0EB81"/>
<path d="M42.4561 36.1855C42.4561 36.2841 42.4952 36.3787 42.565 36.4484C42.6347 36.5182 42.7293 36.5573 42.8279 36.5573C42.9266 36.5573 43.0211 36.5182 43.0909 36.4484C43.1606 36.3787 43.1998 36.2841 43.1998 36.1855C43.1998 36.0868 43.1606 35.9923 43.0909 35.9225C43.0211 35.8528 42.9266 35.8136 42.8279 35.8136C42.7293 35.8136 42.6347 35.8528 42.565 35.9225C42.4952 35.9923 42.4561 36.0868 42.4561 36.1855Z" fill="#94D75B"/>
<path d="M50.3549 36.1855C50.3549 36.2841 50.394 36.3787 50.4638 36.4484C50.5335 36.5182 50.6281 36.5573 50.7267 36.5573C50.8254 36.5573 50.9199 36.5182 50.9897 36.4484C51.0594 36.3787 51.0986 36.2841 51.0986 36.1855C51.0986 36.0868 51.0594 35.9923 50.9897 35.9225C50.9199 35.8528 50.8254 35.8136 50.7267 35.8136C50.6281 35.8136 50.5335 35.8528 50.4638 35.9225C50.394 35.9923 50.3549 36.0868 50.3549 36.1855Z" fill="#94D75B"/>
<path d="M35.5062 40.3657C35.5062 40.5083 35.5629 40.645 35.6637 40.7458C35.7645 40.8467 35.9013 40.9033 36.0439 40.9033C36.1865 40.9033 36.3232 40.8467 36.4241 40.7458C36.5249 40.645 36.5815 40.5083 36.5815 40.3657C36.5815 40.2231 36.5249 40.0863 36.4241 39.9855C36.3232 39.8846 36.1865 39.828 36.0439 39.828C35.9013 39.828 35.7645 39.8846 35.6637 39.9855C35.5629 40.0863 35.5062 40.2231 35.5062 40.3657Z" fill="#71BE63"/>
<path d="M41.5253 39.6533C41.5253 39.7959 41.5819 39.9326 41.6827 40.0334C41.7836 40.1343 41.9203 40.1909 42.0629 40.1909C42.2055 40.1909 42.3423 40.1343 42.4431 40.0334C42.5439 39.9326 42.6006 39.7959 42.6006 39.6533C42.6006 39.5107 42.5439 39.3739 42.4431 39.2731C42.3423 39.1722 42.2055 39.1156 42.0629 39.1156C41.9203 39.1156 41.7836 39.1722 41.6827 39.2731C41.5819 39.3739 41.5253 39.5107 41.5253 39.6533Z" fill="#71BE63"/>
</g>
<path opacity="0.5" d="M73.243 8.66516C72.4754 9.43277 71.228 9.43277 70.453 8.66516C71.2206 9.43277 71.2206 10.6802 70.453 11.4552C71.2206 10.6875 72.468 10.6875 73.243 11.4552C72.4754 10.6802 72.4754 9.43277 73.243 8.66516Z" fill="#FCCE38"/>
<path d="M66.9621 11.6471C64.8362 13.7728 61.3894 13.7728 59.2562 11.6471C61.3821 13.7728 61.3821 17.2197 59.2562 19.3528C61.3821 17.2271 64.8289 17.2271 66.9621 19.3528C64.8289 17.2271 64.8289 13.7728 66.9621 11.6471Z" fill="#FCCE38"/>
<path d="M66.9618 19.353C64.8361 21.4787 61.3892 21.4787 59.2635 19.353C57.1377 17.2271 57.1377 13.7803 59.2635 11.6546C61.3892 9.52888 64.8361 9.52888 66.9618 11.6546C69.0875 13.773 69.0875 17.2198 66.9618 19.353Z" fill="url(#paint2_radial_4_1977)"/>
<path d="M67.5965 16.0612L72.7115 15.5297C72.7484 15.5223 72.7484 15.4707 72.7115 15.4707L67.5965 14.9393C65.7365 14.7473 64.2677 13.2712 64.0832 11.4185L63.1384 1.87497C63.1311 1.83806 63.0793 1.83806 63.0793 1.87497L62.1568 11.4038C61.9796 13.2712 60.5108 14.7473 58.6434 14.9393L53.4989 15.4707C53.462 15.478 53.462 15.5297 53.4989 15.5297L58.6434 16.0612C60.5034 16.253 61.9722 17.7293 62.1568 19.5966L63.0793 29.1254C63.0793 29.1623 63.1384 29.1623 63.1384 29.1254L64.0832 19.5819C64.2751 17.7219 65.7439 16.253 67.5965 16.0612Z" fill="url(#paint3_linear_4_1977)"/>
<path d="M62.9022 15.7806C61.8098 14.4003 53.4989 15.4706 53.4989 15.4706C53.462 15.4779 53.462 15.5296 53.4989 15.5296L58.6434 16.061C60.5034 16.2529 61.9722 17.729 62.1568 19.5964L63.0202 28.5274L63.0793 28.5569C63.0793 28.5569 64.0684 17.2493 62.9022 15.7806Z" fill="url(#paint4_linear_4_1977)"/>
<path d="M67.5967 14.9388C65.7367 14.7469 64.2678 13.2708 64.0834 11.4181L63.4707 5.255C63.4707 5.255 63.2788 13.5659 65.1093 14.7691C66.5486 15.7138 66.1205 14.8059 72.7117 15.4702L67.5967 14.9388Z" fill="url(#paint5_linear_4_1977)"/>
<path d="M62.4743 12.341C62.8729 7.45479 63.05 5.07812 63.3305 3.77907L63.1386 1.8674C63.1312 1.8305 63.0796 1.8305 63.0796 1.8674L62.1569 11.3962C61.9797 13.2636 60.511 14.7398 58.6436 14.9317L55.241 15.286C59.1972 15.7436 62.2455 15.1532 62.4743 12.341Z" fill="url(#paint6_linear_4_1977)"/>
<path d="M63.0792 29.1254L62.1565 19.5965C61.9793 17.7291 60.5106 16.2529 58.6432 16.0611L53.4987 15.5295C53.4987 15.5295 57.7796 15.7584 58.6801 15.7584C59.5806 15.7584 62.2229 16.2898 62.4665 19.5818C62.71 22.8737 63.0792 29.1254 63.0792 29.1254Z" fill="url(#paint7_linear_4_1977)"/>
<path d="M63.1385 29.1254L64.0611 19.5965C64.2383 17.7291 65.707 16.2529 67.5744 16.0611L72.719 15.5295C72.719 15.5295 68.438 15.7584 67.5376 15.7584C66.637 15.7584 63.9947 16.2898 63.7511 19.5818C63.5076 22.8737 63.1385 29.1254 63.1385 29.1254Z" fill="url(#paint8_linear_4_1977)"/>
<path opacity="0.5" d="M53.8682 8.23694C52.8865 9.21861 51.2996 9.21861 50.3253 8.23694C51.307 9.21861 51.307 10.8055 50.3253 11.7798C51.307 10.7981 52.8939 10.7981 53.8682 11.7798C52.8939 10.8055 52.8939 9.21861 53.8682 8.23694Z" fill="#FCCE38"/>
<path d="M52.0967 12.4142C53.4256 12.4142 54.5029 11.3369 54.5029 10.008C54.5029 8.67909 53.4256 7.60181 52.0967 7.60181C50.7678 7.60181 49.6906 8.67909 49.6906 10.008C49.6906 11.3369 50.7678 12.4142 52.0967 12.4142Z" fill="url(#paint9_radial_4_1977)"/>
<path d="M50.1185 9.76474L47.8599 10.0009C47.8452 10.0009 47.8452 10.0231 47.8599 10.0304L50.1185 10.2666C50.9378 10.3478 51.5873 11.0047 51.6685 11.824L52.0892 16.0311C52.0892 16.046 52.1114 16.046 52.1188 16.0311L52.5247 11.824C52.6059 11.0047 53.2554 10.3478 54.0747 10.2666L56.348 10.0304C56.3628 10.0304 56.3628 10.0083 56.348 10.0009L54.0747 9.76474C53.2554 9.67615 52.6059 9.02664 52.5247 8.20735L52.1188 4.00021C52.1188 3.98544 52.0966 3.98544 52.0892 4.00021L51.6685 8.21474C51.58 9.02664 50.9378 9.67615 50.1185 9.76474Z" fill="url(#paint10_linear_4_1977)"/>
<path d="M52.1923 9.89033C52.6721 10.4956 56.3404 10.0232 56.3404 10.0232C56.3552 10.0232 56.3552 10.001 56.3404 9.99366L54.0671 9.75747C53.2478 9.6689 52.5983 9.01938 52.5171 8.20009L52.1333 4.25866L52.1111 4.2439C52.1111 4.2439 51.6757 9.23342 52.1923 9.89033Z" fill="url(#paint11_linear_4_1977)"/>
<path d="M50.1184 10.2593C50.9377 10.3404 51.5873 10.9974 51.6684 11.8166L51.9415 14.5328C51.9415 14.5328 52.0301 10.8645 51.2182 10.3331C50.5834 9.91974 50.768 10.3183 47.8599 10.0231L50.1184 10.2593Z" fill="url(#paint12_linear_4_1977)"/>
<path d="M52.3772 11.403C52.2 13.5582 52.1262 14.6064 52.0007 15.1821L52.0819 16.0235C52.0819 16.0382 52.1041 16.0382 52.1115 16.0235L52.5174 11.8163C52.5986 10.9971 53.2481 10.3402 54.0674 10.259L55.5657 10.104C53.8238 9.89729 52.4805 10.163 52.3772 11.403Z" fill="url(#paint13_linear_4_1977)"/>
<path d="M52.1115 3.99292L52.5174 8.20006C52.5986 9.01935 53.2481 9.67625 54.0674 9.75745L56.3407 9.99363C56.3407 9.99363 54.4512 9.8903 54.0526 9.8903C53.6541 9.8903 52.4879 9.65411 52.3772 8.20745C52.2665 6.75339 52.1115 3.99292 52.1115 3.99292Z" fill="url(#paint14_linear_4_1977)"/>
<path d="M52.0819 3.99292L51.676 8.20006C51.5948 9.01935 50.9453 9.67625 50.126 9.75745L47.8527 9.99363C47.8527 9.99363 49.7422 9.8903 50.1407 9.8903C50.5393 9.8903 51.7055 9.65411 51.8162 8.20745C51.9269 6.75339 52.0819 3.99292 52.0819 3.99292Z" fill="url(#paint15_linear_4_1977)"/>
<path d="M71.8481 11.9281C72.8793 11.9281 73.7154 11.0921 73.7154 10.0607C73.7154 9.02942 72.8793 8.19336 71.8481 8.19336C70.8167 8.19336 69.9807 9.02942 69.9807 10.0607C69.9807 11.0921 70.8167 11.9281 71.8481 11.9281Z" fill="url(#paint16_radial_4_1977)"/>
<path d="M73.3908 10.2009L75.1475 10.0681C75.1622 10.0681 75.1622 10.0533 75.1475 10.0533L73.3908 9.92044C72.7561 9.86878 72.2468 9.49235 72.1876 9.0126L71.8629 6.55474C71.8629 6.54735 71.8408 6.54735 71.8408 6.55474L71.5234 9.00521C71.4643 9.48497 70.9551 9.86878 70.3202 9.91307L68.5562 10.0533C68.5415 10.0533 68.5415 10.0681 68.5562 10.0681L70.3202 10.2083C70.9625 10.26 71.4643 10.6364 71.5234 11.1162L71.8408 13.5667C71.8408 13.574 71.8629 13.574 71.8629 13.5667L72.1876 11.1088C72.2468 10.629 72.7561 10.2526 73.3908 10.2009Z" fill="url(#paint17_linear_4_1977)"/>
<path d="M71.7818 10.1271C71.4052 9.77282 68.5562 10.0459 68.5562 10.0459C68.5415 10.0459 68.5415 10.0607 68.5562 10.0607L70.3202 10.2009C70.9625 10.2526 71.4643 10.629 71.5234 11.1088L71.8186 13.4042L71.8408 13.4116C71.8408 13.419 72.1802 10.5109 71.7818 10.1271Z" fill="url(#paint18_linear_4_1977)"/>
<path d="M70.3129 10.2013C70.9477 10.253 71.457 10.6294 71.516 11.1092L71.7227 12.6961C71.7227 12.6961 71.7891 10.5556 71.1617 10.2456C70.6672 10.0021 70.8149 10.2382 68.5563 10.0685L70.3129 10.2013Z" fill="url(#paint19_linear_4_1977)"/>
<path d="M71.6342 9.24878C71.767 7.99401 71.8335 7.3814 71.9294 7.04926L71.8629 6.55474C71.8629 6.54735 71.8408 6.54735 71.8408 6.55474L71.5235 9.00521C71.4644 9.48497 70.9551 9.86878 70.3203 9.91307L69.1542 10.0016C70.5049 10.1197 71.5529 9.97211 71.6342 9.24878Z" fill="url(#paint20_linear_4_1977)"/>
<path d="M71.8407 13.5671L71.5234 11.1166C71.4643 10.6368 70.955 10.253 70.3203 10.2087L68.5563 10.0685C68.5563 10.0685 70.025 10.1275 70.335 10.1275C70.645 10.1275 71.5529 10.2604 71.6341 11.1092C71.7153 11.958 71.8407 13.5671 71.8407 13.5671Z" fill="url(#paint21_linear_4_1977)"/>
<path d="M71.8629 13.5671L72.1804 11.1166C72.2394 10.6368 72.7487 10.253 73.3835 10.2087L75.1475 10.0685C75.1475 10.0685 73.6787 10.1275 73.3687 10.1275C73.0587 10.1275 72.1508 10.2604 72.0697 11.1092C71.9811 11.958 71.8629 13.5671 71.8629 13.5671Z" fill="url(#paint22_linear_4_1977)"/>
<path opacity="0.5" d="M57.7504 21.5376C57.0714 22.2166 55.979 22.2166 55.2999 21.5376C55.979 22.2166 55.979 23.309 55.2999 23.9881C55.979 23.309 57.0714 23.309 57.7504 23.9881C57.0714 23.309 57.0714 22.2166 57.7504 21.5376Z" fill="#FCCE38"/>
<path d="M56.5251 24.4232C57.4423 24.4232 58.1858 23.6797 58.1858 22.7625C58.1858 21.8453 57.4423 21.1018 56.5251 21.1018C55.6079 21.1018 54.8644 21.8453 54.8644 22.7625C54.8644 23.6797 55.6079 24.4232 56.5251 24.4232Z" fill="url(#paint23_radial_4_1977)"/>
<path d="M55.1595 22.5929L53.6021 22.7553C53.5874 22.7553 53.5874 22.77 53.6021 22.7774L55.1595 22.9398C55.7278 22.9988 56.1707 23.4491 56.2298 24.0174L56.5176 26.9256C56.5176 26.9403 56.5324 26.9403 56.5398 26.9256L56.8202 24.0174C56.8719 23.4491 57.3221 22.9988 57.8905 22.9398L59.4553 22.7774C59.47 22.7774 59.47 22.7627 59.4553 22.7553L57.8905 22.5929C57.3221 22.5338 56.8719 22.0836 56.8202 21.5153L56.5398 18.6071C56.5398 18.5924 56.525 18.5924 56.5176 18.6071L56.2298 21.5153C56.1707 22.0836 55.7205 22.5338 55.1595 22.5929Z" fill="url(#paint24_linear_4_1977)"/>
<path d="M56.5912 22.6743C56.9234 23.095 59.4551 22.7702 59.4551 22.7702C59.4698 22.7702 59.4698 22.7554 59.4551 22.7481L57.8903 22.5857C57.3219 22.5267 56.8717 22.0764 56.82 21.5081L56.5543 18.7845L56.5396 18.7771C56.5322 18.7845 56.2369 22.2314 56.5912 22.6743Z" fill="url(#paint25_linear_4_1977)"/>
<path d="M55.1596 22.9324C55.7279 22.9914 56.1708 23.4417 56.2298 24.01L56.4144 25.8847C56.4144 25.8847 56.4734 23.3531 55.9125 22.984C55.477 22.6963 55.6025 22.9693 53.5948 22.77L55.1596 22.9324Z" fill="url(#paint26_linear_4_1977)"/>
<path d="M56.7168 23.7221C56.5987 25.213 56.5397 25.9364 56.4585 26.335L56.5176 26.918C56.5176 26.9327 56.5323 26.9327 56.5397 26.918L56.8202 24.01C56.8718 23.4416 57.3221 22.9914 57.8904 22.9323L58.9311 22.8216C57.7206 22.6887 56.7906 22.8659 56.7168 23.7221Z" fill="url(#paint27_linear_4_1977)"/>
<path d="M56.5323 18.6068L56.8128 21.5149C56.8645 22.0832 57.3147 22.5335 57.8831 22.5925L59.4478 22.7549C59.4478 22.7549 58.1414 22.6885 57.8683 22.6885C57.5952 22.6885 56.7907 22.5261 56.7169 21.5222C56.6431 20.5111 56.5323 18.6068 56.5323 18.6068Z" fill="url(#paint28_linear_4_1977)"/>
<path d="M56.5175 18.6068L56.2371 21.5149C56.1854 22.0832 55.7351 22.5335 55.1668 22.5925L53.6021 22.7549C53.6021 22.7549 54.9085 22.6885 55.1816 22.6885C55.4547 22.6885 56.2592 22.5261 56.333 21.5222C56.4068 20.5111 56.5175 18.6068 56.5175 18.6068Z" fill="url(#paint29_linear_4_1977)"/>
<path opacity="0.5" d="M27.243 28.6652C26.4754 29.4328 25.228 29.4328 24.453 28.6652C25.2206 29.4328 25.2206 30.6802 24.453 31.4552C25.2206 30.6875 26.468 30.6875 27.243 31.4552C26.4754 30.6802 26.4754 29.4328 27.243 28.6652Z" fill="#FCCE38"/>
<path d="M20.9621 31.6471C18.8362 33.7728 15.3894 33.7728 13.2562 31.6471C15.3821 33.7728 15.3821 37.2197 13.2562 39.3528C15.3821 37.2271 18.8289 37.2271 20.9621 39.3528C18.8289 37.2271 18.8289 33.7728 20.9621 31.6471Z" fill="#FCCE38"/>
<path d="M20.9618 39.353C18.8361 41.4787 15.3892 41.4787 13.2635 39.353C11.1377 37.2271 11.1377 33.7803 13.2635 31.6546C15.3892 29.5289 18.8361 29.5289 20.9618 31.6546C23.0875 33.773 23.0875 37.2198 20.9618 39.353Z" fill="url(#paint30_radial_4_1977)"/>
<path d="M21.5965 36.0612L26.7115 35.5297C26.7484 35.5223 26.7484 35.4707 26.7115 35.4707L21.5965 34.9393C19.7365 34.7473 18.2677 33.2712 18.0832 31.4185L17.1384 21.875C17.1311 21.8381 17.0793 21.8381 17.0793 21.875L16.1568 31.4038C15.9796 33.2712 14.5108 34.7473 12.6434 34.9393L7.49887 35.4707C7.46197 35.478 7.46197 35.5297 7.49887 35.5297L12.6434 36.0612C14.5034 36.253 15.9722 37.7293 16.1568 39.5966L17.0793 49.1254C17.0793 49.1623 17.1384 49.1623 17.1384 49.1254L18.0832 39.5819C18.2751 37.7219 19.7439 36.253 21.5965 36.0612Z" fill="url(#paint31_linear_4_1977)"/>
<path d="M16.9022 35.7806C15.8098 34.4003 7.49887 35.4706 7.49887 35.4706C7.46197 35.4779 7.46197 35.5296 7.49887 35.5296L12.6434 36.061C14.5034 36.2529 15.9722 37.729 16.1568 39.5964L17.0202 48.5274L17.0793 48.5569C17.0793 48.5569 18.0684 37.2493 16.9022 35.7806Z" fill="url(#paint32_linear_4_1977)"/>
<path d="M21.5967 34.9388C19.7367 34.7469 18.2678 33.2708 18.0834 31.4181L17.4707 25.255C17.4707 25.255 17.2788 33.5659 19.1093 34.7691C20.5486 35.7138 20.1205 34.8059 26.7117 35.4702L21.5967 34.9388Z" fill="url(#paint33_linear_4_1977)"/>
<path d="M16.4743 32.341C16.8729 27.4548 17.05 25.0781 17.3305 23.7791L17.1386 21.8674C17.1312 21.8305 17.0796 21.8305 17.0796 21.8674L16.1569 31.3962C15.9797 33.2636 14.511 34.7398 12.6436 34.9317L9.24097 35.286C13.1972 35.7436 16.2455 35.1532 16.4743 32.341Z" fill="url(#paint34_linear_4_1977)"/>
<path d="M17.0792 49.1254L16.1565 39.5965C15.9793 37.7291 14.5106 36.2529 12.6432 36.0611L7.49866 35.5295C7.49866 35.5295 11.7796 35.7584 12.6801 35.7584C13.5806 35.7584 16.2229 36.2898 16.4665 39.5818C16.71 42.8737 17.0792 49.1254 17.0792 49.1254Z" fill="url(#paint35_linear_4_1977)"/>
<path d="M17.1385 49.1254L18.0611 39.5965C18.2383 37.7291 19.707 36.2529 21.5744 36.0611L26.719 35.5295C26.719 35.5295 22.438 35.7584 21.5376 35.7584C20.637 35.7584 17.9947 36.2898 17.7511 39.5818C17.5076 42.8737 17.1385 49.1254 17.1385 49.1254Z" fill="url(#paint36_linear_4_1977)"/>
<path opacity="0.5" d="M7.86818 28.2369C6.88651 29.2186 5.29961 29.2186 4.32532 28.2369C5.30698 29.2186 5.30698 30.8055 4.32532 31.7798C5.30698 30.7981 6.89389 30.7981 7.86818 31.7798C6.89389 30.8055 6.89389 29.2186 7.86818 28.2369Z" fill="#FCCE38"/>
<path d="M6.09673 32.4142C7.42564 32.4142 8.50293 31.3369 8.50293 30.008C8.50293 28.6791 7.42564 27.6018 6.09673 27.6018C4.76784 27.6018 3.69055 28.6791 3.69055 30.008C3.69055 31.3369 4.76784 32.4142 6.09673 32.4142Z" fill="url(#paint37_radial_4_1977)"/>
<path d="M4.11852 29.7647L1.85995 30.0009C1.84519 30.0009 1.84519 30.0231 1.85995 30.0304L4.11852 30.2666C4.93781 30.3478 5.58733 31.0047 5.66852 31.824L6.08923 36.0311C6.08923 36.046 6.11138 36.046 6.11876 36.0311L6.52471 31.824C6.6059 31.0047 7.25542 30.3478 8.07471 30.2666L10.348 30.0304C10.3628 30.0304 10.3628 30.0083 10.348 30.0009L8.07471 29.7647C7.25542 29.6762 6.6059 29.0266 6.52471 28.2073L6.11876 24.0002C6.11876 23.9854 6.09662 23.9854 6.08923 24.0002L5.66852 28.2147C5.57995 29.0266 4.93781 29.6762 4.11852 29.7647Z" fill="url(#paint38_linear_4_1977)"/>
<path d="M6.19233 29.8903C6.67208 30.4956 10.3404 30.0232 10.3404 30.0232C10.3552 30.0232 10.3552 30.001 10.3404 29.9937L8.06708 29.7575C7.2478 29.6689 6.59827 29.0194 6.51708 28.2001L6.13327 24.2587L6.11113 24.2439C6.11113 24.2439 5.67566 29.2334 6.19233 29.8903Z" fill="url(#paint39_linear_4_1977)"/>
<path d="M4.11843 30.2593C4.93772 30.3404 5.58725 30.9974 5.66843 31.8166L5.94153 34.5328C5.94153 34.5328 6.0301 30.8645 5.2182 30.3331C4.58343 29.9197 4.76796 30.3183 1.85986 30.0231L4.11843 30.2593Z" fill="url(#paint40_linear_4_1977)"/>
<path d="M6.37716 31.403C6.20002 33.5582 6.1262 34.6064 6.00073 35.1821L6.08193 36.0235C6.08193 36.0382 6.10407 36.0382 6.11145 36.0235L6.5174 31.8163C6.59859 30.9971 7.24812 30.3402 8.0674 30.259L9.56573 30.104C7.82383 29.8973 6.4805 30.163 6.37716 31.403Z" fill="url(#paint41_linear_4_1977)"/>
<path d="M6.11145 23.9929L6.5174 28.2001C6.59859 29.0194 7.2481 29.6763 8.0674 29.7574L10.3407 29.9936C10.3407 29.9936 8.4512 29.8903 8.05263 29.8903C7.65406 29.8903 6.48787 29.6541 6.37716 28.2074C6.26645 26.7534 6.11145 23.9929 6.11145 23.9929Z" fill="url(#paint42_linear_4_1977)"/>
<path d="M6.08194 23.9929L5.67599 28.2001C5.5948 29.0194 4.94527 29.6763 4.12599 29.7574L1.85266 29.9936C1.85266 29.9936 3.74218 29.8903 4.14075 29.8903C4.53933 29.8903 5.70551 29.6541 5.81623 28.2074C5.92694 26.7534 6.08194 23.9929 6.08194 23.9929Z" fill="url(#paint43_linear_4_1977)"/>
<path d="M25.8481 31.9281C26.8793 31.9281 27.7154 31.0921 27.7154 30.0607C27.7154 29.0294 26.8793 28.1934 25.8481 28.1934C24.8167 28.1934 23.9807 29.0294 23.9807 30.0607C23.9807 31.0921 24.8167 31.9281 25.8481 31.9281Z" fill="url(#paint44_radial_4_1977)"/>
<path d="M27.3908 30.2009L29.1475 30.0681C29.1622 30.0681 29.1622 30.0533 29.1475 30.0533L27.3908 29.9204C26.7561 29.8688 26.2468 29.4923 26.1876 29.0126L25.8629 26.5547C25.8629 26.5473 25.8408 26.5473 25.8408 26.5547L25.5234 29.0052C25.4643 29.485 24.9551 29.8688 24.3202 29.9131L22.5562 30.0533C22.5415 30.0533 22.5415 30.0681 22.5562 30.0681L24.3202 30.2083C24.9625 30.26 25.4643 30.6364 25.5234 31.1162L25.8408 33.5667C25.8408 33.574 25.8629 33.574 25.8629 33.5667L26.1876 31.1088C26.2468 30.629 26.7561 30.2526 27.3908 30.2009Z" fill="url(#paint45_linear_4_1977)"/>
<path d="M25.7818 30.1271C25.4052 29.7728 22.5562 30.0459 22.5562 30.0459C22.5415 30.0459 22.5415 30.0607 22.5562 30.0607L24.3202 30.2009C24.9625 30.2526 25.4643 30.629 25.5234 31.1088L25.8186 33.4042L25.8408 33.4116C25.8408 33.419 26.1802 30.5109 25.7818 30.1271Z" fill="url(#paint46_linear_4_1977)"/>
<path d="M24.3129 30.2013C24.9477 30.253 25.457 30.6294 25.516 31.1092L25.7227 32.6961C25.7227 32.6961 25.7891 30.5556 25.1617 30.2456C24.6672 30.0021 24.8149 30.2382 22.5563 30.0685L24.3129 30.2013Z" fill="url(#paint47_linear_4_1977)"/>
<path d="M25.6342 29.2488C25.767 27.994 25.8335 27.3814 25.9294 27.0493L25.8629 26.5547C25.8629 26.5473 25.8408 26.5473 25.8408 26.5547L25.5235 29.0052C25.4644 29.485 24.9551 29.8688 24.3203 29.9131L23.1542 30.0016C24.5049 30.1197 25.5529 29.9721 25.6342 29.2488Z" fill="url(#paint48_linear_4_1977)"/>
<path d="M25.8407 33.5671L25.5234 31.1166C25.4643 30.6368 24.955 30.253 24.3203 30.2087L22.5563 30.0685C22.5563 30.0685 24.025 30.1275 24.335 30.1275C24.645 30.1275 25.5529 30.2604 25.6341 31.1092C25.7153 31.958 25.8407 33.5671 25.8407 33.5671Z" fill="url(#paint49_linear_4_1977)"/>
<path d="M25.8629 33.5671L26.1804 31.1166C26.2394 30.6368 26.7487 30.253 27.3835 30.2087L29.1475 30.0685C29.1475 30.0685 27.6787 30.1275 27.3687 30.1275C27.0587 30.1275 26.1508 30.2604 26.0697 31.1092C25.9811 31.958 25.8629 33.5671 25.8629 33.5671Z" fill="url(#paint50_linear_4_1977)"/>
<path opacity="0.5" d="M11.7504 41.5376C11.0714 42.2166 9.97897 42.2166 9.29993 41.5376C9.97897 42.2166 9.97897 43.309 9.29993 43.9881C9.97897 43.309 11.0714 43.309 11.7504 43.9881C11.0714 43.309 11.0714 42.2166 11.7504 41.5376Z" fill="#FCCE38"/>
<path d="M10.5251 44.4232C11.4423 44.4232 12.1858 43.6797 12.1858 42.7625C12.1858 41.8453 11.4423 41.1018 10.5251 41.1018C9.60791 41.1018 8.86438 41.8453 8.86438 42.7625C8.86438 43.6797 9.60791 44.4232 10.5251 44.4232Z" fill="url(#paint51_radial_4_1977)"/>
<path d="M9.15952 42.5929L7.60213 42.7553C7.58738 42.7553 7.58738 42.77 7.60213 42.7774L9.15952 42.9398C9.72785 42.9988 10.1707 43.4491 10.2298 44.0174L10.5176 46.9256C10.5176 46.9403 10.5324 46.9403 10.5398 46.9256L10.8202 44.0174C10.8719 43.4491 11.3221 42.9988 11.8905 42.9398L13.4553 42.7774C13.47 42.7774 13.47 42.7627 13.4553 42.7553L11.8905 42.5929C11.3221 42.5338 10.8719 42.0836 10.8202 41.5153L10.5398 38.6071C10.5398 38.5924 10.525 38.5924 10.5176 38.6071L10.2298 41.5153C10.1707 42.0836 9.72046 42.5338 9.15952 42.5929Z" fill="url(#paint52_linear_4_1977)"/>
<path d="M10.5912 42.6743C10.9234 43.095 13.4551 42.7702 13.4551 42.7702C13.4698 42.7702 13.4698 42.7554 13.4551 42.7481L11.8903 42.5857C11.3219 42.5267 10.8717 42.0764 10.82 41.5081L10.5543 38.7845L10.5396 38.7771C10.5322 38.7845 10.2369 42.2314 10.5912 42.6743Z" fill="url(#paint53_linear_4_1977)"/>
<path d="M9.15961 42.9324C9.72795 42.9914 10.1708 43.4417 10.2298 44.01L10.4144 45.8847C10.4144 45.8847 10.4734 43.3531 9.91247 42.984C9.47699 42.6963 9.60247 42.9693 7.59485 42.77L9.15961 42.9324Z" fill="url(#paint54_linear_4_1977)"/>
<path d="M10.7168 43.7221C10.5987 45.213 10.5397 45.9364 10.4585 46.335L10.5176 46.918C10.5176 46.9327 10.5323 46.9327 10.5397 46.918L10.8202 44.01C10.8718 43.4416 11.3221 42.9914 11.8904 42.9323L12.9311 42.8216C11.7206 42.6887 10.7906 42.8659 10.7168 43.7221Z" fill="url(#paint55_linear_4_1977)"/>
<path d="M10.5323 38.6068L10.8128 41.5149C10.8645 42.0832 11.3147 42.5335 11.8831 42.5925L13.4478 42.7549C13.4478 42.7549 12.1414 42.6885 11.8683 42.6885C11.5952 42.6885 10.7907 42.5261 10.7169 41.5222C10.6431 40.5111 10.5323 38.6068 10.5323 38.6068Z" fill="url(#paint56_linear_4_1977)"/>
<path d="M10.5175 38.6068L10.2371 41.5149C10.1854 42.0832 9.73515 42.5335 9.16681 42.5925L7.60205 42.7549C7.60205 42.7549 8.90848 42.6885 9.18158 42.6885C9.45468 42.6885 10.2592 42.5261 10.333 41.5222C10.4068 40.5111 10.5175 38.6068 10.5175 38.6068Z" fill="url(#paint57_linear_4_1977)"/>
<defs>
<linearGradient id="paint0_linear_4_1977" x1="41" y1="0" x2="41" y2="60" gradientUnits="userSpaceOnUse">
<stop offset="0.165" stop-color="#FFACCF"/>
<stop offset="0.79" stop-color="#C04578"/>
</linearGradient>
<linearGradient id="paint1_linear_4_1977" x1="41" y1="44" x2="41" y2="60" gradientUnits="userSpaceOnUse">
<stop stop-color="#FC77AE"/>
<stop offset="1" stop-color="#AF0049"/>
</linearGradient>
<radialGradient id="paint2_radial_4_1977" cx="0" cy="0" r="1" gradientUnits="userSpaceOnUse" gradientTransform="translate(63.1107 15.4964) rotate(45.0009) scale(5.44543 5.44558)">
<stop stop-color="#FFBC47"/>
<stop offset="0.2588" stop-color="#FEC14D" stop-opacity="0.7412"/>
<stop offset="0.6207" stop-color="#FDCD60" stop-opacity="0.3793"/>
<stop offset="1" stop-color="#FBE07A" stop-opacity="0"/>
</radialGradient>
<linearGradient id="paint3_linear_4_1977" x1="63.9044" y1="18.8646" x2="59.4315" y2="-0.020655" gradientUnits="userSpaceOnUse">
<stop stop-color="#FCCE38"/>
<stop offset="0.2151" stop-color="#FCD44F"/>
<stop offset="0.5049" stop-color="#FBDB67"/>
<stop offset="0.774" stop-color="#FBDF75"/>
<stop offset="1" stop-color="#FBE07A"/>
</linearGradient>
<linearGradient id="paint4_linear_4_1977" x1="60.9814" y1="21.7422" x2="68.6225" y2="20.9967" gradientUnits="userSpaceOnUse">
<stop stop-color="#FCCE38"/>
<stop offset="0.2151" stop-color="#FCD44F"/>
<stop offset="0.5049" stop-color="#FBDB67"/>
<stop offset="0.774" stop-color="#FBDF75"/>
<stop offset="1" stop-color="#FBE07A"/>
</linearGradient>
<linearGradient id="paint5_linear_4_1977" x1="69.2779" y1="5.9586" x2="63.894" y2="26.0035" gradientUnits="userSpaceOnUse">
<stop stop-color="#FCCE38"/>
<stop offset="0.3638" stop-color="#FCCE38"/>
<stop offset="1" stop-color="#C86F34"/>
</linearGradient>
<linearGradient id="paint6_linear_4_1977" x1="57.7024" y1="7.63447" x2="66.9897" y2="13.5051" gradientUnits="userSpaceOnUse">
<stop stop-color="#FCCE38"/>
<stop offset="0.2151" stop-color="#FCD44F"/>
<stop offset="0.5049" stop-color="#FBDB67"/>
<stop offset="0.774" stop-color="#FBDF75"/>
<stop offset="1" stop-color="#FBE07A"/>
</linearGradient>
<linearGradient id="paint7_linear_4_1977" x1="57.8184" y1="24.8525" x2="60.6347" y2="9.73599" gradientUnits="userSpaceOnUse">
<stop stop-color="#FCCE38"/>
<stop offset="0.00850916" stop-color="#FCCD38"/>
<stop offset="0.3748" stop-color="#FBB53A"/>
<stop offset="0.7145" stop-color="#FBA73B"/>
<stop offset="1" stop-color="#FBA23B"/>
</linearGradient>
<linearGradient id="paint8_linear_4_1977" x1="66.5598" y1="19.3844" x2="62.3769" y2="10.3973" gradientUnits="userSpaceOnUse">
<stop stop-color="#FCCE38"/>
<stop offset="0.00850916" stop-color="#FCCD38"/>
<stop offset="0.3748" stop-color="#FBB53A"/>
<stop offset="0.7145" stop-color="#FBA73B"/>
<stop offset="1" stop-color="#FBA23B"/>
</linearGradient>
<radialGradient id="paint9_radial_4_1977" cx="0" cy="0" r="1" gradientUnits="userSpaceOnUse" gradientTransform="translate(52.0975 10.0093) rotate(-134.999) scale(2.40299)">
<stop stop-color="#FFBC47"/>
<stop offset="0.2588" stop-color="#FEC14D" stop-opacity="0.7412"/>
<stop offset="0.6207" stop-color="#FDCD60" stop-opacity="0.3793"/>
<stop offset="1" stop-color="#FBE07A" stop-opacity="0"/>
</radialGradient>
<linearGradient id="paint10_linear_4_1977" x1="51.746" y1="8.52459" x2="53.7198" y2="16.8584" gradientUnits="userSpaceOnUse">
<stop stop-color="#FCCE38"/>
<stop offset="0.2151" stop-color="#FCD44F"/>
<stop offset="0.5049" stop-color="#FBDB67"/>
<stop offset="0.774" stop-color="#FBDF75"/>
<stop offset="1" stop-color="#FBE07A"/>
</linearGradient>
<linearGradient id="paint11_linear_4_1977" x1="53.0356" y1="7.2548" x2="49.6637" y2="7.58377" gradientUnits="userSpaceOnUse">
<stop stop-color="#FCCE38"/>
<stop offset="0.2151" stop-color="#FCD44F"/>
<stop offset="0.5049" stop-color="#FBDB67"/>
<stop offset="0.774" stop-color="#FBDF75"/>
<stop offset="1" stop-color="#FBE07A"/>
</linearGradient>
<linearGradient id="paint12_linear_4_1977" x1="49.3747" y1="14.2197" x2="51.7506" y2="5.37408" gradientUnits="userSpaceOnUse">
<stop stop-color="#FCCE38"/>
<stop offset="0.3638" stop-color="#FCCE38"/>
<stop offset="1" stop-color="#C86F34"/>
</linearGradient>
<linearGradient id="paint13_linear_4_1977" x1="54.483" y1="13.4799" x2="50.3846" y2="10.8893" gradientUnits="userSpaceOnUse">
<stop stop-color="#FCCE38"/>
<stop offset="0.2151" stop-color="#FCD44F"/>
<stop offset="0.5049" stop-color="#FBDB67"/>
<stop offset="0.774" stop-color="#FBDF75"/>
<stop offset="1" stop-color="#FBE07A"/>
</linearGradient>
<linearGradient id="paint14_linear_4_1977" x1="54.4316" y1="5.88224" x2="53.1888" y2="12.553" gradientUnits="userSpaceOnUse">
<stop stop-color="#FCCE38"/>
<stop offset="0.00850916" stop-color="#FCCD38"/>
<stop offset="0.3748" stop-color="#FBB53A"/>
<stop offset="0.7145" stop-color="#FBA73B"/>
<stop offset="1" stop-color="#FBA23B"/>
</linearGradient>
<linearGradient id="paint15_linear_4_1977" x1="50.5743" y1="8.29525" x2="52.4202" y2="12.2612" gradientUnits="userSpaceOnUse">
<stop stop-color="#FCCE38"/>
<stop offset="0.00850916" stop-color="#FCCD38"/>
<stop offset="0.3748" stop-color="#FBB53A"/>
<stop offset="0.7145" stop-color="#FBA73B"/>
<stop offset="1" stop-color="#FBA23B"/>
</linearGradient>
<radialGradient id="paint16_radial_4_1977" cx="0" cy="0" r="1" gradientUnits="userSpaceOnUse" gradientTransform="translate(71.8521 10.057) rotate(45.0017) scale(1.86718)">
<stop stop-color="#FFBC47"/>
<stop offset="0.2588" stop-color="#FEC14D" stop-opacity="0.7412"/>
<stop offset="0.6207" stop-color="#FDCD60" stop-opacity="0.3793"/>
<stop offset="1" stop-color="#FBE07A" stop-opacity="0"/>
</radialGradient>
<linearGradient id="paint17_linear_4_1977" x1="72.0556" y1="10.9242" x2="70.9047" y2="6.06509" gradientUnits="userSpaceOnUse">
<stop stop-color="#FCCE38"/>
<stop offset="0.2151" stop-color="#FCD44F"/>
<stop offset="0.5049" stop-color="#FBDB67"/>
<stop offset="0.774" stop-color="#FBDF75"/>
<stop offset="1" stop-color="#FBE07A"/>
</linearGradient>
<linearGradient id="paint18_linear_4_1977" x1="71.0817" y1="11.6482" x2="73.7169" y2="11.3911" gradientUnits="userSpaceOnUse">
<stop stop-color="#FCCE38"/>
<stop offset="0.2151" stop-color="#FCD44F"/>
<stop offset="0.5049" stop-color="#FBDB67"/>
<stop offset="0.774" stop-color="#FBDF75"/>
<stop offset="1" stop-color="#FBE07A"/>
</linearGradient>
<linearGradient id="paint19_linear_4_1977" x1="69.864" y1="12.4099" x2="71.2175" y2="7.3705" gradientUnits="userSpaceOnUse">
<stop stop-color="#FCCE38"/>
<stop offset="0.3638" stop-color="#FCCE38"/>
<stop offset="1" stop-color="#C86F34"/>
</linearGradient>
<linearGradient id="paint20_linear_4_1977" x1="69.9217" y1="7.90698" x2="72.9169" y2="9.80033" gradientUnits="userSpaceOnUse">
<stop stop-color="#FCCE38"/>
<stop offset="0.2151" stop-color="#FCD44F"/>
<stop offset="0.5049" stop-color="#FBDB67"/>
<stop offset="0.774" stop-color="#FBDF75"/>
<stop offset="1" stop-color="#FBE07A"/>
</linearGradient>
<linearGradient id="paint21_linear_4_1977" x1="70.0883" y1="12.406" x2="70.7999" y2="8.58672" gradientUnits="userSpaceOnUse">
<stop stop-color="#FCCE38"/>
<stop offset="0.00850916" stop-color="#FCCD38"/>
<stop offset="0.3748" stop-color="#FBB53A"/>
<stop offset="0.7145" stop-color="#FBA73B"/>
<stop offset="1" stop-color="#FBA23B"/>
</linearGradient>
<linearGradient id="paint22_linear_4_1977" x1="73.106" y1="10.9602" x2="72.0665" y2="8.72671" gradientUnits="userSpaceOnUse">
<stop stop-color="#FCCE38"/>
<stop offset="0.00850916" stop-color="#FCCD38"/>
<stop offset="0.3748" stop-color="#FBB53A"/>
<stop offset="0.7145" stop-color="#FBA73B"/>
<stop offset="1" stop-color="#FBA23B"/>
</linearGradient>
<radialGradient id="paint23_radial_4_1977" cx="0" cy="0" r="1" gradientUnits="userSpaceOnUse" gradientTransform="translate(56.5263 22.7625) rotate(-134.998) scale(1.65983)">
<stop stop-color="#FFBC47"/>
<stop offset="0.2588" stop-color="#FEC14D" stop-opacity="0.7412"/>
<stop offset="0.6207" stop-color="#FDCD60" stop-opacity="0.3793"/>
<stop offset="1" stop-color="#FBE07A" stop-opacity="0"/>
</radialGradient>
<linearGradient id="paint24_linear_4_1977" x1="56.2837" y1="21.7368" x2="57.647" y2="27.4931" gradientUnits="userSpaceOnUse">
<stop stop-color="#FCCE38"/>
<stop offset="0.2151" stop-color="#FCD44F"/>
<stop offset="0.5049" stop-color="#FBDB67"/>
<stop offset="0.774" stop-color="#FBDF75"/>
<stop offset="1" stop-color="#FBE07A"/>
</linearGradient>
<linearGradient id="paint25_linear_4_1977" x1="57.1744" y1="20.8598" x2="54.8454" y2="21.087" gradientUnits="userSpaceOnUse">
<stop stop-color="#FCCE38"/>
<stop offset="0.2151" stop-color="#FCD44F"/>
<stop offset="0.5049" stop-color="#FBDB67"/>
<stop offset="0.774" stop-color="#FBDF75"/>
<stop offset="1" stop-color="#FBE07A"/>
</linearGradient>
<linearGradient id="paint26_linear_4_1977" x1="54.6459" y1="25.6706" x2="56.287" y2="19.5606" gradientUnits="userSpaceOnUse">
<stop stop-color="#FCCE38"/>
<stop offset="0.3638" stop-color="#FCCE38"/>
<stop offset="1" stop-color="#C86F34"/>
</linearGradient>
<linearGradient id="paint27_linear_4_1977" x1="58.1741" y1="25.1597" x2="55.3432" y2="23.3703" gradientUnits="userSpaceOnUse">
<stop stop-color="#FCCE38"/>
<stop offset="0.2151" stop-color="#FCD44F"/>
<stop offset="0.5049" stop-color="#FBDB67"/>
<stop offset="0.774" stop-color="#FBDF75"/>
<stop offset="1" stop-color="#FBE07A"/>
</linearGradient>
<linearGradient id="paint28_linear_4_1977" x1="58.1386" y1="19.9111" x2="57.2802" y2="24.5189" gradientUnits="userSpaceOnUse">
<stop stop-color="#FCCE38"/>
<stop offset="0.00850916" stop-color="#FCCD38"/>
<stop offset="0.3748" stop-color="#FBB53A"/>
<stop offset="0.7145" stop-color="#FBA73B"/>
<stop offset="1" stop-color="#FBA23B"/>
</linearGradient>
<linearGradient id="paint29_linear_4_1977" x1="55.4742" y1="21.5779" x2="56.7492" y2="24.3173" gradientUnits="userSpaceOnUse">
<stop stop-color="#FCCE38"/>
<stop offset="0.00850916" stop-color="#FCCD38"/>
<stop offset="0.3748" stop-color="#FBB53A"/>
<stop offset="0.7145" stop-color="#FBA73B"/>
<stop offset="1" stop-color="#FBA23B"/>
</linearGradient>
<radialGradient id="paint30_radial_4_1977" cx="0" cy="0" r="1" gradientUnits="userSpaceOnUse" gradientTransform="translate(17.1107 35.4964) rotate(45.0009) scale(5.44543 5.44558)">
<stop stop-color="#FFBC47"/>
<stop offset="0.2588" stop-color="#FEC14D" stop-opacity="0.7412"/>
<stop offset="0.6207" stop-color="#FDCD60" stop-opacity="0.3793"/>
<stop offset="1" stop-color="#FBE07A" stop-opacity="0"/>
</radialGradient>
<linearGradient id="paint31_linear_4_1977" x1="17.9044" y1="38.8646" x2="13.4315" y2="19.9793" gradientUnits="userSpaceOnUse">
<stop stop-color="#FCCE38"/>
<stop offset="0.2151" stop-color="#FCD44F"/>
<stop offset="0.5049" stop-color="#FBDB67"/>
<stop offset="0.774" stop-color="#FBDF75"/>
<stop offset="1" stop-color="#FBE07A"/>
</linearGradient>
<linearGradient id="paint32_linear_4_1977" x1="14.9814" y1="41.7422" x2="22.6225" y2="40.9967" gradientUnits="userSpaceOnUse">
<stop stop-color="#FCCE38"/>
<stop offset="0.2151" stop-color="#FCD44F"/>
<stop offset="0.5049" stop-color="#FBDB67"/>
<stop offset="0.774" stop-color="#FBDF75"/>
<stop offset="1" stop-color="#FBE07A"/>
</linearGradient>
<linearGradient id="paint33_linear_4_1977" x1="23.2779" y1="25.9586" x2="17.894" y2="46.0035" gradientUnits="userSpaceOnUse">
<stop stop-color="#FCCE38"/>
<stop offset="0.3638" stop-color="#FCCE38"/>
<stop offset="1" stop-color="#C86F34"/>
</linearGradient>
<linearGradient id="paint34_linear_4_1977" x1="11.7024" y1="27.6345" x2="20.9897" y2="33.5051" gradientUnits="userSpaceOnUse">
<stop stop-color="#FCCE38"/>
<stop offset="0.2151" stop-color="#FCD44F"/>
<stop offset="0.5049" stop-color="#FBDB67"/>
<stop offset="0.774" stop-color="#FBDF75"/>
<stop offset="1" stop-color="#FBE07A"/>
</linearGradient>
<linearGradient id="paint35_linear_4_1977" x1="11.8184" y1="44.8525" x2="14.6347" y2="29.736" gradientUnits="userSpaceOnUse">
<stop stop-color="#FCCE38"/>
<stop offset="0.00850916" stop-color="#FCCD38"/>
<stop offset="0.3748" stop-color="#FBB53A"/>
<stop offset="0.7145" stop-color="#FBA73B"/>
<stop offset="1" stop-color="#FBA23B"/>
</linearGradient>
<linearGradient id="paint36_linear_4_1977" x1="20.5598" y1="39.3844" x2="16.3769" y2="30.3973" gradientUnits="userSpaceOnUse">
<stop stop-color="#FCCE38"/>
<stop offset="0.00850916" stop-color="#FCCD38"/>
<stop offset="0.3748" stop-color="#FBB53A"/>
<stop offset="0.7145" stop-color="#FBA73B"/>
<stop offset="1" stop-color="#FBA23B"/>
</linearGradient>
<radialGradient id="paint37_radial_4_1977" cx="0" cy="0" r="1" gradientUnits="userSpaceOnUse" gradientTransform="translate(6.09748 30.0093) rotate(-134.999) scale(2.40299)">
<stop stop-color="#FFBC47"/>
<stop offset="0.2588" stop-color="#FEC14D" stop-opacity="0.7412"/>
<stop offset="0.6207" stop-color="#FDCD60" stop-opacity="0.3793"/>
<stop offset="1" stop-color="#FBE07A" stop-opacity="0"/>
</radialGradient>
<linearGradient id="paint38_linear_4_1977" x1="5.74599" y1="28.5246" x2="7.7198" y2="36.8584" gradientUnits="userSpaceOnUse">
<stop stop-color="#FCCE38"/>
<stop offset="0.2151" stop-color="#FCD44F"/>
<stop offset="0.5049" stop-color="#FBDB67"/>
<stop offset="0.774" stop-color="#FBDF75"/>
<stop offset="1" stop-color="#FBE07A"/>
</linearGradient>
<linearGradient id="paint39_linear_4_1977" x1="7.03563" y1="27.2548" x2="3.66369" y2="27.5838" gradientUnits="userSpaceOnUse">
<stop stop-color="#FCCE38"/>
<stop offset="0.2151" stop-color="#FCD44F"/>
<stop offset="0.5049" stop-color="#FBDB67"/>
<stop offset="0.774" stop-color="#FBDF75"/>
<stop offset="1" stop-color="#FBE07A"/>
</linearGradient>
<linearGradient id="paint40_linear_4_1977" x1="3.37469" y1="34.2197" x2="5.75057" y2="25.3741" gradientUnits="userSpaceOnUse">
<stop stop-color="#FCCE38"/>
<stop offset="0.3638" stop-color="#FCCE38"/>
<stop offset="1" stop-color="#C86F34"/>
</linearGradient>
<linearGradient id="paint41_linear_4_1977" x1="8.48301" y1="33.4799" x2="4.3846" y2="30.8893" gradientUnits="userSpaceOnUse">
<stop stop-color="#FCCE38"/>
<stop offset="0.2151" stop-color="#FCD44F"/>
<stop offset="0.5049" stop-color="#FBDB67"/>
<stop offset="0.774" stop-color="#FBDF75"/>
<stop offset="1" stop-color="#FBE07A"/>
</linearGradient>
<linearGradient id="paint42_linear_4_1977" x1="8.43162" y1="25.8822" x2="7.18884" y2="32.553" gradientUnits="userSpaceOnUse">
<stop stop-color="#FCCE38"/>
<stop offset="0.00850916" stop-color="#FCCD38"/>
<stop offset="0.3748" stop-color="#FBB53A"/>
<stop offset="0.7145" stop-color="#FBA73B"/>
<stop offset="1" stop-color="#FBA23B"/>
</linearGradient>
<linearGradient id="paint43_linear_4_1977" x1="4.57432" y1="28.2953" x2="6.42021" y2="32.2612" gradientUnits="userSpaceOnUse">
<stop stop-color="#FCCE38"/>
<stop offset="0.00850916" stop-color="#FCCD38"/>
<stop offset="0.3748" stop-color="#FBB53A"/>
<stop offset="0.7145" stop-color="#FBA73B"/>
<stop offset="1" stop-color="#FBA23B"/>
</linearGradient>
<radialGradient id="paint44_radial_4_1977" cx="0" cy="0" r="1" gradientUnits="userSpaceOnUse" gradientTransform="translate(25.8521 30.057) rotate(45.0017) scale(1.86718)">
<stop stop-color="#FFBC47"/>
<stop offset="0.2588" stop-color="#FEC14D" stop-opacity="0.7412"/>
<stop offset="0.6207" stop-color="#FDCD60" stop-opacity="0.3793"/>
<stop offset="1" stop-color="#FBE07A" stop-opacity="0"/>
</radialGradient>
<linearGradient id="paint45_linear_4_1977" x1="26.0556" y1="30.9242" x2="24.9047" y2="26.0651" gradientUnits="userSpaceOnUse">
<stop stop-color="#FCCE38"/>
<stop offset="0.2151" stop-color="#FCD44F"/>
<stop offset="0.5049" stop-color="#FBDB67"/>
<stop offset="0.774" stop-color="#FBDF75"/>
<stop offset="1" stop-color="#FBE07A"/>
</linearGradient>
<linearGradient id="paint46_linear_4_1977" x1="25.0817" y1="31.6482" x2="27.7169" y2="31.3911" gradientUnits="userSpaceOnUse">
<stop stop-color="#FCCE38"/>
<stop offset="0.2151" stop-color="#FCD44F"/>
<stop offset="0.5049" stop-color="#FBDB67"/>
<stop offset="0.774" stop-color="#FBDF75"/>
<stop offset="1" stop-color="#FBE07A"/>
</linearGradient>
<linearGradient id="paint47_linear_4_1977" x1="23.864" y1="32.4099" x2="25.2175" y2="27.3705" gradientUnits="userSpaceOnUse">
<stop stop-color="#FCCE38"/>
<stop offset="0.3638" stop-color="#FCCE38"/>
<stop offset="1" stop-color="#C86F34"/>
</linearGradient>
<linearGradient id="paint48_linear_4_1977" x1="23.9217" y1="27.907" x2="26.9169" y2="29.8003" gradientUnits="userSpaceOnUse">
<stop stop-color="#FCCE38"/>
<stop offset="0.2151" stop-color="#FCD44F"/>
<stop offset="0.5049" stop-color="#FBDB67"/>
<stop offset="0.774" stop-color="#FBDF75"/>
<stop offset="1" stop-color="#FBE07A"/>
</linearGradient>
<linearGradient id="paint49_linear_4_1977" x1="24.0883" y1="32.406" x2="24.7999" y2="28.5867" gradientUnits="userSpaceOnUse">
<stop stop-color="#FCCE38"/>
<stop offset="0.00850916" stop-color="#FCCD38"/>
<stop offset="0.3748" stop-color="#FBB53A"/>
<stop offset="0.7145" stop-color="#FBA73B"/>
<stop offset="1" stop-color="#FBA23B"/>
</linearGradient>
<linearGradient id="paint50_linear_4_1977" x1="27.106" y1="30.9602" x2="26.0665" y2="28.7267" gradientUnits="userSpaceOnUse">
<stop stop-color="#FCCE38"/>
<stop offset="0.00850916" stop-color="#FCCD38"/>
<stop offset="0.3748" stop-color="#FBB53A"/>
<stop offset="0.7145" stop-color="#FBA73B"/>
<stop offset="1" stop-color="#FBA23B"/>
</linearGradient>
<radialGradient id="paint51_radial_4_1977" cx="0" cy="0" r="1" gradientUnits="userSpaceOnUse" gradientTransform="translate(10.5263 42.7625) rotate(-134.998) scale(1.65983)">
<stop stop-color="#FFBC47"/>
<stop offset="0.2588" stop-color="#FEC14D" stop-opacity="0.7412"/>
<stop offset="0.6207" stop-color="#FDCD60" stop-opacity="0.3793"/>
<stop offset="1" stop-color="#FBE07A" stop-opacity="0"/>
</radialGradient>
<linearGradient id="paint52_linear_4_1977" x1="10.2837" y1="41.7368" x2="11.647" y2="47.4931" gradientUnits="userSpaceOnUse">
<stop stop-color="#FCCE38"/>
<stop offset="0.2151" stop-color="#FCD44F"/>
<stop offset="0.5049" stop-color="#FBDB67"/>
<stop offset="0.774" stop-color="#FBDF75"/>
<stop offset="1" stop-color="#FBE07A"/>
</linearGradient>
<linearGradient id="paint53_linear_4_1977" x1="11.1744" y1="40.8598" x2="8.84535" y2="41.087" gradientUnits="userSpaceOnUse">
<stop stop-color="#FCCE38"/>
<stop offset="0.2151" stop-color="#FCD44F"/>
<stop offset="0.5049" stop-color="#FBDB67"/>
<stop offset="0.774" stop-color="#FBDF75"/>
<stop offset="1" stop-color="#FBE07A"/>
</linearGradient>
<linearGradient id="paint54_linear_4_1977" x1="8.6459" y1="45.6706" x2="10.287" y2="39.5606" gradientUnits="userSpaceOnUse">
<stop stop-color="#FCCE38"/>
<stop offset="0.3638" stop-color="#FCCE38"/>
<stop offset="1" stop-color="#C86F34"/>
</linearGradient>
<linearGradient id="paint55_linear_4_1977" x1="12.1741" y1="45.1597" x2="9.34321" y2="43.3703" gradientUnits="userSpaceOnUse">
<stop stop-color="#FCCE38"/>
<stop offset="0.2151" stop-color="#FCD44F"/>
<stop offset="0.5049" stop-color="#FBDB67"/>
<stop offset="0.774" stop-color="#FBDF75"/>
<stop offset="1" stop-color="#FBE07A"/>
</linearGradient>
<linearGradient id="paint56_linear_4_1977" x1="12.1386" y1="39.9111" x2="11.2802" y2="44.5189" gradientUnits="userSpaceOnUse">
<stop stop-color="#FCCE38"/>
<stop offset="0.00850916" stop-color="#FCCD38"/>
<stop offset="0.3748" stop-color="#FBB53A"/>
<stop offset="0.7145" stop-color="#FBA73B"/>
<stop offset="1" stop-color="#FBA23B"/>
</linearGradient>
<linearGradient id="paint57_linear_4_1977" x1="9.47422" y1="41.5779" x2="10.7492" y2="44.3173" gradientUnits="userSpaceOnUse">
<stop stop-color="#FCCE38"/>
<stop offset="0.00850916" stop-color="#FCCD38"/>
<stop offset="0.3748" stop-color="#FBB53A"/>
<stop offset="0.7145" stop-color="#FBA73B"/>
<stop offset="1" stop-color="#FBA23B"/>
</linearGradient>
<clipPath id="clip0_4_1977">
<rect width="40" height="40" fill="white" transform="translate(21 3)"/>
</clipPath>
</defs>
</svg>
