<svg width="70" height="60" viewBox="0 0 70 60" fill="none" xmlns="http://www.w3.org/2000/svg">
<circle cx="35" cy="30" r="30" fill="url(#paint0_linear_4_1988)"/>
<rect y="44" width="70" height="16" rx="8" fill="url(#paint1_linear_4_1988)"/>
<path d="M19.5087 53.81C19.4687 54.05 19.4487 54.2333 19.4487 54.36C19.4487 55.0067 19.5487 55.49 19.7487 55.81C19.3487 56.11 18.932 56.26 18.4987 56.26C18.0653 56.26 17.7553 56.1367 17.5687 55.89C17.382 55.6367 17.2887 55.2633 17.2887 54.77C17.2887 54.27 17.4987 52.86 17.9187 50.54L17.3887 49.47C18.142 48.9833 18.8287 48.74 19.4487 48.74C19.622 48.74 19.812 48.7733 20.0187 48.84C20.2253 48.9 20.372 48.97 20.4587 49.05C20.952 48.8567 21.4087 48.76 21.8287 48.76C22.4553 48.76 22.9487 48.98 23.3087 49.42C23.6753 49.8533 23.8587 50.38 23.8587 51C23.8587 51.7467 23.5887 52.4133 23.0487 53C22.7887 53.2867 22.4387 53.5167 21.9987 53.69C21.5587 53.8633 21.1087 53.95 20.6487 53.95C20.1953 53.95 19.8153 53.9033 19.5087 53.81ZM19.6987 52.67C19.792 52.69 19.8887 52.7 19.9887 52.7C20.4153 52.7 20.7953 52.55 21.1287 52.25C21.462 51.95 21.6287 51.58 21.6287 51.14C21.6287 50.8333 21.5387 50.5733 21.3587 50.36C21.1853 50.1467 20.9387 50.04 20.6187 50.04C20.4853 50.04 20.332 50.0667 20.1587 50.12C20.0253 51.0333 19.872 51.8833 19.6987 52.67ZM24.3066 55.01C24.3066 54.7433 24.3733 54.2267 24.5066 53.46C24.6466 52.6933 24.79 51.9933 24.9366 51.36L24.4166 50.56C25.25 50.1867 25.8333 50 26.1666 50C26.5066 50 26.6766 50.2133 26.6766 50.64C26.6766 50.8733 26.5666 51.36 26.3466 52.1L26.4466 52.15C26.9266 50.7167 27.5233 50 28.2366 50C28.5633 50 28.8133 50.1 28.9866 50.3C29.16 50.5 29.2466 50.7233 29.2466 50.97C29.2466 51.3367 29.11 51.65 28.8366 51.91C28.5633 52.17 28.1533 52.3 27.6066 52.3C26.78 52.3 26.3666 53.15 26.3666 54.85C26.3666 55.2633 26.4366 55.5667 26.5766 55.76C26.1633 56.0867 25.7833 56.25 25.4366 56.25C24.6833 56.25 24.3066 55.8367 24.3066 55.01ZM34.3296 50.76C34.7029 50.76 35.0229 50.91 35.2896 51.21C35.5629 51.51 35.6996 51.9467 35.6996 52.52C35.6996 53.0867 35.5996 53.6133 35.3996 54.1C35.1996 54.58 34.9363 54.9733 34.6096 55.28C34.2829 55.5867 33.9129 55.8267 33.4996 56C33.0863 56.1667 32.6629 56.25 32.2296 56.25C31.3563 56.25 30.6663 56.01 30.1596 55.53C29.6529 55.05 29.3996 54.4133 29.3996 53.62C29.3996 52.5467 29.7429 51.6767 30.4296 51.01C31.1229 50.3367 32.0029 50 33.0696 50C33.3096 50 33.5496 50.0267 33.7896 50.08C33.8629 50.3 33.9029 50.55 33.9096 50.83C34.0496 50.7833 34.1896 50.76 34.3296 50.76ZM33.0996 52.15C33.0996 51.9633 33.1429 51.7533 33.2296 51.52C33.3229 51.2867 33.4696 51.1 33.6696 50.96C32.7896 51.1467 32.1829 51.5033 31.8496 52.03C31.5629 52.4833 31.4196 52.95 31.4196 53.43C31.4196 53.91 31.5163 54.2967 31.7096 54.59C31.9096 54.8767 32.1629 55.02 32.4696 55.02C33.1496 55.02 33.6296 54.5767 33.9096 53.69C33.3696 53.3567 33.0996 52.8433 33.0996 52.15ZM36.548 52.83C36.5014 52.6833 36.478 52.5333 36.478 52.38C36.478 52.06 36.568 51.8167 36.748 51.65C36.928 51.4833 37.158 51.3967 37.438 51.39C37.3914 51.1833 37.368 50.9567 37.368 50.71C37.368 49.9767 37.558 49.3467 37.938 48.82C38.318 48.2867 38.8547 48.02 39.548 48.02C39.928 48.02 40.2247 48.1333 40.438 48.36C40.658 48.5867 40.768 48.85 40.768 49.15C40.768 49.45 40.6647 49.7067 40.458 49.92C40.2514 50.1267 39.9814 50.23 39.648 50.23C39.3147 50.23 39.018 50.15 38.758 49.99L38.618 50.1L38.968 51.29C39.3147 51.2433 39.668 51.1533 40.028 51.02C40.0747 51.1667 40.098 51.3467 40.098 51.56C40.098 51.7667 40.0347 51.9633 39.908 52.15C39.788 52.33 39.6114 52.4467 39.378 52.5C38.9514 54.4667 38.738 55.8667 38.738 56.7C38.738 57.1267 38.8414 57.43 39.048 57.61C38.5614 57.9367 38.128 58.1 37.748 58.1C37.0014 58.1 36.628 57.64 36.628 56.72C36.628 56.1467 36.8347 54.7933 37.248 52.66C36.948 52.72 36.7147 52.7767 36.548 52.83ZM43.9945 48.42C43.9945 48.6733 43.8611 48.8933 43.5945 49.08C43.3278 49.26 43.0245 49.35 42.6845 49.35C42.3445 49.35 42.0745 49.2833 41.8745 49.15C41.6811 49.0167 41.5845 48.8367 41.5845 48.61C41.5845 48.3033 41.7278 48.0633 42.0145 47.89C42.3011 47.7167 42.6045 47.63 42.9245 47.63C43.2445 47.63 43.5011 47.6967 43.6945 47.83C43.8945 47.9633 43.9945 48.16 43.9945 48.42ZM42.0445 56.25C41.6311 56.25 41.3311 56.1467 41.1445 55.94C40.9578 55.7333 40.8645 55.42 40.8645 55C40.8645 54.5733 41.0778 53.4367 41.5045 51.59L40.9445 50.75C41.7778 50.25 42.4345 50 42.9145 50C43.1878 50 43.3811 50.06 43.4945 50.18C43.6078 50.2933 43.6645 50.48 43.6645 50.74C43.6645 50.84 43.5411 51.4267 43.2945 52.5C43.0478 53.5733 42.9245 54.34 42.9245 54.8C42.9245 55.26 43.0278 55.58 43.2345 55.76C42.8611 56.0867 42.4645 56.25 42.0445 56.25ZM45.4814 49.78L44.9214 48.98C45.7547 48.4933 46.4114 48.25 46.8914 48.25C47.1647 48.25 47.3581 48.3067 47.4714 48.42C47.5847 48.5267 47.6414 48.7333 47.6414 49.04C47.6414 49.34 47.4914 50.1933 47.1914 51.6C46.8981 53.0067 46.7514 53.9933 46.7514 54.56C46.7514 55.1267 46.8547 55.5267 47.0614 55.76C46.5947 56.0867 46.1714 56.25 45.7914 56.25C45.4114 56.25 45.1314 56.1267 44.9514 55.88C44.7781 55.6267 44.6914 55.28 44.6914 54.84C44.6914 54.4 44.8147 53.5 45.0614 52.14C45.3081 50.78 45.4481 49.9933 45.4814 49.78ZM51.0491 56.25C50.1357 56.25 49.4291 56.0133 48.9291 55.54C48.4357 55.0667 48.1891 54.4267 48.1891 53.62C48.1891 52.5467 48.5557 51.6767 49.2891 51.01C50.0291 50.3367 50.9557 50 52.0691 50C52.6891 50 53.1591 50.14 53.4791 50.42C53.7991 50.6933 53.9591 51.0567 53.9591 51.51C53.9591 52.13 53.6557 52.6467 53.0491 53.06C52.4491 53.4667 51.5191 53.6733 50.2591 53.68C50.2791 54.1067 50.3757 54.4433 50.5491 54.69C50.7224 54.93 50.9391 55.05 51.1991 55.05C51.4591 55.05 51.6824 54.9633 51.8691 54.79C52.0624 54.6167 52.1591 54.3333 52.1591 53.94C53.1324 53.94 53.6191 54.17 53.6191 54.63C53.6191 55.0233 53.3791 55.3933 52.8991 55.74C52.4191 56.08 51.8024 56.25 51.0491 56.25ZM51.8991 51.17C51.5591 51.17 51.2457 51.34 50.9591 51.68C50.6791 52.02 50.4757 52.42 50.3491 52.88C51.0157 52.8267 51.5157 52.6767 51.8491 52.43C52.1891 52.1767 52.3591 51.91 52.3591 51.63C52.3591 51.4967 52.3157 51.3867 52.2291 51.3C52.1491 51.2133 52.0391 51.17 51.8991 51.17Z" fill="white"/>
<g clip-path="url(#clip0_4_1988)">
<path d="M46.8189 31.608C45.4614 30.4654 45.1965 27.8214 44.917 25.0211C44.6411 22.2513 44.3554 19.3876 43.0504 17.0878C41.516 14.3814 38.8793 11.3944 34.986 11.3822C31.0968 11.3944 28.46 14.3815 26.9244 17.0878C25.6219 19.3876 25.3351 22.2513 25.0597 25.0211C24.7796 27.8201 24.5165 30.4654 23.1573 31.608L22.6049 32.0719L23.1341 32.5638C23.2049 32.6285 23.875 33.2181 25.6792 33.787C28.0242 34.5243 31.1565 34.899 34.9883 34.899C38.8195 34.899 41.9506 34.5243 44.2955 33.787C46.0997 33.2181 46.7723 32.6285 46.8431 32.5638L47.3729 32.0719L46.8189 31.608Z" fill="#7F4545"/>
<path d="M45.9132 36.1284L45.8033 36.0979C44.2237 35.673 43.6891 35.2654 42.9834 34.998C40.4884 34.047 39.839 33.361 39.673 33.0363C39.6656 33.0253 39.6608 33.0131 39.6558 33.0009L39.6363 30.1006L34.9885 30.0334L30.3413 30.1006L30.3205 33.0009C30.315 33.0131 30.3107 33.0253 30.3046 33.0363C30.1386 33.361 29.488 34.0471 26.9922 34.998C26.2884 35.2654 25.7538 35.6731 24.1718 36.0979L24.0631 36.1284C22.624 36.6057 21.656 37.9399 21.656 39.4463V41.9671H34.9885H48.3217V39.4463C48.3217 37.9399 47.3512 36.6057 45.9132 36.1284Z" fill="#AC92EB"/>
<path d="M41.1695 34.1997C40.1356 33.6602 39.7877 33.2609 39.673 33.0363C39.6656 33.0253 39.6608 33.0131 39.6559 33.0009L39.6363 30.1006L34.9885 30.0334L30.3413 30.1006L30.3205 33.0009C30.315 33.0131 30.3107 33.0253 30.3046 33.0363C30.1893 33.2609 29.842 33.6589 28.8111 34.1985C29.629 34.9272 31.5491 36.1992 35.0007 36.1992C38.4497 36.1993 40.3566 34.9297 41.1695 34.1997Z" fill="#DBADA2"/>
<path d="M43.2055 24.4622C43.2055 29.8015 38.1153 34.7148 34.9885 34.7148C31.8617 34.7148 26.7719 29.8014 26.7719 24.4622C26.7719 19.1216 30.4511 15.5999 34.9885 15.5999C39.5265 15.5998 43.2055 19.1215 43.2055 24.4622Z" fill="#EAC6BB"/>
<path d="M36.543 17.8679C36.5527 17.8764 37.5671 18.7785 39.1492 19.6855C40.442 20.4277 42.3694 21.3139 44.4922 21.5434C44.2236 19.9541 43.8086 18.4258 43.0505 17.0879C41.5161 14.3815 38.8794 11.3945 34.9861 11.3823C31.0969 11.3945 36.543 17.8679 36.543 17.8679Z" fill="#965353"/>
<path d="M30.9803 23.892C32.8644 22.9387 34.7504 21.6106 36.5869 19.9481C38.844 17.9033 40.4493 15.8819 41.1914 14.8797C39.6607 13.6589 37.6099 11.3897 34.986 11.3823C31.0969 11.3945 28.4601 14.3816 26.9245 17.0879C25.622 19.3877 25.3351 22.2515 25.0598 25.0212C25.0372 25.2361 25.0159 25.4508 24.9945 25.6644C26.966 25.501 28.9753 24.9077 30.9803 23.892Z" fill="#965353"/>
<path d="M55 32.8654C55 33.3256 54.6265 33.6992 54.1675 33.6992C53.7061 33.6992 53.3325 33.3256 53.3325 32.8654C53.3325 32.4051 53.706 32.0316 54.1675 32.0316C54.6265 32.0316 55 32.4051 55 32.8654Z" fill="#AC92EB"/>
<path d="M53.3326 11.1992C53.3326 11.6594 52.9602 12.0317 52.5001 12.0317C52.0399 12.0317 51.6676 11.6593 51.6676 11.1992C51.6676 10.739 52.04 10.3655 52.5001 10.3655C52.9603 10.3655 53.3326 10.7389 53.3326 11.1992Z" fill="#48CFAD"/>
<path d="M21.667 26.1992C21.667 26.6594 21.2934 27.0317 20.8333 27.0317C20.3731 27.0317 20.0001 26.6594 20.0001 26.1992C20.0001 25.7389 20.373 25.3655 20.8333 25.3655C21.2935 25.3655 21.667 25.739 21.667 26.1992Z" fill="#ED5564"/>
<path d="M16.6669 17.8495C16.6669 18.3098 16.2934 18.6833 15.8331 18.6833C15.373 18.6833 15 18.3098 15 17.8495C15 17.3893 15.3729 17.0171 15.8331 17.0171C16.2934 17.0171 16.6669 17.3893 16.6669 17.8495Z" fill="#FC6E51"/>
<path d="M18.3332 36.1992C18.3332 36.6595 17.9602 37.0318 17.5 37.0318C17.0398 37.0318 16.6668 36.6594 16.6668 36.1992C16.6668 35.7391 17.0397 35.3655 17.5 35.3655C17.9603 35.3655 18.3332 35.739 18.3332 36.1992Z" fill="#FFCE54"/>
<path d="M46.6675 6.19925C46.6675 6.65949 46.294 7.03176 45.8325 7.03176C45.3735 7.03176 45 6.65941 45 6.19925C45 5.73908 45.3735 5.36548 45.8325 5.36548C46.294 5.36548 46.6675 5.739 46.6675 6.19925Z" fill="#FFCE54"/>
<path d="M52.5001 22.8655V22.0317C52.5001 21.5715 52.1266 21.1992 51.6676 21.1992C51.2062 21.1992 50.8326 21.5716 50.8326 22.0317V22.8655C50.3736 22.8655 50.0001 23.2389 50.0001 23.6992C50.0001 24.1594 50.3736 24.5317 50.8326 24.5317V25.3655C50.8326 25.8256 51.2061 26.1992 51.6676 26.1992C52.1266 26.1992 52.5001 25.8256 52.5001 25.3655V24.5317C52.9603 24.5317 53.3326 24.1594 53.3326 23.6992C53.3326 23.239 52.9603 22.8655 52.5001 22.8655Z" fill="#ED5564"/>
<path d="M24.1669 6.19924V5.36548C24.1669 4.90523 23.7934 4.53296 23.3332 4.53296C22.873 4.53296 22.5 4.90531 22.5 5.36548V6.19924C22.0398 6.19924 21.6669 6.5716 21.6669 7.03176C21.6669 7.49193 22.0398 7.86545 22.5 7.86545V8.69922C22.5 9.15946 22.8729 9.53174 23.3332 9.53174C23.7934 9.53174 24.1669 9.15939 24.1669 8.69922V7.86545C24.6272 7.86545 25.0001 7.49201 25.0001 7.03176C25.0001 6.57152 24.6272 6.19924 24.1669 6.19924Z" fill="#A0D468"/>
<path d="M48.0324 16.8498C47.588 16.6508 46.9752 16.5043 46.1549 16.4018C44.6204 16.2089 42.439 16.1821 40.3102 16.1821C39.5094 16.1821 38.6768 16.1858 37.7954 16.1906C36.8531 16.1955 35.8796 16.2004 34.878 16.2004C33.8764 16.2004 32.9017 16.1956 31.9599 16.1906C31.0786 16.1858 30.2467 16.1821 29.4459 16.1821C27.3175 16.1821 25.1362 16.209 23.6005 16.4018C22.7814 16.5043 22.1681 16.6509 21.7243 16.8498C20.788 17.271 20.6483 17.9264 20.6483 18.2792C20.6483 18.9641 21.1347 19.6135 22.0948 20.2104C22.8443 20.6767 23.9045 21.1271 25.1605 21.5129C27.9676 22.3759 31.4185 22.8508 34.8779 22.8508C38.3374 22.8508 41.7895 22.3759 44.5947 21.5129C45.8521 21.1271 46.9116 20.6767 47.6612 20.2104C48.6206 19.6135 49.1077 18.9641 49.1077 18.2792C49.1077 17.9264 48.9673 17.271 48.0324 16.8498Z" fill="#434A54"/>
<path d="M43.2483 17.5236L35.7465 2.493C35.605 2.21112 35.3162 2.03284 35.0007 2.03284C34.6846 2.03284 34.3958 2.21104 34.2549 2.493L26.753 17.5236C26.6956 17.6395 26.6651 17.7665 26.6651 17.8959C26.6651 18.1828 26.8055 18.9116 28.1031 19.478C29.4532 20.0663 31.7744 20.3653 35.0007 20.3653C38.2276 20.3653 40.547 20.0663 41.8982 19.478C43.1958 18.9116 43.335 18.1828 43.335 17.8959C43.335 17.7665 43.3057 17.6395 43.2483 17.5236Z" fill="#656D78"/>
<path d="M43.0078 17.0415C42.7966 17.2966 42.4536 17.5688 41.8982 17.8117C40.547 18.4 38.2276 18.6991 35.0007 18.6991C31.7744 18.6991 29.4532 18.4 28.1031 17.8117C27.5477 17.5688 27.2046 17.2965 26.9935 17.0415L26.753 17.5236C26.6956 17.6396 26.6651 17.7665 26.6651 17.896C26.6651 18.1829 26.8055 18.9116 28.1031 19.478C29.4532 20.0664 31.7744 20.3654 35.0007 20.3654C38.2276 20.3654 40.547 20.0664 41.8982 19.478C43.1958 18.9116 43.335 18.1829 43.335 17.896C43.335 17.7666 43.3057 17.6396 43.2483 17.5236L43.0078 17.0415Z" fill="#FFCE54"/>
</g>
<defs>
<linearGradient id="paint0_linear_4_1988" x1="35" y1="0" x2="35" y2="60" gradientUnits="userSpaceOnUse">
<stop offset="0.165" stop-color="#FFACCF"/>
<stop offset="1" stop-color="#C04578"/>
</linearGradient>
<linearGradient id="paint1_linear_4_1988" x1="35" y1="44" x2="35" y2="60" gradientUnits="userSpaceOnUse">
<stop stop-color="#FC77AE"/>
<stop offset="1" stop-color="#AF0049"/>
</linearGradient>
<clipPath id="clip0_4_1988">
<rect width="40" height="40" fill="white" transform="translate(15 2)"/>
</clipPath>
</defs>
</svg>
