<svg width="77" height="60" viewBox="0 0 77 60" fill="none" xmlns="http://www.w3.org/2000/svg">
<circle cx="38" cy="30" r="30" fill="url(#paint0_linear_4_1984)"/>
<rect x="3" y="44" width="70" height="16" rx="8" fill="url(#paint1_linear_4_1984)"/>
<path d="M22.5087 53.81C22.4687 54.05 22.4487 54.2333 22.4487 54.36C22.4487 55.0067 22.5487 55.49 22.7487 55.81C22.3487 56.11 21.932 56.26 21.4987 56.26C21.0653 56.26 20.7553 56.1367 20.5687 55.89C20.382 55.6367 20.2887 55.2633 20.2887 54.77C20.2887 54.27 20.4987 52.86 20.9187 50.54L20.3887 49.47C21.142 48.9833 21.8287 48.74 22.4487 48.74C22.622 48.74 22.812 48.7733 23.0187 48.84C23.2253 48.9 23.372 48.97 23.4587 49.05C23.952 48.8567 24.4087 48.76 24.8287 48.76C25.4553 48.76 25.9487 48.98 26.3087 49.42C26.6753 49.8533 26.8587 50.38 26.8587 51C26.8587 51.7467 26.5887 52.4133 26.0487 53C25.7887 53.2867 25.4387 53.5167 24.9987 53.69C24.5587 53.8633 24.1087 53.95 23.6487 53.95C23.1953 53.95 22.8153 53.9033 22.5087 53.81ZM22.6987 52.67C22.792 52.69 22.8887 52.7 22.9887 52.7C23.4153 52.7 23.7953 52.55 24.1287 52.25C24.462 51.95 24.6287 51.58 24.6287 51.14C24.6287 50.8333 24.5387 50.5733 24.3587 50.36C24.1853 50.1467 23.9387 50.04 23.6187 50.04C23.4853 50.04 23.332 50.0667 23.1587 50.12C23.0253 51.0333 22.872 51.8833 22.6987 52.67ZM27.3066 55.01C27.3066 54.7433 27.3733 54.2267 27.5066 53.46C27.6466 52.6933 27.79 51.9933 27.9366 51.36L27.4166 50.56C28.25 50.1867 28.8333 50 29.1666 50C29.5066 50 29.6766 50.2133 29.6766 50.64C29.6766 50.8733 29.5666 51.36 29.3466 52.1L29.4466 52.15C29.9266 50.7167 30.5233 50 31.2366 50C31.5633 50 31.8133 50.1 31.9866 50.3C32.16 50.5 32.2466 50.7233 32.2466 50.97C32.2466 51.3367 32.11 51.65 31.8366 51.91C31.5633 52.17 31.1533 52.3 30.6066 52.3C29.78 52.3 29.3666 53.15 29.3666 54.85C29.3666 55.2633 29.4366 55.5667 29.5766 55.76C29.1633 56.0867 28.7833 56.25 28.4366 56.25C27.6833 56.25 27.3066 55.8367 27.3066 55.01ZM37.3296 50.76C37.7029 50.76 38.0229 50.91 38.2896 51.21C38.5629 51.51 38.6996 51.9467 38.6996 52.52C38.6996 53.0867 38.5996 53.6133 38.3996 54.1C38.1996 54.58 37.9363 54.9733 37.6096 55.28C37.2829 55.5867 36.9129 55.8267 36.4996 56C36.0863 56.1667 35.6629 56.25 35.2296 56.25C34.3563 56.25 33.6663 56.01 33.1596 55.53C32.6529 55.05 32.3996 54.4133 32.3996 53.62C32.3996 52.5467 32.7429 51.6767 33.4296 51.01C34.1229 50.3367 35.0029 50 36.0696 50C36.3096 50 36.5496 50.0267 36.7896 50.08C36.8629 50.3 36.9029 50.55 36.9096 50.83C37.0496 50.7833 37.1896 50.76 37.3296 50.76ZM36.0996 52.15C36.0996 51.9633 36.1429 51.7533 36.2296 51.52C36.3229 51.2867 36.4696 51.1 36.6696 50.96C35.7896 51.1467 35.1829 51.5033 34.8496 52.03C34.5629 52.4833 34.4196 52.95 34.4196 53.43C34.4196 53.91 34.5163 54.2967 34.7096 54.59C34.9096 54.8767 35.1629 55.02 35.4696 55.02C36.1496 55.02 36.6296 54.5767 36.9096 53.69C36.3696 53.3567 36.0996 52.8433 36.0996 52.15ZM39.548 52.83C39.5014 52.6833 39.478 52.5333 39.478 52.38C39.478 52.06 39.568 51.8167 39.748 51.65C39.928 51.4833 40.158 51.3967 40.438 51.39C40.3914 51.1833 40.368 50.9567 40.368 50.71C40.368 49.9767 40.558 49.3467 40.938 48.82C41.318 48.2867 41.8547 48.02 42.548 48.02C42.928 48.02 43.2247 48.1333 43.438 48.36C43.658 48.5867 43.768 48.85 43.768 49.15C43.768 49.45 43.6647 49.7067 43.458 49.92C43.2514 50.1267 42.9814 50.23 42.648 50.23C42.3147 50.23 42.018 50.15 41.758 49.99L41.618 50.1L41.968 51.29C42.3147 51.2433 42.668 51.1533 43.028 51.02C43.0747 51.1667 43.098 51.3467 43.098 51.56C43.098 51.7667 43.0347 51.9633 42.908 52.15C42.788 52.33 42.6114 52.4467 42.378 52.5C41.9514 54.4667 41.738 55.8667 41.738 56.7C41.738 57.1267 41.8414 57.43 42.048 57.61C41.5614 57.9367 41.128 58.1 40.748 58.1C40.0014 58.1 39.628 57.64 39.628 56.72C39.628 56.1467 39.8347 54.7933 40.248 52.66C39.948 52.72 39.7147 52.7767 39.548 52.83ZM46.9945 48.42C46.9945 48.6733 46.8611 48.8933 46.5945 49.08C46.3278 49.26 46.0245 49.35 45.6845 49.35C45.3445 49.35 45.0745 49.2833 44.8745 49.15C44.6811 49.0167 44.5845 48.8367 44.5845 48.61C44.5845 48.3033 44.7278 48.0633 45.0145 47.89C45.3011 47.7167 45.6045 47.63 45.9245 47.63C46.2445 47.63 46.5011 47.6967 46.6945 47.83C46.8945 47.9633 46.9945 48.16 46.9945 48.42ZM45.0445 56.25C44.6311 56.25 44.3311 56.1467 44.1445 55.94C43.9578 55.7333 43.8645 55.42 43.8645 55C43.8645 54.5733 44.0778 53.4367 44.5045 51.59L43.9445 50.75C44.7778 50.25 45.4345 50 45.9145 50C46.1878 50 46.3811 50.06 46.4945 50.18C46.6078 50.2933 46.6645 50.48 46.6645 50.74C46.6645 50.84 46.5411 51.4267 46.2945 52.5C46.0478 53.5733 45.9245 54.34 45.9245 54.8C45.9245 55.26 46.0278 55.58 46.2345 55.76C45.8611 56.0867 45.4645 56.25 45.0445 56.25ZM48.4814 49.78L47.9214 48.98C48.7547 48.4933 49.4114 48.25 49.8914 48.25C50.1647 48.25 50.3581 48.3067 50.4714 48.42C50.5847 48.5267 50.6414 48.7333 50.6414 49.04C50.6414 49.34 50.4914 50.1933 50.1914 51.6C49.8981 53.0067 49.7514 53.9933 49.7514 54.56C49.7514 55.1267 49.8547 55.5267 50.0614 55.76C49.5947 56.0867 49.1714 56.25 48.7914 56.25C48.4114 56.25 48.1314 56.1267 47.9514 55.88C47.7781 55.6267 47.6914 55.28 47.6914 54.84C47.6914 54.4 47.8147 53.5 48.0614 52.14C48.3081 50.78 48.4481 49.9933 48.4814 49.78ZM54.0491 56.25C53.1357 56.25 52.4291 56.0133 51.9291 55.54C51.4357 55.0667 51.1891 54.4267 51.1891 53.62C51.1891 52.5467 51.5557 51.6767 52.2891 51.01C53.0291 50.3367 53.9557 50 55.0691 50C55.6891 50 56.1591 50.14 56.4791 50.42C56.7991 50.6933 56.9591 51.0567 56.9591 51.51C56.9591 52.13 56.6557 52.6467 56.0491 53.06C55.4491 53.4667 54.5191 53.6733 53.2591 53.68C53.2791 54.1067 53.3757 54.4433 53.5491 54.69C53.7224 54.93 53.9391 55.05 54.1991 55.05C54.4591 55.05 54.6824 54.9633 54.8691 54.79C55.0624 54.6167 55.1591 54.3333 55.1591 53.94C56.1324 53.94 56.6191 54.17 56.6191 54.63C56.6191 55.0233 56.3791 55.3933 55.8991 55.74C55.4191 56.08 54.8024 56.25 54.0491 56.25ZM54.8991 51.17C54.5591 51.17 54.2457 51.34 53.9591 51.68C53.6791 52.02 53.4757 52.42 53.3491 52.88C54.0157 52.8267 54.5157 52.6767 54.8491 52.43C55.1891 52.1767 55.3591 51.91 55.3591 51.63C55.3591 51.4967 55.3157 51.3867 55.2291 51.3C55.1491 51.2133 55.0391 51.17 54.8991 51.17Z" fill="white"/>
<g clip-path="url(#clip0_4_1984)">
<path d="M49.8189 31.608C48.4614 30.4654 48.1965 27.8214 47.917 25.0211C47.6411 22.2513 47.3554 19.3876 46.0504 17.0878C44.516 14.3814 41.8793 11.3944 37.986 11.3822C34.0968 11.3944 31.46 14.3815 29.9244 17.0878C28.6219 19.3876 28.3351 22.2513 28.0597 25.0211C27.7796 27.8201 27.5165 30.4654 26.1573 31.608L25.6049 32.0719L26.1341 32.5638C26.2049 32.6285 26.875 33.2181 28.6792 33.787C31.0242 34.5243 34.1565 34.899 37.9883 34.899C41.8195 34.899 44.9506 34.5243 47.2955 33.787C49.0997 33.2181 49.7723 32.6285 49.8431 32.5638L50.3729 32.0719L49.8189 31.608Z" fill="#7F4545"/>
<path d="M48.9132 36.1284L48.8033 36.0979C47.2237 35.673 46.6891 35.2654 45.9834 34.998C43.4884 34.047 42.839 33.361 42.673 33.0363C42.6656 33.0253 42.6608 33.0131 42.6558 33.0009L42.6363 30.1006L37.9885 30.0334L33.3413 30.1006L33.3205 33.0009C33.315 33.0131 33.3107 33.0253 33.3046 33.0363C33.1386 33.361 32.488 34.0471 29.9922 34.998C29.2884 35.2654 28.7538 35.6731 27.1718 36.0979L27.0631 36.1284C25.624 36.6057 24.656 37.9399 24.656 39.4463V41.9671H37.9885H51.3217V39.4463C51.3217 37.9399 50.3512 36.6057 48.9132 36.1284Z" fill="#AC92EB"/>
<path d="M44.1695 34.1997C43.1356 33.6602 42.7877 33.2609 42.673 33.0363C42.6656 33.0253 42.6608 33.0131 42.6559 33.0009L42.6363 30.1006L37.9885 30.0334L33.3413 30.1006L33.3205 33.0009C33.315 33.0131 33.3107 33.0253 33.3046 33.0363C33.1893 33.2609 32.842 33.6589 31.8111 34.1985C32.629 34.9272 34.5491 36.1992 38.0007 36.1992C41.4497 36.1993 43.3566 34.9297 44.1695 34.1997Z" fill="#DBADA2"/>
<path d="M46.2055 24.4622C46.2055 29.8015 41.1153 34.7148 37.9885 34.7148C34.8617 34.7148 29.7719 29.8014 29.7719 24.4622C29.7719 19.1216 33.4511 15.5999 37.9885 15.5999C42.5265 15.5998 46.2055 19.1215 46.2055 24.4622Z" fill="#EAC6BB"/>
<path d="M39.543 17.8679C39.5527 17.8764 40.5671 18.7785 42.1492 19.6855C43.442 20.4277 45.3694 21.3139 47.4922 21.5434C47.2236 19.9541 46.8086 18.4258 46.0505 17.0879C44.5161 14.3815 41.8794 11.3945 37.9861 11.3823C34.0969 11.3945 39.543 17.8679 39.543 17.8679Z" fill="#965353"/>
<path d="M33.9803 23.892C35.8644 22.9387 37.7504 21.6106 39.5869 19.9481C41.844 17.9033 43.4493 15.8819 44.1914 14.8797C42.6607 13.6589 40.6099 11.3897 37.986 11.3823C34.0969 11.3945 31.4601 14.3816 29.9245 17.0879C28.622 19.3877 28.3351 22.2515 28.0598 25.0212C28.0372 25.2361 28.0159 25.4508 27.9945 25.6644C29.966 25.501 31.9753 24.9077 33.9803 23.892Z" fill="#965353"/>
<path d="M58 32.8654C58 33.3256 57.6265 33.6992 57.1675 33.6992C56.7061 33.6992 56.3325 33.3256 56.3325 32.8654C56.3325 32.4051 56.706 32.0316 57.1675 32.0316C57.6265 32.0316 58 32.4051 58 32.8654Z" fill="#AC92EB"/>
<path d="M56.3326 11.1992C56.3326 11.6594 55.9602 12.0317 55.5001 12.0317C55.0399 12.0317 54.6676 11.6593 54.6676 11.1992C54.6676 10.739 55.04 10.3655 55.5001 10.3655C55.9603 10.3655 56.3326 10.7389 56.3326 11.1992Z" fill="#48CFAD"/>
<path d="M24.667 26.1992C24.667 26.6594 24.2934 27.0317 23.8333 27.0317C23.3731 27.0317 23.0001 26.6594 23.0001 26.1992C23.0001 25.7389 23.373 25.3655 23.8333 25.3655C24.2935 25.3655 24.667 25.739 24.667 26.1992Z" fill="#ED5564"/>
<path d="M19.6669 17.8495C19.6669 18.3098 19.2934 18.6833 18.8331 18.6833C18.373 18.6833 18 18.3098 18 17.8495C18 17.3893 18.3729 17.0171 18.8331 17.0171C19.2934 17.0171 19.6669 17.3893 19.6669 17.8495Z" fill="#FC6E51"/>
<path d="M21.3332 36.1992C21.3332 36.6595 20.9602 37.0318 20.5 37.0318C20.0398 37.0318 19.6668 36.6594 19.6668 36.1992C19.6668 35.7391 20.0397 35.3655 20.5 35.3655C20.9603 35.3655 21.3332 35.739 21.3332 36.1992Z" fill="#FFCE54"/>
<path d="M49.6675 6.19925C49.6675 6.65949 49.294 7.03176 48.8325 7.03176C48.3735 7.03176 48 6.65941 48 6.19925C48 5.73908 48.3735 5.36548 48.8325 5.36548C49.294 5.36548 49.6675 5.739 49.6675 6.19925Z" fill="#FFCE54"/>
<path d="M55.5001 22.8655V22.0317C55.5001 21.5715 55.1266 21.1992 54.6676 21.1992C54.2062 21.1992 53.8326 21.5716 53.8326 22.0317V22.8655C53.3736 22.8655 53.0001 23.2389 53.0001 23.6992C53.0001 24.1594 53.3736 24.5317 53.8326 24.5317V25.3655C53.8326 25.8256 54.2061 26.1992 54.6676 26.1992C55.1266 26.1992 55.5001 25.8256 55.5001 25.3655V24.5317C55.9603 24.5317 56.3326 24.1594 56.3326 23.6992C56.3326 23.239 55.9603 22.8655 55.5001 22.8655Z" fill="#ED5564"/>
<path d="M27.1669 6.19924V5.36548C27.1669 4.90523 26.7934 4.53296 26.3332 4.53296C25.873 4.53296 25.5 4.90531 25.5 5.36548V6.19924C25.0398 6.19924 24.6669 6.5716 24.6669 7.03176C24.6669 7.49193 25.0398 7.86545 25.5 7.86545V8.69922C25.5 9.15946 25.8729 9.53174 26.3332 9.53174C26.7934 9.53174 27.1669 9.15939 27.1669 8.69922V7.86545C27.6272 7.86545 28.0001 7.49201 28.0001 7.03176C28.0001 6.57152 27.6272 6.19924 27.1669 6.19924Z" fill="#A0D468"/>
<path d="M51.0324 16.8498C50.588 16.6508 49.9752 16.5043 49.1549 16.4018C47.6204 16.2089 45.439 16.1821 43.3102 16.1821C42.5094 16.1821 41.6768 16.1858 40.7954 16.1906C39.8531 16.1955 38.8796 16.2004 37.878 16.2004C36.8764 16.2004 35.9017 16.1956 34.9599 16.1906C34.0786 16.1858 33.2467 16.1821 32.4459 16.1821C30.3175 16.1821 28.1362 16.209 26.6005 16.4018C25.7814 16.5043 25.1681 16.6509 24.7243 16.8498C23.788 17.271 23.6483 17.9264 23.6483 18.2792C23.6483 18.9641 24.1347 19.6135 25.0948 20.2104C25.8443 20.6767 26.9045 21.1271 28.1605 21.5129C30.9676 22.3759 34.4185 22.8508 37.8779 22.8508C41.3374 22.8508 44.7895 22.3759 47.5947 21.5129C48.8521 21.1271 49.9116 20.6767 50.6612 20.2104C51.6206 19.6135 52.1077 18.9641 52.1077 18.2792C52.1077 17.9264 51.9673 17.271 51.0324 16.8498Z" fill="#434A54"/>
<path d="M46.2483 17.5236L38.7465 2.493C38.605 2.21112 38.3162 2.03284 38.0007 2.03284C37.6846 2.03284 37.3958 2.21104 37.2549 2.493L29.753 17.5236C29.6956 17.6395 29.6651 17.7665 29.6651 17.8959C29.6651 18.1828 29.8055 18.9116 31.1031 19.478C32.4532 20.0663 34.7744 20.3653 38.0007 20.3653C41.2276 20.3653 43.547 20.0663 44.8982 19.478C46.1958 18.9116 46.335 18.1828 46.335 17.8959C46.335 17.7665 46.3057 17.6395 46.2483 17.5236Z" fill="#656D78"/>
<path d="M46.0078 17.0415C45.7966 17.2966 45.4536 17.5688 44.8982 17.8117C43.547 18.4 41.2276 18.6991 38.0007 18.6991C34.7744 18.6991 32.4532 18.4 31.1031 17.8117C30.5477 17.5688 30.2046 17.2965 29.9935 17.0415L29.753 17.5236C29.6956 17.6396 29.6651 17.7665 29.6651 17.896C29.6651 18.1829 29.8055 18.9116 31.1031 19.478C32.4532 20.0664 34.7744 20.3654 38.0007 20.3654C41.2276 20.3654 43.547 20.0664 44.8982 19.478C46.1958 18.9116 46.335 18.1829 46.335 17.896C46.335 17.7666 46.3057 17.6396 46.2483 17.5236L46.0078 17.0415Z" fill="#FFCE54"/>
</g>
<path opacity="0.5" d="M73.2431 10.6652C72.4754 11.4328 71.2281 11.4328 70.4531 10.6652C71.2207 11.4328 71.2207 12.6802 70.4531 13.4552C71.2207 12.6875 72.4681 12.6875 73.2431 13.4552C72.4754 12.6802 72.4754 11.4328 73.2431 10.6652Z" fill="#FCCE38"/>
<path d="M66.9621 13.6471C64.8362 15.7728 61.3894 15.7728 59.2562 13.6471C61.3821 15.7728 61.3821 19.2197 59.2562 21.3528C61.3821 19.2271 64.8289 19.2271 66.9621 21.3528C64.8289 19.2271 64.8289 15.7728 66.9621 13.6471Z" fill="#FCCE38"/>
<path d="M66.9618 21.353C64.8361 23.4787 61.3892 23.4787 59.2635 21.353C57.1377 19.2271 57.1377 15.7803 59.2635 13.6546C61.3892 11.5289 64.8361 11.5289 66.9618 13.6546C69.0875 15.773 69.0875 19.2198 66.9618 21.353Z" fill="url(#paint2_radial_4_1984)"/>
<path d="M67.5966 18.0612L72.7116 17.5297C72.7485 17.5223 72.7485 17.4707 72.7116 17.4707L67.5966 16.9393C65.7366 16.7473 64.2678 15.2712 64.0832 13.4185L63.1385 3.87497C63.1311 3.83806 63.0793 3.83806 63.0793 3.87497L62.1568 13.4038C61.9796 15.2712 60.5109 16.7473 58.6435 16.9393L53.4989 17.4707C53.462 17.478 53.462 17.5297 53.4989 17.5297L58.6435 18.0612C60.5035 18.253 61.9722 19.7293 62.1568 21.5966L63.0793 31.1254C63.0793 31.1623 63.1385 31.1623 63.1385 31.1254L64.0832 21.5819C64.2752 19.7219 65.7439 18.253 67.5966 18.0612Z" fill="url(#paint3_linear_4_1984)"/>
<path d="M62.9022 17.7806C61.8099 16.4003 53.4989 17.4706 53.4989 17.4706C53.462 17.4779 53.462 17.5296 53.4989 17.5296L58.6434 18.061C60.5035 18.2529 61.9722 19.729 62.1568 21.5964L63.0203 30.5274L63.0793 30.5569C63.0793 30.5569 64.0685 19.2493 62.9022 17.7806Z" fill="url(#paint4_linear_4_1984)"/>
<path d="M67.5966 16.9388C65.7366 16.7469 64.2678 15.2708 64.0833 13.4181L63.4707 7.255C63.4707 7.255 63.2787 15.5659 65.1093 16.7691C66.5486 17.7138 66.1204 16.8059 72.7116 17.4702L67.5966 16.9388Z" fill="url(#paint5_linear_4_1984)"/>
<path d="M62.4743 14.341C62.8729 9.45479 63.05 7.07812 63.3305 5.77907L63.1386 3.8674C63.1312 3.8305 63.0796 3.8305 63.0796 3.8674L62.1569 13.3962C61.9797 15.2636 60.511 16.7398 58.6436 16.9317L55.241 17.286C59.1972 17.7436 62.2455 17.1532 62.4743 14.341Z" fill="url(#paint6_linear_4_1984)"/>
<path d="M63.0792 31.1254L62.1565 21.5965C61.9793 19.7291 60.5106 18.2529 58.6432 18.0611L53.4987 17.5295C53.4987 17.5295 57.7796 17.7584 58.6801 17.7584C59.5806 17.7584 62.2229 18.2898 62.4665 21.5818C62.71 24.8737 63.0792 31.1254 63.0792 31.1254Z" fill="url(#paint7_linear_4_1984)"/>
<path d="M63.1386 31.1254L64.0611 21.5965C64.2383 19.7291 65.7071 18.2529 67.5745 18.0611L72.719 17.5295C72.719 17.5295 68.4381 17.7584 67.5376 17.7584C66.6371 17.7584 63.9947 18.2898 63.7511 21.5818C63.5076 24.8737 63.1386 31.1254 63.1386 31.1254Z" fill="url(#paint8_linear_4_1984)"/>
<path opacity="0.5" d="M53.8682 10.2369C52.8865 11.2186 51.2996 11.2186 50.3253 10.2369C51.307 11.2186 51.307 12.8055 50.3253 13.7798C51.307 12.7981 52.8939 12.7981 53.8682 13.7798C52.8939 12.8055 52.8939 11.2186 53.8682 10.2369Z" fill="#FCCE38"/>
<path d="M52.0967 14.4142C53.4256 14.4142 54.5029 13.3369 54.5029 12.008C54.5029 10.6791 53.4256 9.60181 52.0967 9.60181C50.7678 9.60181 49.6906 10.6791 49.6906 12.008C49.6906 13.3369 50.7678 14.4142 52.0967 14.4142Z" fill="url(#paint9_radial_4_1984)"/>
<path d="M50.1185 11.7647L47.8599 12.0009C47.8452 12.0009 47.8452 12.0231 47.8599 12.0304L50.1185 12.2666C50.9378 12.3478 51.5873 13.0047 51.6685 13.824L52.0892 18.0311C52.0892 18.046 52.1114 18.046 52.1188 18.0311L52.5247 13.824C52.6059 13.0047 53.2554 12.3478 54.0747 12.2666L56.348 12.0304C56.3628 12.0304 56.3628 12.0083 56.348 12.0009L54.0747 11.7647C53.2554 11.6762 52.6059 11.0266 52.5247 10.2073L52.1188 6.00021C52.1188 5.98544 52.0966 5.98544 52.0892 6.00021L51.6685 10.2147C51.58 11.0266 50.9378 11.6762 50.1185 11.7647Z" fill="url(#paint10_linear_4_1984)"/>
<path d="M52.1923 11.8903C52.6721 12.4956 56.3404 12.0232 56.3404 12.0232C56.3552 12.0232 56.3552 12.001 56.3404 11.9937L54.0671 11.7575C53.2478 11.6689 52.5983 11.0194 52.5171 10.2001L52.1333 6.25866L52.1111 6.2439C52.1111 6.2439 51.6757 11.2334 52.1923 11.8903Z" fill="url(#paint11_linear_4_1984)"/>
<path d="M50.1185 12.2593C50.9378 12.3404 51.5873 12.9974 51.6685 13.8166L51.9416 16.5328C51.9416 16.5328 52.0302 12.8645 51.2183 12.3331C50.5835 11.9197 50.768 12.3183 47.8599 12.0231L50.1185 12.2593Z" fill="url(#paint12_linear_4_1984)"/>
<path d="M52.3772 13.403C52.2 15.5582 52.1262 16.6064 52.0007 17.1821L52.0819 18.0235C52.0819 18.0382 52.1041 18.0382 52.1115 18.0235L52.5174 13.8163C52.5986 12.9971 53.2481 12.3402 54.0674 12.259L55.5657 12.104C53.8238 11.8973 52.4805 12.163 52.3772 13.403Z" fill="url(#paint13_linear_4_1984)"/>
<path d="M52.1115 5.99292L52.5174 10.2001C52.5986 11.0194 53.2481 11.6763 54.0674 11.7574L56.3407 11.9936C56.3407 11.9936 54.4512 11.8903 54.0526 11.8903C53.6541 11.8903 52.4879 11.6541 52.3772 10.2074C52.2665 8.75339 52.1115 5.99292 52.1115 5.99292Z" fill="url(#paint14_linear_4_1984)"/>
<path d="M52.0819 5.99292L51.676 10.2001C51.5948 11.0194 50.9453 11.6763 50.126 11.7574L47.8527 11.9936C47.8527 11.9936 49.7422 11.8903 50.1407 11.8903C50.5393 11.8903 51.7055 11.6541 51.8162 10.2074C51.9269 8.75339 52.0819 5.99292 52.0819 5.99292Z" fill="url(#paint15_linear_4_1984)"/>
<path d="M71.8481 13.9281C72.8793 13.9281 73.7154 13.0921 73.7154 12.0607C73.7154 11.0294 72.8793 10.1934 71.8481 10.1934C70.8167 10.1934 69.9807 11.0294 69.9807 12.0607C69.9807 13.0921 70.8167 13.9281 71.8481 13.9281Z" fill="url(#paint16_radial_4_1984)"/>
<path d="M73.3908 12.2009L75.1475 12.0681C75.1622 12.0681 75.1622 12.0533 75.1475 12.0533L73.3908 11.9204C72.7561 11.8688 72.2468 11.4923 72.1877 11.0126L71.8629 8.55474C71.8629 8.54735 71.8408 8.54735 71.8408 8.55474L71.5235 11.0052C71.4643 11.485 70.9552 11.8688 70.3203 11.9131L68.5563 12.0533C68.5415 12.0533 68.5415 12.0681 68.5563 12.0681L70.3203 12.2083C70.9625 12.26 71.4643 12.6364 71.5235 13.1162L71.8408 15.5667C71.8408 15.574 71.8629 15.574 71.8629 15.5667L72.1877 13.1088C72.2468 12.629 72.7561 12.2526 73.3908 12.2009Z" fill="url(#paint17_linear_4_1984)"/>
<path d="M71.7818 12.1271C71.4053 11.7728 68.5563 12.0459 68.5563 12.0459C68.5415 12.0459 68.5415 12.0607 68.5563 12.0607L70.3203 12.2009C70.9625 12.2526 71.4643 12.629 71.5235 13.1088L71.8186 15.4042L71.8408 15.4116C71.8408 15.419 72.1803 12.5109 71.7818 12.1271Z" fill="url(#paint18_linear_4_1984)"/>
<path d="M70.3129 12.2013C70.9477 12.253 71.457 12.6294 71.516 13.1092L71.7227 14.6961C71.7227 14.6961 71.7891 12.5556 71.1617 12.2456C70.6672 12.0021 70.8149 12.2382 68.5563 12.0685L70.3129 12.2013Z" fill="url(#paint19_linear_4_1984)"/>
<path d="M71.6342 11.2488C71.767 9.99401 71.8335 9.3814 71.9294 9.04926L71.8629 8.55474C71.8629 8.54735 71.8408 8.54735 71.8408 8.55474L71.5235 11.0052C71.4644 11.485 70.9551 11.8688 70.3203 11.9131L69.1542 12.0016C70.5049 12.1197 71.5529 11.9721 71.6342 11.2488Z" fill="url(#paint20_linear_4_1984)"/>
<path d="M71.8407 15.5671L71.5234 13.1166C71.4643 12.6368 70.955 12.253 70.3203 12.2087L68.5563 12.0685C68.5563 12.0685 70.025 12.1275 70.335 12.1275C70.645 12.1275 71.5529 12.2604 71.6341 13.1092C71.7153 13.958 71.8407 15.5671 71.8407 15.5671Z" fill="url(#paint21_linear_4_1984)"/>
<path d="M71.8629 15.5671L72.1804 13.1166C72.2394 12.6368 72.7487 12.253 73.3835 12.2087L75.1475 12.0685C75.1475 12.0685 73.6787 12.1275 73.3687 12.1275C73.0587 12.1275 72.1508 12.2604 72.0697 13.1092C71.9811 13.958 71.8629 15.5671 71.8629 15.5671Z" fill="url(#paint22_linear_4_1984)"/>
<path opacity="0.5" d="M57.7504 23.5376C57.0714 24.2166 55.979 24.2166 55.2999 23.5376C55.979 24.2166 55.979 25.309 55.2999 25.9881C55.979 25.309 57.0714 25.309 57.7504 25.9881C57.0714 25.309 57.0714 24.2166 57.7504 23.5376Z" fill="#FCCE38"/>
<path d="M56.5252 26.4232C57.4423 26.4232 58.1859 25.6797 58.1859 24.7625C58.1859 23.8453 57.4423 23.1018 56.5252 23.1018C55.608 23.1018 54.8644 23.8453 54.8644 24.7625C54.8644 25.6797 55.608 26.4232 56.5252 26.4232Z" fill="url(#paint23_radial_4_1984)"/>
<path d="M55.1595 24.5929L53.6021 24.7553C53.5874 24.7553 53.5874 24.77 53.6021 24.7774L55.1595 24.9398C55.7278 24.9988 56.1707 25.4491 56.2298 26.0174L56.5176 28.9256C56.5176 28.9403 56.5324 28.9403 56.5398 28.9256L56.8202 26.0174C56.8719 25.4491 57.3221 24.9988 57.8905 24.9398L59.4553 24.7774C59.47 24.7774 59.47 24.7627 59.4553 24.7553L57.8905 24.5929C57.3221 24.5338 56.8719 24.0836 56.8202 23.5153L56.5398 20.6071C56.5398 20.5924 56.525 20.5924 56.5176 20.6071L56.2298 23.5153C56.1707 24.0836 55.7205 24.5338 55.1595 24.5929Z" fill="url(#paint24_linear_4_1984)"/>
<path d="M56.5912 24.6743C56.9234 25.095 59.4551 24.7702 59.4551 24.7702C59.4698 24.7702 59.4698 24.7554 59.4551 24.7481L57.8903 24.5857C57.3219 24.5267 56.8717 24.0764 56.82 23.5081L56.5543 20.7845L56.5396 20.7771C56.5322 20.7845 56.2369 24.2314 56.5912 24.6743Z" fill="url(#paint25_linear_4_1984)"/>
<path d="M55.1596 24.9324C55.7279 24.9914 56.1708 25.4417 56.2298 26.01L56.4144 27.8847C56.4144 27.8847 56.4734 25.3531 55.9125 24.984C55.477 24.6963 55.6025 24.9693 53.5948 24.77L55.1596 24.9324Z" fill="url(#paint26_linear_4_1984)"/>
<path d="M56.7168 25.7221C56.5987 27.213 56.5397 27.9364 56.4585 28.335L56.5176 28.918C56.5176 28.9327 56.5323 28.9327 56.5397 28.918L56.8202 26.01C56.8718 25.4416 57.3221 24.9914 57.8904 24.9323L58.9311 24.8216C57.7206 24.6887 56.7906 24.8659 56.7168 25.7221Z" fill="url(#paint27_linear_4_1984)"/>
<path d="M56.5323 20.6068L56.8128 23.5149C56.8644 24.0832 57.3147 24.5335 57.883 24.5925L59.4478 24.7549C59.4478 24.7549 58.1413 24.6885 57.8682 24.6885C57.5951 24.6885 56.7906 24.5261 56.7168 23.5222C56.643 22.5111 56.5323 20.6068 56.5323 20.6068Z" fill="url(#paint28_linear_4_1984)"/>
<path d="M56.5176 20.6068L56.2371 23.5149C56.1854 24.0832 55.7352 24.5335 55.1669 24.5925L53.6021 24.7549C53.6021 24.7549 54.9085 24.6885 55.1816 24.6885C55.4547 24.6885 56.2593 24.5261 56.3331 23.5222C56.4069 22.5111 56.5176 20.6068 56.5176 20.6068Z" fill="url(#paint29_linear_4_1984)"/>
<path opacity="0.5" d="M27.2431 30.6652C26.4754 31.4328 25.2281 31.4328 24.4531 30.6652C25.2207 31.4328 25.2207 32.6802 24.4531 33.4552C25.2207 32.6875 26.4681 32.6875 27.2431 33.4552C26.4754 32.6802 26.4754 31.4328 27.2431 30.6652Z" fill="#FCCE38"/>
<path d="M20.9621 33.6471C18.8362 35.7728 15.3894 35.7728 13.2562 33.6471C15.3821 35.7728 15.3821 39.2197 13.2562 41.3528C15.3821 39.2271 18.8289 39.2271 20.9621 41.3528C18.8289 39.2271 18.8289 35.7728 20.9621 33.6471Z" fill="#FCCE38"/>
<path d="M20.9618 41.353C18.8361 43.4787 15.3892 43.4787 13.2635 41.353C11.1377 39.2271 11.1377 35.7803 13.2635 33.6546C15.3892 31.5289 18.8361 31.5289 20.9618 33.6546C23.0875 35.773 23.0875 39.2198 20.9618 41.353Z" fill="url(#paint30_radial_4_1984)"/>
<path d="M21.5966 38.0612L26.7116 37.5297C26.7485 37.5223 26.7485 37.4707 26.7116 37.4707L21.5966 36.9393C19.7366 36.7473 18.2678 35.2712 18.0832 33.4185L17.1385 23.875C17.1311 23.8381 17.0793 23.8381 17.0793 23.875L16.1568 33.4038C15.9796 35.2712 14.5109 36.7473 12.6435 36.9393L7.49893 37.4707C7.46203 37.478 7.46203 37.5297 7.49893 37.5297L12.6435 38.0612C14.5035 38.253 15.9722 39.7293 16.1568 41.5966L17.0793 51.1254C17.0793 51.1623 17.1385 51.1623 17.1385 51.1254L18.0832 41.5819C18.2752 39.7219 19.7439 38.253 21.5966 38.0612Z" fill="url(#paint31_linear_4_1984)"/>
<path d="M16.9022 37.7806C15.8099 36.4003 7.49893 37.4706 7.49893 37.4706C7.46203 37.4779 7.46203 37.5296 7.49893 37.5296L12.6434 38.061C14.5035 38.2529 15.9722 39.729 16.1568 41.5964L17.0203 50.5274L17.0793 50.5569C17.0793 50.5569 18.0685 39.2493 16.9022 37.7806Z" fill="url(#paint32_linear_4_1984)"/>
<path d="M21.5966 36.9388C19.7366 36.7469 18.2678 35.2708 18.0833 33.4181L17.4707 27.255C17.4707 27.255 17.2787 35.5659 19.1093 36.7691C20.5486 37.7138 20.1204 36.8059 26.7116 37.4702L21.5966 36.9388Z" fill="url(#paint33_linear_4_1984)"/>
<path d="M16.4743 34.341C16.8729 29.4548 17.05 27.0781 17.3305 25.7791L17.1386 23.8674C17.1312 23.8305 17.0796 23.8305 17.0796 23.8674L16.1569 33.3962C15.9797 35.2636 14.511 36.7398 12.6436 36.9317L9.24097 37.286C13.1972 37.7436 16.2455 37.1532 16.4743 34.341Z" fill="url(#paint34_linear_4_1984)"/>
<path d="M17.0792 51.1254L16.1565 41.5965C15.9793 39.7291 14.5106 38.2529 12.6432 38.0611L7.49866 37.5295C7.49866 37.5295 11.7796 37.7584 12.6801 37.7584C13.5806 37.7584 16.2229 38.2898 16.4665 41.5818C16.71 44.8737 17.0792 51.1254 17.0792 51.1254Z" fill="url(#paint35_linear_4_1984)"/>
<path d="M17.1386 51.1254L18.0611 41.5965C18.2383 39.7291 19.7071 38.2529 21.5745 38.0611L26.719 37.5295C26.719 37.5295 22.4381 37.7584 21.5376 37.7584C20.6371 37.7584 17.9947 38.2898 17.7511 41.5818C17.5076 44.8737 17.1386 51.1254 17.1386 51.1254Z" fill="url(#paint36_linear_4_1984)"/>
<path opacity="0.5" d="M7.86818 30.2369C6.88651 31.2186 5.29961 31.2186 4.32532 30.2369C5.30698 31.2186 5.30698 32.8055 4.32532 33.7798C5.30698 32.7981 6.89389 32.7981 7.86818 33.7798C6.89389 32.8055 6.89389 31.2186 7.86818 30.2369Z" fill="#FCCE38"/>
<path d="M6.09673 34.4142C7.42564 34.4142 8.50293 33.3369 8.50293 32.008C8.50293 30.6791 7.42564 29.6018 6.09673 29.6018C4.76784 29.6018 3.69055 30.6791 3.69055 32.008C3.69055 33.3369 4.76784 34.4142 6.09673 34.4142Z" fill="url(#paint37_radial_4_1984)"/>
<path d="M4.11852 31.7647L1.85995 32.0009C1.84519 32.0009 1.84519 32.0231 1.85995 32.0304L4.11852 32.2666C4.93781 32.3478 5.58733 33.0047 5.66852 33.824L6.08923 38.0311C6.08923 38.046 6.11138 38.046 6.11876 38.0311L6.52471 33.824C6.6059 33.0047 7.25542 32.3478 8.07471 32.2666L10.348 32.0304C10.3628 32.0304 10.3628 32.0083 10.348 32.0009L8.07471 31.7647C7.25542 31.6762 6.6059 31.0266 6.52471 30.2073L6.11876 26.0002C6.11876 25.9854 6.09662 25.9854 6.08923 26.0002L5.66852 30.2147C5.57995 31.0266 4.93781 31.6762 4.11852 31.7647Z" fill="url(#paint38_linear_4_1984)"/>
<path d="M6.19233 31.8903C6.67208 32.4956 10.3404 32.0232 10.3404 32.0232C10.3552 32.0232 10.3552 32.001 10.3404 31.9937L8.06708 31.7575C7.2478 31.6689 6.59827 31.0194 6.51708 30.2001L6.13327 26.2587L6.11113 26.2439C6.11113 26.2439 5.67566 31.2334 6.19233 31.8903Z" fill="url(#paint39_linear_4_1984)"/>
<path d="M4.11849 32.2593C4.93778 32.3404 5.58731 32.9974 5.66849 33.8166L5.94159 36.5328C5.94159 36.5328 6.03016 32.8645 5.21826 32.3331C4.58349 31.9197 4.76802 32.3183 1.85992 32.0231L4.11849 32.2593Z" fill="url(#paint40_linear_4_1984)"/>
<path d="M6.37716 33.403C6.20002 35.5582 6.1262 36.6064 6.00073 37.1821L6.08193 38.0235C6.08193 38.0382 6.10407 38.0382 6.11145 38.0235L6.5174 33.8163C6.59859 32.9971 7.24812 32.3402 8.0674 32.259L9.56573 32.104C7.82383 31.8973 6.4805 32.163 6.37716 33.403Z" fill="url(#paint41_linear_4_1984)"/>
<path d="M6.11145 25.9929L6.5174 30.2001C6.59859 31.0194 7.2481 31.6763 8.0674 31.7574L10.3407 31.9936C10.3407 31.9936 8.4512 31.8903 8.05263 31.8903C7.65406 31.8903 6.48787 31.6541 6.37716 30.2074C6.26645 28.7534 6.11145 25.9929 6.11145 25.9929Z" fill="url(#paint42_linear_4_1984)"/>
<path d="M6.08194 25.9929L5.67599 30.2001C5.5948 31.0194 4.94527 31.6763 4.12599 31.7574L1.85266 31.9936C1.85266 31.9936 3.74218 31.8903 4.14075 31.8903C4.53933 31.8903 5.70551 31.6541 5.81623 30.2074C5.92694 28.7534 6.08194 25.9929 6.08194 25.9929Z" fill="url(#paint43_linear_4_1984)"/>
<path d="M25.8481 33.9281C26.8793 33.9281 27.7154 33.0921 27.7154 32.0607C27.7154 31.0294 26.8793 30.1934 25.8481 30.1934C24.8167 30.1934 23.9807 31.0294 23.9807 32.0607C23.9807 33.0921 24.8167 33.9281 25.8481 33.9281Z" fill="url(#paint44_radial_4_1984)"/>
<path d="M27.3908 32.2009L29.1475 32.0681C29.1622 32.0681 29.1622 32.0533 29.1475 32.0533L27.3908 31.9204C26.7561 31.8688 26.2468 31.4923 26.1877 31.0126L25.8629 28.5547C25.8629 28.5473 25.8408 28.5473 25.8408 28.5547L25.5235 31.0052C25.4643 31.485 24.9552 31.8688 24.3203 31.9131L22.5563 32.0533C22.5415 32.0533 22.5415 32.0681 22.5563 32.0681L24.3203 32.2083C24.9625 32.26 25.4643 32.6364 25.5235 33.1162L25.8408 35.5667C25.8408 35.574 25.8629 35.574 25.8629 35.5667L26.1877 33.1088C26.2468 32.629 26.7561 32.2526 27.3908 32.2009Z" fill="url(#paint45_linear_4_1984)"/>
<path d="M25.7818 32.1271C25.4053 31.7728 22.5563 32.0459 22.5563 32.0459C22.5415 32.0459 22.5415 32.0607 22.5563 32.0607L24.3203 32.2009C24.9625 32.2526 25.4643 32.629 25.5235 33.1088L25.8186 35.4042L25.8408 35.4116C25.8408 35.419 26.1803 32.5109 25.7818 32.1271Z" fill="url(#paint46_linear_4_1984)"/>
<path d="M24.3129 32.2013C24.9477 32.253 25.457 32.6294 25.516 33.1092L25.7227 34.6961C25.7227 34.6961 25.7891 32.5556 25.1617 32.2456C24.6672 32.0021 24.8149 32.2382 22.5563 32.0685L24.3129 32.2013Z" fill="url(#paint47_linear_4_1984)"/>
<path d="M25.6342 31.2488C25.767 29.994 25.8335 29.3814 25.9294 29.0493L25.8629 28.5547C25.8629 28.5473 25.8408 28.5473 25.8408 28.5547L25.5235 31.0052C25.4644 31.485 24.9551 31.8688 24.3203 31.9131L23.1542 32.0016C24.5049 32.1197 25.5529 31.9721 25.6342 31.2488Z" fill="url(#paint48_linear_4_1984)"/>
<path d="M25.8407 35.5671L25.5234 33.1166C25.4643 32.6368 24.955 32.253 24.3203 32.2087L22.5563 32.0685C22.5563 32.0685 24.025 32.1275 24.335 32.1275C24.645 32.1275 25.5529 32.2604 25.6341 33.1092C25.7153 33.958 25.8407 35.5671 25.8407 35.5671Z" fill="url(#paint49_linear_4_1984)"/>
<path d="M25.8629 35.5671L26.1804 33.1166C26.2394 32.6368 26.7487 32.253 27.3835 32.2087L29.1475 32.0685C29.1475 32.0685 27.6787 32.1275 27.3687 32.1275C27.0587 32.1275 26.1508 32.2604 26.0697 33.1092C25.9811 33.958 25.8629 35.5671 25.8629 35.5671Z" fill="url(#paint50_linear_4_1984)"/>
<path opacity="0.5" d="M11.7504 43.5376C11.0714 44.2166 9.97897 44.2166 9.29993 43.5376C9.97897 44.2166 9.97897 45.309 9.29993 45.9881C9.97897 45.309 11.0714 45.309 11.7504 45.9881C11.0714 45.309 11.0714 44.2166 11.7504 43.5376Z" fill="#FCCE38"/>
<path d="M10.5252 46.4232C11.4423 46.4232 12.1859 45.6797 12.1859 44.7625C12.1859 43.8453 11.4423 43.1018 10.5252 43.1018C9.60798 43.1018 8.86444 43.8453 8.86444 44.7625C8.86444 45.6797 9.60798 46.4232 10.5252 46.4232Z" fill="url(#paint51_radial_4_1984)"/>
<path d="M9.15952 44.5929L7.60213 44.7553C7.58738 44.7553 7.58738 44.77 7.60213 44.7774L9.15952 44.9398C9.72785 44.9988 10.1707 45.4491 10.2298 46.0174L10.5176 48.9256C10.5176 48.9403 10.5324 48.9403 10.5398 48.9256L10.8202 46.0174C10.8719 45.4491 11.3221 44.9988 11.8905 44.9398L13.4553 44.7774C13.47 44.7774 13.47 44.7627 13.4553 44.7553L11.8905 44.5929C11.3221 44.5338 10.8719 44.0836 10.8202 43.5153L10.5398 40.6071C10.5398 40.5924 10.525 40.5924 10.5176 40.6071L10.2298 43.5153C10.1707 44.0836 9.72046 44.5338 9.15952 44.5929Z" fill="url(#paint52_linear_4_1984)"/>
<path d="M10.5912 44.6743C10.9234 45.095 13.4551 44.7702 13.4551 44.7702C13.4698 44.7702 13.4698 44.7554 13.4551 44.7481L11.8903 44.5857C11.3219 44.5267 10.8717 44.0764 10.82 43.5081L10.5543 40.7845L10.5396 40.7771C10.5322 40.7845 10.2369 44.2314 10.5912 44.6743Z" fill="url(#paint53_linear_4_1984)"/>
<path d="M9.15961 44.9324C9.72795 44.9914 10.1708 45.4417 10.2298 46.01L10.4144 47.8847C10.4144 47.8847 10.4734 45.3531 9.91247 44.984C9.47699 44.6963 9.60247 44.9693 7.59485 44.77L9.15961 44.9324Z" fill="url(#paint54_linear_4_1984)"/>
<path d="M10.7168 45.7221C10.5987 47.213 10.5397 47.9364 10.4585 48.335L10.5176 48.918C10.5176 48.9327 10.5323 48.9327 10.5397 48.918L10.8202 46.01C10.8718 45.4416 11.3221 44.9914 11.8904 44.9323L12.9311 44.8216C11.7206 44.6887 10.7906 44.8659 10.7168 45.7221Z" fill="url(#paint55_linear_4_1984)"/>
<path d="M10.5323 40.6068L10.8128 43.5149C10.8644 44.0832 11.3147 44.5335 11.883 44.5925L13.4478 44.7549C13.4478 44.7549 12.1413 44.6885 11.8682 44.6885C11.5951 44.6885 10.7906 44.5261 10.7168 43.5222C10.643 42.5111 10.5323 40.6068 10.5323 40.6068Z" fill="url(#paint56_linear_4_1984)"/>
<path d="M10.5176 40.6068L10.2371 43.5149C10.1854 44.0832 9.73521 44.5335 9.16688 44.5925L7.60211 44.7549C7.60211 44.7549 8.90854 44.6885 9.18164 44.6885C9.45474 44.6885 10.2593 44.5261 10.3331 43.5222C10.4069 42.5111 10.5176 40.6068 10.5176 40.6068Z" fill="url(#paint57_linear_4_1984)"/>
<defs>
<linearGradient id="paint0_linear_4_1984" x1="38" y1="0" x2="38" y2="60" gradientUnits="userSpaceOnUse">
<stop offset="0.165" stop-color="#FFACCF"/>
<stop offset="1" stop-color="#C04578"/>
</linearGradient>
<linearGradient id="paint1_linear_4_1984" x1="38" y1="44" x2="38" y2="60" gradientUnits="userSpaceOnUse">
<stop stop-color="#FC77AE"/>
<stop offset="1" stop-color="#AF0049"/>
</linearGradient>
<radialGradient id="paint2_radial_4_1984" cx="0" cy="0" r="1" gradientUnits="userSpaceOnUse" gradientTransform="translate(63.1107 17.4964) rotate(45.0009) scale(5.44543 5.44558)">
<stop stop-color="#FFBC47"/>
<stop offset="0.2588" stop-color="#FEC14D" stop-opacity="0.7412"/>
<stop offset="0.6207" stop-color="#FDCD60" stop-opacity="0.3793"/>
<stop offset="1" stop-color="#FBE07A" stop-opacity="0"/>
</radialGradient>
<linearGradient id="paint3_linear_4_1984" x1="63.9045" y1="20.8646" x2="59.4315" y2="1.97934" gradientUnits="userSpaceOnUse">
<stop stop-color="#FCCE38"/>
<stop offset="0.2151" stop-color="#FCD44F"/>
<stop offset="0.5049" stop-color="#FBDB67"/>
<stop offset="0.774" stop-color="#FBDF75"/>
<stop offset="1" stop-color="#FBE07A"/>
</linearGradient>
<linearGradient id="paint4_linear_4_1984" x1="60.9814" y1="23.7422" x2="68.6225" y2="22.9967" gradientUnits="userSpaceOnUse">
<stop stop-color="#FCCE38"/>
<stop offset="0.2151" stop-color="#FCD44F"/>
<stop offset="0.5049" stop-color="#FBDB67"/>
<stop offset="0.774" stop-color="#FBDF75"/>
<stop offset="1" stop-color="#FBE07A"/>
</linearGradient>
<linearGradient id="paint5_linear_4_1984" x1="69.2779" y1="7.9586" x2="63.894" y2="28.0035" gradientUnits="userSpaceOnUse">
<stop stop-color="#FCCE38"/>
<stop offset="0.3638" stop-color="#FCCE38"/>
<stop offset="1" stop-color="#C86F34"/>
</linearGradient>
<linearGradient id="paint6_linear_4_1984" x1="57.7024" y1="9.63447" x2="66.9897" y2="15.5051" gradientUnits="userSpaceOnUse">
<stop stop-color="#FCCE38"/>
<stop offset="0.2151" stop-color="#FCD44F"/>
<stop offset="0.5049" stop-color="#FBDB67"/>
<stop offset="0.774" stop-color="#FBDF75"/>
<stop offset="1" stop-color="#FBE07A"/>
</linearGradient>
<linearGradient id="paint7_linear_4_1984" x1="57.8184" y1="26.8525" x2="60.6347" y2="11.736" gradientUnits="userSpaceOnUse">
<stop stop-color="#FCCE38"/>
<stop offset="0.00850916" stop-color="#FCCD38"/>
<stop offset="0.3748" stop-color="#FBB53A"/>
<stop offset="0.7145" stop-color="#FBA73B"/>
<stop offset="1" stop-color="#FBA23B"/>
</linearGradient>
<linearGradient id="paint8_linear_4_1984" x1="66.5598" y1="21.3844" x2="62.3769" y2="12.3973" gradientUnits="userSpaceOnUse">
<stop stop-color="#FCCE38"/>
<stop offset="0.00850916" stop-color="#FCCD38"/>
<stop offset="0.3748" stop-color="#FBB53A"/>
<stop offset="0.7145" stop-color="#FBA73B"/>
<stop offset="1" stop-color="#FBA23B"/>
</linearGradient>
<radialGradient id="paint9_radial_4_1984" cx="0" cy="0" r="1" gradientUnits="userSpaceOnUse" gradientTransform="translate(52.0975 12.0093) rotate(-134.999) scale(2.40299)">
<stop stop-color="#FFBC47"/>
<stop offset="0.2588" stop-color="#FEC14D" stop-opacity="0.7412"/>
<stop offset="0.6207" stop-color="#FDCD60" stop-opacity="0.3793"/>
<stop offset="1" stop-color="#FBE07A" stop-opacity="0"/>
</radialGradient>
<linearGradient id="paint10_linear_4_1984" x1="51.746" y1="10.5246" x2="53.7198" y2="18.8584" gradientUnits="userSpaceOnUse">
<stop stop-color="#FCCE38"/>
<stop offset="0.2151" stop-color="#FCD44F"/>
<stop offset="0.5049" stop-color="#FBDB67"/>
<stop offset="0.774" stop-color="#FBDF75"/>
<stop offset="1" stop-color="#FBE07A"/>
</linearGradient>
<linearGradient id="paint11_linear_4_1984" x1="53.0356" y1="9.2548" x2="49.6637" y2="9.58377" gradientUnits="userSpaceOnUse">
<stop stop-color="#FCCE38"/>
<stop offset="0.2151" stop-color="#FCD44F"/>
<stop offset="0.5049" stop-color="#FBDB67"/>
<stop offset="0.774" stop-color="#FBDF75"/>
<stop offset="1" stop-color="#FBE07A"/>
</linearGradient>
<linearGradient id="paint12_linear_4_1984" x1="49.3748" y1="16.2197" x2="51.7506" y2="7.37408" gradientUnits="userSpaceOnUse">
<stop stop-color="#FCCE38"/>
<stop offset="0.3638" stop-color="#FCCE38"/>
<stop offset="1" stop-color="#C86F34"/>
</linearGradient>
<linearGradient id="paint13_linear_4_1984" x1="54.483" y1="15.4799" x2="50.3846" y2="12.8893" gradientUnits="userSpaceOnUse">
<stop stop-color="#FCCE38"/>
<stop offset="0.2151" stop-color="#FCD44F"/>
<stop offset="0.5049" stop-color="#FBDB67"/>
<stop offset="0.774" stop-color="#FBDF75"/>
<stop offset="1" stop-color="#FBE07A"/>
</linearGradient>
<linearGradient id="paint14_linear_4_1984" x1="54.4316" y1="7.88224" x2="53.1888" y2="14.553" gradientUnits="userSpaceOnUse">
<stop stop-color="#FCCE38"/>
<stop offset="0.00850916" stop-color="#FCCD38"/>
<stop offset="0.3748" stop-color="#FBB53A"/>
<stop offset="0.7145" stop-color="#FBA73B"/>
<stop offset="1" stop-color="#FBA23B"/>
</linearGradient>
<linearGradient id="paint15_linear_4_1984" x1="50.5743" y1="10.2953" x2="52.4202" y2="14.2612" gradientUnits="userSpaceOnUse">
<stop stop-color="#FCCE38"/>
<stop offset="0.00850916" stop-color="#FCCD38"/>
<stop offset="0.3748" stop-color="#FBB53A"/>
<stop offset="0.7145" stop-color="#FBA73B"/>
<stop offset="1" stop-color="#FBA23B"/>
</linearGradient>
<radialGradient id="paint16_radial_4_1984" cx="0" cy="0" r="1" gradientUnits="userSpaceOnUse" gradientTransform="translate(71.8521 12.057) rotate(45.0017) scale(1.86718)">
<stop stop-color="#FFBC47"/>
<stop offset="0.2588" stop-color="#FEC14D" stop-opacity="0.7412"/>
<stop offset="0.6207" stop-color="#FDCD60" stop-opacity="0.3793"/>
<stop offset="1" stop-color="#FBE07A" stop-opacity="0"/>
</radialGradient>
<linearGradient id="paint17_linear_4_1984" x1="72.0557" y1="12.9242" x2="70.9048" y2="8.06509" gradientUnits="userSpaceOnUse">
<stop stop-color="#FCCE38"/>
<stop offset="0.2151" stop-color="#FCD44F"/>
<stop offset="0.5049" stop-color="#FBDB67"/>
<stop offset="0.774" stop-color="#FBDF75"/>
<stop offset="1" stop-color="#FBE07A"/>
</linearGradient>
<linearGradient id="paint18_linear_4_1984" x1="71.0817" y1="13.6482" x2="73.717" y2="13.3911" gradientUnits="userSpaceOnUse">
<stop stop-color="#FCCE38"/>
<stop offset="0.2151" stop-color="#FCD44F"/>
<stop offset="0.5049" stop-color="#FBDB67"/>
<stop offset="0.774" stop-color="#FBDF75"/>
<stop offset="1" stop-color="#FBE07A"/>
</linearGradient>
<linearGradient id="paint19_linear_4_1984" x1="69.864" y1="14.4099" x2="71.2175" y2="9.3705" gradientUnits="userSpaceOnUse">
<stop stop-color="#FCCE38"/>
<stop offset="0.3638" stop-color="#FCCE38"/>
<stop offset="1" stop-color="#C86F34"/>
</linearGradient>
<linearGradient id="paint20_linear_4_1984" x1="69.9217" y1="9.90698" x2="72.9169" y2="11.8003" gradientUnits="userSpaceOnUse">
<stop stop-color="#FCCE38"/>
<stop offset="0.2151" stop-color="#FCD44F"/>
<stop offset="0.5049" stop-color="#FBDB67"/>
<stop offset="0.774" stop-color="#FBDF75"/>
<stop offset="1" stop-color="#FBE07A"/>
</linearGradient>
<linearGradient id="paint21_linear_4_1984" x1="70.0883" y1="14.406" x2="70.7999" y2="10.5867" gradientUnits="userSpaceOnUse">
<stop stop-color="#FCCE38"/>
<stop offset="0.00850916" stop-color="#FCCD38"/>
<stop offset="0.3748" stop-color="#FBB53A"/>
<stop offset="0.7145" stop-color="#FBA73B"/>
<stop offset="1" stop-color="#FBA23B"/>
</linearGradient>
<linearGradient id="paint22_linear_4_1984" x1="73.106" y1="12.9602" x2="72.0665" y2="10.7267" gradientUnits="userSpaceOnUse">
<stop stop-color="#FCCE38"/>
<stop offset="0.00850916" stop-color="#FCCD38"/>
<stop offset="0.3748" stop-color="#FBB53A"/>
<stop offset="0.7145" stop-color="#FBA73B"/>
<stop offset="1" stop-color="#FBA23B"/>
</linearGradient>
<radialGradient id="paint23_radial_4_1984" cx="0" cy="0" r="1" gradientUnits="userSpaceOnUse" gradientTransform="translate(56.5263 24.7625) rotate(-134.998) scale(1.65983)">
<stop stop-color="#FFBC47"/>
<stop offset="0.2588" stop-color="#FEC14D" stop-opacity="0.7412"/>
<stop offset="0.6207" stop-color="#FDCD60" stop-opacity="0.3793"/>
<stop offset="1" stop-color="#FBE07A" stop-opacity="0"/>
</radialGradient>
<linearGradient id="paint24_linear_4_1984" x1="56.2837" y1="23.7368" x2="57.647" y2="29.4931" gradientUnits="userSpaceOnUse">
<stop stop-color="#FCCE38"/>
<stop offset="0.2151" stop-color="#FCD44F"/>
<stop offset="0.5049" stop-color="#FBDB67"/>
<stop offset="0.774" stop-color="#FBDF75"/>
<stop offset="1" stop-color="#FBE07A"/>
</linearGradient>
<linearGradient id="paint25_linear_4_1984" x1="57.1744" y1="22.8598" x2="54.8454" y2="23.087" gradientUnits="userSpaceOnUse">
<stop stop-color="#FCCE38"/>
<stop offset="0.2151" stop-color="#FCD44F"/>
<stop offset="0.5049" stop-color="#FBDB67"/>
<stop offset="0.774" stop-color="#FBDF75"/>
<stop offset="1" stop-color="#FBE07A"/>
</linearGradient>
<linearGradient id="paint26_linear_4_1984" x1="54.6459" y1="27.6706" x2="56.287" y2="21.5606" gradientUnits="userSpaceOnUse">
<stop stop-color="#FCCE38"/>
<stop offset="0.3638" stop-color="#FCCE38"/>
<stop offset="1" stop-color="#C86F34"/>
</linearGradient>
<linearGradient id="paint27_linear_4_1984" x1="58.1741" y1="27.1597" x2="55.3432" y2="25.3703" gradientUnits="userSpaceOnUse">
<stop stop-color="#FCCE38"/>
<stop offset="0.2151" stop-color="#FCD44F"/>
<stop offset="0.5049" stop-color="#FBDB67"/>
<stop offset="0.774" stop-color="#FBDF75"/>
<stop offset="1" stop-color="#FBE07A"/>
</linearGradient>
<linearGradient id="paint28_linear_4_1984" x1="58.1386" y1="21.9111" x2="57.2801" y2="26.5189" gradientUnits="userSpaceOnUse">
<stop stop-color="#FCCE38"/>
<stop offset="0.00850916" stop-color="#FCCD38"/>
<stop offset="0.3748" stop-color="#FBB53A"/>
<stop offset="0.7145" stop-color="#FBA73B"/>
<stop offset="1" stop-color="#FBA23B"/>
</linearGradient>
<linearGradient id="paint29_linear_4_1984" x1="55.4743" y1="23.5779" x2="56.7493" y2="26.3173" gradientUnits="userSpaceOnUse">
<stop stop-color="#FCCE38"/>
<stop offset="0.00850916" stop-color="#FCCD38"/>
<stop offset="0.3748" stop-color="#FBB53A"/>
<stop offset="0.7145" stop-color="#FBA73B"/>
<stop offset="1" stop-color="#FBA23B"/>
</linearGradient>
<radialGradient id="paint30_radial_4_1984" cx="0" cy="0" r="1" gradientUnits="userSpaceOnUse" gradientTransform="translate(17.1107 37.4964) rotate(45.0009) scale(5.44543 5.44558)">
<stop stop-color="#FFBC47"/>
<stop offset="0.2588" stop-color="#FEC14D" stop-opacity="0.7412"/>
<stop offset="0.6207" stop-color="#FDCD60" stop-opacity="0.3793"/>
<stop offset="1" stop-color="#FBE07A" stop-opacity="0"/>
</radialGradient>
<linearGradient id="paint31_linear_4_1984" x1="17.9045" y1="40.8646" x2="13.4315" y2="21.9793" gradientUnits="userSpaceOnUse">
<stop stop-color="#FCCE38"/>
<stop offset="0.2151" stop-color="#FCD44F"/>
<stop offset="0.5049" stop-color="#FBDB67"/>
<stop offset="0.774" stop-color="#FBDF75"/>
<stop offset="1" stop-color="#FBE07A"/>
</linearGradient>
<linearGradient id="paint32_linear_4_1984" x1="14.9814" y1="43.7422" x2="22.6225" y2="42.9967" gradientUnits="userSpaceOnUse">
<stop stop-color="#FCCE38"/>
<stop offset="0.2151" stop-color="#FCD44F"/>
<stop offset="0.5049" stop-color="#FBDB67"/>
<stop offset="0.774" stop-color="#FBDF75"/>
<stop offset="1" stop-color="#FBE07A"/>
</linearGradient>
<linearGradient id="paint33_linear_4_1984" x1="23.2779" y1="27.9586" x2="17.894" y2="48.0035" gradientUnits="userSpaceOnUse">
<stop stop-color="#FCCE38"/>
<stop offset="0.3638" stop-color="#FCCE38"/>
<stop offset="1" stop-color="#C86F34"/>
</linearGradient>
<linearGradient id="paint34_linear_4_1984" x1="11.7024" y1="29.6345" x2="20.9897" y2="35.5051" gradientUnits="userSpaceOnUse">
<stop stop-color="#FCCE38"/>
<stop offset="0.2151" stop-color="#FCD44F"/>
<stop offset="0.5049" stop-color="#FBDB67"/>
<stop offset="0.774" stop-color="#FBDF75"/>
<stop offset="1" stop-color="#FBE07A"/>
</linearGradient>
<linearGradient id="paint35_linear_4_1984" x1="11.8184" y1="46.8525" x2="14.6347" y2="31.736" gradientUnits="userSpaceOnUse">
<stop stop-color="#FCCE38"/>
<stop offset="0.00850916" stop-color="#FCCD38"/>
<stop offset="0.3748" stop-color="#FBB53A"/>
<stop offset="0.7145" stop-color="#FBA73B"/>
<stop offset="1" stop-color="#FBA23B"/>
</linearGradient>
<linearGradient id="paint36_linear_4_1984" x1="20.5598" y1="41.3844" x2="16.3769" y2="32.3973" gradientUnits="userSpaceOnUse">
<stop stop-color="#FCCE38"/>
<stop offset="0.00850916" stop-color="#FCCD38"/>
<stop offset="0.3748" stop-color="#FBB53A"/>
<stop offset="0.7145" stop-color="#FBA73B"/>
<stop offset="1" stop-color="#FBA23B"/>
</linearGradient>
<radialGradient id="paint37_radial_4_1984" cx="0" cy="0" r="1" gradientUnits="userSpaceOnUse" gradientTransform="translate(6.09748 32.0093) rotate(-134.999) scale(2.40299)">
<stop stop-color="#FFBC47"/>
<stop offset="0.2588" stop-color="#FEC14D" stop-opacity="0.7412"/>
<stop offset="0.6207" stop-color="#FDCD60" stop-opacity="0.3793"/>
<stop offset="1" stop-color="#FBE07A" stop-opacity="0"/>
</radialGradient>
<linearGradient id="paint38_linear_4_1984" x1="5.74599" y1="30.5246" x2="7.7198" y2="38.8584" gradientUnits="userSpaceOnUse">
<stop stop-color="#FCCE38"/>
<stop offset="0.2151" stop-color="#FCD44F"/>
<stop offset="0.5049" stop-color="#FBDB67"/>
<stop offset="0.774" stop-color="#FBDF75"/>
<stop offset="1" stop-color="#FBE07A"/>
</linearGradient>
<linearGradient id="paint39_linear_4_1984" x1="7.03563" y1="29.2548" x2="3.66369" y2="29.5838" gradientUnits="userSpaceOnUse">
<stop stop-color="#FCCE38"/>
<stop offset="0.2151" stop-color="#FCD44F"/>
<stop offset="0.5049" stop-color="#FBDB67"/>
<stop offset="0.774" stop-color="#FBDF75"/>
<stop offset="1" stop-color="#FBE07A"/>
</linearGradient>
<linearGradient id="paint40_linear_4_1984" x1="3.37475" y1="36.2197" x2="5.75063" y2="27.3741" gradientUnits="userSpaceOnUse">
<stop stop-color="#FCCE38"/>
<stop offset="0.3638" stop-color="#FCCE38"/>
<stop offset="1" stop-color="#C86F34"/>
</linearGradient>
<linearGradient id="paint41_linear_4_1984" x1="8.48301" y1="35.4799" x2="4.3846" y2="32.8893" gradientUnits="userSpaceOnUse">
<stop stop-color="#FCCE38"/>
<stop offset="0.2151" stop-color="#FCD44F"/>
<stop offset="0.5049" stop-color="#FBDB67"/>
<stop offset="0.774" stop-color="#FBDF75"/>
<stop offset="1" stop-color="#FBE07A"/>
</linearGradient>
<linearGradient id="paint42_linear_4_1984" x1="8.43162" y1="27.8822" x2="7.18884" y2="34.553" gradientUnits="userSpaceOnUse">
<stop stop-color="#FCCE38"/>
<stop offset="0.00850916" stop-color="#FCCD38"/>
<stop offset="0.3748" stop-color="#FBB53A"/>
<stop offset="0.7145" stop-color="#FBA73B"/>
<stop offset="1" stop-color="#FBA23B"/>
</linearGradient>
<linearGradient id="paint43_linear_4_1984" x1="4.57432" y1="30.2953" x2="6.42021" y2="34.2612" gradientUnits="userSpaceOnUse">
<stop stop-color="#FCCE38"/>
<stop offset="0.00850916" stop-color="#FCCD38"/>
<stop offset="0.3748" stop-color="#FBB53A"/>
<stop offset="0.7145" stop-color="#FBA73B"/>
<stop offset="1" stop-color="#FBA23B"/>
</linearGradient>
<radialGradient id="paint44_radial_4_1984" cx="0" cy="0" r="1" gradientUnits="userSpaceOnUse" gradientTransform="translate(25.8521 32.057) rotate(45.0017) scale(1.86718)">
<stop stop-color="#FFBC47"/>
<stop offset="0.2588" stop-color="#FEC14D" stop-opacity="0.7412"/>
<stop offset="0.6207" stop-color="#FDCD60" stop-opacity="0.3793"/>
<stop offset="1" stop-color="#FBE07A" stop-opacity="0"/>
</radialGradient>
<linearGradient id="paint45_linear_4_1984" x1="26.0557" y1="32.9242" x2="24.9048" y2="28.0651" gradientUnits="userSpaceOnUse">
<stop stop-color="#FCCE38"/>
<stop offset="0.2151" stop-color="#FCD44F"/>
<stop offset="0.5049" stop-color="#FBDB67"/>
<stop offset="0.774" stop-color="#FBDF75"/>
<stop offset="1" stop-color="#FBE07A"/>
</linearGradient>
<linearGradient id="paint46_linear_4_1984" x1="25.0817" y1="33.6482" x2="27.717" y2="33.3911" gradientUnits="userSpaceOnUse">
<stop stop-color="#FCCE38"/>
<stop offset="0.2151" stop-color="#FCD44F"/>
<stop offset="0.5049" stop-color="#FBDB67"/>
<stop offset="0.774" stop-color="#FBDF75"/>
<stop offset="1" stop-color="#FBE07A"/>
</linearGradient>
<linearGradient id="paint47_linear_4_1984" x1="23.864" y1="34.4099" x2="25.2175" y2="29.3705" gradientUnits="userSpaceOnUse">
<stop stop-color="#FCCE38"/>
<stop offset="0.3638" stop-color="#FCCE38"/>
<stop offset="1" stop-color="#C86F34"/>
</linearGradient>
<linearGradient id="paint48_linear_4_1984" x1="23.9217" y1="29.907" x2="26.9169" y2="31.8003" gradientUnits="userSpaceOnUse">
<stop stop-color="#FCCE38"/>
<stop offset="0.2151" stop-color="#FCD44F"/>
<stop offset="0.5049" stop-color="#FBDB67"/>
<stop offset="0.774" stop-color="#FBDF75"/>
<stop offset="1" stop-color="#FBE07A"/>
</linearGradient>
<linearGradient id="paint49_linear_4_1984" x1="24.0883" y1="34.406" x2="24.7999" y2="30.5867" gradientUnits="userSpaceOnUse">
<stop stop-color="#FCCE38"/>
<stop offset="0.00850916" stop-color="#FCCD38"/>
<stop offset="0.3748" stop-color="#FBB53A"/>
<stop offset="0.7145" stop-color="#FBA73B"/>
<stop offset="1" stop-color="#FBA23B"/>
</linearGradient>
<linearGradient id="paint50_linear_4_1984" x1="27.106" y1="32.9602" x2="26.0665" y2="30.7267" gradientUnits="userSpaceOnUse">
<stop stop-color="#FCCE38"/>
<stop offset="0.00850916" stop-color="#FCCD38"/>
<stop offset="0.3748" stop-color="#FBB53A"/>
<stop offset="0.7145" stop-color="#FBA73B"/>
<stop offset="1" stop-color="#FBA23B"/>
</linearGradient>
<radialGradient id="paint51_radial_4_1984" cx="0" cy="0" r="1" gradientUnits="userSpaceOnUse" gradientTransform="translate(10.5263 44.7625) rotate(-134.998) scale(1.65983)">
<stop stop-color="#FFBC47"/>
<stop offset="0.2588" stop-color="#FEC14D" stop-opacity="0.7412"/>
<stop offset="0.6207" stop-color="#FDCD60" stop-opacity="0.3793"/>
<stop offset="1" stop-color="#FBE07A" stop-opacity="0"/>
</radialGradient>
<linearGradient id="paint52_linear_4_1984" x1="10.2837" y1="43.7368" x2="11.647" y2="49.4931" gradientUnits="userSpaceOnUse">
<stop stop-color="#FCCE38"/>
<stop offset="0.2151" stop-color="#FCD44F"/>
<stop offset="0.5049" stop-color="#FBDB67"/>
<stop offset="0.774" stop-color="#FBDF75"/>
<stop offset="1" stop-color="#FBE07A"/>
</linearGradient>
<linearGradient id="paint53_linear_4_1984" x1="11.1744" y1="42.8598" x2="8.84535" y2="43.087" gradientUnits="userSpaceOnUse">
<stop stop-color="#FCCE38"/>
<stop offset="0.2151" stop-color="#FCD44F"/>
<stop offset="0.5049" stop-color="#FBDB67"/>
<stop offset="0.774" stop-color="#FBDF75"/>
<stop offset="1" stop-color="#FBE07A"/>
</linearGradient>
<linearGradient id="paint54_linear_4_1984" x1="8.6459" y1="47.6706" x2="10.287" y2="41.5606" gradientUnits="userSpaceOnUse">
<stop stop-color="#FCCE38"/>
<stop offset="0.3638" stop-color="#FCCE38"/>
<stop offset="1" stop-color="#C86F34"/>
</linearGradient>
<linearGradient id="paint55_linear_4_1984" x1="12.1741" y1="47.1597" x2="9.34321" y2="45.3703" gradientUnits="userSpaceOnUse">
<stop stop-color="#FCCE38"/>
<stop offset="0.2151" stop-color="#FCD44F"/>
<stop offset="0.5049" stop-color="#FBDB67"/>
<stop offset="0.774" stop-color="#FBDF75"/>
<stop offset="1" stop-color="#FBE07A"/>
</linearGradient>
<linearGradient id="paint56_linear_4_1984" x1="12.1386" y1="41.9111" x2="11.2801" y2="46.5189" gradientUnits="userSpaceOnUse">
<stop stop-color="#FCCE38"/>
<stop offset="0.00850916" stop-color="#FCCD38"/>
<stop offset="0.3748" stop-color="#FBB53A"/>
<stop offset="0.7145" stop-color="#FBA73B"/>
<stop offset="1" stop-color="#FBA23B"/>
</linearGradient>
<linearGradient id="paint57_linear_4_1984" x1="9.47428" y1="43.5779" x2="10.7493" y2="46.3173" gradientUnits="userSpaceOnUse">
<stop stop-color="#FCCE38"/>
<stop offset="0.00850916" stop-color="#FCCD38"/>
<stop offset="0.3748" stop-color="#FBB53A"/>
<stop offset="0.7145" stop-color="#FBA73B"/>
<stop offset="1" stop-color="#FBA23B"/>
</linearGradient>
<clipPath id="clip0_4_1984">
<rect width="40" height="40" fill="white" transform="translate(18 2)"/>
</clipPath>
</defs>
</svg>
