<svg width="45" height="45" viewBox="0 0 45 45" fill="none" xmlns="http://www.w3.org/2000/svg">
<path d="M22.5 42.1875C33.3731 42.1875 42.1875 33.3731 42.1875 22.5C42.1875 11.6269 33.3731 2.8125 22.5 2.8125C11.6269 2.8125 2.8125 11.6269 2.8125 22.5C2.8125 33.3731 11.6269 42.1875 22.5 42.1875Z" fill="url(#paint0_linear_4_5684)"/>
<path d="M32.3249 14.3561C32.5001 13.2234 31.4232 12.3294 30.4161 12.7716L10.3568 21.5786C9.63454 21.8957 9.68737 22.9898 10.4364 23.2283L14.5731 24.5457C15.3627 24.7971 16.2176 24.667 16.9071 24.1907L26.2336 17.7473C26.5148 17.553 26.8214 17.9529 26.5811 18.2005L19.8676 25.1221C19.2164 25.7936 19.3456 26.9314 20.1291 27.4226L27.6455 32.136C28.4885 32.6647 29.573 32.1337 29.7307 31.1148L32.3249 14.3561Z" fill="white"/>
<defs>
<linearGradient id="paint0_linear_4_5684" x1="22.5" y1="2.8125" x2="22.5" y2="42.1875" gradientUnits="userSpaceOnUse">
<stop stop-color="#37BBFE"/>
<stop offset="1" stop-color="#007DBB"/>
</linearGradient>
</defs>
</svg>
