<svg width="45" height="45" viewBox="0 0 45 45" fill="none" xmlns="http://www.w3.org/2000/svg">
<path fill-rule="evenodd" clip-rule="evenodd" d="M22.5 43.5938C33.3731 43.5938 42.1875 34.7794 42.1875 23.9062C42.1875 13.0331 33.3731 4.21875 22.5 4.21875C11.6269 4.21875 2.8125 13.0331 2.8125 23.9062C2.8125 27.4372 3.74203 30.751 5.36972 33.6164L2.8125 43.5938L13.099 41.2085C15.8926 42.7295 19.0953 43.5938 22.5 43.5938ZM22.5 40.565C31.7004 40.565 39.1587 33.1066 39.1587 23.9062C39.1587 14.706 31.7004 7.2476 22.5 7.2476C13.2997 7.2476 5.84135 14.706 5.84135 23.9062C5.84135 27.4586 6.9532 30.7512 8.8479 33.455L7.35577 39.0504L13.0499 37.6269C15.7351 39.4799 18.9908 40.565 22.5 40.565Z" fill="#BFC8D0"/>
<path d="M39.375 22.5C39.375 31.8198 31.8198 39.375 22.5 39.375C18.9453 39.375 15.6472 38.2759 12.9272 36.399L7.15909 37.8409L8.6706 32.1728C6.75129 29.4338 5.625 26.0985 5.625 22.5C5.625 13.1802 13.1802 5.625 22.5 5.625C31.8198 5.625 39.375 13.1802 39.375 22.5Z" fill="url(#paint0_linear_4_5687)"/>
<path fill-rule="evenodd" clip-rule="evenodd" d="M22.5 42.1875C33.3731 42.1875 42.1875 33.3731 42.1875 22.5C42.1875 11.6269 33.3731 2.8125 22.5 2.8125C11.6269 2.8125 2.8125 11.6269 2.8125 22.5C2.8125 26.031 3.74203 29.3448 5.36972 32.2102L2.8125 42.1875L13.099 39.8022C15.8926 41.3232 19.0953 42.1875 22.5 42.1875ZM22.5 39.1587C31.7004 39.1587 39.1587 31.7004 39.1587 22.5C39.1587 13.2997 31.7004 5.84135 22.5 5.84135C13.2997 5.84135 5.84135 13.2997 5.84135 22.5C5.84135 26.0523 6.9532 29.3449 8.8479 32.0487L7.35577 37.6442L13.0499 36.2206C15.7351 38.0737 18.9908 39.1587 22.5 39.1587Z" fill="white"/>
<path d="M17.5781 13.3592C17.1101 12.419 16.392 12.5023 15.6666 12.5023C14.3702 12.5023 12.3486 14.0552 12.3486 16.9453C12.3486 19.3139 13.3924 21.9066 16.9093 25.7851C20.3034 29.5283 24.7632 31.4646 28.4656 31.3986C32.168 31.3328 32.9297 28.1467 32.9297 27.0707C32.9297 26.5939 32.6337 26.3559 32.43 26.2912C31.1683 25.6857 28.8412 24.5575 28.3117 24.3456C27.7823 24.1336 27.5058 24.4204 27.334 24.5763C26.8539 25.0338 25.9021 26.3824 25.5762 26.6857C25.2503 26.989 24.7645 26.8355 24.5623 26.7209C23.8182 26.4223 21.801 25.525 20.193 23.9662C18.2043 22.0385 18.0876 21.3751 17.713 20.7848C17.4133 20.3124 17.6332 20.0227 17.7429 19.896C18.1714 19.4017 18.763 18.6384 19.0284 18.2592C19.2936 17.8798 19.0831 17.3039 18.9567 16.9453C18.4132 15.4027 17.9526 14.1113 17.5781 13.3592Z" fill="white"/>
<defs>
<linearGradient id="paint0_linear_4_5687" x1="37.2656" y1="9.84375" x2="5.625" y2="39.375" gradientUnits="userSpaceOnUse">
<stop stop-color="#5BD066"/>
<stop offset="1" stop-color="#27B43E"/>
</linearGradient>
</defs>
</svg>
