<svg width="77" height="60" viewBox="0 0 77 60" fill="none" xmlns="http://www.w3.org/2000/svg">
<circle cx="39" cy="30" r="30" fill="url(#paint0_linear_4_1983)"/>
<rect x="4" y="44" width="70" height="16" rx="8" fill="url(#paint1_linear_4_1983)"/>
<path d="M20.4244 48.75C21.3044 48.75 21.9644 48.8533 22.4044 49.06C22.8444 49.26 23.0644 49.5833 23.0644 50.03C23.0644 50.47 22.9277 50.8067 22.6544 51.04C22.3877 51.2667 22.081 51.38 21.7344 51.38C21.3877 51.38 21.0744 51.2933 20.7944 51.12C20.521 50.94 20.331 50.7033 20.2244 50.41C19.9777 50.41 19.741 50.4933 19.5144 50.66C19.2944 50.82 19.1544 51.03 19.0944 51.29C20.4144 51.61 21.361 51.9833 21.9344 52.41C22.5077 52.8367 22.7944 53.3833 22.7944 54.05C22.7944 54.7167 22.491 55.25 21.8844 55.65C21.2844 56.05 20.471 56.25 19.4444 56.25C18.4244 56.25 17.701 56.11 17.2744 55.83C16.8477 55.55 16.6344 55.18 16.6344 54.72C16.6344 54.26 16.7777 53.8367 17.0644 53.45C17.2044 53.75 17.471 54.02 17.8644 54.26C18.2644 54.5 18.6577 54.62 19.0444 54.62C19.7577 54.62 20.211 54.3933 20.4044 53.94C19.2977 53.7933 18.4544 53.4867 17.8744 53.02C17.2944 52.5467 17.0044 51.9767 17.0044 51.31C17.0044 50.8633 17.1244 50.4667 17.3644 50.12C17.6044 49.7667 17.911 49.4967 18.2844 49.31C19.0177 48.9367 19.731 48.75 20.4244 48.75ZM25.2991 56.25C24.7125 56.25 24.3025 56.1067 24.0691 55.82C23.8358 55.5333 23.7191 55.1733 23.7191 54.74C23.7191 54.3 23.7925 53.7 23.9391 52.94C24.0858 52.18 24.1591 51.63 24.1591 51.29C24.1591 50.95 24.0891 50.6833 23.9491 50.49C24.5691 50.1633 25.0925 50 25.5191 50C25.7925 50 25.9891 50.0567 26.1091 50.17C26.2358 50.2767 26.2991 50.4533 26.2991 50.7C26.2991 50.9467 26.1958 51.5533 25.9891 52.52C25.7891 53.48 25.6891 54.0733 25.6891 54.3C25.6891 54.5267 25.7525 54.7067 25.8791 54.84C26.0058 54.9667 26.1725 55.03 26.3791 55.03C26.5858 55.03 26.8058 54.95 27.0391 54.79C27.2725 54.6233 27.4625 54.39 27.6091 54.09C27.7025 53.55 27.8858 52.6967 28.1591 51.53L27.5591 50.73C28.2325 50.2433 28.8725 50 29.4791 50C29.7791 50 29.9925 50.0567 30.1191 50.17C30.2525 50.2767 30.3191 50.4433 30.3191 50.67C30.3191 50.89 30.1958 51.5267 29.9491 52.58C29.7091 53.6333 29.5891 54.3833 29.5891 54.83C29.5891 55.27 29.6925 55.58 29.8991 55.76C29.5258 56.0867 29.1325 56.25 28.7191 56.25C28.3125 56.25 28.0191 56.16 27.8391 55.98C27.6591 55.8 27.5691 55.5633 27.5691 55.27L27.4691 55.22C27.2491 55.54 26.9425 55.7933 26.5491 55.98C26.1625 56.16 25.7458 56.25 25.2991 56.25ZM32.2659 57.99C31.8525 57.99 31.5625 57.8867 31.3959 57.68C31.2359 57.48 31.1559 57.1867 31.1559 56.8C31.1559 56.42 31.2359 55.65 31.3959 54.49C31.5625 53.33 31.7225 52.34 31.8759 51.52L31.3159 50.72C31.7292 50.48 32.0859 50.3 32.3859 50.18C32.6859 50.0533 32.9825 49.99 33.2759 49.99C33.7559 49.99 33.9959 50.3067 33.9959 50.94C33.9959 51.0267 33.9825 51.2033 33.9559 51.47L34.0559 51.52C34.2492 51.04 34.5292 50.6667 34.8959 50.4C35.2625 50.1267 35.6925 49.99 36.1859 49.99C36.6859 49.99 37.0825 50.2167 37.3759 50.67C37.6692 51.1167 37.8159 51.6733 37.8159 52.34C37.8159 53.2333 37.5025 54.0467 36.8759 54.78C36.5692 55.14 36.1592 55.4333 35.6459 55.66C35.1325 55.88 34.5592 55.99 33.9259 55.99C33.7325 55.99 33.4792 55.9733 33.1659 55.94C33.1459 56.1733 33.1359 56.39 33.1359 56.59C33.1359 57.0167 33.2392 57.32 33.4459 57.5C33.0725 57.8267 32.6792 57.99 32.2659 57.99ZM33.5759 53.85L33.3459 55.01C34.1525 54.99 34.7959 54.7267 35.2759 54.22C35.7625 53.7067 36.0059 53.1467 36.0059 52.54C36.0059 52.2267 35.9425 51.9767 35.8159 51.79C35.6959 51.5967 35.5192 51.5 35.2859 51.5C34.4592 51.5 33.8892 52.2833 33.5759 53.85ZM39.8221 57.99C39.4088 57.99 39.1188 57.8867 38.9521 57.68C38.7921 57.48 38.7121 57.1867 38.7121 56.8C38.7121 56.42 38.7921 55.65 38.9521 54.49C39.1188 53.33 39.2788 52.34 39.4321 51.52L38.8721 50.72C39.2854 50.48 39.6421 50.3 39.9421 50.18C40.2421 50.0533 40.5388 49.99 40.8321 49.99C41.3121 49.99 41.5521 50.3067 41.5521 50.94C41.5521 51.0267 41.5388 51.2033 41.5121 51.47L41.6121 51.52C41.8054 51.04 42.0854 50.6667 42.4521 50.4C42.8188 50.1267 43.2488 49.99 43.7421 49.99C44.2421 49.99 44.6388 50.2167 44.9321 50.67C45.2254 51.1167 45.3721 51.6733 45.3721 52.34C45.3721 53.2333 45.0588 54.0467 44.4321 54.78C44.1254 55.14 43.7154 55.4333 43.2021 55.66C42.6888 55.88 42.1154 55.99 41.4821 55.99C41.2888 55.99 41.0354 55.9733 40.7221 55.94C40.7021 56.1733 40.6921 56.39 40.6921 56.59C40.6921 57.0167 40.7954 57.32 41.0021 57.5C40.6288 57.8267 40.2354 57.99 39.8221 57.99ZM41.1321 53.85L40.9021 55.01C41.7088 54.99 42.3521 54.7267 42.8321 54.22C43.3188 53.7067 43.5621 53.1467 43.5621 52.54C43.5621 52.2267 43.4988 51.9767 43.3721 51.79C43.2521 51.5967 43.0754 51.5 42.8421 51.5C42.0154 51.5 41.4454 52.2833 41.1321 53.85ZM51.0984 50.76C51.4717 50.76 51.7917 50.91 52.0584 51.21C52.3317 51.51 52.4684 51.9467 52.4684 52.52C52.4684 53.0867 52.3684 53.6133 52.1684 54.1C51.9684 54.58 51.705 54.9733 51.3784 55.28C51.0517 55.5867 50.6817 55.8267 50.2684 56C49.855 56.1667 49.4317 56.25 48.9984 56.25C48.125 56.25 47.435 56.01 46.9284 55.53C46.4217 55.05 46.1684 54.4133 46.1684 53.62C46.1684 52.5467 46.5117 51.6767 47.1984 51.01C47.8917 50.3367 48.7717 50 49.8384 50C50.0784 50 50.3184 50.0267 50.5584 50.08C50.6317 50.3 50.6717 50.55 50.6784 50.83C50.8184 50.7833 50.9584 50.76 51.0984 50.76ZM49.8684 52.15C49.8684 51.9633 49.9117 51.7533 49.9984 51.52C50.0917 51.2867 50.2384 51.1 50.4384 50.96C49.5584 51.1467 48.9517 51.5033 48.6184 52.03C48.3317 52.4833 48.1884 52.95 48.1884 53.43C48.1884 53.91 48.285 54.2967 48.4784 54.59C48.6784 54.8767 48.9317 55.02 49.2384 55.02C49.9184 55.02 50.3984 54.5767 50.6784 53.69C50.1384 53.3567 49.8684 52.8433 49.8684 52.15ZM53.3168 55.01C53.3168 54.7433 53.3835 54.2267 53.5168 53.46C53.6568 52.6933 53.8001 51.9933 53.9468 51.36L53.4268 50.56C54.2601 50.1867 54.8435 50 55.1768 50C55.5168 50 55.6868 50.2133 55.6868 50.64C55.6868 50.8733 55.5768 51.36 55.3568 52.1L55.4568 52.15C55.9368 50.7167 56.5335 50 57.2468 50C57.5735 50 57.8235 50.1 57.9968 50.3C58.1701 50.5 58.2568 50.7233 58.2568 50.97C58.2568 51.3367 58.1201 51.65 57.8468 51.91C57.5735 52.17 57.1635 52.3 56.6168 52.3C55.7901 52.3 55.3768 53.15 55.3768 54.85C55.3768 55.2633 55.4468 55.5667 55.5868 55.76C55.1735 56.0867 54.7935 56.25 54.4468 56.25C53.6935 56.25 53.3168 55.8367 53.3168 55.01ZM58.6298 52.39C58.5831 52.2033 58.5598 52.03 58.5598 51.87C58.5598 51.5433 58.6564 51.2967 58.8498 51.13C59.0431 50.9633 59.2931 50.88 59.5998 50.88C59.5998 50.5333 59.5098 50.1567 59.3298 49.75C59.6564 49.51 59.9531 49.33 60.2198 49.21C60.4931 49.0833 60.7798 49.02 61.0798 49.02C61.3798 49.02 61.5864 49.0767 61.6998 49.19C61.8198 49.2967 61.8798 49.4633 61.8798 49.69C61.8798 49.9167 61.8331 50.27 61.7398 50.75C62.0064 50.71 62.2764 50.6533 62.5498 50.58C62.5964 50.72 62.6198 50.9 62.6198 51.12C62.6198 51.34 62.5331 51.5467 62.3598 51.74C62.1931 51.9267 61.9464 52.02 61.6198 52.02H61.4698C61.2298 53.1067 61.1098 53.9433 61.1098 54.53C61.1098 55.1167 61.2131 55.5267 61.4198 55.76C61.0464 56.0867 60.6498 56.25 60.2298 56.25C59.8098 56.25 59.5064 56.1267 59.3198 55.88C59.1398 55.6267 59.0498 55.2367 59.0498 54.71C59.0498 54.39 59.1664 53.55 59.3998 52.19C59.1331 52.2367 58.8764 52.3033 58.6298 52.39Z" fill="white"/>
<g clip-path="url(#clip0_4_1983)">
<path d="M36.087 11.1307L38.9998 6.08557L41.9127 11.1307H36.087Z" fill="#F4CA60"/>
<path d="M47.3045 4.86865L42.7431 15.1756L41.7683 12.2475L39.0001 15.1756L36.2321 12.2475L35.2573 15.1756L30.6958 4.86865L27.6857 18.8102H50.3142L47.3045 4.86865Z" fill="#F4CA60"/>
<path d="M31.1244 23.8176C31.1244 25.9647 29.3821 27.707 27.2351 27.707C26.5462 27.707 25.8998 27.5268 25.3402 27.2131C24.1511 26.5497 23.3457 25.2759 23.3457 23.8176C23.3457 22.5459 23.9561 21.4161 24.9036 20.7062C25.5522 20.2186 26.3597 19.9282 27.2351 19.9282C29.3821 19.9282 31.1244 21.6705 31.1244 23.8176Z" fill="#E5CF98"/>
<path d="M54.6543 23.8176C54.6543 25.9647 52.912 27.707 50.7649 27.707C50.6059 27.707 50.4491 27.6964 50.2944 27.6773C48.3698 27.4462 46.8756 25.8058 46.8756 23.8176C46.8756 21.6705 48.6179 19.9282 50.765 19.9282C50.801 19.9282 50.8349 19.9282 50.8688 19.9303C52.9692 19.9854 54.6543 21.7065 54.6543 23.8176Z" fill="#E5CF98"/>
<path d="M41.8974 33.8798V36.1154C41.8974 36.277 41.8842 36.436 41.8588 36.5906C41.8078 36.9033 41.7059 37.1994 41.561 37.4699C41.0778 38.3835 40.1151 39.0081 39.0065 39.0081C37.8961 39.0081 36.9351 38.3835 36.4502 37.4699C36.3061 37.2003 36.2042 36.906 36.1524 36.5941C36.1269 36.4386 36.1138 36.2788 36.1138 36.1154V33.8798H41.8974Z" fill="#FCE7A7"/>
<path d="M41.8974 33.8798V36.1154C41.8974 36.277 41.8842 36.436 41.8588 36.5906C40.9434 36.8181 39.9859 36.9385 39.0003 36.9385C38.0182 36.9385 37.0651 36.819 36.1524 36.5941C36.1269 36.4386 36.1138 36.2788 36.1138 36.1154V33.8798H41.8974Z" fill="#E5CF98"/>
<path d="M50.8381 20.2174V24.2231C50.8381 26.2944 50.3049 28.2419 49.3703 29.9355C47.3551 33.5863 43.4672 36.06 39.0003 36.06C34.5326 36.06 30.6446 33.5863 28.6295 29.9355C27.6948 28.2419 27.1616 26.2944 27.1616 24.2231V20.2174C27.1616 18.9586 27.3584 18.2784 27.7221 17.1408C28.3141 15.2917 29.3472 14.3052 30.6991 12.977C31.3667 12.32 32.1107 11.742 32.918 11.2571C34.1663 10.5086 35.5639 9.98333 37.0563 9.73737C37.6888 9.63283 38.338 9.57837 39.0003 9.57837C39.6864 9.57837 40.3584 9.63635 41.0128 9.74879C42.5167 10.0062 43.924 10.5473 45.1766 11.3159C45.9698 11.8008 46.7007 12.3779 47.3551 13.0298L47.371 13.0456C48.7448 14.4194 49.7831 15.4639 50.3506 17.3771C50.6677 18.4453 50.8381 19.0456 50.8381 20.2174Z" fill="#FCE7A7"/>
<path d="M38.9996 30.7504C37.9833 30.7504 37.092 30.0999 36.782 29.1318C36.7377 28.9932 36.814 28.8449 36.9526 28.8005C37.0914 28.7561 37.2396 28.8324 37.284 28.9711C37.5238 29.72 38.2133 30.2233 38.9996 30.2233C39.7858 30.2233 40.4753 29.72 40.7151 28.9711C40.7596 28.8325 40.908 28.7561 41.0465 28.8005C41.1851 28.8449 41.2614 28.9932 41.2171 29.1318C40.9073 30.0999 40.0161 30.7504 38.9996 30.7504Z" fill="#EA535E"/>
<path d="M36.2844 26.7178L38.9999 25.5758L41.7155 26.7178H36.2844Z" fill="#E5CF98"/>
<path d="M33.5108 26.3418C32.2726 26.3418 31.2653 25.3344 31.2653 24.0963C31.2653 22.8581 32.2726 21.8507 33.5108 21.8507C34.749 21.8507 35.7564 22.8581 35.7564 24.0963C35.7563 25.3344 34.749 26.3418 33.5108 26.3418Z" fill="white"/>
<path d="M44.4888 26.3418C43.2507 26.3418 42.2433 25.3344 42.2433 24.0963C42.2433 22.8581 43.2507 21.8507 44.4888 21.8507C45.727 21.8507 46.7344 22.8581 46.7344 24.0963C46.7344 25.3344 45.727 26.3418 44.4888 26.3418Z" fill="white"/>
<path d="M34.2793 24.0962C33.8549 24.0962 33.5109 23.7521 33.5109 23.3278C33.5109 23.0626 33.6452 22.8287 33.8496 22.6906C33.7407 22.6645 33.6277 22.6492 33.5109 22.6492C32.7117 22.6492 32.0637 23.297 32.0637 24.0963C32.0637 24.8956 32.7117 25.5434 33.5109 25.5434C34.3101 25.5434 34.958 24.8956 34.958 24.0963C34.958 23.9795 34.9426 23.8664 34.9165 23.7576C34.7784 23.9619 34.5445 24.0962 34.2793 24.0962Z" fill="#4D4D4D"/>
<path d="M45.2572 24.0962C44.8328 24.0962 44.4888 23.7521 44.4888 23.3278C44.4888 23.0626 44.6231 22.8287 44.8275 22.6906C44.7186 22.6645 44.6056 22.6492 44.4888 22.6492C43.6896 22.6492 43.0416 23.297 43.0416 24.0963C43.0416 24.8956 43.6896 25.5434 44.4888 25.5434C45.288 25.5434 45.9359 24.8956 45.9359 24.0963C45.9359 23.9795 45.9205 23.8664 45.8944 23.7576C45.7563 23.9619 45.5225 24.0962 45.2572 24.0962Z" fill="#4D4D4D"/>
<path d="M44.6943 41.6451C48.9538 39.496 51.6403 35.1314 51.6403 30.3605V26.1575C51.6403 25.3288 50.7181 24.8332 50.0269 25.2904L47.9897 26.6381C46.0558 27.9175 43.6354 28.2205 41.4457 27.4573C39.8624 26.9055 38.139 26.9055 36.5557 27.4573C34.3661 28.2205 31.9457 27.9175 30.0117 26.6381L27.9745 25.2904C27.2834 24.8332 26.3612 25.3288 26.3612 26.1575V30.3605C26.3612 35.1314 29.0476 39.496 33.3072 41.6451C36.8878 43.4517 41.1135 43.4517 44.6943 41.6451Z" fill="#FBB03B"/>
<path d="M39.0007 28.826C37.3695 28.826 36.0471 30.1484 36.0471 31.7796C36.0471 32.2831 36.4552 32.6912 36.9587 32.6912H41.0426C41.546 32.6912 41.9542 32.2831 41.9542 31.7796C41.9542 30.1484 40.6319 28.826 39.0007 28.826Z" fill="#FCE7A7"/>
<path d="M39.0797 31.2735C38.7131 31.2735 38.3464 31.1881 37.9975 31.0175C37.8668 30.9535 37.8127 30.7957 37.8765 30.665C37.9406 30.5342 38.0983 30.4801 38.2291 30.5441C38.7857 30.8163 39.3739 30.8163 39.9303 30.5441C40.061 30.4801 40.2189 30.5342 40.2828 30.665C40.3469 30.7957 40.2927 30.9535 40.162 31.0175C39.813 31.1881 39.4463 31.2735 39.0797 31.2735Z" fill="#EA535E"/>
<path d="M50.2116 16.8451V17.5856H27.8611V16.6088C28.4459 14.7596 29.4663 13.1073 30.8016 11.7791L31.5868 13.9515L32.9933 10.0591C34.2262 9.3107 35.6066 8.78539 37.0807 8.53943L39.0364 13.9515L40.9886 8.55085C42.4741 8.80823 43.864 9.34935 45.1013 10.118L46.4869 13.9515L47.253 11.8318L47.2687 11.8476C48.6255 13.2215 49.6511 14.9318 50.2116 16.8451Z" fill="#E5CF98"/>
<path d="M27.7223 16.9415L25.7227 19.7709C25.1825 20.5353 25.079 21.5426 25.5052 22.3761C25.8451 23.0409 26.4728 23.5584 27.2816 23.7203C27.7751 23.819 28.2505 23.4842 28.3228 22.9861C28.5976 21.0934 29.4888 16.9415 32.0208 16.9415" fill="#E29A3B"/>
<path d="M50.3509 16.9415L52.3505 19.7709C52.8907 20.5353 52.9942 21.5426 52.568 22.3761C52.228 23.0409 51.6004 23.5584 50.7916 23.7203C50.2981 23.819 49.8227 23.4842 49.7504 22.9861C49.4756 21.0934 48.5844 16.9415 46.0524 16.9415" fill="#E29A3B"/>
<path d="M50.3142 16.845V16.9416H27.6857V16.6087C29.2115 11.8361 33.6836 8.38037 38.9639 8.38037C42.2335 8.38037 45.192 9.70593 47.3346 11.8476C48.7084 13.2214 49.7467 14.9318 50.3142 16.845Z" fill="#E29A3B"/>
<path d="M50.3143 3L46.5428 13.307L42.7714 3L38.9999 13.307L35.2284 3L31.457 13.307L27.6855 3V16.9415H50.3143V3Z" fill="#FCD983"/>
<path d="M36.1815 24.1426H30.9672C30.5306 24.1426 30.1766 23.7887 30.1766 23.352V22.2377C30.1766 21.8011 30.5306 21.4471 30.9672 21.4471H36.1815C36.6181 21.4471 36.9721 21.8011 36.9721 22.2377V23.352C36.9721 23.7887 36.6181 24.1426 36.1815 24.1426Z" fill="#E29A3B"/>
<path d="M47.0327 24.1426H41.8184C41.3818 24.1426 41.0278 23.7887 41.0278 23.352V22.2377C41.0278 21.8011 41.3818 21.4471 41.8184 21.4471H47.0327C47.4693 21.4471 47.8232 21.8011 47.8232 22.2377V23.352C47.8232 23.7887 47.4692 24.1426 47.0327 24.1426Z" fill="#E29A3B"/>
</g>
<path opacity="0.5" d="M73.2431 8.66516C72.4754 9.43277 71.2281 9.43277 70.4531 8.66516C71.2207 9.43277 71.2207 10.6802 70.4531 11.4552C71.2207 10.6875 72.4681 10.6875 73.2431 11.4552C72.4754 10.6802 72.4754 9.43277 73.2431 8.66516Z" fill="#FCCE38"/>
<path d="M66.9621 11.6471C64.8362 13.7728 61.3894 13.7728 59.2562 11.6471C61.3821 13.7728 61.3821 17.2197 59.2562 19.3528C61.3821 17.2271 64.8289 17.2271 66.9621 19.3528C64.8289 17.2271 64.8289 13.7728 66.9621 11.6471Z" fill="#FCCE38"/>
<path d="M66.9618 19.353C64.8361 21.4787 61.3892 21.4787 59.2635 19.353C57.1377 17.2271 57.1377 13.7803 59.2635 11.6546C61.3892 9.52888 64.8361 9.52888 66.9618 11.6546C69.0875 13.773 69.0875 17.2198 66.9618 19.353Z" fill="url(#paint2_radial_4_1983)"/>
<path d="M67.5965 16.0612L72.7115 15.5297C72.7484 15.5223 72.7484 15.4707 72.7115 15.4707L67.5965 14.9393C65.7365 14.7473 64.2677 13.2712 64.0832 11.4185L63.1384 1.87497C63.1311 1.83806 63.0793 1.83806 63.0793 1.87497L62.1568 11.4038C61.9796 13.2712 60.5108 14.7473 58.6434 14.9393L53.4989 15.4707C53.462 15.478 53.462 15.5297 53.4989 15.5297L58.6434 16.0612C60.5034 16.253 61.9722 17.7293 62.1568 19.5966L63.0793 29.1254C63.0793 29.1623 63.1384 29.1623 63.1384 29.1254L64.0832 19.5819C64.2751 17.7219 65.7439 16.253 67.5965 16.0612Z" fill="url(#paint3_linear_4_1983)"/>
<path d="M62.9022 15.7806C61.8098 14.4003 53.4989 15.4706 53.4989 15.4706C53.462 15.4779 53.462 15.5296 53.4989 15.5296L58.6434 16.061C60.5034 16.2529 61.9722 17.729 62.1568 19.5964L63.0202 28.5274L63.0793 28.5569C63.0793 28.5569 64.0684 17.2493 62.9022 15.7806Z" fill="url(#paint4_linear_4_1983)"/>
<path d="M67.5966 14.9388C65.7366 14.7469 64.2678 13.2708 64.0833 11.4181L63.4707 5.255C63.4707 5.255 63.2787 13.5659 65.1093 14.7691C66.5486 15.7138 66.1204 14.8059 72.7116 15.4702L67.5966 14.9388Z" fill="url(#paint5_linear_4_1983)"/>
<path d="M62.4743 12.341C62.8729 7.45479 63.05 5.07812 63.3305 3.77907L63.1386 1.8674C63.1312 1.8305 63.0796 1.8305 63.0796 1.8674L62.1569 11.3962C61.9797 13.2636 60.511 14.7398 58.6436 14.9317L55.241 15.286C59.1972 15.7436 62.2455 15.1532 62.4743 12.341Z" fill="url(#paint6_linear_4_1983)"/>
<path d="M63.0792 29.1254L62.1565 19.5965C61.9793 17.7291 60.5106 16.2529 58.6432 16.0611L53.4987 15.5295C53.4987 15.5295 57.7796 15.7584 58.6801 15.7584C59.5806 15.7584 62.2229 16.2898 62.4665 19.5818C62.71 22.8737 63.0792 29.1254 63.0792 29.1254Z" fill="url(#paint7_linear_4_1983)"/>
<path d="M63.1386 29.1254L64.0611 19.5965C64.2383 17.7291 65.7071 16.2529 67.5745 16.0611L72.719 15.5295C72.719 15.5295 68.4381 15.7584 67.5376 15.7584C66.6371 15.7584 63.9947 16.2898 63.7511 19.5818C63.5076 22.8737 63.1386 29.1254 63.1386 29.1254Z" fill="url(#paint8_linear_4_1983)"/>
<path opacity="0.5" d="M53.8682 8.23694C52.8865 9.21861 51.2996 9.21861 50.3253 8.23694C51.307 9.21861 51.307 10.8055 50.3253 11.7798C51.307 10.7981 52.8939 10.7981 53.8682 11.7798C52.8939 10.8055 52.8939 9.21861 53.8682 8.23694Z" fill="#FCCE38"/>
<path d="M52.0967 12.4142C53.4256 12.4142 54.5029 11.3369 54.5029 10.008C54.5029 8.67909 53.4256 7.60181 52.0967 7.60181C50.7678 7.60181 49.6906 8.67909 49.6906 10.008C49.6906 11.3369 50.7678 12.4142 52.0967 12.4142Z" fill="url(#paint9_radial_4_1983)"/>
<path d="M50.1185 9.76474L47.8599 10.0009C47.8452 10.0009 47.8452 10.0231 47.8599 10.0304L50.1185 10.2666C50.9378 10.3478 51.5873 11.0047 51.6685 11.824L52.0892 16.0311C52.0892 16.046 52.1114 16.046 52.1188 16.0311L52.5247 11.824C52.6059 11.0047 53.2554 10.3478 54.0747 10.2666L56.348 10.0304C56.3628 10.0304 56.3628 10.0083 56.348 10.0009L54.0747 9.76474C53.2554 9.67615 52.6059 9.02664 52.5247 8.20735L52.1188 4.00021C52.1188 3.98544 52.0966 3.98544 52.0892 4.00021L51.6685 8.21474C51.58 9.02664 50.9378 9.67615 50.1185 9.76474Z" fill="url(#paint10_linear_4_1983)"/>
<path d="M52.1923 9.89033C52.6721 10.4956 56.3404 10.0232 56.3404 10.0232C56.3552 10.0232 56.3552 10.001 56.3404 9.99366L54.0671 9.75747C53.2478 9.6689 52.5983 9.01938 52.5171 8.20009L52.1333 4.25866L52.1111 4.2439C52.1111 4.2439 51.6757 9.23342 52.1923 9.89033Z" fill="url(#paint11_linear_4_1983)"/>
<path d="M50.1184 10.2593C50.9377 10.3404 51.5873 10.9974 51.6684 11.8166L51.9415 14.5328C51.9415 14.5328 52.0301 10.8645 51.2182 10.3331C50.5834 9.91974 50.768 10.3183 47.8599 10.0231L50.1184 10.2593Z" fill="url(#paint12_linear_4_1983)"/>
<path d="M52.3772 11.403C52.2 13.5582 52.1262 14.6064 52.0007 15.1821L52.0819 16.0235C52.0819 16.0382 52.1041 16.0382 52.1115 16.0235L52.5174 11.8163C52.5986 10.9971 53.2481 10.3402 54.0674 10.259L55.5657 10.104C53.8238 9.89729 52.4805 10.163 52.3772 11.403Z" fill="url(#paint13_linear_4_1983)"/>
<path d="M52.1115 3.99292L52.5174 8.20006C52.5986 9.01935 53.2481 9.67625 54.0674 9.75745L56.3407 9.99363C56.3407 9.99363 54.4512 9.8903 54.0526 9.8903C53.6541 9.8903 52.4879 9.65411 52.3772 8.20745C52.2665 6.75339 52.1115 3.99292 52.1115 3.99292Z" fill="url(#paint14_linear_4_1983)"/>
<path d="M52.0819 3.99292L51.676 8.20006C51.5948 9.01935 50.9453 9.67625 50.126 9.75745L47.8527 9.99363C47.8527 9.99363 49.7422 9.8903 50.1407 9.8903C50.5393 9.8903 51.7055 9.65411 51.8162 8.20745C51.9269 6.75339 52.0819 3.99292 52.0819 3.99292Z" fill="url(#paint15_linear_4_1983)"/>
<path d="M71.8481 11.9281C72.8793 11.9281 73.7154 11.0921 73.7154 10.0607C73.7154 9.02942 72.8793 8.19336 71.8481 8.19336C70.8167 8.19336 69.9807 9.02942 69.9807 10.0607C69.9807 11.0921 70.8167 11.9281 71.8481 11.9281Z" fill="url(#paint16_radial_4_1983)"/>
<path d="M73.3908 10.2009L75.1475 10.0681C75.1622 10.0681 75.1622 10.0533 75.1475 10.0533L73.3908 9.92044C72.7561 9.86878 72.2468 9.49235 72.1877 9.0126L71.8629 6.55474C71.8629 6.54735 71.8408 6.54735 71.8408 6.55474L71.5235 9.00521C71.4643 9.48497 70.9552 9.86878 70.3203 9.91307L68.5563 10.0533C68.5415 10.0533 68.5415 10.0681 68.5563 10.0681L70.3203 10.2083C70.9625 10.26 71.4643 10.6364 71.5235 11.1162L71.8408 13.5667C71.8408 13.574 71.8629 13.574 71.8629 13.5667L72.1877 11.1088C72.2468 10.629 72.7561 10.2526 73.3908 10.2009Z" fill="url(#paint17_linear_4_1983)"/>
<path d="M71.7818 10.1271C71.4053 9.77282 68.5563 10.0459 68.5563 10.0459C68.5415 10.0459 68.5415 10.0607 68.5563 10.0607L70.3203 10.2009C70.9625 10.2526 71.4643 10.629 71.5235 11.1088L71.8186 13.4042L71.8408 13.4116C71.8408 13.419 72.1803 10.5109 71.7818 10.1271Z" fill="url(#paint18_linear_4_1983)"/>
<path d="M70.3129 10.2013C70.9477 10.253 71.457 10.6294 71.516 11.1092L71.7227 12.6961C71.7227 12.6961 71.7891 10.5556 71.1617 10.2456C70.6672 10.0021 70.8149 10.2382 68.5563 10.0685L70.3129 10.2013Z" fill="url(#paint19_linear_4_1983)"/>
<path d="M71.6342 9.24878C71.767 7.99401 71.8335 7.3814 71.9294 7.04926L71.8629 6.55474C71.8629 6.54735 71.8408 6.54735 71.8408 6.55474L71.5235 9.00521C71.4644 9.48497 70.9551 9.86878 70.3203 9.91307L69.1542 10.0016C70.5049 10.1197 71.5529 9.97211 71.6342 9.24878Z" fill="url(#paint20_linear_4_1983)"/>
<path d="M71.8407 13.5671L71.5234 11.1166C71.4643 10.6368 70.955 10.253 70.3203 10.2087L68.5563 10.0685C68.5563 10.0685 70.025 10.1275 70.335 10.1275C70.645 10.1275 71.5529 10.2604 71.6341 11.1092C71.7153 11.958 71.8407 13.5671 71.8407 13.5671Z" fill="url(#paint21_linear_4_1983)"/>
<path d="M71.8629 13.5671L72.1804 11.1166C72.2394 10.6368 72.7487 10.253 73.3835 10.2087L75.1475 10.0685C75.1475 10.0685 73.6787 10.1275 73.3687 10.1275C73.0587 10.1275 72.1508 10.2604 72.0697 11.1092C71.9811 11.958 71.8629 13.5671 71.8629 13.5671Z" fill="url(#paint22_linear_4_1983)"/>
<path opacity="0.5" d="M57.7504 21.5376C57.0714 22.2166 55.979 22.2166 55.2999 21.5376C55.979 22.2166 55.979 23.309 55.2999 23.9881C55.979 23.309 57.0714 23.309 57.7504 23.9881C57.0714 23.309 57.0714 22.2166 57.7504 21.5376Z" fill="#FCCE38"/>
<path d="M56.5251 24.4232C57.4423 24.4232 58.1858 23.6797 58.1858 22.7625C58.1858 21.8453 57.4423 21.1018 56.5251 21.1018C55.6079 21.1018 54.8644 21.8453 54.8644 22.7625C54.8644 23.6797 55.6079 24.4232 56.5251 24.4232Z" fill="url(#paint23_radial_4_1983)"/>
<path d="M55.1595 22.5929L53.6021 22.7553C53.5874 22.7553 53.5874 22.77 53.6021 22.7774L55.1595 22.9398C55.7278 22.9988 56.1707 23.4491 56.2298 24.0174L56.5176 26.9256C56.5176 26.9403 56.5324 26.9403 56.5398 26.9256L56.8202 24.0174C56.8719 23.4491 57.3221 22.9988 57.8905 22.9398L59.4553 22.7774C59.47 22.7774 59.47 22.7627 59.4553 22.7553L57.8905 22.5929C57.3221 22.5338 56.8719 22.0836 56.8202 21.5153L56.5398 18.6071C56.5398 18.5924 56.525 18.5924 56.5176 18.6071L56.2298 21.5153C56.1707 22.0836 55.7205 22.5338 55.1595 22.5929Z" fill="url(#paint24_linear_4_1983)"/>
<path d="M56.5912 22.6743C56.9234 23.095 59.4551 22.7702 59.4551 22.7702C59.4698 22.7702 59.4698 22.7554 59.4551 22.7481L57.8903 22.5857C57.3219 22.5267 56.8717 22.0764 56.82 21.5081L56.5543 18.7845L56.5396 18.7771C56.5322 18.7845 56.2369 22.2314 56.5912 22.6743Z" fill="url(#paint25_linear_4_1983)"/>
<path d="M55.1596 22.9324C55.7279 22.9914 56.1708 23.4417 56.2298 24.01L56.4144 25.8847C56.4144 25.8847 56.4734 23.3531 55.9125 22.984C55.477 22.6963 55.6025 22.9693 53.5948 22.77L55.1596 22.9324Z" fill="url(#paint26_linear_4_1983)"/>
<path d="M56.7168 23.7221C56.5987 25.213 56.5397 25.9364 56.4585 26.335L56.5176 26.918C56.5176 26.9327 56.5323 26.9327 56.5397 26.918L56.8202 24.01C56.8718 23.4416 57.3221 22.9914 57.8904 22.9323L58.9311 22.8216C57.7206 22.6887 56.7906 22.8659 56.7168 23.7221Z" fill="url(#paint27_linear_4_1983)"/>
<path d="M56.5323 18.6068L56.8128 21.5149C56.8645 22.0832 57.3147 22.5335 57.8831 22.5925L59.4478 22.7549C59.4478 22.7549 58.1414 22.6885 57.8683 22.6885C57.5952 22.6885 56.7907 22.5261 56.7169 21.5222C56.6431 20.5111 56.5323 18.6068 56.5323 18.6068Z" fill="url(#paint28_linear_4_1983)"/>
<path d="M56.5175 18.6068L56.2371 21.5149C56.1854 22.0832 55.7351 22.5335 55.1668 22.5925L53.6021 22.7549C53.6021 22.7549 54.9085 22.6885 55.1816 22.6885C55.4547 22.6885 56.2592 22.5261 56.333 21.5222C56.4068 20.5111 56.5175 18.6068 56.5175 18.6068Z" fill="url(#paint29_linear_4_1983)"/>
<path opacity="0.5" d="M27.243 28.6652C26.4754 29.4328 25.228 29.4328 24.453 28.6652C25.2206 29.4328 25.2206 30.6802 24.453 31.4552C25.2206 30.6875 26.468 30.6875 27.243 31.4552C26.4754 30.6802 26.4754 29.4328 27.243 28.6652Z" fill="#FCCE38"/>
<path d="M20.9621 31.6471C18.8362 33.7728 15.3894 33.7728 13.2562 31.6471C15.3821 33.7728 15.3821 37.2197 13.2562 39.3528C15.3821 37.2271 18.8289 37.2271 20.9621 39.3528C18.8289 37.2271 18.8289 33.7728 20.9621 31.6471Z" fill="#FCCE38"/>
<path d="M20.9618 39.353C18.8361 41.4787 15.3892 41.4787 13.2635 39.353C11.1377 37.2271 11.1377 33.7803 13.2635 31.6546C15.3892 29.5289 18.8361 29.5289 20.9618 31.6546C23.0875 33.773 23.0875 37.2198 20.9618 39.353Z" fill="url(#paint30_radial_4_1983)"/>
<path d="M21.5965 36.0612L26.7115 35.5297C26.7484 35.5223 26.7484 35.4707 26.7115 35.4707L21.5965 34.9393C19.7365 34.7473 18.2677 33.2712 18.0832 31.4185L17.1384 21.875C17.1311 21.8381 17.0793 21.8381 17.0793 21.875L16.1568 31.4038C15.9796 33.2712 14.5108 34.7473 12.6434 34.9393L7.49887 35.4707C7.46197 35.478 7.46197 35.5297 7.49887 35.5297L12.6434 36.0612C14.5034 36.253 15.9722 37.7293 16.1568 39.5966L17.0793 49.1254C17.0793 49.1623 17.1384 49.1623 17.1384 49.1254L18.0832 39.5819C18.2751 37.7219 19.7439 36.253 21.5965 36.0612Z" fill="url(#paint31_linear_4_1983)"/>
<path d="M16.9022 35.7806C15.8098 34.4003 7.49887 35.4706 7.49887 35.4706C7.46197 35.4779 7.46197 35.5296 7.49887 35.5296L12.6434 36.061C14.5034 36.2529 15.9722 37.729 16.1568 39.5964L17.0202 48.5274L17.0793 48.5569C17.0793 48.5569 18.0684 37.2493 16.9022 35.7806Z" fill="url(#paint32_linear_4_1983)"/>
<path d="M21.5967 34.9388C19.7367 34.7469 18.2678 33.2708 18.0834 31.4181L17.4707 25.255C17.4707 25.255 17.2788 33.5659 19.1093 34.7691C20.5486 35.7138 20.1205 34.8059 26.7117 35.4702L21.5967 34.9388Z" fill="url(#paint33_linear_4_1983)"/>
<path d="M16.4743 32.341C16.8729 27.4548 17.05 25.0781 17.3305 23.7791L17.1386 21.8674C17.1312 21.8305 17.0796 21.8305 17.0796 21.8674L16.1569 31.3962C15.9797 33.2636 14.511 34.7398 12.6436 34.9317L9.24097 35.286C13.1972 35.7436 16.2455 35.1532 16.4743 32.341Z" fill="url(#paint34_linear_4_1983)"/>
<path d="M17.0792 49.1254L16.1565 39.5965C15.9793 37.7291 14.5106 36.2529 12.6432 36.0611L7.49866 35.5295C7.49866 35.5295 11.7796 35.7584 12.6801 35.7584C13.5806 35.7584 16.2229 36.2898 16.4665 39.5818C16.71 42.8737 17.0792 49.1254 17.0792 49.1254Z" fill="url(#paint35_linear_4_1983)"/>
<path d="M17.1385 49.1254L18.0611 39.5965C18.2383 37.7291 19.707 36.2529 21.5744 36.0611L26.719 35.5295C26.719 35.5295 22.438 35.7584 21.5376 35.7584C20.637 35.7584 17.9947 36.2898 17.7511 39.5818C17.5076 42.8737 17.1385 49.1254 17.1385 49.1254Z" fill="url(#paint36_linear_4_1983)"/>
<path opacity="0.5" d="M7.86818 28.2369C6.88651 29.2186 5.29961 29.2186 4.32532 28.2369C5.30698 29.2186 5.30698 30.8055 4.32532 31.7798C5.30698 30.7981 6.89389 30.7981 7.86818 31.7798C6.89389 30.8055 6.89389 29.2186 7.86818 28.2369Z" fill="#FCCE38"/>
<path d="M6.09673 32.4142C7.42564 32.4142 8.50293 31.3369 8.50293 30.008C8.50293 28.6791 7.42564 27.6018 6.09673 27.6018C4.76784 27.6018 3.69055 28.6791 3.69055 30.008C3.69055 31.3369 4.76784 32.4142 6.09673 32.4142Z" fill="url(#paint37_radial_4_1983)"/>
<path d="M4.11852 29.7647L1.85995 30.0009C1.84519 30.0009 1.84519 30.0231 1.85995 30.0304L4.11852 30.2666C4.93781 30.3478 5.58733 31.0047 5.66852 31.824L6.08923 36.0311C6.08923 36.046 6.11138 36.046 6.11876 36.0311L6.52471 31.824C6.6059 31.0047 7.25542 30.3478 8.07471 30.2666L10.348 30.0304C10.3628 30.0304 10.3628 30.0083 10.348 30.0009L8.07471 29.7647C7.25542 29.6762 6.6059 29.0266 6.52471 28.2073L6.11876 24.0002C6.11876 23.9854 6.09662 23.9854 6.08923 24.0002L5.66852 28.2147C5.57995 29.0266 4.93781 29.6762 4.11852 29.7647Z" fill="url(#paint38_linear_4_1983)"/>
<path d="M6.19233 29.8903C6.67208 30.4956 10.3404 30.0232 10.3404 30.0232C10.3552 30.0232 10.3552 30.001 10.3404 29.9937L8.06708 29.7575C7.2478 29.6689 6.59827 29.0194 6.51708 28.2001L6.13327 24.2587L6.11113 24.2439C6.11113 24.2439 5.67566 29.2334 6.19233 29.8903Z" fill="url(#paint39_linear_4_1983)"/>
<path d="M4.11843 30.2593C4.93772 30.3404 5.58725 30.9974 5.66843 31.8166L5.94153 34.5328C5.94153 34.5328 6.0301 30.8645 5.2182 30.3331C4.58343 29.9197 4.76796 30.3183 1.85986 30.0231L4.11843 30.2593Z" fill="url(#paint40_linear_4_1983)"/>
<path d="M6.37716 31.403C6.20002 33.5582 6.1262 34.6064 6.00073 35.1821L6.08193 36.0235C6.08193 36.0382 6.10407 36.0382 6.11145 36.0235L6.5174 31.8163C6.59859 30.9971 7.24812 30.3402 8.0674 30.259L9.56573 30.104C7.82383 29.8973 6.4805 30.163 6.37716 31.403Z" fill="url(#paint41_linear_4_1983)"/>
<path d="M6.11145 23.9929L6.5174 28.2001C6.59859 29.0194 7.2481 29.6763 8.0674 29.7574L10.3407 29.9936C10.3407 29.9936 8.4512 29.8903 8.05263 29.8903C7.65406 29.8903 6.48787 29.6541 6.37716 28.2074C6.26645 26.7534 6.11145 23.9929 6.11145 23.9929Z" fill="url(#paint42_linear_4_1983)"/>
<path d="M6.08194 23.9929L5.67599 28.2001C5.5948 29.0194 4.94527 29.6763 4.12599 29.7574L1.85266 29.9936C1.85266 29.9936 3.74218 29.8903 4.14075 29.8903C4.53933 29.8903 5.70551 29.6541 5.81623 28.2074C5.92694 26.7534 6.08194 23.9929 6.08194 23.9929Z" fill="url(#paint43_linear_4_1983)"/>
<path d="M25.8481 31.9281C26.8793 31.9281 27.7154 31.0921 27.7154 30.0607C27.7154 29.0294 26.8793 28.1934 25.8481 28.1934C24.8167 28.1934 23.9807 29.0294 23.9807 30.0607C23.9807 31.0921 24.8167 31.9281 25.8481 31.9281Z" fill="url(#paint44_radial_4_1983)"/>
<path d="M27.3908 30.2009L29.1475 30.0681C29.1622 30.0681 29.1622 30.0533 29.1475 30.0533L27.3908 29.9204C26.7561 29.8688 26.2468 29.4923 26.1876 29.0126L25.8629 26.5547C25.8629 26.5473 25.8408 26.5473 25.8408 26.5547L25.5234 29.0052C25.4643 29.485 24.9551 29.8688 24.3202 29.9131L22.5562 30.0533C22.5415 30.0533 22.5415 30.0681 22.5562 30.0681L24.3202 30.2083C24.9625 30.26 25.4643 30.6364 25.5234 31.1162L25.8408 33.5667C25.8408 33.574 25.8629 33.574 25.8629 33.5667L26.1876 31.1088C26.2468 30.629 26.7561 30.2526 27.3908 30.2009Z" fill="url(#paint45_linear_4_1983)"/>
<path d="M25.7818 30.1271C25.4052 29.7728 22.5562 30.0459 22.5562 30.0459C22.5415 30.0459 22.5415 30.0607 22.5562 30.0607L24.3202 30.2009C24.9625 30.2526 25.4643 30.629 25.5234 31.1088L25.8186 33.4042L25.8408 33.4116C25.8408 33.419 26.1802 30.5109 25.7818 30.1271Z" fill="url(#paint46_linear_4_1983)"/>
<path d="M24.3129 30.2013C24.9477 30.253 25.457 30.6294 25.516 31.1092L25.7227 32.6961C25.7227 32.6961 25.7891 30.5556 25.1617 30.2456C24.6672 30.0021 24.8149 30.2382 22.5563 30.0685L24.3129 30.2013Z" fill="url(#paint47_linear_4_1983)"/>
<path d="M25.6342 29.2488C25.767 27.994 25.8335 27.3814 25.9294 27.0493L25.8629 26.5547C25.8629 26.5473 25.8408 26.5473 25.8408 26.5547L25.5235 29.0052C25.4644 29.485 24.9551 29.8688 24.3203 29.9131L23.1542 30.0016C24.5049 30.1197 25.5529 29.9721 25.6342 29.2488Z" fill="url(#paint48_linear_4_1983)"/>
<path d="M25.8407 33.5671L25.5234 31.1166C25.4643 30.6368 24.955 30.253 24.3203 30.2087L22.5563 30.0685C22.5563 30.0685 24.025 30.1275 24.335 30.1275C24.645 30.1275 25.5529 30.2604 25.6341 31.1092C25.7153 31.958 25.8407 33.5671 25.8407 33.5671Z" fill="url(#paint49_linear_4_1983)"/>
<path d="M25.8629 33.5671L26.1804 31.1166C26.2394 30.6368 26.7487 30.253 27.3835 30.2087L29.1475 30.0685C29.1475 30.0685 27.6787 30.1275 27.3687 30.1275C27.0587 30.1275 26.1508 30.2604 26.0697 31.1092C25.9811 31.958 25.8629 33.5671 25.8629 33.5671Z" fill="url(#paint50_linear_4_1983)"/>
<path opacity="0.5" d="M11.7504 41.5376C11.0714 42.2166 9.97897 42.2166 9.29993 41.5376C9.97897 42.2166 9.97897 43.309 9.29993 43.9881C9.97897 43.309 11.0714 43.309 11.7504 43.9881C11.0714 43.309 11.0714 42.2166 11.7504 41.5376Z" fill="#FCCE38"/>
<path d="M10.5251 44.4232C11.4423 44.4232 12.1858 43.6797 12.1858 42.7625C12.1858 41.8453 11.4423 41.1018 10.5251 41.1018C9.60791 41.1018 8.86438 41.8453 8.86438 42.7625C8.86438 43.6797 9.60791 44.4232 10.5251 44.4232Z" fill="url(#paint51_radial_4_1983)"/>
<path d="M9.15952 42.5929L7.60213 42.7553C7.58738 42.7553 7.58738 42.77 7.60213 42.7774L9.15952 42.9398C9.72785 42.9988 10.1707 43.4491 10.2298 44.0174L10.5176 46.9256C10.5176 46.9403 10.5324 46.9403 10.5398 46.9256L10.8202 44.0174C10.8719 43.4491 11.3221 42.9988 11.8905 42.9398L13.4553 42.7774C13.47 42.7774 13.47 42.7627 13.4553 42.7553L11.8905 42.5929C11.3221 42.5338 10.8719 42.0836 10.8202 41.5153L10.5398 38.6071C10.5398 38.5924 10.525 38.5924 10.5176 38.6071L10.2298 41.5153C10.1707 42.0836 9.72046 42.5338 9.15952 42.5929Z" fill="url(#paint52_linear_4_1983)"/>
<path d="M10.5912 42.6743C10.9234 43.095 13.4551 42.7702 13.4551 42.7702C13.4698 42.7702 13.4698 42.7554 13.4551 42.7481L11.8903 42.5857C11.3219 42.5267 10.8717 42.0764 10.82 41.5081L10.5543 38.7845L10.5396 38.7771C10.5322 38.7845 10.2369 42.2314 10.5912 42.6743Z" fill="url(#paint53_linear_4_1983)"/>
<path d="M9.15961 42.9324C9.72795 42.9914 10.1708 43.4417 10.2298 44.01L10.4144 45.8847C10.4144 45.8847 10.4734 43.3531 9.91247 42.984C9.47699 42.6963 9.60247 42.9693 7.59485 42.77L9.15961 42.9324Z" fill="url(#paint54_linear_4_1983)"/>
<path d="M10.7168 43.7221C10.5987 45.213 10.5397 45.9364 10.4585 46.335L10.5176 46.918C10.5176 46.9327 10.5323 46.9327 10.5397 46.918L10.8202 44.01C10.8718 43.4416 11.3221 42.9914 11.8904 42.9323L12.9311 42.8216C11.7206 42.6887 10.7906 42.8659 10.7168 43.7221Z" fill="url(#paint55_linear_4_1983)"/>
<path d="M10.5323 38.6068L10.8128 41.5149C10.8645 42.0832 11.3147 42.5335 11.8831 42.5925L13.4478 42.7549C13.4478 42.7549 12.1414 42.6885 11.8683 42.6885C11.5952 42.6885 10.7907 42.5261 10.7169 41.5222C10.6431 40.5111 10.5323 38.6068 10.5323 38.6068Z" fill="url(#paint56_linear_4_1983)"/>
<path d="M10.5175 38.6068L10.2371 41.5149C10.1854 42.0832 9.73515 42.5335 9.16681 42.5925L7.60205 42.7549C7.60205 42.7549 8.90848 42.6885 9.18158 42.6885C9.45468 42.6885 10.2592 42.5261 10.333 41.5222C10.4068 40.5111 10.5175 38.6068 10.5175 38.6068Z" fill="url(#paint57_linear_4_1983)"/>
<defs>
<linearGradient id="paint0_linear_4_1983" x1="39" y1="0" x2="39" y2="60" gradientUnits="userSpaceOnUse">
<stop offset="0.165" stop-color="#FFACCF"/>
<stop offset="0.79" stop-color="#C04578"/>
</linearGradient>
<linearGradient id="paint1_linear_4_1983" x1="39" y1="44" x2="39" y2="60" gradientUnits="userSpaceOnUse">
<stop stop-color="#FC77AE"/>
<stop offset="1" stop-color="#AF0049"/>
</linearGradient>
<radialGradient id="paint2_radial_4_1983" cx="0" cy="0" r="1" gradientUnits="userSpaceOnUse" gradientTransform="translate(63.1107 15.4964) rotate(45.0009) scale(5.44543 5.44558)">
<stop stop-color="#FFBC47"/>
<stop offset="0.2588" stop-color="#FEC14D" stop-opacity="0.7412"/>
<stop offset="0.6207" stop-color="#FDCD60" stop-opacity="0.3793"/>
<stop offset="1" stop-color="#FBE07A" stop-opacity="0"/>
</radialGradient>
<linearGradient id="paint3_linear_4_1983" x1="63.9044" y1="18.8646" x2="59.4315" y2="-0.020655" gradientUnits="userSpaceOnUse">
<stop stop-color="#FCCE38"/>
<stop offset="0.2151" stop-color="#FCD44F"/>
<stop offset="0.5049" stop-color="#FBDB67"/>
<stop offset="0.774" stop-color="#FBDF75"/>
<stop offset="1" stop-color="#FBE07A"/>
</linearGradient>
<linearGradient id="paint4_linear_4_1983" x1="60.9814" y1="21.7422" x2="68.6225" y2="20.9967" gradientUnits="userSpaceOnUse">
<stop stop-color="#FCCE38"/>
<stop offset="0.2151" stop-color="#FCD44F"/>
<stop offset="0.5049" stop-color="#FBDB67"/>
<stop offset="0.774" stop-color="#FBDF75"/>
<stop offset="1" stop-color="#FBE07A"/>
</linearGradient>
<linearGradient id="paint5_linear_4_1983" x1="69.2779" y1="5.9586" x2="63.894" y2="26.0035" gradientUnits="userSpaceOnUse">
<stop stop-color="#FCCE38"/>
<stop offset="0.3638" stop-color="#FCCE38"/>
<stop offset="1" stop-color="#C86F34"/>
</linearGradient>
<linearGradient id="paint6_linear_4_1983" x1="57.7024" y1="7.63447" x2="66.9897" y2="13.5051" gradientUnits="userSpaceOnUse">
<stop stop-color="#FCCE38"/>
<stop offset="0.2151" stop-color="#FCD44F"/>
<stop offset="0.5049" stop-color="#FBDB67"/>
<stop offset="0.774" stop-color="#FBDF75"/>
<stop offset="1" stop-color="#FBE07A"/>
</linearGradient>
<linearGradient id="paint7_linear_4_1983" x1="57.8184" y1="24.8525" x2="60.6347" y2="9.73599" gradientUnits="userSpaceOnUse">
<stop stop-color="#FCCE38"/>
<stop offset="0.00850916" stop-color="#FCCD38"/>
<stop offset="0.3748" stop-color="#FBB53A"/>
<stop offset="0.7145" stop-color="#FBA73B"/>
<stop offset="1" stop-color="#FBA23B"/>
</linearGradient>
<linearGradient id="paint8_linear_4_1983" x1="66.5598" y1="19.3844" x2="62.3769" y2="10.3973" gradientUnits="userSpaceOnUse">
<stop stop-color="#FCCE38"/>
<stop offset="0.00850916" stop-color="#FCCD38"/>
<stop offset="0.3748" stop-color="#FBB53A"/>
<stop offset="0.7145" stop-color="#FBA73B"/>
<stop offset="1" stop-color="#FBA23B"/>
</linearGradient>
<radialGradient id="paint9_radial_4_1983" cx="0" cy="0" r="1" gradientUnits="userSpaceOnUse" gradientTransform="translate(52.0975 10.0093) rotate(-134.999) scale(2.40299)">
<stop stop-color="#FFBC47"/>
<stop offset="0.2588" stop-color="#FEC14D" stop-opacity="0.7412"/>
<stop offset="0.6207" stop-color="#FDCD60" stop-opacity="0.3793"/>
<stop offset="1" stop-color="#FBE07A" stop-opacity="0"/>
</radialGradient>
<linearGradient id="paint10_linear_4_1983" x1="51.746" y1="8.52459" x2="53.7198" y2="16.8584" gradientUnits="userSpaceOnUse">
<stop stop-color="#FCCE38"/>
<stop offset="0.2151" stop-color="#FCD44F"/>
<stop offset="0.5049" stop-color="#FBDB67"/>
<stop offset="0.774" stop-color="#FBDF75"/>
<stop offset="1" stop-color="#FBE07A"/>
</linearGradient>
<linearGradient id="paint11_linear_4_1983" x1="53.0356" y1="7.2548" x2="49.6637" y2="7.58377" gradientUnits="userSpaceOnUse">
<stop stop-color="#FCCE38"/>
<stop offset="0.2151" stop-color="#FCD44F"/>
<stop offset="0.5049" stop-color="#FBDB67"/>
<stop offset="0.774" stop-color="#FBDF75"/>
<stop offset="1" stop-color="#FBE07A"/>
</linearGradient>
<linearGradient id="paint12_linear_4_1983" x1="49.3747" y1="14.2197" x2="51.7506" y2="5.37408" gradientUnits="userSpaceOnUse">
<stop stop-color="#FCCE38"/>
<stop offset="0.3638" stop-color="#FCCE38"/>
<stop offset="1" stop-color="#C86F34"/>
</linearGradient>
<linearGradient id="paint13_linear_4_1983" x1="54.483" y1="13.4799" x2="50.3846" y2="10.8893" gradientUnits="userSpaceOnUse">
<stop stop-color="#FCCE38"/>
<stop offset="0.2151" stop-color="#FCD44F"/>
<stop offset="0.5049" stop-color="#FBDB67"/>
<stop offset="0.774" stop-color="#FBDF75"/>
<stop offset="1" stop-color="#FBE07A"/>
</linearGradient>
<linearGradient id="paint14_linear_4_1983" x1="54.4316" y1="5.88224" x2="53.1888" y2="12.553" gradientUnits="userSpaceOnUse">
<stop stop-color="#FCCE38"/>
<stop offset="0.00850916" stop-color="#FCCD38"/>
<stop offset="0.3748" stop-color="#FBB53A"/>
<stop offset="0.7145" stop-color="#FBA73B"/>
<stop offset="1" stop-color="#FBA23B"/>
</linearGradient>
<linearGradient id="paint15_linear_4_1983" x1="50.5743" y1="8.29525" x2="52.4202" y2="12.2612" gradientUnits="userSpaceOnUse">
<stop stop-color="#FCCE38"/>
<stop offset="0.00850916" stop-color="#FCCD38"/>
<stop offset="0.3748" stop-color="#FBB53A"/>
<stop offset="0.7145" stop-color="#FBA73B"/>
<stop offset="1" stop-color="#FBA23B"/>
</linearGradient>
<radialGradient id="paint16_radial_4_1983" cx="0" cy="0" r="1" gradientUnits="userSpaceOnUse" gradientTransform="translate(71.8521 10.057) rotate(45.0017) scale(1.86718)">
<stop stop-color="#FFBC47"/>
<stop offset="0.2588" stop-color="#FEC14D" stop-opacity="0.7412"/>
<stop offset="0.6207" stop-color="#FDCD60" stop-opacity="0.3793"/>
<stop offset="1" stop-color="#FBE07A" stop-opacity="0"/>
</radialGradient>
<linearGradient id="paint17_linear_4_1983" x1="72.0557" y1="10.9242" x2="70.9048" y2="6.06509" gradientUnits="userSpaceOnUse">
<stop stop-color="#FCCE38"/>
<stop offset="0.2151" stop-color="#FCD44F"/>
<stop offset="0.5049" stop-color="#FBDB67"/>
<stop offset="0.774" stop-color="#FBDF75"/>
<stop offset="1" stop-color="#FBE07A"/>
</linearGradient>
<linearGradient id="paint18_linear_4_1983" x1="71.0817" y1="11.6482" x2="73.717" y2="11.3911" gradientUnits="userSpaceOnUse">
<stop stop-color="#FCCE38"/>
<stop offset="0.2151" stop-color="#FCD44F"/>
<stop offset="0.5049" stop-color="#FBDB67"/>
<stop offset="0.774" stop-color="#FBDF75"/>
<stop offset="1" stop-color="#FBE07A"/>
</linearGradient>
<linearGradient id="paint19_linear_4_1983" x1="69.864" y1="12.4099" x2="71.2175" y2="7.3705" gradientUnits="userSpaceOnUse">
<stop stop-color="#FCCE38"/>
<stop offset="0.3638" stop-color="#FCCE38"/>
<stop offset="1" stop-color="#C86F34"/>
</linearGradient>
<linearGradient id="paint20_linear_4_1983" x1="69.9217" y1="7.90698" x2="72.9169" y2="9.80033" gradientUnits="userSpaceOnUse">
<stop stop-color="#FCCE38"/>
<stop offset="0.2151" stop-color="#FCD44F"/>
<stop offset="0.5049" stop-color="#FBDB67"/>
<stop offset="0.774" stop-color="#FBDF75"/>
<stop offset="1" stop-color="#FBE07A"/>
</linearGradient>
<linearGradient id="paint21_linear_4_1983" x1="70.0883" y1="12.406" x2="70.7999" y2="8.58672" gradientUnits="userSpaceOnUse">
<stop stop-color="#FCCE38"/>
<stop offset="0.00850916" stop-color="#FCCD38"/>
<stop offset="0.3748" stop-color="#FBB53A"/>
<stop offset="0.7145" stop-color="#FBA73B"/>
<stop offset="1" stop-color="#FBA23B"/>
</linearGradient>
<linearGradient id="paint22_linear_4_1983" x1="73.106" y1="10.9602" x2="72.0665" y2="8.72671" gradientUnits="userSpaceOnUse">
<stop stop-color="#FCCE38"/>
<stop offset="0.00850916" stop-color="#FCCD38"/>
<stop offset="0.3748" stop-color="#FBB53A"/>
<stop offset="0.7145" stop-color="#FBA73B"/>
<stop offset="1" stop-color="#FBA23B"/>
</linearGradient>
<radialGradient id="paint23_radial_4_1983" cx="0" cy="0" r="1" gradientUnits="userSpaceOnUse" gradientTransform="translate(56.5263 22.7625) rotate(-134.998) scale(1.65983)">
<stop stop-color="#FFBC47"/>
<stop offset="0.2588" stop-color="#FEC14D" stop-opacity="0.7412"/>
<stop offset="0.6207" stop-color="#FDCD60" stop-opacity="0.3793"/>
<stop offset="1" stop-color="#FBE07A" stop-opacity="0"/>
</radialGradient>
<linearGradient id="paint24_linear_4_1983" x1="56.2837" y1="21.7368" x2="57.647" y2="27.4931" gradientUnits="userSpaceOnUse">
<stop stop-color="#FCCE38"/>
<stop offset="0.2151" stop-color="#FCD44F"/>
<stop offset="0.5049" stop-color="#FBDB67"/>
<stop offset="0.774" stop-color="#FBDF75"/>
<stop offset="1" stop-color="#FBE07A"/>
</linearGradient>
<linearGradient id="paint25_linear_4_1983" x1="57.1744" y1="20.8598" x2="54.8454" y2="21.087" gradientUnits="userSpaceOnUse">
<stop stop-color="#FCCE38"/>
<stop offset="0.2151" stop-color="#FCD44F"/>
<stop offset="0.5049" stop-color="#FBDB67"/>
<stop offset="0.774" stop-color="#FBDF75"/>
<stop offset="1" stop-color="#FBE07A"/>
</linearGradient>
<linearGradient id="paint26_linear_4_1983" x1="54.6459" y1="25.6706" x2="56.287" y2="19.5606" gradientUnits="userSpaceOnUse">
<stop stop-color="#FCCE38"/>
<stop offset="0.3638" stop-color="#FCCE38"/>
<stop offset="1" stop-color="#C86F34"/>
</linearGradient>
<linearGradient id="paint27_linear_4_1983" x1="58.1741" y1="25.1597" x2="55.3432" y2="23.3703" gradientUnits="userSpaceOnUse">
<stop stop-color="#FCCE38"/>
<stop offset="0.2151" stop-color="#FCD44F"/>
<stop offset="0.5049" stop-color="#FBDB67"/>
<stop offset="0.774" stop-color="#FBDF75"/>
<stop offset="1" stop-color="#FBE07A"/>
</linearGradient>
<linearGradient id="paint28_linear_4_1983" x1="58.1386" y1="19.9111" x2="57.2802" y2="24.5189" gradientUnits="userSpaceOnUse">
<stop stop-color="#FCCE38"/>
<stop offset="0.00850916" stop-color="#FCCD38"/>
<stop offset="0.3748" stop-color="#FBB53A"/>
<stop offset="0.7145" stop-color="#FBA73B"/>
<stop offset="1" stop-color="#FBA23B"/>
</linearGradient>
<linearGradient id="paint29_linear_4_1983" x1="55.4742" y1="21.5779" x2="56.7492" y2="24.3173" gradientUnits="userSpaceOnUse">
<stop stop-color="#FCCE38"/>
<stop offset="0.00850916" stop-color="#FCCD38"/>
<stop offset="0.3748" stop-color="#FBB53A"/>
<stop offset="0.7145" stop-color="#FBA73B"/>
<stop offset="1" stop-color="#FBA23B"/>
</linearGradient>
<radialGradient id="paint30_radial_4_1983" cx="0" cy="0" r="1" gradientUnits="userSpaceOnUse" gradientTransform="translate(17.1107 35.4964) rotate(45.0009) scale(5.44543 5.44558)">
<stop stop-color="#FFBC47"/>
<stop offset="0.2588" stop-color="#FEC14D" stop-opacity="0.7412"/>
<stop offset="0.6207" stop-color="#FDCD60" stop-opacity="0.3793"/>
<stop offset="1" stop-color="#FBE07A" stop-opacity="0"/>
</radialGradient>
<linearGradient id="paint31_linear_4_1983" x1="17.9044" y1="38.8646" x2="13.4315" y2="19.9793" gradientUnits="userSpaceOnUse">
<stop stop-color="#FCCE38"/>
<stop offset="0.2151" stop-color="#FCD44F"/>
<stop offset="0.5049" stop-color="#FBDB67"/>
<stop offset="0.774" stop-color="#FBDF75"/>
<stop offset="1" stop-color="#FBE07A"/>
</linearGradient>
<linearGradient id="paint32_linear_4_1983" x1="14.9814" y1="41.7422" x2="22.6225" y2="40.9967" gradientUnits="userSpaceOnUse">
<stop stop-color="#FCCE38"/>
<stop offset="0.2151" stop-color="#FCD44F"/>
<stop offset="0.5049" stop-color="#FBDB67"/>
<stop offset="0.774" stop-color="#FBDF75"/>
<stop offset="1" stop-color="#FBE07A"/>
</linearGradient>
<linearGradient id="paint33_linear_4_1983" x1="23.2779" y1="25.9586" x2="17.894" y2="46.0035" gradientUnits="userSpaceOnUse">
<stop stop-color="#FCCE38"/>
<stop offset="0.3638" stop-color="#FCCE38"/>
<stop offset="1" stop-color="#C86F34"/>
</linearGradient>
<linearGradient id="paint34_linear_4_1983" x1="11.7024" y1="27.6345" x2="20.9897" y2="33.5051" gradientUnits="userSpaceOnUse">
<stop stop-color="#FCCE38"/>
<stop offset="0.2151" stop-color="#FCD44F"/>
<stop offset="0.5049" stop-color="#FBDB67"/>
<stop offset="0.774" stop-color="#FBDF75"/>
<stop offset="1" stop-color="#FBE07A"/>
</linearGradient>
<linearGradient id="paint35_linear_4_1983" x1="11.8184" y1="44.8525" x2="14.6347" y2="29.736" gradientUnits="userSpaceOnUse">
<stop stop-color="#FCCE38"/>
<stop offset="0.00850916" stop-color="#FCCD38"/>
<stop offset="0.3748" stop-color="#FBB53A"/>
<stop offset="0.7145" stop-color="#FBA73B"/>
<stop offset="1" stop-color="#FBA23B"/>
</linearGradient>
<linearGradient id="paint36_linear_4_1983" x1="20.5598" y1="39.3844" x2="16.3769" y2="30.3973" gradientUnits="userSpaceOnUse">
<stop stop-color="#FCCE38"/>
<stop offset="0.00850916" stop-color="#FCCD38"/>
<stop offset="0.3748" stop-color="#FBB53A"/>
<stop offset="0.7145" stop-color="#FBA73B"/>
<stop offset="1" stop-color="#FBA23B"/>
</linearGradient>
<radialGradient id="paint37_radial_4_1983" cx="0" cy="0" r="1" gradientUnits="userSpaceOnUse" gradientTransform="translate(6.09748 30.0093) rotate(-134.999) scale(2.40299)">
<stop stop-color="#FFBC47"/>
<stop offset="0.2588" stop-color="#FEC14D" stop-opacity="0.7412"/>
<stop offset="0.6207" stop-color="#FDCD60" stop-opacity="0.3793"/>
<stop offset="1" stop-color="#FBE07A" stop-opacity="0"/>
</radialGradient>
<linearGradient id="paint38_linear_4_1983" x1="5.74599" y1="28.5246" x2="7.7198" y2="36.8584" gradientUnits="userSpaceOnUse">
<stop stop-color="#FCCE38"/>
<stop offset="0.2151" stop-color="#FCD44F"/>
<stop offset="0.5049" stop-color="#FBDB67"/>
<stop offset="0.774" stop-color="#FBDF75"/>
<stop offset="1" stop-color="#FBE07A"/>
</linearGradient>
<linearGradient id="paint39_linear_4_1983" x1="7.03563" y1="27.2548" x2="3.66369" y2="27.5838" gradientUnits="userSpaceOnUse">
<stop stop-color="#FCCE38"/>
<stop offset="0.2151" stop-color="#FCD44F"/>
<stop offset="0.5049" stop-color="#FBDB67"/>
<stop offset="0.774" stop-color="#FBDF75"/>
<stop offset="1" stop-color="#FBE07A"/>
</linearGradient>
<linearGradient id="paint40_linear_4_1983" x1="3.37469" y1="34.2197" x2="5.75057" y2="25.3741" gradientUnits="userSpaceOnUse">
<stop stop-color="#FCCE38"/>
<stop offset="0.3638" stop-color="#FCCE38"/>
<stop offset="1" stop-color="#C86F34"/>
</linearGradient>
<linearGradient id="paint41_linear_4_1983" x1="8.48301" y1="33.4799" x2="4.3846" y2="30.8893" gradientUnits="userSpaceOnUse">
<stop stop-color="#FCCE38"/>
<stop offset="0.2151" stop-color="#FCD44F"/>
<stop offset="0.5049" stop-color="#FBDB67"/>
<stop offset="0.774" stop-color="#FBDF75"/>
<stop offset="1" stop-color="#FBE07A"/>
</linearGradient>
<linearGradient id="paint42_linear_4_1983" x1="8.43162" y1="25.8822" x2="7.18884" y2="32.553" gradientUnits="userSpaceOnUse">
<stop stop-color="#FCCE38"/>
<stop offset="0.00850916" stop-color="#FCCD38"/>
<stop offset="0.3748" stop-color="#FBB53A"/>
<stop offset="0.7145" stop-color="#FBA73B"/>
<stop offset="1" stop-color="#FBA23B"/>
</linearGradient>
<linearGradient id="paint43_linear_4_1983" x1="4.57432" y1="28.2953" x2="6.42021" y2="32.2612" gradientUnits="userSpaceOnUse">
<stop stop-color="#FCCE38"/>
<stop offset="0.00850916" stop-color="#FCCD38"/>
<stop offset="0.3748" stop-color="#FBB53A"/>
<stop offset="0.7145" stop-color="#FBA73B"/>
<stop offset="1" stop-color="#FBA23B"/>
</linearGradient>
<radialGradient id="paint44_radial_4_1983" cx="0" cy="0" r="1" gradientUnits="userSpaceOnUse" gradientTransform="translate(25.8521 30.057) rotate(45.0017) scale(1.86718)">
<stop stop-color="#FFBC47"/>
<stop offset="0.2588" stop-color="#FEC14D" stop-opacity="0.7412"/>
<stop offset="0.6207" stop-color="#FDCD60" stop-opacity="0.3793"/>
<stop offset="1" stop-color="#FBE07A" stop-opacity="0"/>
</radialGradient>
<linearGradient id="paint45_linear_4_1983" x1="26.0556" y1="30.9242" x2="24.9047" y2="26.0651" gradientUnits="userSpaceOnUse">
<stop stop-color="#FCCE38"/>
<stop offset="0.2151" stop-color="#FCD44F"/>
<stop offset="0.5049" stop-color="#FBDB67"/>
<stop offset="0.774" stop-color="#FBDF75"/>
<stop offset="1" stop-color="#FBE07A"/>
</linearGradient>
<linearGradient id="paint46_linear_4_1983" x1="25.0817" y1="31.6482" x2="27.7169" y2="31.3911" gradientUnits="userSpaceOnUse">
<stop stop-color="#FCCE38"/>
<stop offset="0.2151" stop-color="#FCD44F"/>
<stop offset="0.5049" stop-color="#FBDB67"/>
<stop offset="0.774" stop-color="#FBDF75"/>
<stop offset="1" stop-color="#FBE07A"/>
</linearGradient>
<linearGradient id="paint47_linear_4_1983" x1="23.864" y1="32.4099" x2="25.2175" y2="27.3705" gradientUnits="userSpaceOnUse">
<stop stop-color="#FCCE38"/>
<stop offset="0.3638" stop-color="#FCCE38"/>
<stop offset="1" stop-color="#C86F34"/>
</linearGradient>
<linearGradient id="paint48_linear_4_1983" x1="23.9217" y1="27.907" x2="26.9169" y2="29.8003" gradientUnits="userSpaceOnUse">
<stop stop-color="#FCCE38"/>
<stop offset="0.2151" stop-color="#FCD44F"/>
<stop offset="0.5049" stop-color="#FBDB67"/>
<stop offset="0.774" stop-color="#FBDF75"/>
<stop offset="1" stop-color="#FBE07A"/>
</linearGradient>
<linearGradient id="paint49_linear_4_1983" x1="24.0883" y1="32.406" x2="24.7999" y2="28.5867" gradientUnits="userSpaceOnUse">
<stop stop-color="#FCCE38"/>
<stop offset="0.00850916" stop-color="#FCCD38"/>
<stop offset="0.3748" stop-color="#FBB53A"/>
<stop offset="0.7145" stop-color="#FBA73B"/>
<stop offset="1" stop-color="#FBA23B"/>
</linearGradient>
<linearGradient id="paint50_linear_4_1983" x1="27.106" y1="30.9602" x2="26.0665" y2="28.7267" gradientUnits="userSpaceOnUse">
<stop stop-color="#FCCE38"/>
<stop offset="0.00850916" stop-color="#FCCD38"/>
<stop offset="0.3748" stop-color="#FBB53A"/>
<stop offset="0.7145" stop-color="#FBA73B"/>
<stop offset="1" stop-color="#FBA23B"/>
</linearGradient>
<radialGradient id="paint51_radial_4_1983" cx="0" cy="0" r="1" gradientUnits="userSpaceOnUse" gradientTransform="translate(10.5263 42.7625) rotate(-134.998) scale(1.65983)">
<stop stop-color="#FFBC47"/>
<stop offset="0.2588" stop-color="#FEC14D" stop-opacity="0.7412"/>
<stop offset="0.6207" stop-color="#FDCD60" stop-opacity="0.3793"/>
<stop offset="1" stop-color="#FBE07A" stop-opacity="0"/>
</radialGradient>
<linearGradient id="paint52_linear_4_1983" x1="10.2837" y1="41.7368" x2="11.647" y2="47.4931" gradientUnits="userSpaceOnUse">
<stop stop-color="#FCCE38"/>
<stop offset="0.2151" stop-color="#FCD44F"/>
<stop offset="0.5049" stop-color="#FBDB67"/>
<stop offset="0.774" stop-color="#FBDF75"/>
<stop offset="1" stop-color="#FBE07A"/>
</linearGradient>
<linearGradient id="paint53_linear_4_1983" x1="11.1744" y1="40.8598" x2="8.84535" y2="41.087" gradientUnits="userSpaceOnUse">
<stop stop-color="#FCCE38"/>
<stop offset="0.2151" stop-color="#FCD44F"/>
<stop offset="0.5049" stop-color="#FBDB67"/>
<stop offset="0.774" stop-color="#FBDF75"/>
<stop offset="1" stop-color="#FBE07A"/>
</linearGradient>
<linearGradient id="paint54_linear_4_1983" x1="8.6459" y1="45.6706" x2="10.287" y2="39.5606" gradientUnits="userSpaceOnUse">
<stop stop-color="#FCCE38"/>
<stop offset="0.3638" stop-color="#FCCE38"/>
<stop offset="1" stop-color="#C86F34"/>
</linearGradient>
<linearGradient id="paint55_linear_4_1983" x1="12.1741" y1="45.1597" x2="9.34321" y2="43.3703" gradientUnits="userSpaceOnUse">
<stop stop-color="#FCCE38"/>
<stop offset="0.2151" stop-color="#FCD44F"/>
<stop offset="0.5049" stop-color="#FBDB67"/>
<stop offset="0.774" stop-color="#FBDF75"/>
<stop offset="1" stop-color="#FBE07A"/>
</linearGradient>
<linearGradient id="paint56_linear_4_1983" x1="12.1386" y1="39.9111" x2="11.2802" y2="44.5189" gradientUnits="userSpaceOnUse">
<stop stop-color="#FCCE38"/>
<stop offset="0.00850916" stop-color="#FCCD38"/>
<stop offset="0.3748" stop-color="#FBB53A"/>
<stop offset="0.7145" stop-color="#FBA73B"/>
<stop offset="1" stop-color="#FBA23B"/>
</linearGradient>
<linearGradient id="paint57_linear_4_1983" x1="9.47422" y1="41.5779" x2="10.7492" y2="44.3173" gradientUnits="userSpaceOnUse">
<stop stop-color="#FCCE38"/>
<stop offset="0.00850916" stop-color="#FCCD38"/>
<stop offset="0.3748" stop-color="#FBB53A"/>
<stop offset="0.7145" stop-color="#FBA73B"/>
<stop offset="1" stop-color="#FBA23B"/>
</linearGradient>
<clipPath id="clip0_4_1983">
<rect width="40" height="40" fill="white" transform="translate(19 3)"/>
</clipPath>
</defs>
</svg>
