<svg width="70" height="60" viewBox="0 0 70 60" fill="none" xmlns="http://www.w3.org/2000/svg">
<circle cx="35" cy="30" r="30" fill="url(#paint0_linear_4_1987)"/>
<rect y="44" width="70" height="16" rx="8" fill="url(#paint1_linear_4_1987)"/>
<path d="M16.4244 48.75C17.3044 48.75 17.9644 48.8533 18.4044 49.06C18.8444 49.26 19.0644 49.5833 19.0644 50.03C19.0644 50.47 18.9277 50.8067 18.6544 51.04C18.3877 51.2667 18.081 51.38 17.7344 51.38C17.3877 51.38 17.0744 51.2933 16.7944 51.12C16.521 50.94 16.331 50.7033 16.2244 50.41C15.9777 50.41 15.741 50.4933 15.5144 50.66C15.2944 50.82 15.1544 51.03 15.0944 51.29C16.4144 51.61 17.361 51.9833 17.9344 52.41C18.5077 52.8367 18.7944 53.3833 18.7944 54.05C18.7944 54.7167 18.491 55.25 17.8844 55.65C17.2844 56.05 16.471 56.25 15.4444 56.25C14.4244 56.25 13.701 56.11 13.2744 55.83C12.8477 55.55 12.6344 55.18 12.6344 54.72C12.6344 54.26 12.7777 53.8367 13.0644 53.45C13.2044 53.75 13.471 54.02 13.8644 54.26C14.2644 54.5 14.6577 54.62 15.0444 54.62C15.7577 54.62 16.211 54.3933 16.4044 53.94C15.2977 53.7933 14.4544 53.4867 13.8744 53.02C13.2944 52.5467 13.0044 51.9767 13.0044 51.31C13.0044 50.8633 13.1244 50.4667 13.3644 50.12C13.6044 49.7667 13.911 49.4967 14.2844 49.31C15.0177 48.9367 15.731 48.75 16.4244 48.75ZM21.2991 56.25C20.7125 56.25 20.3025 56.1067 20.0691 55.82C19.8358 55.5333 19.7191 55.1733 19.7191 54.74C19.7191 54.3 19.7925 53.7 19.9391 52.94C20.0858 52.18 20.1591 51.63 20.1591 51.29C20.1591 50.95 20.0891 50.6833 19.9491 50.49C20.5691 50.1633 21.0925 50 21.5191 50C21.7925 50 21.9891 50.0567 22.1091 50.17C22.2358 50.2767 22.2991 50.4533 22.2991 50.7C22.2991 50.9467 22.1958 51.5533 21.9891 52.52C21.7891 53.48 21.6891 54.0733 21.6891 54.3C21.6891 54.5267 21.7525 54.7067 21.8791 54.84C22.0058 54.9667 22.1725 55.03 22.3791 55.03C22.5858 55.03 22.8058 54.95 23.0391 54.79C23.2725 54.6233 23.4625 54.39 23.6091 54.09C23.7025 53.55 23.8858 52.6967 24.1591 51.53L23.5591 50.73C24.2325 50.2433 24.8725 50 25.4791 50C25.7791 50 25.9925 50.0567 26.1191 50.17C26.2525 50.2767 26.3191 50.4433 26.3191 50.67C26.3191 50.89 26.1958 51.5267 25.9491 52.58C25.7091 53.6333 25.5891 54.3833 25.5891 54.83C25.5891 55.27 25.6925 55.58 25.8991 55.76C25.5258 56.0867 25.1325 56.25 24.7191 56.25C24.3125 56.25 24.0191 56.16 23.8391 55.98C23.6591 55.8 23.5691 55.5633 23.5691 55.27L23.4691 55.22C23.2491 55.54 22.9425 55.7933 22.5491 55.98C22.1625 56.16 21.7458 56.25 21.2991 56.25ZM28.2659 57.99C27.8525 57.99 27.5625 57.8867 27.3959 57.68C27.2359 57.48 27.1559 57.1867 27.1559 56.8C27.1559 56.42 27.2359 55.65 27.3959 54.49C27.5625 53.33 27.7225 52.34 27.8759 51.52L27.3159 50.72C27.7292 50.48 28.0859 50.3 28.3859 50.18C28.6859 50.0533 28.9825 49.99 29.2759 49.99C29.7559 49.99 29.9959 50.3067 29.9959 50.94C29.9959 51.0267 29.9825 51.2033 29.9559 51.47L30.0559 51.52C30.2492 51.04 30.5292 50.6667 30.8959 50.4C31.2625 50.1267 31.6925 49.99 32.1859 49.99C32.6859 49.99 33.0825 50.2167 33.3759 50.67C33.6692 51.1167 33.8159 51.6733 33.8159 52.34C33.8159 53.2333 33.5025 54.0467 32.8759 54.78C32.5692 55.14 32.1592 55.4333 31.6459 55.66C31.1325 55.88 30.5592 55.99 29.9259 55.99C29.7325 55.99 29.4792 55.9733 29.1659 55.94C29.1459 56.1733 29.1359 56.39 29.1359 56.59C29.1359 57.0167 29.2392 57.32 29.4459 57.5C29.0725 57.8267 28.6792 57.99 28.2659 57.99ZM29.5759 53.85L29.3459 55.01C30.1525 54.99 30.7959 54.7267 31.2759 54.22C31.7625 53.7067 32.0059 53.1467 32.0059 52.54C32.0059 52.2267 31.9425 51.9767 31.8159 51.79C31.6959 51.5967 31.5192 51.5 31.2859 51.5C30.4592 51.5 29.8892 52.2833 29.5759 53.85ZM35.8221 57.99C35.4088 57.99 35.1188 57.8867 34.9521 57.68C34.7921 57.48 34.7121 57.1867 34.7121 56.8C34.7121 56.42 34.7921 55.65 34.9521 54.49C35.1188 53.33 35.2788 52.34 35.4321 51.52L34.8721 50.72C35.2854 50.48 35.6421 50.3 35.9421 50.18C36.2421 50.0533 36.5388 49.99 36.8321 49.99C37.3121 49.99 37.5521 50.3067 37.5521 50.94C37.5521 51.0267 37.5388 51.2033 37.5121 51.47L37.6121 51.52C37.8054 51.04 38.0854 50.6667 38.4521 50.4C38.8188 50.1267 39.2488 49.99 39.7421 49.99C40.2421 49.99 40.6388 50.2167 40.9321 50.67C41.2254 51.1167 41.3721 51.6733 41.3721 52.34C41.3721 53.2333 41.0588 54.0467 40.4321 54.78C40.1254 55.14 39.7154 55.4333 39.2021 55.66C38.6888 55.88 38.1154 55.99 37.4821 55.99C37.2888 55.99 37.0354 55.9733 36.7221 55.94C36.7021 56.1733 36.6921 56.39 36.6921 56.59C36.6921 57.0167 36.7954 57.32 37.0021 57.5C36.6288 57.8267 36.2354 57.99 35.8221 57.99ZM37.1321 53.85L36.9021 55.01C37.7088 54.99 38.3521 54.7267 38.8321 54.22C39.3188 53.7067 39.5621 53.1467 39.5621 52.54C39.5621 52.2267 39.4988 51.9767 39.3721 51.79C39.2521 51.5967 39.0754 51.5 38.8421 51.5C38.0154 51.5 37.4454 52.2833 37.1321 53.85ZM47.0984 50.76C47.4717 50.76 47.7917 50.91 48.0584 51.21C48.3317 51.51 48.4684 51.9467 48.4684 52.52C48.4684 53.0867 48.3684 53.6133 48.1684 54.1C47.9684 54.58 47.705 54.9733 47.3784 55.28C47.0517 55.5867 46.6817 55.8267 46.2684 56C45.855 56.1667 45.4317 56.25 44.9984 56.25C44.125 56.25 43.435 56.01 42.9284 55.53C42.4217 55.05 42.1684 54.4133 42.1684 53.62C42.1684 52.5467 42.5117 51.6767 43.1984 51.01C43.8917 50.3367 44.7717 50 45.8384 50C46.0784 50 46.3184 50.0267 46.5584 50.08C46.6317 50.3 46.6717 50.55 46.6784 50.83C46.8184 50.7833 46.9584 50.76 47.0984 50.76ZM45.8684 52.15C45.8684 51.9633 45.9117 51.7533 45.9984 51.52C46.0917 51.2867 46.2384 51.1 46.4384 50.96C45.5584 51.1467 44.9517 51.5033 44.6184 52.03C44.3317 52.4833 44.1884 52.95 44.1884 53.43C44.1884 53.91 44.285 54.2967 44.4784 54.59C44.6784 54.8767 44.9317 55.02 45.2384 55.02C45.9184 55.02 46.3984 54.5767 46.6784 53.69C46.1384 53.3567 45.8684 52.8433 45.8684 52.15ZM49.3168 55.01C49.3168 54.7433 49.3835 54.2267 49.5168 53.46C49.6568 52.6933 49.8001 51.9933 49.9468 51.36L49.4268 50.56C50.2601 50.1867 50.8435 50 51.1768 50C51.5168 50 51.6868 50.2133 51.6868 50.64C51.6868 50.8733 51.5768 51.36 51.3568 52.1L51.4568 52.15C51.9368 50.7167 52.5335 50 53.2468 50C53.5735 50 53.8235 50.1 53.9968 50.3C54.1701 50.5 54.2568 50.7233 54.2568 50.97C54.2568 51.3367 54.1201 51.65 53.8468 51.91C53.5735 52.17 53.1635 52.3 52.6168 52.3C51.7901 52.3 51.3768 53.15 51.3768 54.85C51.3768 55.2633 51.4468 55.5667 51.5868 55.76C51.1735 56.0867 50.7935 56.25 50.4468 56.25C49.6935 56.25 49.3168 55.8367 49.3168 55.01ZM54.6298 52.39C54.5831 52.2033 54.5598 52.03 54.5598 51.87C54.5598 51.5433 54.6564 51.2967 54.8498 51.13C55.0431 50.9633 55.2931 50.88 55.5998 50.88C55.5998 50.5333 55.5098 50.1567 55.3298 49.75C55.6564 49.51 55.9531 49.33 56.2198 49.21C56.4931 49.0833 56.7798 49.02 57.0798 49.02C57.3798 49.02 57.5864 49.0767 57.6998 49.19C57.8198 49.2967 57.8798 49.4633 57.8798 49.69C57.8798 49.9167 57.8331 50.27 57.7398 50.75C58.0064 50.71 58.2764 50.6533 58.5498 50.58C58.5964 50.72 58.6198 50.9 58.6198 51.12C58.6198 51.34 58.5331 51.5467 58.3598 51.74C58.1931 51.9267 57.9464 52.02 57.6198 52.02H57.4698C57.2298 53.1067 57.1098 53.9433 57.1098 54.53C57.1098 55.1167 57.2131 55.5267 57.4198 55.76C57.0464 56.0867 56.6498 56.25 56.2298 56.25C55.8098 56.25 55.5064 56.1267 55.3198 55.88C55.1398 55.6267 55.0498 55.2367 55.0498 54.71C55.0498 54.39 55.1664 53.55 55.3998 52.19C55.1331 52.2367 54.8764 52.3033 54.6298 52.39Z" fill="white"/>
<g clip-path="url(#clip0_4_1987)">
<path d="M32.087 11.1307L34.9998 6.08557L37.9127 11.1307H32.087Z" fill="#F4CA60"/>
<path d="M43.3045 4.86865L38.7431 15.1756L37.7683 12.2475L35.0001 15.1756L32.2321 12.2475L31.2573 15.1756L26.6958 4.86865L23.6857 18.8102H46.3142L43.3045 4.86865Z" fill="#F4CA60"/>
<path d="M27.1244 23.8176C27.1244 25.9647 25.3821 27.707 23.2351 27.707C22.5462 27.707 21.8998 27.5268 21.3402 27.2131C20.1511 26.5497 19.3457 25.2759 19.3457 23.8176C19.3457 22.5459 19.9561 21.4161 20.9036 20.7062C21.5522 20.2186 22.3597 19.9282 23.2351 19.9282C25.3821 19.9282 27.1244 21.6705 27.1244 23.8176Z" fill="#E5CF98"/>
<path d="M50.6543 23.8176C50.6543 25.9647 48.912 27.707 46.7649 27.707C46.6059 27.707 46.4491 27.6964 46.2944 27.6773C44.3698 27.4462 42.8756 25.8058 42.8756 23.8176C42.8756 21.6705 44.6179 19.9282 46.765 19.9282C46.801 19.9282 46.8349 19.9282 46.8688 19.9303C48.9692 19.9854 50.6543 21.7065 50.6543 23.8176Z" fill="#E5CF98"/>
<path d="M37.8974 33.8798V36.1154C37.8974 36.277 37.8842 36.436 37.8588 36.5906C37.8078 36.9033 37.7059 37.1994 37.561 37.4699C37.0778 38.3835 36.1151 39.0081 35.0065 39.0081C33.8961 39.0081 32.9351 38.3835 32.4502 37.4699C32.3061 37.2003 32.2042 36.906 32.1524 36.5941C32.1269 36.4386 32.1138 36.2788 32.1138 36.1154V33.8798H37.8974Z" fill="#FCE7A7"/>
<path d="M37.8974 33.8798V36.1154C37.8974 36.277 37.8842 36.436 37.8588 36.5906C36.9434 36.8181 35.9859 36.9385 35.0003 36.9385C34.0182 36.9385 33.0651 36.819 32.1524 36.5941C32.1269 36.4386 32.1138 36.2788 32.1138 36.1154V33.8798H37.8974Z" fill="#E5CF98"/>
<path d="M46.8381 20.2174V24.2231C46.8381 26.2944 46.3049 28.2419 45.3703 29.9355C43.3551 33.5863 39.4672 36.06 35.0003 36.06C30.5326 36.06 26.6446 33.5863 24.6295 29.9355C23.6948 28.2419 23.1616 26.2944 23.1616 24.2231V20.2174C23.1616 18.9586 23.3584 18.2784 23.7221 17.1408C24.3141 15.2917 25.3472 14.3052 26.6991 12.977C27.3667 12.32 28.1107 11.742 28.918 11.2571C30.1663 10.5086 31.5639 9.98333 33.0563 9.73737C33.6888 9.63283 34.338 9.57837 35.0003 9.57837C35.6864 9.57837 36.3584 9.63635 37.0128 9.74879C38.5167 10.0062 39.924 10.5473 41.1766 11.3159C41.9698 11.8008 42.7007 12.3779 43.3551 13.0298L43.371 13.0456C44.7448 14.4194 45.7831 15.4639 46.3506 17.3771C46.6677 18.4453 46.8381 19.0456 46.8381 20.2174Z" fill="#FCE7A7"/>
<path d="M34.9996 30.7504C33.9833 30.7504 33.092 30.0999 32.782 29.1318C32.7377 28.9932 32.814 28.8449 32.9526 28.8005C33.0914 28.7561 33.2396 28.8324 33.284 28.9711C33.5238 29.72 34.2133 30.2233 34.9996 30.2233C35.7858 30.2233 36.4753 29.72 36.7151 28.9711C36.7596 28.8325 36.908 28.7561 37.0465 28.8005C37.1851 28.8449 37.2614 28.9932 37.2171 29.1318C36.9073 30.0999 36.0161 30.7504 34.9996 30.7504Z" fill="#EA535E"/>
<path d="M32.2844 26.7178L34.9999 25.5758L37.7155 26.7178H32.2844Z" fill="#E5CF98"/>
<path d="M29.5108 26.3418C28.2726 26.3418 27.2653 25.3344 27.2653 24.0963C27.2653 22.8581 28.2726 21.8507 29.5108 21.8507C30.749 21.8507 31.7564 22.8581 31.7564 24.0963C31.7563 25.3344 30.749 26.3418 29.5108 26.3418Z" fill="white"/>
<path d="M40.4888 26.3418C39.2507 26.3418 38.2433 25.3344 38.2433 24.0963C38.2433 22.8581 39.2507 21.8507 40.4888 21.8507C41.727 21.8507 42.7344 22.8581 42.7344 24.0963C42.7344 25.3344 41.727 26.3418 40.4888 26.3418Z" fill="white"/>
<path d="M30.2793 24.0962C29.8549 24.0962 29.5109 23.7521 29.5109 23.3278C29.5109 23.0626 29.6452 22.8287 29.8496 22.6906C29.7407 22.6645 29.6277 22.6492 29.5109 22.6492C28.7117 22.6492 28.0637 23.297 28.0637 24.0963C28.0637 24.8956 28.7117 25.5434 29.5109 25.5434C30.3101 25.5434 30.958 24.8956 30.958 24.0963C30.958 23.9795 30.9426 23.8664 30.9165 23.7576C30.7784 23.9619 30.5445 24.0962 30.2793 24.0962Z" fill="#4D4D4D"/>
<path d="M41.2572 24.0962C40.8328 24.0962 40.4888 23.7521 40.4888 23.3278C40.4888 23.0626 40.6231 22.8287 40.8275 22.6906C40.7186 22.6645 40.6056 22.6492 40.4888 22.6492C39.6896 22.6492 39.0416 23.297 39.0416 24.0963C39.0416 24.8956 39.6896 25.5434 40.4888 25.5434C41.288 25.5434 41.9359 24.8956 41.9359 24.0963C41.9359 23.9795 41.9205 23.8664 41.8944 23.7576C41.7563 23.9619 41.5225 24.0962 41.2572 24.0962Z" fill="#4D4D4D"/>
<path d="M40.6943 41.6451C44.9538 39.496 47.6403 35.1314 47.6403 30.3605V26.1575C47.6403 25.3288 46.7181 24.8332 46.0269 25.2904L43.9897 26.6381C42.0558 27.9175 39.6354 28.2205 37.4457 27.4573C35.8624 26.9055 34.139 26.9055 32.5557 27.4573C30.3661 28.2205 27.9457 27.9175 26.0117 26.6381L23.9745 25.2904C23.2834 24.8332 22.3612 25.3288 22.3612 26.1575V30.3605C22.3612 35.1314 25.0476 39.496 29.3072 41.6451C32.8878 43.4517 37.1135 43.4517 40.6943 41.6451Z" fill="#FBB03B"/>
<path d="M35.0007 28.826C33.3695 28.826 32.0471 30.1484 32.0471 31.7796C32.0471 32.2831 32.4552 32.6912 32.9587 32.6912H37.0426C37.546 32.6912 37.9542 32.2831 37.9542 31.7796C37.9542 30.1484 36.6319 28.826 35.0007 28.826Z" fill="#FCE7A7"/>
<path d="M35.0797 31.2735C34.7131 31.2735 34.3464 31.1881 33.9975 31.0175C33.8668 30.9535 33.8127 30.7957 33.8765 30.665C33.9406 30.5342 34.0983 30.4801 34.2291 30.5441C34.7857 30.8163 35.3739 30.8163 35.9303 30.5441C36.061 30.4801 36.2189 30.5342 36.2828 30.665C36.3469 30.7957 36.2927 30.9535 36.162 31.0175C35.813 31.1881 35.4463 31.2735 35.0797 31.2735Z" fill="#EA535E"/>
<path d="M46.2116 16.8451V17.5856H23.8611V16.6088C24.4459 14.7596 25.4663 13.1073 26.8016 11.7791L27.5868 13.9515L28.9933 10.0591C30.2262 9.3107 31.6066 8.78539 33.0807 8.53943L35.0364 13.9515L36.9886 8.55085C38.4741 8.80823 39.864 9.34935 41.1013 10.118L42.4869 13.9515L43.253 11.8318L43.2687 11.8476C44.6255 13.2215 45.6511 14.9318 46.2116 16.8451Z" fill="#E5CF98"/>
<path d="M23.7223 16.9415L21.7227 19.7709C21.1825 20.5353 21.079 21.5426 21.5052 22.3761C21.8451 23.0409 22.4728 23.5584 23.2816 23.7203C23.7751 23.819 24.2505 23.4842 24.3228 22.9861C24.5976 21.0934 25.4888 16.9415 28.0208 16.9415" fill="#E29A3B"/>
<path d="M46.3509 16.9415L48.3505 19.7709C48.8907 20.5353 48.9942 21.5426 48.568 22.3761C48.228 23.0409 47.6004 23.5584 46.7916 23.7203C46.2981 23.819 45.8227 23.4842 45.7504 22.9861C45.4756 21.0934 44.5844 16.9415 42.0524 16.9415" fill="#E29A3B"/>
<path d="M46.3142 16.845V16.9416H23.6857V16.6087C25.2115 11.8361 29.6836 8.38037 34.9639 8.38037C38.2335 8.38037 41.192 9.70593 43.3346 11.8476C44.7084 13.2214 45.7467 14.9318 46.3142 16.845Z" fill="#E29A3B"/>
<path d="M46.3143 3L42.5428 13.307L38.7714 3L34.9999 13.307L31.2284 3L27.457 13.307L23.6855 3V16.9415H46.3143V3Z" fill="#FCD983"/>
<path d="M32.1815 24.1426H26.9672C26.5306 24.1426 26.1766 23.7887 26.1766 23.352V22.2377C26.1766 21.8011 26.5306 21.4471 26.9672 21.4471H32.1815C32.6181 21.4471 32.9721 21.8011 32.9721 22.2377V23.352C32.9721 23.7887 32.6181 24.1426 32.1815 24.1426Z" fill="#E29A3B"/>
<path d="M43.0327 24.1426H37.8184C37.3818 24.1426 37.0278 23.7887 37.0278 23.352V22.2377C37.0278 21.8011 37.3818 21.4471 37.8184 21.4471H43.0327C43.4693 21.4471 43.8232 21.8011 43.8232 22.2377V23.352C43.8232 23.7887 43.4692 24.1426 43.0327 24.1426Z" fill="#E29A3B"/>
</g>
<defs>
<linearGradient id="paint0_linear_4_1987" x1="35" y1="0" x2="35" y2="60" gradientUnits="userSpaceOnUse">
<stop offset="0.165" stop-color="#FFACCF"/>
<stop offset="0.79" stop-color="#C04578"/>
</linearGradient>
<linearGradient id="paint1_linear_4_1987" x1="35" y1="44" x2="35" y2="60" gradientUnits="userSpaceOnUse">
<stop stop-color="#FC77AE"/>
<stop offset="1" stop-color="#AF0049"/>
</linearGradient>
<clipPath id="clip0_4_1987">
<rect width="40" height="40" fill="white" transform="translate(15 3)"/>
</clipPath>
</defs>
</svg>
