<svg width="146" height="76" viewBox="0 0 146 76" fill="none" xmlns="http://www.w3.org/2000/svg">
<path d="M37.8011 32.68C37.8011 30.79 38.2911 29.3667 39.2711 28.41C40.2511 27.4533 41.4178 26.975 42.7711 26.975C44.1478 26.975 46.0144 27.2083 48.3711 27.675C50.7278 28.1417 52.5011 28.3867 53.6911 28.41C55.6744 28.0367 57.5644 27.5817 59.3611 27.045C59.5478 27.6517 59.6411 28.41 59.6411 29.32C59.6411 31.21 59.0928 32.6333 57.9961 33.59C56.9228 34.5467 55.5461 35.025 53.8661 35.025C53.4461 35.025 52.8861 35.0017 52.1861 34.955C50.9028 41.6983 50.2611 45.4667 50.2611 46.26C50.2611 48.5233 50.6111 50.215 51.3111 51.335C49.9111 52.385 48.4528 52.91 46.9361 52.91C45.4194 52.91 44.3344 52.4783 43.6811 51.615C43.0278 50.7283 42.7011 49.4217 42.7011 47.695C42.7011 45.945 43.3778 41.3017 44.7311 33.765C42.0944 34.115 39.8778 34.5117 38.0811 34.955C37.8944 34.3717 37.8011 33.6133 37.8011 32.68ZM58.6865 41.29C58.6865 36.8567 59.9232 33.31 62.3965 30.65C64.8699 27.9667 68.2532 26.625 72.5465 26.625C73.9232 26.625 74.9032 26.905 75.4865 27.465C76.0932 28.0017 76.3965 28.8417 76.3965 29.985C76.3965 30.1483 76.3732 30.4633 76.3265 30.93C77.1899 30.23 78.1465 29.88 79.1965 29.88C80.6199 29.88 81.8332 30.5217 82.8365 31.805C83.8632 33.065 84.3765 34.8967 84.3765 37.3C84.3765 39.7033 83.9915 41.9083 83.2215 43.915C82.4515 45.9217 81.4249 47.5667 80.1415 48.85C78.8815 50.1333 77.4349 51.125 75.8015 51.825C74.1915 52.525 72.5232 52.875 70.7965 52.875C67.0632 52.875 64.1115 51.8133 61.9415 49.69C59.7715 47.5433 58.6865 44.7433 58.6865 41.29ZM76.1515 42.935C74.6582 41.115 73.9115 39.155 73.9115 37.055C73.9115 34.955 74.3782 33.2633 75.3115 31.98C74.8915 31.91 74.4715 31.875 74.0515 31.875C72.3949 31.875 70.9599 32.3767 69.7465 33.38C67.4599 35.2467 66.3165 37.8367 66.3165 41.15C66.3165 43.04 66.7365 44.615 67.5765 45.875C68.4165 47.135 69.5832 47.765 71.0765 47.765C72.2199 47.765 73.2582 47.3217 74.1915 46.435C75.1482 45.525 75.8015 44.3583 76.1515 42.935ZM94.436 44.335C94.296 45.175 94.226 45.8167 94.226 46.26C94.226 48.5233 94.576 50.215 95.276 51.335C93.876 52.385 92.4177 52.91 90.901 52.91C89.3844 52.91 88.2994 52.4783 87.646 51.615C86.9927 50.7283 86.666 49.4217 86.666 47.695C86.666 45.945 87.401 41.01 88.871 32.89L87.016 29.145C89.6527 27.4417 92.056 26.59 94.226 26.59C94.8327 26.59 95.4977 26.7067 96.221 26.94C96.9444 27.15 97.4577 27.395 97.761 27.675C99.4877 26.9983 101.086 26.66 102.556 26.66C104.749 26.66 106.476 27.43 107.736 28.97C109.019 30.4867 109.661 32.33 109.661 34.5C109.661 37.1133 108.716 39.4467 106.826 41.5C105.916 42.5033 104.691 43.3083 103.151 43.915C101.611 44.5217 100.036 44.825 98.426 44.825C96.8394 44.825 95.5094 44.6617 94.436 44.335ZM95.101 40.345C95.4277 40.415 95.766 40.45 96.116 40.45C97.6094 40.45 98.9394 39.925 100.106 38.875C101.273 37.825 101.856 36.53 101.856 34.99C101.856 33.9167 101.541 33.0067 100.911 32.26C100.304 31.5133 99.441 31.14 98.321 31.14C97.8544 31.14 97.3177 31.2333 96.711 31.42C96.2444 34.6167 95.7077 37.5917 95.101 40.345Z" fill="#B7499F"/>
<g filter="url(#filter0_d_62_119)">
<path d="M104.01 68H43.0512C23.7274 68 8.00006 58.2884 8.00006 46.3559V10.2951C8.00006 5.40161 11.6576 3.70772 13.8521 3.1431C16.0466 2.57847 20.5575 2.16441 26.1657 5.62746L41.9539 15.3767C42.5635 15.7531 43.5389 15.7531 44.0875 15.3767L65.9716 1.86327C69.9949 -0.621091 77.066 -0.621091 81.0283 1.86327L102.912 15.3767C103.522 15.7531 104.497 15.7531 105.046 15.3767L120.834 5.62746C126.442 2.16441 130.953 2.61611 133.148 3.1431C135.342 3.70772 139 5.36397 139 10.2951V46.3936C139.061 59.3047 124.979 68 104.01 68ZM17.5096 8.52588C17.0001 8.5 13.8521 9.39165 13.8521 10.2951V47.5C13.8521 56.3082 28.7869 63.5 43.0512 63.5H73.5001H104.01C119.737 63.5 133 57.7116 133 48L133.5 28V10.2951C133.5 8.5 130 8.5 129.5 8.5C129 8.5 127.536 8.86009 126.5 9.5L111 18C106.977 20.4844 102.912 20.5 98.0001 18.5L75.5001 5.5C74.8905 5.12358 72.5487 4.62358 72.0001 5L49.5001 18.5C45.0001 20.5 40.5001 19.5 36.5001 17.5L21.5001 8.52588C20.4638 7.88597 17.5001 8.5 17.5096 8.52588Z" fill="#9401B8"/>
</g>
<defs>
<filter id="filter0_d_62_119" x="4.00006" y="0" width="139" height="76" filterUnits="userSpaceOnUse" color-interpolation-filters="sRGB">
<feFlood flood-opacity="0" result="BackgroundImageFix"/>
<feColorMatrix in="SourceAlpha" type="matrix" values="0 0 0 0 0 0 0 0 0 0 0 0 0 0 0 0 0 0 127 0" result="hardAlpha"/>
<feOffset dy="4"/>
<feGaussianBlur stdDeviation="2"/>
<feComposite in2="hardAlpha" operator="out"/>
<feColorMatrix type="matrix" values="0 0 0 0 0.645023 0 0 0 0 0.0545564 0 0 0 0 0.741146 0 0 0 0.25 0"/>
<feBlend mode="normal" in2="BackgroundImageFix" result="effect1_dropShadow_62_119"/>
<feBlend mode="normal" in="SourceGraphic" in2="effect1_dropShadow_62_119" result="shape"/>
</filter>
</defs>
</svg>
